<svg xmlns="http://www.w3.org/2000/svg" xmlns:xlink="http://www.w3.org/1999/xlink" viewBox="0 0 564 562"><defs><style>.cls-1{isolation:isolate;}.cls-2{fill:#f4f7fa;}.cls-3{fill:url(#linear-gradient);}.cls-16,.cls-37,.cls-4{fill:#fff;}.cls-37,.cls-4{opacity:0.5;}.cls-4{mix-blend-mode:soft-light;}.cls-5{fill:url(#linear-gradient-2);}.cls-6{fill:url(#linear-gradient-3);}.cls-7{fill:#26264f;}.cls-8{fill:url(#linear-gradient-4);}.cls-26,.cls-9{fill:#d8dee8;}.cls-9{opacity:0.3;}.cls-13,.cls-18,.cls-19,.cls-9{mix-blend-mode:multiply;}.cls-10{fill:url(#linear-gradient-5);}.cls-11{fill:url(#linear-gradient-6);}.cls-12{fill:url(#linear-gradient-7);}.cls-13{opacity:0.6;fill:url(#linear-gradient-8);}.cls-14{fill:url(#linear-gradient-9);}.cls-15{fill:url(#linear-gradient-10);}.cls-17{fill:url(#linear-gradient-11);}.cls-18,.cls-19{opacity:0.15;}.cls-18{fill:url(#linear-gradient-12);}.cls-20{fill:url(#linear-gradient-13);}.cls-21{fill:url(#linear-gradient-14);}.cls-22{fill:url(#linear-gradient-15);}.cls-23{fill:url(#linear-gradient-16);}.cls-24{fill:url(#linear-gradient-17);}.cls-25{fill:url(#linear-gradient-18);}.cls-27{fill:url(#linear-gradient-19);}.cls-28{fill:url(#linear-gradient-20);}.cls-29{opacity:0.2;}.cls-30{fill:url(#linear-gradient-21);}.cls-31{fill:url(#linear-gradient-22);}.cls-32{fill:url(#linear-gradient-23);}.cls-33{fill:url(#linear-gradient-24);}.cls-34{fill:url(#linear-gradient-25);}.cls-35{fill:url(#linear-gradient-26);}.cls-36{fill:url(#linear-gradient-27);}.cls-37{mix-blend-mode:overlay;}.cls-38{fill:url(#linear-gradient-28);}</style><linearGradient id="linear-gradient" x1="189.41" y1="160.7" x2="354.6" y2="160.7" gradientUnits="userSpaceOnUse"><stop offset="0" stop-color="#ff9085"/><stop offset="1" stop-color="#fb6fbb"/></linearGradient><linearGradient id="linear-gradient-2" x1="122.51" y1="29.67" x2="205.02" y2="400.17" gradientUnits="userSpaceOnUse"><stop offset="0" stop-color="#ffc444"/><stop offset="1" stop-color="#f36f56"/></linearGradient><linearGradient id="linear-gradient-3" x1="396.73" y1="247.74" x2="550.16" y2="173.53" gradientTransform="translate(-425.1 -103.39) rotate(4.36)" gradientUnits="userSpaceOnUse"><stop offset="0" stop-color="#311944"/><stop offset="1" stop-color="#893976"/></linearGradient><linearGradient id="linear-gradient-4" x1="653.43" y1="306.27" x2="496.14" y2="642.99" gradientTransform="translate(-425.1 -103.39) rotate(4.36)" gradientUnits="userSpaceOnUse"><stop offset="0" stop-color="#aa80f9"/><stop offset="1" stop-color="#6165d7"/></linearGradient><linearGradient id="linear-gradient-5" x1="479.37" y1="262.84" x2="587.77" y2="335.82" xlink:href="#linear-gradient-3"/><linearGradient id="linear-gradient-6" x1="2002.82" y1="250.12" x2="1958.54" y2="274.59" gradientTransform="matrix(-0.96, -0.07, -0.08, 1, 1948.55, 78.22)" xlink:href="#linear-gradient-3"/><linearGradient id="linear-gradient-7" x1="686.75" y1="80.69" x2="537.34" y2="190.88" gradientTransform="matrix(0.97, 0.07, -0.08, 1, -392.53, -101.02)" xlink:href="#linear-gradient-3"/><linearGradient id="linear-gradient-8" x1="453.97" y1="201.12" x2="629.06" y2="201.12" gradientTransform="matrix(0.97, 0.07, -0.08, 1, -392.53, -101.02)" xlink:href="#linear-gradient-3"/><linearGradient id="linear-gradient-9" x1="47.84" y1="139.97" x2="-30.86" y2="94.92" gradientTransform="translate(0.6 -0.03) rotate(0.3)" gradientUnits="userSpaceOnUse"><stop offset="0" stop-color="#444b8c"/><stop offset="1" stop-color="#26264f"/></linearGradient><linearGradient id="linear-gradient-10" x1="-273.23" y1="203.88" x2="-246.71" y2="366.06" gradientTransform="translate(399.66 -98.37) rotate(-11.19)" xlink:href="#linear-gradient-2"/><linearGradient id="linear-gradient-11" x1="472.54" y1="227.53" x2="421.88" y2="155.76" gradientTransform="matrix(1, 0, 0, 1, 0, 0)" xlink:href="#linear-gradient-9"/><linearGradient id="linear-gradient-12" x1="183.82" y1="168.18" x2="321.09" y2="168.18" gradientTransform="matrix(1, 0, 0, 1, 0, 0)" xlink:href="#linear-gradient-4"/><linearGradient id="linear-gradient-13" x1="417.88" y1="75.52" x2="459.69" y2="331.19" gradientTransform="matrix(1, 0, 0, 1, 0, 0)" xlink:href="#linear-gradient-4"/><linearGradient id="linear-gradient-14" x1="348.33" y1="84.68" x2="393.03" y2="19.8" xlink:href="#linear-gradient-2"/><linearGradient id="linear-gradient-15" x1="344.28" y1="51.78" x2="414.93" y2="9.24" xlink:href="#linear-gradient-2"/><linearGradient id="linear-gradient-16" x1="276.86" y1="220.95" x2="397.11" y2="220.95" gradientTransform="matrix(1, 0, 0, 1, 0, 0)" xlink:href="#linear-gradient-4"/><linearGradient id="linear-gradient-17" x1="376.35" y1="197.17" x2="399.95" y2="237.67" xlink:href="#linear-gradient-2"/><linearGradient id="linear-gradient-18" x1="-190.68" y1="524.91" x2="245.84" y2="524.91" gradientTransform="matrix(1, 0, 0, 1, 0, 0)" xlink:href="#linear-gradient-3"/><linearGradient id="linear-gradient-19" x1="-54.23" y1="418.8" x2="203.44" y2="445.06" xlink:href="#linear-gradient-2"/><linearGradient id="linear-gradient-20" x1="331.02" y1="366.35" x2="335.13" y2="725" xlink:href="#linear-gradient-2"/><linearGradient id="linear-gradient-21" x1="324.07" y1="401.61" x2="295.32" y2="298.94" gradientTransform="matrix(1, 0, 0, 1, 0, 0)" xlink:href="#linear-gradient-3"/><linearGradient id="linear-gradient-22" x1="278.73" y1="385.53" x2="139.92" y2="664.8" gradientTransform="matrix(1, 0, 0, 1, 0, 0)" xlink:href="#linear-gradient-3"/><linearGradient id="linear-gradient-23" x1="256.49" y1="311.48" x2="18.75" y2="396.81" gradientTransform="matrix(1, 0, 0, 1, 0, 0)" xlink:href="#linear-gradient-3"/><linearGradient id="linear-gradient-24" x1="428.51" y1="346.48" x2="428.51" y2="557.21" gradientUnits="userSpaceOnUse"><stop offset="0" stop-color="#e38ddd"/><stop offset="1" stop-color="#9571f6"/></linearGradient><linearGradient id="linear-gradient-25" x1="346.67" y1="346.48" x2="346.67" y2="557.21" xlink:href="#linear-gradient-24"/><linearGradient id="linear-gradient-26" x1="388.31" y1="346.48" x2="388.31" y2="557.21" xlink:href="#linear-gradient-24"/><linearGradient id="linear-gradient-27" x1="518.69" y1="123.03" x2="504.09" y2="324.08" xlink:href="#linear-gradient-24"/><linearGradient id="linear-gradient-28" x1="494.69" y1="227.61" x2="487.39" y2="328.13" xlink:href="#linear-gradient-24"/></defs><g class="cls-1"><g id="Réteg_1" data-name="Réteg 1"><path class="cls-2" d="M136.42,32.41C117.32,59.14,138.93,103,110.79,123c-27.39,19.42-60.44-13.24-86.23,3.46C-13.71,151.21-8,266.46,46.83,338.61c16.48,21.7,30.35,30.22,36.28,54.62,12.72,52.41-34.27,83-25.66,109C76.83,560.59,383.81,612.66,509,439c58.48-81.08,68.35-199,17.8-289.1C435.51-12.93,179.28-27.56,136.42,32.41Z"/><path class="cls-3" d="M291.71,313.35c34.82,1.25,79.22-84.83,56.85-129.67-7.36-14.75-17.48-16.08-25.38-35.49-12.22-30,3.42-48-1.82-71.73C310.83,28.67,223.62-7.23,199,14.54c-18.51,16.35-8.63,71.31,16.62,105.71,19.13,26.07,40.9,31.9,43.56,55.72,2.29,20.41-12.51,26.69-16.07,50.23C237.32,264.22,266.15,312.44,291.71,313.35Z"/><path class="cls-4" d="M290.19,300.77a2.43,2.43,0,0,1-.83-.15,2.51,2.51,0,0,1-1.54-3.21c54.67-154.69-24.76-226.47-25.58-227.15a2.52,2.52,0,1,1,3.23-3.87c.22.19,22.56,19.65,36.29,61.31,7.26,22,10.71,46.14,10.25,71.59-.57,31.34-7.11,64.92-19.44,99.8A2.53,2.53,0,0,1,290.19,300.77Z"/><path class="cls-5" d="M270.91,321.46c12.8-8.31-13.9-43.31-14.1-114.47-.12-42.43,9.28-59.75-4.94-83.82-9.7-16.41-30.13-35.55-52-34.59-17.69.78-22.93,14.13-35.23,11.24-17-4-15.07-31.21-33.22-55.07C110.21,16.85,65.79-.86,43.18,12.65c-29.61,17.7-28.42,92.88,5.11,122.89C71.13,156,101.55,148.85,110.06,170c7.36,18.27-12.83,30.09-7.51,50.67,5.93,22.91,35.13,24.52,84.4,50.83C243,301.39,260,328.56,270.91,321.46Z"/><path class="cls-4" d="M268.16,318.53a2.6,2.6,0,0,1-2.12-1.1c-.34-.48-34.59-49.06-83.92-130-50.6-83.06-90-107.77-91.45-108.62a2.6,2.6,0,0,1,1.1-5.06c2.34.34,14.38,9,30,25.06,15.08,15.47,38.55,42.93,64.74,85.92,49.24,80.83,83.39,129.26,83.73,129.74a2.6,2.6,0,0,1-2.12,4.1ZM91,78.85h0Z"/><path class="cls-6" d="M23.13,87.35c-4.1,6.88-4.92,17.47-5.68,27.14-.87,11.24-2.06,26.51,2.2,36.52,3.93,9.24,6.83,7.72,13.19,9.47,12.51,3.46,87.35,15.62,103.2,2.64,15.61-12.79,21.05-38,10.84-57.51-6.3-12-21.25-28.89-99.18-27.84C30.52,78,26.55,81.59,23.13,87.35Z"/><path class="cls-7" d="M27.94,123.18a10.3,10.3,0,0,1-12.63,9.2l-8.32-2-.14-27.73,9.83-1.86a10.27,10.27,0,0,1,12.16,10.9Z"/><path class="cls-8" d="M101.76,154.93S92,218.78,64.72,255C13.37,323.38,25.59,420.18,25.65,478.15a27.71,27.71,0,0,0,22.9,27.75c25.92,4.78,95.81,8.57,156.66-3.52,13.65-2.71,24.41-14.87,25.72-29.08,5-54.8-16.17-173.26-62.62-220.95-15.41-15.84-21-26.87-18.49-86.43Z"/><path class="cls-9" d="M194,458.77c-22.74-63-104.51-51.22-120-95.88-15.35-44.39,56.73-79.76,58.17-157.48a136.88,136.88,0,0,0-7-45.11l-23.47-5.37S92,218.78,64.72,255C13.37,323.38,25.59,420.18,25.65,478.15a27.71,27.71,0,0,0,22.9,27.75c25.92,4.78,95.81,8.57,156.66-3.52a31.58,31.58,0,0,0,16.29-8.95,33.27,33.27,0,0,1-16-8.27C197.94,477.89,198.24,470.53,194,458.77Z"/><path class="cls-10" d="M10,254C45.08,212.08,38.37,138,38.37,138L79.1,151.81c-8.85,74.67-42.9,102.93-60.79,110.11C16,262.84,8.34,255.9,10,254Z"/><path class="cls-11" d="M16.54,258.23C51.67,216.33,54.8,143,54.8,143l30.89,13c-8.86,74.67-48.63,98.85-66.52,106A2.42,2.42,0,0,1,16.54,258.23Z"/><path class="cls-12" d="M40.73,85.93c-4.64,7.54-5.54,19-6.35,29.42C33.44,127.49,32.15,144,37,155c4.56,10.25,9.28,5.26,65.73,18.5,34.67,8.13,62.3,16,84.84,1.31a51.09,51.09,0,0,0,14.91-70.61c-9.52-14.67-28.86-28-132.4-26.11C49.58,78.44,44.65,79.58,40.73,85.93Z"/><path class="cls-13" d="M156.21,149.5c-39.14-12.29-43.62-25.45-67.49-29.91-25.21-4.71-34.17,11.39-42.65,5-4.09-3.07-7.65-11.15-8.38-31.74-2.07,6.68-2.71,14.86-3.31,22.5C33.44,127.49,32.15,144,37,155c4.56,10.25,9.28,5.26,65.73,18.5,34.67,8.13,62.3,16,84.84,1.31A49.38,49.38,0,0,0,202,160.35,364.38,364.38,0,0,1,156.21,149.5Z"/><ellipse class="cls-14" cx="6.92" cy="116.55" rx="6.36" ry="13.86" transform="translate(-0.6 0.04) rotate(-0.3)"/><path class="cls-15" d="M192,164s-2.54-10-6.77-12.6-10.21-5.44-11.58-6.6-3,2.3,1,4.94l3.94,2.65a3.82,3.82,0,0,1-.16,1.69c-.62,1.87-2.76,3.16-5.39,3.4-10.13,2.12-14.09,2.22-15.64,1.77-.22-.07-1.11-.35-1.48,0-.59.63.48,2.61.94,3.31,2.74,4.18,12.25,6,19.37,2.73,2.6-1.19,3.6-2.48,5.5-2.15,3,.51,4.86,4.48,6,7.77Z"/><path class="cls-16" d="M183.82,167.12l8.65-7.68c1.06,1.06,16.46,16.08,38,11.53,14.82-3.14,23.37-15.3,28.84-23.06,16.45-23.33,6.61-40.44,24.32-56.28,4.92-4.4,14.56-9.73,20.87-8.11,15,3.87,23.68,49,9.13,84.57-2.93,7.17-19.09,46.65-55.76,50.93C228.25,222.47,196.85,201.62,183.82,167.12Z"/><path class="cls-17" d="M357.51,98.66c-6.29-5.81-18.33-12.51-24.37-28.09-1.82-4.69-8.25-21.31,1.24-34C340,29,350.49,23.89,359.72,25.7c7.89,1.55,9.12,7,22.52,18.09,5.22,4.3,13.61,11.22,22.94,15.06,16,6.58,25.59.39,41.64,1.09,19.72.87,42.63,11.87,53.67,27.87,19.59,28.39-8.79,57.19,12.67,90.45,7,10.89,10.49,8.45,27.14,29.54s25,31.68,23.53,44.62c-2.06,18-21.41,35.12-39.64,36.28-17.8,1.14-29.12-12.86-38.18-6.73-6.45,4.36-2.76,12.83-9.62,23-8.83,13.13-26.19,15.75-29,16.17-26,3.93-61.11-26.57-76-62.71C344.51,193.29,391.72,130.27,357.51,98.66Z"/><path class="cls-18" d="M301.12,126.76c-27.1,21.4-24.09,62.43-40.75,64.51-5.08.63-4.8-3.26-16.94-7.21-17.75-5.77-26.09.06-38.58-4.32-5.17-1.82-11.9-5.69-18.52-14.84l-2.51,2.22c13,34.5,44.43,55.35,74,51.9,36.67-4.28,52.83-43.76,55.76-50.93,6.83-16.67,8.54-35.47,6.89-51.12A56.63,56.63,0,0,0,301.12,126.76Z"/><path class="cls-16" d="M281.46,94.33c1.66-2.58,6.94-9.72,29.34-15,11.23-2.64,32-7.16,58.71-1.5,36.69,7.77,59.54,29.77,68.14,39-7,4.59-26.48,18.57-36.1,45.11-3,8.25-11.84,36.47.81,62.91,7.29,15.23,20.19,26.67,30,35.35,14.69,13,22.3,15,27.23,26.7,5.36,12.71,0,18.91,6.62,27.61,7.15,9.34,15.53,5,27.66,14.45,12.42,9.68,8,17.64,19.31,28.34,16.42,15.54,38.2,10.49,39.21,17.49.87,6-14.6,14.17-27.75,17.48-26,6.56-48.75-4.44-55.5-7.83-18.7-9.39-15.47-15.47-29.73-22.63-23.87-12-40.18,1.35-94.55,2.73-29.44.74-44.33.91-52.49-9.05-7.44-9.09-3.53-19.07.94-62.06h0c1.44-14.36,4.45-44.42,4.46-61.55,0-10.13-3.5-26.67-10.52-59.75-.42-1.95-4.22-19.82-7.29-43.7C277.17,107,277.57,100.37,281.46,94.33Z"/><g class="cls-19"><path class="cls-20" d="M513.16,357.34c-11.31-10.7-6.89-18.66-19.31-28.34-12.13-9.45-20.51-5.11-27.66-14.45-6.66-8.7-1.26-14.9-6.62-27.61-4.93-11.67-12.54-13.67-27.23-26.7-9.79-8.68-22.69-20.12-30-35.35-12.65-26.44-3.81-54.66-.81-62.91,9.62-26.54,29.06-40.52,36.1-45.11-.68-.73-1.48-1.56-2.33-2.44-46.4,6.38-73.46,33.18-76.81,41.11-7.73,18.35,4.51,25.09,4.83,78,.15,25.29-2.58,35.27,5.63,45.83,9.39,12.07,20.21,8.33,33.78,24.12,10.44,12.12,8.77,19.81,18.51,24.92,10.47,5.49,17.14-.91,28.95,1.61,19.74,4.2,24,26.95,37,39.39,9.87,9.41,28.11,16,64.09,8.93a5,5,0,0,0,1.07-3.5C551.35,367.83,529.58,372.88,513.16,357.34Z"/></g><path class="cls-21" d="M354.45,49.18s2.34,18.69,9.24,23S381.76,82,383,83.56,340.21,89.8,318.4,78.8h0c7.19-1.49,9.15-2,9.15-2a40.25,40.25,0,0,0,9.23-3.65,31.33,31.33,0,0,0,10.16-9.39l-.08-10.35Z"/><path class="cls-22" d="M355.5,55.8S351,62,343.93,59.4c-6.32-2.3-2.55-18.62,2.47-20.49a8.89,8.89,0,0,1,6.8.94c1.44.9,5.3,5.69,3.09,11,1.59-.46,3,0,3.35.75.45,1-.91,2.37-1.21,2.68A5.38,5.38,0,0,1,355.5,55.8Z"/><path class="cls-23" d="M297.83,83.22,308.14,80s-4.14,15.47-6.65,29.14a9.66,9.66,0,0,0,8.32,11.33l36.09,4.44a14.87,14.87,0,0,0,13.52-5.57l28.43-36.12L396.73,87S357.68,134,358.51,155.54c.45,11.54.77,23.61,1,32.33A12.38,12.38,0,0,0,372.33,200l23.55-.9,1.23,10.22-15.81,2.05c-3.1.62-8.41,2.18-12.17,6.69-3.52,4.22-4.25,9.33-4.38,13.17-.82,24.82,20.65,89.89,6,113.33-14.3,22.89-73.89,23.47-90.07,0-12.36-17.94,9-37.81,11.86-106.45.82-19.52,0-40.38-.19-46-1.31-34.61-4.54-49.9-1.44-75.56A200.73,200.73,0,0,1,297.83,83.22Z"/><path class="cls-24" d="M401.24,207.71s-20.06-7.27-23-7.27-13.57,6.48-14.36,7.27,8.46.59,11.8,1.18S394.35,219.9,401.24,207.71Z"/><path class="cls-16" d="M413.07,96.11s57.59,38,63.09,74.81-74.92,42.68-74.92,42.68l-5.06-11s32.79-20.48,33.57-24.41-54.32-44-54.32-44Z"/><polygon class="cls-25" points="492.36 540.66 492.36 488.43 55.84 487.83 55.84 539.61 150.62 562 492.36 540.66"/><polygon class="cls-26" points="491.39 368.88 491.39 375.41 520.46 375.67 514.02 368.96 491.39 368.88"/><polygon class="cls-27" points="149.68 509.23 55.84 489.05 55.84 369.03 149.68 369.93 149.68 509.23"/><path class="cls-28" d="M514,368.64l-21.66.42V489.68l-217.49,12.4-90.09,5.14-35.1,2V369.93l151-43,90-86.86Zm-61.7,110.42V359.56l-132.57-.22V485.87l132.57-6.81Z"/><g class="cls-29"><polygon class="cls-26" points="516.2 369.1 394.13 241.26 390.39 237.34 386.68 240.9 297.19 326.88 147.32 369.08 126.76 374.86 126.76 378.03 149.68 378.03 149.68 375.98 300.16 333.61 390.69 246.77 507.63 369.1 516.2 369.1"/></g><polygon class="cls-16" points="390.39 230.65 394.13 234.57 517.67 363.83 520.87 367.17 520.87 375.63 520.46 375.67 514.06 369 390.69 240.08 300.16 326.93 150.97 371.13 126.76 377.84 126.76 368.18 147.32 362.39 297.19 320.2 386.68 234.22 390.39 230.65"/><path class="cls-16" d="M451,361.23V477.47L321.25,484V361.1Zm-6.89,105.16V368.8l-31.18.08v98.93l31.18-1.42Zm-39.64,1.81V368.9l-32.29.08V469.67l32.29-1.47Zm-41.06,1.87V369l-33.45.08V471.59l33.45-1.52Z"/><path class="cls-16" d="M319.23,486.16V359.07L453,359.2V479.4Zm4-123V481.9L449,475.54V363.25Zm4.63,110.58V367.06l37.5-.09V472Zm4-102.61v98.37l29.4-1.34V371Zm38.18,100.69V367l36.33-.09V470.13ZM374.19,371v96.55l28.23-1.29V370.93Zm36.7,98.93V366.86l35.23-.09V468.33Zm4.05-99v94.79l27.12-1.23V370.84Z"/><polygon class="cls-30" points="390.39 230.65 386.68 234.22 297.19 320.2 188.68 325.88 270.3 250.64 273.7 247.51 390.39 230.65"/><polygon class="cls-2" points="212.96 431.37 264.95 430.69 264.93 532.29 214.91 537.54 212.96 431.37"/><polygon class="cls-31" points="196.95 537.92 196.95 427.08 266.36 426.38 266.36 533.4 196.95 537.92"/><polygon class="cls-16" points="184.78 537.54 184.78 419.2 274.72 418.29 274.72 531.74 260.82 532.9 260.82 431.51 202.49 432.73 202.49 536.72 184.78 537.54"/><polygon class="cls-32" points="297.19 320.2 147.31 362.39 126.76 368.18 35.4 367.51 53.73 362.53 188.68 325.88 297.19 320.2"/><polygon class="cls-16" points="126.76 377.84 35.4 375.83 35.4 367.51 126.76 368.18 126.76 377.84"/><polygon class="cls-33" points="443.49 369.55 443.49 465.68 413.54 467.03 413.54 369.63 443.49 369.55"/><polygon class="cls-34" points="362.74 369.77 362.74 469.33 330.6 470.78 330.6 369.86 362.74 369.77"/><polygon class="cls-35" points="403.82 369.66 403.82 467.47 372.8 468.87 372.8 369.74 403.82 369.66"/><ellipse class="cls-36" cx="514.02" cy="187.3" rx="38.21" ry="38.19"/><ellipse class="cls-37" cx="514.02" cy="180.72" rx="26" ry="25.99"/><ellipse class="cls-38" cx="492.36" cy="259.74" rx="19.1" ry="19.09"/><ellipse class="cls-37" cx="492.36" cy="256.45" rx="13" ry="12.99" transform="translate(-0.28 0.53) rotate(-0.06)"/></g></g></svg>