<svg xmlns="http://www.w3.org/2000/svg" xmlns:xlink="http://www.w3.org/1999/xlink" viewBox="0 0 566 562"><defs><style>.cls-1{fill:none;}.cls-2{isolation:isolate;}.cls-3{fill:#f4f7fa;}.cls-4{fill:url(#linear-gradient);}.cls-5{clip-path:url(#clip-path);}.cls-19,.cls-6{opacity:0.5;}.cls-6{mix-blend-mode:soft-light;}.cls-7{fill:#fcfdfe;}.cls-8{clip-path:url(#clip-path-2);}.cls-9{fill:url(#linear-gradient-2);}.cls-10{fill:#beb8f2;}.cls-11{fill:url(#linear-gradient-3);}.cls-12{clip-path:url(#clip-path-3);}.cls-13{fill:url(#linear-gradient-4);}.cls-14{fill:url(#linear-gradient-5);}.cls-15{fill:url(#linear-gradient-6);}.cls-16{fill:#de8bdf;}.cls-17{fill:#c281e8;}.cls-18,.cls-19{fill:#d8dee8;}.cls-19,.cls-23,.cls-28,.cls-32{mix-blend-mode:multiply;}.cls-20{fill:url(#linear-gradient-7);}.cls-21{fill:url(#linear-gradient-8);}.cls-22{fill:url(#linear-gradient-9);}.cls-23,.cls-28,.cls-32{opacity:0.3;}.cls-23{fill:url(#linear-gradient-10);}.cls-24{fill:url(#linear-gradient-11);}.cls-25{fill:url(#linear-gradient-12);}.cls-26{fill:url(#linear-gradient-13);}.cls-27{fill:url(#linear-gradient-14);}.cls-28{fill:url(#linear-gradient-15);}.cls-29{fill:url(#linear-gradient-16);}.cls-30{fill:url(#linear-gradient-17);}.cls-31{fill:url(#linear-gradient-18);}.cls-32{fill:url(#linear-gradient-19);}.cls-33{fill:url(#linear-gradient-20);}.cls-34{fill:url(#linear-gradient-21);}.cls-35{fill:url(#linear-gradient-22);}.cls-36{fill:url(#linear-gradient-23);}</style><linearGradient id="linear-gradient" x1="-311.01" y1="44.25" x2="-192.53" y2="355.54" gradientTransform="translate(370.96 -9.84) rotate(-3.74)" gradientUnits="userSpaceOnUse"><stop offset="0" stop-color="#aa80f9"/><stop offset="1" stop-color="#6165d7"/></linearGradient><clipPath id="clip-path"><path class="cls-1" d="M144.06,324.25l38.23-9.84s9.84-28.62-4.29-36.24-8.72-35.11-7.53-50.1c3.21-40.66-40.76-37-40.81-89.54,0-14,4.64-40.66-7.16-51.8C109.06,74,99.25,86.49,90.61,75.87,77.1,59.29,55.17,53.34,42.11,70.41c-12.9,16.84,2.77,50.38,41.73,77.33C109.59,170.25,110,177,108,193.39c-1.42,11.49-12.39,41.42,3.22,53.37s27.53,24.87,21.52,37.85C123.56,304.35,144.06,324.25,144.06,324.25Z"/></clipPath><clipPath id="clip-path-2"><path class="cls-1" d="M194.78,382.94l-45.61,14.29s-15.91-20.69-9.91-40.69c12.24-40.8-24.37-48.67-39.21-54.25-22.39-8.43-38.43-25.61-14.77-42.69s-15.73-49.7-53.84-58.1c-37.29-8.22-44.18-79.22,38.17-68.83,49.18,6.21,56.74,53.89,66.28,77.06s45.62,14,42.61,46.94c-2.57,28.1-16.57,52.39,3.81,64.77S210.27,352.5,194.78,382.94Z"/></clipPath><linearGradient id="linear-gradient-2" x1="1956.84" y1="232.78" x2="1861.74" y2="503.06" gradientTransform="matrix(-0.95, 0.3, 0.3, 0.95, 1828.53, -664.46)" gradientUnits="userSpaceOnUse"><stop offset="0" stop-color="#e38ddd"/><stop offset="1" stop-color="#9571f6"/></linearGradient><linearGradient id="linear-gradient-3" x1="2668.28" y1="27.51" x2="2768.91" y2="193.16" gradientTransform="translate(-2575.62 154.56) rotate(1.3)" gradientUnits="userSpaceOnUse"><stop offset="0" stop-color="#ffc444"/><stop offset="1" stop-color="#f36f56"/></linearGradient><clipPath id="clip-path-3"><path class="cls-1" d="M150.27,407.61l44.46,1c2.73-6.23,6.3-17.76-2.93-20.83-12.85-4.27-12.46-27.06-8.66-35,4.7-9.84,15.18-33-4.57-39.89-16.44-5.76-28.23-6.11-28.74-27.51S138.06,250.3,118.64,251c-20.44.71-36.34-26.93-53.33-18.37-29.61,14.93-4.67,62.81,30.33,77.53s14.3,26.85,12.81,44.3c-2,23.83,30.41,19.71,38.65,29.35C153.56,391.34,152,401.45,150.27,407.61Z"/></clipPath><linearGradient id="linear-gradient-4" x1="446.07" y1="441.91" x2="222.16" y2="250.91" gradientUnits="userSpaceOnUse"><stop offset="0" stop-color="#444b8c"/><stop offset="1" stop-color="#26264f"/></linearGradient><linearGradient id="linear-gradient-5" x1="-1920.3" y1="1646.12" x2="-1095.38" y2="1676.81" gradientTransform="translate(-1387.03 -1411.68) rotate(-90)" xlink:href="#linear-gradient-4"/><linearGradient id="linear-gradient-6" x1="145.06" y1="286.8" x2="391.11" y2="286.8" gradientUnits="userSpaceOnUse"><stop offset="0" stop-color="#ff9085"/><stop offset="1" stop-color="#fb6fbb"/></linearGradient><linearGradient id="linear-gradient-7" x1="367.1" y1="333.97" x2="473.14" y2="333.97" gradientTransform="matrix(-1, 0, 0, 1, 883.96, 0)" gradientUnits="userSpaceOnUse"><stop offset="0" stop-color="#444b8c"/><stop offset="1" stop-color="#3e4177"/></linearGradient><linearGradient id="linear-gradient-8" x1="454.08" y1="431.57" x2="470.15" y2="526.51" xlink:href="#linear-gradient-4"/><linearGradient id="linear-gradient-9" x1="439.46" y1="447.8" x2="425.62" y2="534.41" gradientTransform="matrix(-1, 0, 0, 1, 883.96, 0)" gradientUnits="userSpaceOnUse"><stop offset="0" stop-color="#311944"/><stop offset="1" stop-color="#a03976"/></linearGradient><linearGradient id="linear-gradient-10" x1="367.1" y1="333.98" x2="473.14" y2="333.98" xlink:href="#linear-gradient-7"/><linearGradient id="linear-gradient-11" x1="425.86" y1="379.49" x2="516.53" y2="379.49" xlink:href="#linear-gradient-7"/><linearGradient id="linear-gradient-12" x1="484.3" y1="74.72" x2="418.53" y2="308.9" gradientTransform="matrix(-1, 0, 0, 1, 883.96, 0)" xlink:href="#linear-gradient-3"/><linearGradient id="linear-gradient-13" x1="378.76" y1="189.39" x2="390.18" y2="226.47" gradientTransform="matrix(-1, 0, 0, 1, 883.96, 0)" xlink:href="#linear-gradient-3"/><linearGradient id="linear-gradient-14" x1="418.23" y1="162.28" x2="434.32" y2="189.44" gradientTransform="matrix(1, 0, 0, 1, 0, 0)" xlink:href="#linear-gradient-9"/><linearGradient id="linear-gradient-15" x1="521.9" y1="85.27" x2="456.14" y2="319.46" gradientTransform="matrix(-1, 0, 0, 1, 883.96, 0)" xlink:href="#linear-gradient-3"/><linearGradient id="linear-gradient-16" x1="409.86" y1="197.84" x2="249.9" y2="66.36" gradientUnits="userSpaceOnUse"><stop offset="0" stop-color="#ffc444"/><stop offset="0.26" stop-color="#ffc145"/><stop offset="0.46" stop-color="#fdb747"/><stop offset="0.65" stop-color="#fba64a"/><stop offset="0.82" stop-color="#f78f4f"/><stop offset="0.99" stop-color="#f37056"/><stop offset="1" stop-color="#f36f56"/></linearGradient><linearGradient id="linear-gradient-17" x1="511.03" y1="196.57" x2="453.4" y2="153.15" xlink:href="#linear-gradient-4"/><linearGradient id="linear-gradient-18" x1="398.99" y1="153.9" x2="426.4" y2="203.32" gradientTransform="matrix(-1, 0, 0, 1, 883.96, 0)" xlink:href="#linear-gradient-4"/><linearGradient id="linear-gradient-19" x1="449.84" y1="139.22" x2="492.5" y2="242.5" xlink:href="#linear-gradient-4"/><linearGradient id="linear-gradient-20" x1="464.17" y1="53.42" x2="456.55" y2="118.38" xlink:href="#linear-gradient-9"/><linearGradient id="linear-gradient-21" x1="393.29" y1="183.09" x2="411.63" y2="183.09" xlink:href="#linear-gradient-9"/><linearGradient id="linear-gradient-22" x1="452.25" y1="51.12" x2="442.06" y2="81.41" xlink:href="#linear-gradient-4"/><linearGradient id="linear-gradient-23" x1="457.28" y1="62.2" x2="450.06" y2="80.25" xlink:href="#linear-gradient-9"/></defs><g class="cls-2"><g id="Réteg_1" data-name="Réteg 1"><path class="cls-3" d="M497.9,483.34c-14.73,15.17-27.91,24.09-38,30.83-98.43,65.67-210.95,46.74-245.73,40.27C158,544,110.65,536.64,70,499.89c-92.5-83.51-88-257.72-17.32-365.63,8.38-12.8,79-117.34,191.71-132.07,2.76-.36,4.82-.56,6.62-.75C268.4-.41,376.5-10.15,464.64,63.64a263,263,0,0,1,51.75,58.68C585.24,228.58,585.46,393.15,497.9,483.34Z"/><path class="cls-4" d="M132.71,284.61c-5.26,11.35-.25,22.7,4.56,30.34a11.8,11.8,0,0,1,3,.61c10.46,2.54,15.37,1.25,26,2,2.29.16,9.09-1.54,11.82-2.43l5.07-1.75s9-27.61-5.14-35.23-8.72-35.11-7.53-50.1c3.21-40.66-40.76-37-40.81-89.54,0-14,4.64-40.66-7.16-51.8C109.06,74,99.25,86.49,90.61,75.87,77.1,59.29,55.17,53.34,42.11,70.41c-12.9,16.84,2.77,50.38,41.73,77.33C109.59,170.25,110,177,108,193.39c-1.42,11.49-12.39,41.42,3.22,53.37S138.72,271.63,132.71,284.61Z"/><g class="cls-5"><g class="cls-6"><path class="cls-7" d="M160.71,318l.78-.1c-.58-4.62-1.21-9.28-1.9-13.84a490.13,490.13,0,0,0-23.86-95.29A394.75,394.75,0,0,0,102.36,139,329.78,329.78,0,0,0,67.67,91.9,262.81,262.81,0,0,0,40.44,65.23c-1.61-1.36-3.34-2.65-5-3.9-2.23-1.67-4.52-3.4-6.57-5.28l-.53.58c2.08,1.9,4.39,3.64,6.63,5.32,1.65,1.25,3.37,2.54,5,3.88A262.24,262.24,0,0,1,67.09,92.42a328.2,328.2,0,0,1,34.6,47A393.16,393.16,0,0,1,135,209.05a488.6,488.6,0,0,1,23.83,95.14C159.5,308.74,160.14,313.39,160.71,318Z"/><path class="cls-7" d="M116.44,166l.71-.33c-14.27-30.39-1.74-86.52-1.61-87.09l-.76-.17C114.65,79,102.06,135.38,116.44,166Z"/><path class="cls-7" d="M148.89,254.51l.75-.25c-7.28-21.78-48.09-38.6-48.5-38.76l-.3.72C101.25,216.39,141.73,233.07,148.89,254.51Z"/><path class="cls-7" d="M152,267.23l.78-.12c-2.16-14.83,2.83-36.22,14-60.21.57-1.21.57-1.21.55-1.35l-.78.1.39-.05-.38-.1c0,.09-.24.54-.49,1.07C154.78,230.7,149.77,252.24,152,267.23Z"/><path class="cls-7" d="M159.54,309.58l.71-.33c-7-15-30.74-20.88-31-20.94l-.18.76C129.32,289.13,152.74,295,159.54,309.58Z"/><path class="cls-7" d="M161.9,318.07c2.95-13,9.72-25.55,20.71-38.41l-.59-.51c-11.08,13-17.91,25.63-20.89,38.74Z"/><path class="cls-7" d="M74.34,100.85l.69-.37C66.16,84,60.65,64.69,58.84,58.33c-.44-1.53-.59-2.08-.68-2.25l-.7.34c.06.13.31,1,.63,2.13C59.9,64.92,65.43,84.32,74.34,100.85Z"/><path class="cls-7" d="M92.73,125.47l.55-.56C80.78,112.62,45.71,113,44.22,113v.79C44.59,113.81,80.47,113.4,92.73,125.47Z"/></g></g><g class="cls-8"><path class="cls-9" d="M194.78,382.94l-45.61,14.29s-15.91-20.69-9.91-40.69c12.24-40.8-24.37-48.67-39.21-54.25-22.39-8.43-36-24.11-18.09-42.67,20.28-21-12.41-49.72-50.52-58.12-37.29-8.22-44.18-79.22,38.17-68.83,49.18,6.21,56.74,53.89,66.28,77.06s45.62,14,42.61,46.94c-2.57,28.1-16.57,52.39,3.81,64.77S210.27,352.5,194.78,382.94Z"/><g class="cls-6"><path class="cls-10" d="M176.37,393.36l-1,.12c-.07-.62-7.94-62.64-34.29-121.78C116.8,217.22,71.41,154.12-7,162.86l-.11-1c34.89-3.89,66.25,5.88,93.22,29,21.54,18.51,40.33,45.56,55.85,80.4C168.41,330.58,176.29,392.73,176.37,393.36Z"/><path class="cls-10" d="M97,201.08l-1,.18c-6-33-32.27-74.35-32.54-74.77l.85-.54C64.58,126.36,91,167.87,97,201.08Z"/><path class="cls-10" d="M78.61,186.13c-38.74-10-66,9.14-66.25,9.34l-.59-.82c.27-.2,27.88-19.64,67.09-9.49Z"/><path class="cls-10" d="M156.19,311.3c-25-42-90.21-33.77-90.84-33.64l-.27-1c.61-.19,66.77-8.26,92,34.09Z"/><path class="cls-10" d="M150.46,292l-1,.1c-3.08-31,22.25-61,22.51-61.26l.76.65C172.48,231.78,147.43,261.4,150.46,292Z"/><path class="cls-10" d="M173.91,383.75c-6.92-17.22-36.53-23.3-36.83-23.36l.2-1c1.24.25,30.44,6.24,37.57,24Z"/><path class="cls-10" d="M172.25,369l-1,.14c-2-14.54,14.08-36.46,19.36-43.66.74-1,1.38-1.89,1.47-2.07l.92.41a23.81,23.81,0,0,1-1.58,2.26C186.2,333.23,170.33,354.9,172.25,369Z"/></g></g><path class="cls-11" d="M151.61,394.49l.52.23a100.57,100.57,0,0,0,36.05,8.87l8.22,0c2.47-6.44,3.67-13-4.6-15.75-12.85-4.27-12.46-27.06-8.66-35,4.7-9.84,15.18-33-4.57-39.89-16.44-5.76-28.23-6.11-28.74-27.51S138.06,250.3,118.64,251c-20.44.71-36.34-26.93-53.33-18.37-29.61,14.93-4.67,62.81,30.33,77.53s14.3,26.85,12.81,44.3c-2,23.83,30.41,19.71,38.65,29.35A19.58,19.58,0,0,1,151.61,394.49Z"/><g class="cls-12"><g class="cls-6"><path class="cls-7" d="M171.36,401.1l.95-.17c-12-69.37-57.7-132.57-119.18-164.92l-.45.85C113.9,269.08,159.38,332,171.36,401.1Z"/><path class="cls-7" d="M161.56,363.83l1,0c.75-27.66,25-48.58,25.28-48.79l-.63-.73C186.92,314.55,162.32,335.74,161.56,363.83Z"/><path class="cls-7" d="M168.8,388.39l.86-.43c-12.65-25-63.55-29.91-64.06-30l-.09,1C106,359,156.39,363.83,168.8,388.39Z"/><path class="cls-7" d="M129,303l.89-.36c-8.3-20.64,5.88-51.69,6-52l-.87-.4C134.86,250.54,120.51,282,129,303Z"/><path class="cls-7" d="M99.12,269.68l.53-.81C78.4,255,44.73,261.44,44.39,261.51l.19.94C44.91,262.39,78.2,256,99.12,269.68Z"/></g></g><path class="cls-13" d="M391.52,44.14v467.8c0,7-6,8.5-12.77,8.72l-232.44,12-3.52.11a12.68,12.68,0,0,1-13.15-12.73V36a12.68,12.68,0,0,1,13.15-12.73l4.78.15L380.86,41.58C387.64,41.8,391.52,37.14,391.52,44.14Z"/><path class="cls-14" d="M398.76,44.14v467.8a13.06,13.06,0,0,1-12.32,13.12L150,532.79a12.69,12.69,0,0,1-13.15-12.73V36A12.69,12.69,0,0,1,150,23.29L386.44,31A13.06,13.06,0,0,1,398.76,44.14Z"/><path class="cls-15" d="M391.11,69.86V503.22a12.19,12.19,0,0,1-11.52,12.24l-222.29,7a11.83,11.83,0,0,1-12.24-11.87V63.07a11.86,11.86,0,0,1,12.24-11.9l222.29,6.48A12.15,12.15,0,0,1,391.11,69.86Z"/><path class="cls-16" d="M274.44,41.71A4.26,4.26,0,0,1,270.05,46a4.59,4.59,0,0,1-4.39-4.6,4.26,4.26,0,0,1,4.39-4.33A4.6,4.6,0,0,1,274.44,41.71Z"/><path class="cls-3" d="M370.55,268.71l-203.69-.25A10.94,10.94,0,0,1,156,257.51V73.06a10.58,10.58,0,0,1,10.91-10.64l203.69,5.65A10.83,10.83,0,0,1,380.86,79V258.1A10.45,10.45,0,0,1,370.55,268.71Z"/><path class="cls-17" d="M307.67,247.46l-75.6-.3a1.83,1.83,0,0,1-1.8-1.83v-22.2a1.79,1.79,0,0,1,1.8-1.81l75.6.56a1.8,1.8,0,0,1,1.76,1.81v22A1.78,1.78,0,0,1,307.67,247.46Z"/><polygon class="cls-18" points="362.86 162.02 180.9 159.24 180.9 87.21 362.86 91.68 362.86 162.02"/><polygon class="cls-18" points="362.86 200.44 180.9 198.58 180.9 173.16 362.86 175.62 362.86 200.44"/><path class="cls-3" d="M370.55,497.44l-203.69,5.91A10.56,10.56,0,0,1,156,492.72V308.27a11,11,0,0,1,10.91-11l203.69-.51a10.44,10.44,0,0,1,10.31,10.6V486.52A10.83,10.83,0,0,1,370.55,497.44Z"/><path class="cls-18" d="M342.25,430.21l-145.78,2.92a3.48,3.48,0,0,1-3.55-3.5V323.75a3.59,3.59,0,0,1,3.55-3.6l145.78-.79a3.44,3.44,0,0,1,3.42,3.49V426.64A3.55,3.55,0,0,1,342.25,430.21Z"/><path class="cls-17" d="M307.67,476.62l-75.6,2a1.76,1.76,0,0,1-1.8-1.77V454.61a1.87,1.87,0,0,1,1.8-1.86l75.6-1.71a1.74,1.74,0,0,1,1.76,1.76v22A1.84,1.84,0,0,1,307.67,476.62Z"/><path class="cls-3" d="M270.05,383.73a3.29,3.29,0,0,1-2-.69l-79.79-60.8a5.29,5.29,0,0,1-1.2-6.48c1.16-2.2,3.56-2.85,5.37-1.47l77.74,59.34L352,313.47c1.77-1.3,4.06-.59,5.11,1.59a5.24,5.24,0,0,1-1.31,6.3L272,383.06A3.33,3.33,0,0,1,270.05,383.73Z"/><path class="cls-19" d="M398.76,72.94a173.74,173.74,0,0,0-28.46,5.94c-16.89,5-59.25,17.66-82,53.25-26.43,41.41-11.62,91-8,102.92C292.13,274.62,322,309.78,339,329.93c20,23.6,28.7,28.17,30.58,43.21,3,24.12-16.39,35.93-17.52,74.26-.23,7.67-.45,18.3,3.66,31,8,24.83,26.74,39.2,35.91,45.29Q395.21,298.31,398.76,72.94Z"/><path class="cls-20" d="M426.32,246.73c19.56-9.54,57.7,25,76.26,58.14,7.4,13.19,16.08,28.68,13.95,47.1-3.78,32.65-40,61.29-89.9,70.85q-2.11-7.51-4.22-15c5.46-5.67,13.61-13.87,24-23.26,16-14.42,19.3-15.38,20.07-19.94C469,349.66,430.65,337.18,417,311,405.26,288.4,411.3,254.07,426.32,246.73Z"/><path class="cls-21" d="M452,509.15s-3.21,7.92-1.61,11c1.68,3.25,6.52,2.28,20.16,2.79,14,.53,17.13,1.65,17.69.25,1.12-2.81-9.74-11.71-22.44-14.06A38.69,38.69,0,0,0,452,509.15Z"/><path class="cls-22" d="M454.89,497.32l7.6,11.83a10.63,10.63,0,0,1-9.45,2.17l-8.36-11.21Z"/><path class="cls-23" d="M417,311c-11.74-22.55-5.7-56.88,9.32-64.22,3.94-1.92,8.64-2,13.78-.74-2.71,7.8-2.17,13.45-.83,17.44,6,17.83,31.68,15.8,39.72,36.09,5.08,12.83-3,19.19,4.21,29.47,7.48,10.66,19.7,8.87,23.47,19.25,2.82,7.73-2.73,12.13-.6,18.65a12.32,12.32,0,0,0,3.74,5.36c-13.22,23.77-44,43.06-83.18,50.57q-2.11-7.51-4.22-15c5.46-5.67,13.61-13.87,24-23.26,16-14.42,19.3-15.38,20.07-19.94C469,349.66,430.65,337.18,417,311Z"/><path class="cls-24" d="M439.67,253.81c-.85,34.18-.37,71.13,2.1,110.46A1261.12,1261.12,0,0,0,458.1,502.09l-9.65,3.07c-33.09-32.21-43-60.55-45.7-80.94-1.91-14.4,1-15.64-1.6-33.68-4.93-34.34-17.77-46.1-26.79-78.26a191,191,0,0,1-6.92-54.06Z"/><path class="cls-25" d="M463.37,192.6c-.6.13-3.21,1-4.24,11.89-2.49,26.26,11.19,36.89,7.82,51.13-3.23,13.66-19.72,20.29-36.69,27.12-11.35,4.56-46.43,18.67-66.83,2.8-8.58-6.67-9.52-14.73-15.65-44.36-15.56-75.28-21.59-81.74-15-98,11.24-28,41.34-39.57,46.35-41.5,53.39-20.56,116.44,17.23,141.36,60.64,3.28,5.71,22.87,39.85,9.11,56-8.33,9.8-27.47,11.38-40.1,4.7C472.58,214.1,469,191.31,463.37,192.6Z"/><path class="cls-26" d="M521.72,212.51a1.25,1.25,0,0,0,.5-.11,1.2,1.2,0,0,0,.6-1.59c-.46-1-11.48-24.64-37-34a1.2,1.2,0,0,0-.83,2.26c24.5,9,35.48,32.47,35.59,32.71A1.2,1.2,0,0,0,521.72,212.51Z"/><path class="cls-27" d="M421.73,185.51c.14-1.08,1.24-8.58,7.51-11,3.12-1.19,8.6-1.54,10.73,1.88,1.34,2.15,1.22,5.56-.54,7.23-2.22,2.12-5.12-.39-9.12,1.34-4.8,2.1-5.58,7.9-7.24,7.51C421.77,192.18,421.36,188.38,421.73,185.51Z"/><path class="cls-28" d="M367.64,133.52c3.37,9.17-6.74,17.11-2.41,27.06,6.22,14.27,30.9,6.95,39.73,21.06,10.46,16.72-13.49,44.14-3.61,53.53,4.5,4.27,9.7-1.21,22.87,1.8,18.75,4.28,24.38,19.09,33.1,16.84,2.74-.71,6.07-3.19,8.87-10.85,1.22,4.25,1.8,8.28.76,12.66-3.23,13.66-19.72,20.29-36.69,27.12-11.35,4.56-46.43,18.67-66.83,2.8-8.58-6.67-9.52-14.73-15.65-44.36-15.56-75.28-21.59-81.74-15-98a63.82,63.82,0,0,1,15-21.91C360.6,124.07,365.88,128.72,367.64,133.52Z"/><path class="cls-29" d="M421.34,178.45c-1.44,1.3-17.59,18.64-35.16,14.25-15.31-3.82-24.7-18.69-26.35-31.2-3.91-29.75,34.88-54.73,30.1-60.75-2.82-3.54-17.79,3-28.29,9.62-8.61,5.41-44.69,28.06-43.72,66,.1,3.85.72,28.28,16.9,40.47,21.84,16.46,55.61,16,91.68-23.78Z"/><path class="cls-30" d="M500.2,142l-17.39,55.52a4.5,4.5,0,0,1-4.13,3.15L455.94,204a4.49,4.49,0,0,1-4.56-5.44l15.33-56.83a4.5,4.5,0,0,1,4.26-3.54l24.8-2A4.5,4.5,0,0,1,500.2,142Z"/><path class="cls-31" d="M499.37,143.82,482.49,197.7a4.36,4.36,0,0,1-4,3.06l-20,3.2a4.36,4.36,0,0,1-4.42-5.28l15-55.19a4.36,4.36,0,0,1,4.13-3.43l21.89-1.91A4.37,4.37,0,0,1,499.37,143.82Z"/><path class="cls-32" d="M454.07,198.68,468.38,146a19.6,19.6,0,0,1,4,2.57c5.63,4.83,8.86,13.58,7,20.57-2.37,8.92-11.48,9.2-12.74,16.62-1,5.81,3.73,12,7.63,15.72L458.49,204A4.36,4.36,0,0,1,454.07,198.68Z"/><path class="cls-33" d="M434.12,96.29a6.38,6.38,0,0,0,4.63,8c4.28,1,9.49,2.46,11.73,3.74,4.13,2.36-12.57-.36-27.93-.73a127.75,127.75,0,0,1-20.8-2.07,1.06,1.06,0,0,1-.11-2.06A91.06,91.06,0,0,1,417,99.39c6.53-.82,13.54-15.22,13.54-15.22l5.59,5.08Z"/><path class="cls-34" d="M489.71,181.55l-1.06-1.74a7.45,7.45,0,0,0-8.11-5.5L475,175a3,3,0,0,0-2.57,3.6c.52,2.49,1.86,5.46,5.29,5.23,5.82-.39,9.55,8.09,9.55,8.09l2.23-3.14A6.58,6.58,0,0,0,489.71,181.55Z"/><path class="cls-35" d="M446.59,88.91c4.83-.71,10.23-4.77,10.13-8.12-.14-4.6-10.68-7.13-16-8.4s-7.6-.82-9.12.35a8.64,8.64,0,0,0-2.92,5.14,22.06,22.06,0,0,0,0,5.11c.16,2.43.11,2.33.17,3a31.86,31.86,0,0,0,2.31,9,22.29,22.29,0,0,1,2.8-2.58,19,19,0,0,1,4.26-2.51C441.67,88.5,443.66,89.34,446.59,88.91Z"/><path class="cls-36" d="M428.56,90.31a11.89,11.89,0,0,0,6.65,9.67c5.67,2.64,13.2-9.2,11.13-13.72a7.84,7.84,0,0,0-5-3.65c-1.3-.3-1.93,0-4-.58-1.94-.49-2.32-.94-3.07-.79-.94.19-2.14,1.26-3,5.43-.46-1.62-1.5-2.72-2.62-2.78a2.14,2.14,0,0,0-1.11.31C425.91,85.18,426.21,87.67,428.56,90.31Z"/></g></g></svg>