<svg xmlns="http://www.w3.org/2000/svg" xmlns:xlink="http://www.w3.org/1999/xlink" viewBox="0 0 566 562"><defs><style>.cls-1{isolation:isolate;}.cls-2{fill:url(#linear-gradient);}.cls-3{fill:url(#linear-gradient-2);}.cls-4{fill:url(#linear-gradient-3);}.cls-5{fill:#de8bdf;}.cls-6{fill:#f4f7fa;}.cls-7{fill:#c281e8;}.cls-8,.cls-9{fill:#d8dee8;}.cls-9{opacity:0.5;}.cls-13,.cls-18,.cls-22,.cls-9{mix-blend-mode:multiply;}.cls-10{fill:url(#linear-gradient-4);}.cls-11{fill:url(#linear-gradient-5);}.cls-12{fill:url(#linear-gradient-6);}.cls-13,.cls-18,.cls-22{opacity:0.3;}.cls-13{fill:url(#linear-gradient-7);}.cls-14{fill:url(#linear-gradient-8);}.cls-15{fill:url(#linear-gradient-9);}.cls-16{fill:url(#linear-gradient-10);}.cls-17{fill:url(#linear-gradient-11);}.cls-18{fill:url(#linear-gradient-12);}.cls-19{fill:url(#linear-gradient-13);}.cls-20{fill:url(#linear-gradient-14);}.cls-21{fill:url(#linear-gradient-15);}.cls-22{fill:url(#linear-gradient-16);}.cls-23{fill:url(#linear-gradient-17);}.cls-24{fill:url(#linear-gradient-18);}.cls-25{fill:url(#linear-gradient-19);}.cls-26{fill:url(#linear-gradient-20);}</style><linearGradient id="linear-gradient" x1="408.8" y1="461.69" x2="161.91" y2="251.08" gradientUnits="userSpaceOnUse"><stop offset="0" stop-color="#444b8c"/><stop offset="1" stop-color="#26264f"/></linearGradient><linearGradient id="linear-gradient-2" x1="-1947.01" y1="1589.67" x2="-1037.13" y2="1623.51" gradientTransform="translate(-1387.03 -1411.68) rotate(-90)" xlink:href="#linear-gradient"/><linearGradient id="linear-gradient-3" x1="76.99" y1="290.66" x2="348.11" y2="290.66" gradientUnits="userSpaceOnUse"><stop offset="0" stop-color="#ff9085"/><stop offset="1" stop-color="#fb6fbb"/></linearGradient><linearGradient id="linear-gradient-4" x1="397.28" y1="342.69" x2="514.13" y2="342.69" gradientTransform="matrix(-1, 0, 0, 1, 883.96, 0)" gradientUnits="userSpaceOnUse"><stop offset="0" stop-color="#444b8c"/><stop offset="1" stop-color="#3e4177"/></linearGradient><linearGradient id="linear-gradient-5" x1="417.49" y1="450.37" x2="435.21" y2="555.06" xlink:href="#linear-gradient"/><linearGradient id="linear-gradient-6" x1="477.02" y1="468.25" x2="461.76" y2="563.78" gradientTransform="matrix(-1, 0, 0, 1, 883.96, 0)" gradientUnits="userSpaceOnUse"><stop offset="0" stop-color="#311944"/><stop offset="1" stop-color="#a03976"/></linearGradient><linearGradient id="linear-gradient-7" x1="397.29" y1="342.7" x2="514.13" y2="342.7" xlink:href="#linear-gradient-4"/><linearGradient id="linear-gradient-8" x1="462.03" y1="392.9" x2="561.94" y2="392.9" xlink:href="#linear-gradient-4"/><linearGradient id="linear-gradient-9" x1="526.46" y1="56.76" x2="453.93" y2="315.05" gradientTransform="matrix(-1, 0, 0, 1, 883.96, 0)" gradientUnits="userSpaceOnUse"><stop offset="0" stop-color="#ffc444"/><stop offset="1" stop-color="#f36f56"/></linearGradient><linearGradient id="linear-gradient-10" x1="410.12" y1="183.22" x2="422.73" y2="224.13" xlink:href="#linear-gradient-9"/><linearGradient id="linear-gradient-11" x1="377.99" y1="153.32" x2="395.72" y2="183.27" gradientTransform="matrix(1, 0, 0, 1, 0, 0)" xlink:href="#linear-gradient-6"/><linearGradient id="linear-gradient-12" x1="567.9" y1="68.4" x2="495.37" y2="326.68" xlink:href="#linear-gradient-9"/><linearGradient id="linear-gradient-13" x1="368.79" y1="192.51" x2="192.46" y2="47.59" gradientUnits="userSpaceOnUse"><stop offset="0" stop-color="#ffc444"/><stop offset="0.26" stop-color="#ffc145"/><stop offset="0.46" stop-color="#fdb747"/><stop offset="0.65" stop-color="#fba64a"/><stop offset="0.82" stop-color="#f78f4f"/><stop offset="0.99" stop-color="#f37056"/><stop offset="1" stop-color="#f36f56"/></linearGradient><linearGradient id="linear-gradient-14" x1="480.29" y1="191.13" x2="416.73" y2="143.25" xlink:href="#linear-gradient"/><linearGradient id="linear-gradient-15" x1="432.41" y1="144.08" x2="462.63" y2="198.57" gradientTransform="matrix(-1, 0, 0, 1, 883.96, 0)" xlink:href="#linear-gradient"/><linearGradient id="linear-gradient-16" x1="412.82" y1="127.88" x2="459.87" y2="241.8" xlink:href="#linear-gradient"/><linearGradient id="linear-gradient-17" x1="504.25" y1="33.25" x2="495.85" y2="104.89" xlink:href="#linear-gradient-6"/><linearGradient id="linear-gradient-18" x1="426.14" y1="176.27" x2="446.35" y2="176.27" xlink:href="#linear-gradient-6"/><linearGradient id="linear-gradient-19" x1="415.49" y1="30.72" x2="404.26" y2="64.12" xlink:href="#linear-gradient"/><linearGradient id="linear-gradient-20" x1="496.65" y1="42.93" x2="488.69" y2="62.83" xlink:href="#linear-gradient-6"/></defs><g class="cls-1"><g id="Réteg_1" data-name="Réteg 1"><path class="cls-2" d="M348.56,23V539c0,7.72-6.59,9.38-14.06,9.63L78.37,561.87l-3.88.12A14,14,0,0,1,60,548V14.05A14,14,0,0,1,74.49,0l5.26.17,257.07,20C344.3,20.42,348.56,15.29,348.56,23Z"/><path class="cls-3" d="M356.54,23V539c0,7.72-6.1,14.23-13.57,14.48L82.47,562A14,14,0,0,1,68,548V14.05A14,14,0,0,1,82.47,0L343,8.53C350.44,8.78,356.54,15.29,356.54,23Z"/><path class="cls-4" d="M348.11,51.37v478a13.43,13.43,0,0,1-12.69,13.5l-244.95,7.7A13,13,0,0,1,77,537.47V43.89A13.07,13.07,0,0,1,90.47,30.76l245,7.14A13.4,13.4,0,0,1,348.11,51.37Z"/><path class="cls-5" d="M219.56,20.33a4.71,4.71,0,0,1-4.84,4.78A5.08,5.08,0,0,1,209.88,20a4.71,4.71,0,0,1,4.84-4.78A5.08,5.08,0,0,1,219.56,20.33Z"/><path class="cls-6" d="M325.46,270.71,101,270.44a12.06,12.06,0,0,1-12-12.08V54.91a11.64,11.64,0,0,1,12-11.73l224.45,6.23a11.93,11.93,0,0,1,11.36,12V259A11.52,11.52,0,0,1,325.46,270.71Z"/><path class="cls-7" d="M256.17,247.27l-83.31-.34a2,2,0,0,1-2-2V220.43a2,2,0,0,1,2-2l83.31.61a2,2,0,0,1,1.94,2v24.24A2,2,0,0,1,256.17,247.27Z"/><polygon class="cls-8" points="316.99 153.03 116.48 149.96 116.48 70.51 316.99 75.45 316.99 153.03"/><polygon class="cls-8" points="316.99 195.41 116.48 193.35 116.48 165.31 316.99 168.03 316.99 195.41"/><path class="cls-6" d="M325.46,523,101,529.51A11.62,11.62,0,0,1,89,517.8V314.35a12.09,12.09,0,0,1,12-12.1l224.45-.55a11.5,11.5,0,0,1,11.36,11.69V511A12,12,0,0,1,325.46,523Z"/><path class="cls-8" d="M294.28,448.85l-160.64,3.22a3.84,3.84,0,0,1-3.91-3.87V331.42a4,4,0,0,1,3.91-4l160.64-.87a3.79,3.79,0,0,1,3.76,3.84V444.91A3.91,3.91,0,0,1,294.28,448.85Z"/><path class="cls-7" d="M256.17,500l-83.31,2.17a1.93,1.93,0,0,1-2-1.95V475.76a2,2,0,0,1,2-2.05l83.31-1.89a1.91,1.91,0,0,1,1.94,1.94V498A2,2,0,0,1,256.17,500Z"/><path class="cls-6" d="M214.72,397.58a3.59,3.59,0,0,1-2.25-.77l-87.92-67.06a5.84,5.84,0,0,1-1.32-7.15c1.27-2.42,3.92-3.14,5.92-1.62l85.65,65.46,90.26-66.36c1.95-1.44,4.47-.65,5.62,1.75a5.8,5.8,0,0,1-1.44,6.95l-92.38,68.06A3.72,3.72,0,0,1,214.72,397.58Z"/><path class="cls-9" d="M356.54,54.77a191.14,191.14,0,0,0-31.36,6.56c-18.61,5.55-65.28,19.48-90.31,58.73-29.12,45.68-12.8,100.34-8.86,113.52,13,43.65,45.89,82.43,64.72,104.65,22.06,26,31.63,31.07,33.69,47.67,3.3,26.6-18.05,39.63-19.3,81.9-.25,8.47-.5,20.19,4,34.18,8.87,27.38,29.46,43.24,39.57,49.95Q352.64,303.35,356.54,54.77Z"/><path class="cls-10" d="M386.92,246.47c21.54-10.53,63.57,27.6,84,64.12,8.15,14.56,17.72,31.64,15.37,52-4.16,36-44.1,67.6-99.07,78.14q-2.33-8.28-4.64-16.58c6-6.26,15-15.3,26.48-25.66,17.65-15.91,21.27-17,22.12-22C434,360,391.68,346.23,376.64,317.3,363.7,292.43,370.36,254.56,386.92,246.47Z"/><path class="cls-11" d="M415.23,535.92s-3.54,8.73-1.78,12.15c1.84,3.59,7.18,2.52,22.21,3.08,15.4.58,18.88,1.82,19.5.27,1.23-3.09-10.74-12.91-24.73-15.5A42.27,42.27,0,0,0,415.23,535.92Z"/><path class="cls-12" d="M418.4,522.87l8.36,13a11.7,11.7,0,0,1-10.41,2.39l-9.2-12.37Z"/><path class="cls-13" d="M376.64,317.3c-12.94-24.87-6.28-62.74,10.28-70.83,4.34-2.12,9.52-2.24,15.18-.82-3,8.61-2.39,14.83-.92,19.24,6.56,19.66,34.91,17.42,43.77,39.8,5.6,14.15-3.31,21.17,4.64,32.51,8.24,11.75,21.71,9.78,25.87,21.23,3.1,8.53-3,13.38-.67,20.57a13.59,13.59,0,0,0,4.12,5.92c-14.57,26.21-48.47,47.49-91.66,55.77q-2.33-8.28-4.64-16.58c6-6.26,15-15.3,26.48-25.66,17.65-15.91,21.27-17,22.12-22C434,360,391.68,346.23,376.64,317.3Z"/><path class="cls-14" d="M401.62,254.28c-.93,37.69-.41,78.45,2.32,121.84a1391.37,1391.37,0,0,0,18,152l-10.63,3.39c-36.46-35.54-47.37-66.79-50.36-89.28-2.11-15.89,1.09-17.26-1.76-37.15-5.43-37.88-19.59-50.85-29.53-86.32A211.41,211.41,0,0,1,322,259.14Z"/><path class="cls-15" d="M427.74,186.76c-.67.15-3.54,1.1-4.68,13.12-2.74,29,12.34,40.68,8.62,56.39-3.56,15.07-21.73,22.38-40.43,29.91-12.5,5-51.15,20.59-73.63,3.1-9.47-7.37-10.5-16.26-17.25-48.94-17.15-83-23.79-90.16-16.58-108.13,12.39-30.87,45.55-43.65,51.07-45.78,58.83-22.68,128.31,19,155.76,66.89,3.62,6.3,25.21,44,10,61.81-9.18,10.81-30.27,12.55-44.18,5.18C437.88,210.47,433.93,185.34,427.74,186.76Z"/><path class="cls-16" d="M492,208.72a1.37,1.37,0,0,0,.55-.12,1.32,1.32,0,0,0,.65-1.76c-.5-1.1-12.64-27.17-40.71-37.46a1.33,1.33,0,0,0-.91,2.49c27,9.89,39.09,35.81,39.21,36.07A1.32,1.32,0,0,0,492,208.72Z"/><path class="cls-17" d="M381.86,178.94c.15-1.2,1.37-9.47,8.27-12.12,3.44-1.32,9.47-1.7,11.82,2.07,1.48,2.37,1.35,6.13-.59,8-2.45,2.34-5.64-.44-10.05,1.48-5.29,2.31-6.15,8.7-8,8.28C381.9,186.29,381.45,182.1,381.86,178.94Z"/><path class="cls-18" d="M322.26,121.59c3.71,10.11-7.43,18.88-2.66,29.86,6.85,15.73,34,7.65,43.77,23.22,11.53,18.44-14.86,48.69-4,59,5,4.72,10.69-1.33,25.2,2,20.66,4.72,26.86,21.05,36.47,18.58,3-.78,6.69-3.53,9.77-12,1.35,4.69,2,9.14.84,14-3.56,15.07-21.73,22.38-40.43,29.91-12.5,5-51.15,20.59-73.63,3.1-9.47-7.37-10.5-16.26-17.25-48.94-17.15-83-23.79-90.16-16.58-108.13A70.33,70.33,0,0,1,300.32,108C314.49,111.17,320.31,116.3,322.26,121.59Z"/><path class="cls-19" d="M381.43,171.15c-1.59,1.44-19.39,20.56-38.75,15.72-16.86-4.22-27.22-20.62-29-34.42-4.31-32.81,38.43-60.36,33.16-67-3.1-3.91-19.6,3.34-31.17,10.61-9.49,6-49.24,31-48.17,72.85.11,4.25.79,31.19,18.62,44.64,24.07,18.16,61.27,17.67,101-26.23Z"/><path class="cls-20" d="M468.33,130.94l-19.17,61.23a5,5,0,0,1-4.55,3.48l-25.06,3.64a5,5,0,0,1-5-6l16.89-62.68a5,5,0,0,1,4.7-3.91l27.32-2.2A5,5,0,0,1,468.33,130.94Z"/><path class="cls-21" d="M467.41,133l-18.6,59.43a4.83,4.83,0,0,1-4.42,3.38l-22,3.53a4.82,4.82,0,0,1-4.87-5.83L434,132.59a4.8,4.8,0,0,1,4.55-3.79l24.11-2.1A4.82,4.82,0,0,1,467.41,133Z"/><path class="cls-22" d="M417.49,193.46l15.77-58.15a21.24,21.24,0,0,1,4.45,2.83c6.21,5.33,9.77,15,7.72,22.69-2.62,9.84-12.65,10.14-14,18.33-1.09,6.41,4.11,13.19,8.4,17.33l-17.43,2.8A4.82,4.82,0,0,1,417.49,193.46Z"/><path class="cls-23" d="M395.5,80.53a7.06,7.06,0,0,0,5.11,8.79c4.71,1.14,10.45,2.71,12.93,4.13,4.55,2.6-13.86-.41-30.79-.8a139.71,139.71,0,0,1-22.91-2.3,1.17,1.17,0,0,1-.13-2.27A101.31,101.31,0,0,1,376.63,84c7.2-.91,14.92-16.79,14.92-16.79l6.17,5.6Z"/><path class="cls-24" d="M456.76,174.57l-1.17-1.91a8.18,8.18,0,0,0-8.93-6.07l-6.15.76a3.3,3.3,0,0,0-2.83,4c.57,2.75,2.05,6,5.82,5.78C449.92,176.66,454,186,454,186l2.46-3.47A7.24,7.24,0,0,0,456.76,174.57Z"/><path class="cls-25" d="M409.25,72.39c5.32-.79,11.28-5.26,11.16-9-.16-5.08-11.77-7.86-17.63-9.26s-8.37-.9-10,.38a9.58,9.58,0,0,0-3.22,5.67,25.51,25.51,0,0,0,0,5.64c.17,2.68.12,2.56.19,3.36a35,35,0,0,0,2.54,9.88,24.17,24.17,0,0,1,3.09-2.86A21.48,21.48,0,0,1,400,73.48C403.83,71.93,406,72.87,409.25,72.39Z"/><path class="cls-26" d="M389.38,73.93s.35,7.41,7.33,10.67C403,87.51,411.26,74.45,409,69.47a8.69,8.69,0,0,0-5.53-4c-1.43-.33-2.13,0-4.45-.64-2.14-.54-2.56-1-3.38-.87-1,.21-2.36,1.39-3.34,6-.51-1.79-1.65-3-2.88-3.07a2.37,2.37,0,0,0-1.24.34C386.46,68.27,386.79,71,389.38,73.93Z"/></g></g></svg>