<svg xmlns="http://www.w3.org/2000/svg" viewBox="0 0 1920 1080"><defs><style>.cls-1{isolation:isolate;}.cls-2{fill:#fff5f5;}.cls-3{fill:#ffe6e6;}.cls-4{fill:#ffd6d6;}.cls-5{fill:#4cb4d4;}.cls-6{fill:#2e88bf;}.cls-7{fill:#f4a6a6;}.cls-8{fill:#311e69;}.cls-9{fill:#914941;}.cls-10{fill:#fff;}.cls-11{fill:#ff8f8f;}.cls-12{fill:#ff6161;}.cls-13{fill:#ad263d;}.cls-14{fill:#1e1240;}.cls-15{fill:#614cd4;}.cls-16{fill:#ffd140;}.cls-17{fill:#ffb03b;}.cls-18{fill:#7165e5;}.cls-19,.cls-22{fill:#9fcfff;}.cls-19{mix-blend-mode:screen;}.cls-20{fill:#ff933b;}.cls-21{fill:#d95f76;}.cls-23{fill:#ff9791;}.cls-24{fill:#b1a9ff;}.cls-25{fill:#a399ff;}</style></defs><g class="cls-1"><g id="Réteg_1" data-name="Réteg 1"><path class="cls-2" d="M350.63,989.37C274.46,988.71,217,904.17,231.41,813c16.44-104.24,60.5-227,172.92-284.29,215.28-109.71,341.76,45,466.11-45.27s373.08-300.76,588.36-201.84,268.28,459.8,231.55,578.89-233,153.05-340.45,144.31C1265.94,998,626.59,991.78,350.63,989.37Z"/><path class="cls-3" d="M336,1031.43c-58.83,1.25-100-70.59-78.63-137.36a342.87,342.87,0,0,1,57.76-108.61c92.24-116.54,322.84-7.81,448.72-92s310.3-265.22,516.75-274,415.67,258.4,398.61,455.9S1040.11,1016,922.26,1018.8C834.69,1020.85,501.47,1027.93,336,1031.43Z"/><path class="cls-4" d="M320.6,1051.06H1530.42c74.62,0,132.7-79.38,123.76-169.63s-36-189.34-108.5-222c-144-64.78-538.41-47.35-716.06,96.91C671.49,884.79,387.79,730.83,275,951.13,252.71,994.65,278.49,1051.06,320.6,1051.06Z"/><path class="cls-5" d="M1397.45,870.33c22.34-20.67,69.63-36.49,84.83-65.6s-5.07-22.92-7-50.84,46.2-6.07,84-7.28,45.28-36.93,60.77-58.68,29.42-21.71,62.29-27c17.69-2.82,35.16-9.16,47.54-14.41a38.23,38.23,0,0,0-2.05-3.77c-29.59-47.75-159.22,7.77-177.28,40.22s-65.33-3.65-112,28.77-10.82,72.79-13,94.68-45.08,4-93.46,29.17S1324.16,954,1324.16,954c2.57,7,21.91,12.4,44.42,14.69C1362.51,931.27,1379.3,887.11,1397.45,870.33Z"/><path class="cls-6" d="M1682.34,661c-32.87,5.26-46.81,5.21-62.29,27s-23,57.47-60.77,58.68-85.89-20.64-84,7.28,22.18,21.73,7,50.84-62.49,44.93-84.83,65.6c-18.15,16.78-34.94,60.94-28.87,98.32,34,3.47,75.34-.08,77-15.56,2.76-25.71,55.83-36.93,92.66-49s-1.16-91.63,2.66-112.79,91.2-13.86,93.8-50.82c2.54-36,116.33-49.22,95.18-93.91C1717.5,651.8,1700,658.14,1682.34,661Z"/><path class="cls-7" d="M952.45,947.88S858.09,799.76,883.4,761.55s50.27-13.62,59-40.76-40.76-78.79-22-126.53,72.3-51.94,60.34-91.1,14.4-125.31,60.22-135.19-5.55,115.53,27.57,143.34,42.36,80.76-6.86,136.34,22.73,125.93-1.64,152.66-70,37.74-20.28,77.68S1009.3,961.6,952.45,947.88Z"/><path class="cls-5" d="M967.23,760.27c-8.39-28.92-6.24-54.67,32.67-122.73s17.07-92.48,18.25-141.61,16.08-49.21,17.3-84.43c.48-14.07,3.51-29.88,7-43.79-.49.08-1,.15-1.48.26-45.82,9.88-72.19,96-60.22,135.19s-41.58,43.36-60.34,91.1,30.72,99.39,22,126.53-33.66,2.55-59,40.76,69.05,186.33,69.05,186.33c15.8,3.81,33.4,3.19,49.51-.55C944.69,865.38,974.7,786,967.23,760.27Z"/><path class="cls-6" d="M1042.42,367.71c-3.46,13.91-6.49,29.72-7,43.79-1.22,35.22-16.12,35.3-17.3,84.43s20.65,73.55-18.25,141.61-41.06,93.81-32.67,122.73C974.7,786,944.69,865.38,1002,947.33c41.87-9.72,73.7-40.49,37.77-69.34-49.76-39.94-4.09-50.94,20.28-77.68s-47.59-97.08,1.64-152.66,40-108.54,6.86-136.34C1035.76,483.81,1085.6,360.89,1042.42,367.71Z"/><path class="cls-7" d="M1352,921.45s-69.93-109.77-51.17-138.08,37.26-10.09,43.71-30.21-30.21-58.38-16.3-93.76,53.58-38.5,44.71-67.52,10.68-92.86,44.63-100.18-4.11,85.61,20.43,106.22,31.39,59.85-5.09,101,16.85,93.32-1.21,113.13-51.9,28-15,57.57S1394.11,931.61,1352,921.45Z"/><path class="cls-5" d="M1362.94,782.42c-6.22-21.43-4.63-40.51,24.2-90.95s12.66-68.53,13.53-104.94,11.92-36.47,12.82-62.57c.36-10.43,2.6-22.14,5.17-32.45-.36.05-.72.11-1.1.19-34,7.32-53.49,71.16-44.63,100.18s-30.81,32.14-44.71,67.52,22.76,73.65,16.3,93.76-25,1.89-43.71,30.21S1352,921.45,1352,921.45c11.71,2.83,24.75,2.36,36.7-.41C1346.23,860.31,1368.47,801.48,1362.94,782.42Z"/><path class="cls-6" d="M1418.66,491.51c-2.57,10.31-4.81,22-5.17,32.45-.9,26.1-11.94,26.16-12.82,62.57S1416,641,1387.14,691.47s-30.42,69.52-24.2,90.95c5.53,19.06-16.71,77.89,25.74,138.62,31-7.2,54.61-30,28-51.38-36.87-29.6-3-37.75,15-57.57s-35.27-71.94,1.21-113.13,29.64-80.43,5.09-101C1413.72,577.54,1450.66,486.46,1418.66,491.51Z"/><path class="cls-5" d="M1118.43,809.42c29.78-56.48,88.15-71.68,70.28-102.55s-7.15-51.45,9.53-84.84c9.61-19.23,24.35-36.88,35.13-48.39-5.91-.84-15.58.63-30.58,5.07-78.83,23.39-71.26,81.39-79.51,117.87s-21.53,30.87-77.51,72S1061.25,894,1061.25,894c-4.66,28.36,38.52,28.1,89.44,29.82C1127.07,891.77,1100.23,843.93,1118.43,809.42Z"/><path class="cls-6" d="M1220.87,657.29c-5.78-34.84,37.63-80.11,12.5-83.65-10.78,11.51-25.52,29.16-35.13,48.39-16.68,33.39-27.41,54-9.53,84.84s-40.5,46.07-70.28,102.55c-18.2,34.51,8.64,82.35,32.26,114.35l3.48.12c52.41,1.87,52.9-16,34.54-50.24s85.41-64.23,85.41-106S1228,700.32,1220.87,657.29Z"/><polygon class="cls-7" points="834.9 941.09 805.19 941.09 800.45 848.84 805.52 845.07 808.85 847.89 810.97 841.01 819.4 834.73 827.38 840.68 828.24 843.16 829.28 842.1 838.34 848.84 834.9 941.09"/><polygon class="cls-7" points="896.9 941.09 867.19 941.09 862.45 848.84 867.52 845.07 872.97 841.01 881.4 834.73 889.38 840.68 891.28 842.1 900.35 848.84 896.9 941.09"/><polygon class="cls-7" points="958.9 941.09 929.19 941.09 924.46 848.84 929.53 845.07 932.85 847.89 934.97 841.01 943.4 834.73 951.39 840.68 952.24 843.16 953.29 842.1 962.35 848.84 958.9 941.09"/><polygon class="cls-7" points="1020.91 941.09 991.2 941.09 986.46 848.84 991.53 845.07 1005.4 834.73 1014.25 843.16 1024.35 848.84 1020.91 941.09"/><polygon class="cls-7" points="1082.91 941.09 1053.2 941.09 1048.46 848.84 1053.53 845.07 1067.41 834.73 1075.39 840.68 1077.29 842.1 1086.35 848.84 1082.91 941.09"/><polygon class="cls-7" points="1144.91 941.09 1115.2 941.09 1110.47 848.84 1115.54 845.07 1118.86 847.89 1120.98 841.01 1129.41 834.73 1137.39 840.68 1138.25 843.16 1139.3 842.1 1148.36 848.84 1144.91 941.09"/><polygon class="cls-7" points="1206.91 941.09 1177.2 941.09 1172.47 848.84 1191.41 834.73 1201.3 842.1 1210.36 848.84 1206.91 941.09"/><polygon class="cls-7" points="1268.92 941.09 1239.21 941.09 1234.47 848.84 1239.54 845.07 1253.42 834.73 1261.4 840.68 1272.36 848.84 1268.92 941.09"/><rect class="cls-7" x="824.26" y="867.2" width="423.56" height="17.06"/><rect class="cls-7" x="824.26" y="906.96" width="423.56" height="17.06"/><polygon class="cls-7" points="1330.92 941.09 1301.21 941.09 1296.47 848.84 1301.55 845.07 1306.99 841.01 1315.42 834.73 1323.4 840.68 1325.31 842.1 1334.37 848.84 1330.92 941.09"/><polygon class="cls-7" points="1392.92 941.09 1363.21 941.09 1358.48 848.84 1363.55 845.07 1366.87 847.89 1368.99 841.01 1377.42 834.73 1385.41 840.68 1386.26 843.16 1387.31 842.1 1396.37 848.84 1392.92 941.09"/><polygon class="cls-7" points="1454.93 945.56 1425.22 941.09 1420.48 848.84 1425.55 845.07 1439.43 834.73 1448.27 843.16 1458.37 848.84 1454.93 945.56"/><polygon class="cls-7" points="1516.93 950.27 1487.22 946.22 1482.48 848.84 1487.56 845.07 1501.43 834.73 1509.41 840.68 1511.31 842.1 1520.38 848.84 1516.93 950.27"/><polygon class="cls-7" points="1578.93 969.87 1549.22 969.87 1544.49 848.84 1549.56 845.07 1552.88 847.89 1555 841.01 1563.43 834.73 1571.42 840.68 1572.27 843.16 1573.32 842.1 1582.38 848.84 1578.93 969.87"/><polygon class="cls-7" points="1640.94 969.87 1611.23 969.87 1606.49 848.84 1625.43 834.73 1635.32 842.1 1644.38 848.84 1640.94 969.87"/><polygon class="cls-7" points="1702.94 969.87 1673.23 969.87 1668.49 848.84 1673.56 845.07 1687.44 834.73 1695.42 840.68 1706.38 848.84 1702.94 969.87"/><rect class="cls-7" x="1258.29" y="867.2" width="423.56" height="17.06"/><rect class="cls-7" x="1258.29" y="906.96" width="423.56" height="17.06"/><path class="cls-5" d="M684.83,356.68s-48.74,2.6-70.39,30c-37.69,47.77-20.8,90.08-7.59,109.19,0,0-81.35,1.7-105,71-38,111.11,109.36,122.84,290.3,109.19s123.44-188.35,88.71-214.28c0,0,25.45-181.53-61.38-195.18C691.26,246.45,684.83,356.68,684.83,356.68Z"/><path class="cls-6" d="M880.82,461.78s25.45-181.53-61.38-195.18q-3.27-.51-6.43-.91c14.45,6.75,27.51,16.37,24.69,28.55-5.91,25.59-52.36-3.07-34.89,45s45.44,36.85,32,71.66S750.17,429.36,769,464.17s76.91,40.94,69.32,80.86-24.28-4.09-89.18,24.57S702,625.9,667.51,631s-69.07-4.1-128.71-31.73c-18.88-8.75-31.14-17.6-39.1-25.61C470,678.44,614.94,689.42,792.11,676.06,973.05,662.41,915.55,487.71,880.82,461.78Z"/><path class="cls-6" d="M665.41,369.65c17.44,10.92,32.52,6.82,41.37,16.38s-1.6,28.66,3.28,56.64-16.74,45.72-27.91,47.77-41.15,21.15-2.09,23.88,48.14-21.15,58.6-36.85,31.39-76.43,16-100.31-69.87-20.48-69.87-20.48a144,144,0,0,0-32.75,6.42A70.83,70.83,0,0,1,665.41,369.65Z"/><path class="cls-8" d="M790.46,620.78c-6.28,20.48-46,78.82-63.83,78.82s-8.83-148,7.89-172.57,29.55-62.32,2.59-27c-28.88,37.82-36.06,120.1-32.72,180.89a3.6,3.6,0,0,1-6.06,2.76c-18.34-16.85-47.61-47.06-42.47-64,7.41-24.36-5.17-20.08-13.58-.75s9.37,18.66,12.57,31-12.1,4.5-1.4,18.1c8,10.14,29,29.57,39.17,38.8a16.33,16.33,0,0,1,5.43,12.92c-3.66,76.09-24.77,215.54-10.14,232.82,16.75,19.79,28.25-10.31,26.16-34.88s-7.33-73-2.09-88.32-2.1-66.25,4.18-85.7S810.34,673,811.38,621.81,796.73,600.31,790.46,620.78Z"/><path class="cls-5" d="M177.44,1081.93c-38.08-4.18-53.81-50.74-25-75.49.68-.59,1.39-1.18,2.11-1.76C195.16,972,365.33,981.06,533,979.25s2.48-41.69,116.77-63.49,1079.41,29.07,1170.85,76.3-15.14,61.67-294.53,94.37C1257.28,1117.89,516,1119.09,177.44,1081.93Z"/><path class="cls-6" d="M1820.58,992.06c-9.95-5.14-30.51-10-59.41-14.67a62.13,62.13,0,0,0-46.48,11.18c-34.89,25.53-134.28,38.63-174.28,46.46-59.27,11.6-475.83,23.19-575.27,15.62s-159.64,12.54-279.86,24.14-128.7,6.62-220.16-24.85-199.79,0-263.23,0a202.37,202.37,0,0,1-64.26-10.4,44.18,44.18,0,0,0,39.81,42.39c338.58,37.16,1079.84,36,1348.61,4.5C1805.44,1053.73,1912,1039.3,1820.58,992.06Z"/><path class="cls-9" d="M1128.67,1004.11s.25-48.59,192.63-59.64,151,32.14,219.49,32.14c77.46,0,173.36-13.26,229.86,0s30.68,43-44.66,48.48-217.33.94-304.16,1.17C1343.4,1026.45,1069.48,1031.72,1128.67,1004.11Z"/><path class="cls-5" d="M157,1003a32.66,32.66,0,0,1-15.07-12c-10.31-15.15-32.33-52-12-63.8,25.81-15.06,44.37,27.46,44.37,27.46s-.91-14.61,11.32-11.51,14.72,7.07,14.72,7.07-6.12-81.93,28.74-86.8,36.22,43.85,36.22,43.85,4.53-13.73,17.66-10.63,18.11,23.92,18.11,23.92,14.49-17.2,30.79-9.93S350,948,350,948s16.3-10.37,32.6,3.1c6.38,5.27,10.41,39.86-12.68,46.5C348.41,1003.74,209.78,1023.72,157,1003Z"/><path class="cls-6" d="M369.89,997.56c23.09-6.64,19.06-41.23,12.68-46.5C366.27,937.59,350,948,350,948s-1.81-30.12-18.11-37.39a20.52,20.52,0,0,0-13.78-1.07c2.47,3.24,5.06,6.66,7,9.23,5,6.64-1.81,4.06,0,18.86s7.69,25.43,14,25.43,18.57-.89,17.21,4.43-16.75,11.51-33.05,9.74-11.78-24.36-27.62-19.93-19,15.23-26.26,16.47-27.62-23.56-38-14.7-48.45,26.13-58.86,21.26-14-15.5-23.55-10.63c-5.42,2.78-14.77-.48-18.24,2.53A183.72,183.72,0,0,0,142,990.94,32.66,32.66,0,0,0,157,1003C209.78,1023.72,348.41,1003.74,369.89,997.56Z"/><path class="cls-6" d="M232.25,871.44c5.43,7.31-4.75,5.65,2.72,11.63s19.18,5,19.6,9.63-11.45,15.95-6.36,22.26,6.28,11,6.36,18.6,9.49-12.84,10.73-26.35c0,0-1.36-48.72-36.22-43.85a21.47,21.47,0,0,0-9.85,4C224,867.1,229.48,867.71,232.25,871.44Z"/><path class="cls-6" d="M281.49,914.46c4.92,2.83,11.37,6.15,11.71,12.13s-8,10.13-3.05,12.62,10-9,10.92-18.71c0,0-5-20.82-18.11-23.92a13.78,13.78,0,0,0-9,.63c2.52.36,5.45,1.38,5.45,4.13C279.45,906.16,276.57,911.64,281.49,914.46Z"/><path class="cls-10" d="M181.35,980.75s-10.19-2.74-9.79-14.7,18.47-13.76,28.17-8.25S203.16,983.3,181.35,980.75Z"/><path class="cls-11" d="M192,972.62c0,2.38-3,4.31-6.71,4.31s-6.71-1.93-6.71-4.31,3-4.31,6.71-4.31S192,970.24,192,972.62Z"/><path class="cls-10" d="M308.76,977.59s-10.19.84-13.91-10.15,12.08-18.53,22.77-16.7S329.44,972.78,308.76,977.59Z"/><path class="cls-11" d="M315.65,966.73c.81,2.16-1.26,4.9-4.62,6.11s-6.76.44-7.57-1.73,1.26-4.89,4.62-6.1S314.84,964.57,315.65,966.73Z"/><path class="cls-10" d="M213.73,925s-15.32,1.26-20.9-15.25S211,881.92,227,884.67,244.8,917.78,213.73,925Z"/><ellipse class="cls-11" cx="214.92" cy="911.99" rx="9.73" ry="6.28" transform="translate(-288 121.43) rotate(-19.2)"/><path class="cls-10" d="M144.2,942.71s-5.72-1.4-5.24-6.28,10.74-5.12,16.12-2.6S156.5,944.35,144.2,942.71Z"/><path class="cls-11" d="M150.39,939.68c0,1-1.79,1.68-3.89,1.58s-3.76-1-3.71-2,1.79-1.68,3.89-1.58S150.44,938.7,150.39,939.68Z"/><path class="cls-10" d="M236.31,956.31s.85-9.3,15.79-13.37,21.73,10,17.33,19.86S238.64,975,236.31,956.31Z"/><path class="cls-11" d="M249.09,962A5.75,5.75,0,0,1,242,958.1a5.57,5.57,0,0,1,3.67-7,5.72,5.72,0,0,1,7,3.87A5.57,5.57,0,0,1,249.09,962Z"/><path class="cls-5" d="M1234.78,1005.62S1218.58,994,1222.43,977s-21-42.54-8.72-45.2,22.43,23.6,25.49,42.21S1242.25,1006.28,1234.78,1005.62Z"/><path class="cls-6" d="M1239.2,974c-3.06-18.61-13.25-44.87-25.49-42.21a4.61,4.61,0,0,0-2.3,1.13,13.52,13.52,0,0,0,5,4.52c6.46,3.65,14.1,15.79,14.1,21.77s-.33,18.62,1.53,28.92c1,5.5,0,11-.14,15a29.35,29.35,0,0,0,2.86,2.45C1242.25,1006.28,1242.25,992.66,1239.2,974Z"/><path class="cls-5" d="M1236.48,991.37s3.74-35.23,18-24.93-12.25,39.55-18,39.22S1236.48,991.37,1236.48,991.37Z"/><path class="cls-6" d="M1254.49,966.44a8.85,8.85,0,0,0-4.64-1.87c.48,1.07,1,2.42,1.58,4,1.53,4.49-.68,5.82-3.06,11.64-2.21,5.41-13.29,10.84-14.38,22.7.22,1.54.93,2.64,2.49,2.72C1242.24,1006,1268.76,976.75,1254.49,966.44Z"/><path class="cls-5" d="M1377.12,958.75s16.19-11.64,12.34-28.59,21-42.55,8.72-45.21-22.42,23.61-25.48,42.22S1369.64,959.41,1377.12,958.75Z"/><path class="cls-6" d="M1372.7,927.17c3.06-18.61,13.25-44.87,25.48-42.22a4.78,4.78,0,0,1,2.31,1.14,13.48,13.48,0,0,1-5,4.52c-6.45,3.65-14.1,15.78-14.1,21.77s.34,18.61-1.53,28.92c-1,5.5.05,11,.14,15a32.15,32.15,0,0,1-2.85,2.45C1369.64,959.41,1369.64,945.78,1372.7,927.17Z"/><path class="cls-5" d="M1375.42,944.5s-3.74-35.23-18-24.93,12.25,39.55,18,39.22S1375.42,944.5,1375.42,944.5Z"/><path class="cls-6" d="M1357.41,919.57a8.85,8.85,0,0,1,4.63-1.87c-.48,1.07-1,2.42-1.57,4-1.53,4.49.68,5.82,3,11.63,2.22,5.42,13.29,10.85,14.38,22.71-.21,1.54-.92,2.63-2.48,2.72C1369.66,959.12,1343.14,929.87,1357.41,919.57Z"/><path class="cls-5" d="M1493.94,1013.57s16.19-11.63,12.34-28.58,21-42.55,8.72-45.21-22.42,23.6-25.48,42.21S1486.46,1014.24,1493.94,1013.57Z"/><path class="cls-6" d="M1489.52,982c3.06-18.61,13.25-44.87,25.48-42.21a4.61,4.61,0,0,1,2.3,1.14,13.43,13.43,0,0,1-5,4.51c-6.45,3.66-14.1,15.79-14.1,21.77s.33,18.62-1.53,28.92c-1,5.51,0,11,.14,15a30.14,30.14,0,0,1-2.85,2.45C1486.46,1014.24,1486.46,1000.61,1489.52,982Z"/><path class="cls-5" d="M1492.24,999.32s-3.74-35.23-18-24.92,12.25,39.55,18,39.22S1492.24,999.32,1492.24,999.32Z"/><path class="cls-6" d="M1474.23,974.4a8.87,8.87,0,0,1,4.63-1.88c-.48,1.08-1,2.43-1.57,4-1.53,4.48.68,5.81,3,11.63,2.22,5.42,13.29,10.84,14.38,22.7-.21,1.54-.92,2.64-2.48,2.73C1486.48,1014,1460,984.7,1474.23,974.4Z"/><path class="cls-5" d="M1568.36,990.5s16.2-11.64,12.35-28.59,21-42.55,8.72-45.21-22.43,23.6-25.49,42.22S1560.88,991.16,1568.36,990.5Z"/><path class="cls-6" d="M1563.94,958.92c3.06-18.62,13.25-44.87,25.49-42.22a4.74,4.74,0,0,1,2.3,1.14,13.52,13.52,0,0,1-5,4.52c-6.46,3.65-14.1,15.78-14.1,21.77s.33,18.61-1.53,28.92c-1,5.5,0,11,.13,15a32.15,32.15,0,0,1-2.85,2.45C1560.88,991.16,1560.88,977.53,1563.94,958.92Z"/><path class="cls-5" d="M1566.66,976.25s-3.74-35.23-18-24.93,12.25,39.55,18,39.22S1566.66,976.25,1566.66,976.25Z"/><path class="cls-6" d="M1548.65,951.32a8.85,8.85,0,0,1,4.63-1.87c-.47,1.07-1,2.42-1.57,4-1.53,4.49.68,5.82,3.06,11.63,2.21,5.42,13.29,10.85,14.37,22.71-.21,1.54-.92,2.63-2.48,2.72C1560.9,990.87,1534.38,961.62,1548.65,951.32Z"/><path class="cls-5" d="M1293.72,964.41s-3.75-32-13.13-25.9,6.38,32.88,10.13,30.67S1293.72,964.41,1293.72,964.41Z"/><path class="cls-5" d="M1288.59,961.48s13-47.7,28.38-38.53-21.76,49.26-26.25,46.23A6,6,0,0,1,1288.59,961.48Z"/><path class="cls-6" d="M1293.72,964.41s-3.63-30.85-12.65-26.16a9.06,9.06,0,0,1,.46,1c1.83,4.55,0,1.93,2,7.16s6.47,8.41,6.75,14A82.2,82.2,0,0,0,1291,969C1294.42,966.85,1293.72,964.41,1293.72,964.41Z"/><path class="cls-6" d="M1317,923a10.08,10.08,0,0,0-1-.52,8.38,8.38,0,0,1-.22,1.39c-1.13,4.55-2.68,5.65-4.22,7.43s-2.11,1.69-4.22,6.49-1.67,9.61-3,11.26a45.47,45.47,0,0,1-4.37,4.39l-6.17,5.66a34.21,34.21,0,0,0-3,8.44l-.28,1.54.21.15C1295.21,972.21,1332.35,932.13,1317,923Z"/><path class="cls-5" d="M1429.43,987.32s-5.31-45.28-18.58-36.66,9,46.53,14.33,43.41S1429.43,987.32,1429.43,987.32Z"/><path class="cls-5" d="M1422.18,983.16s18.4-67.51,40.16-54.53-30.79,69.72-37.16,65.44S1422.18,983.16,1422.18,983.16Z"/><path class="cls-6" d="M1429.43,987.32s-5.13-43.68-17.9-37c.22.41.43.86.65,1.39,2.58,6.43,0,2.73,2.78,10.13s9.16,11.9,9.56,19.87a118.51,118.51,0,0,0,1.06,12.14C1430.42,990.76,1429.43,987.32,1429.43,987.32Z"/><path class="cls-6" d="M1462.34,928.63a12.64,12.64,0,0,0-1.47-.74,11.19,11.19,0,0,1-.32,2c-1.59,6.42-3.78,8-6,10.51s-3,2.4-6,9.18-2.36,13.61-4.17,16a64.78,64.78,0,0,1-6.18,6.2l-8.74,8a48.4,48.4,0,0,0-4.24,12c-.14.75-.27,1.48-.38,2.17l.28.22C1431.55,998.35,1484.11,941.62,1462.34,928.63Z"/><path class="cls-5" d="M1535.13,1009.4s-3.75-32-13.13-25.91,6.38,32.88,10.13,30.68S1535.13,1009.4,1535.13,1009.4Z"/><path class="cls-5" d="M1530,1006.46s13-47.7,28.38-38.53-21.76,49.26-26.25,46.24A6,6,0,0,1,1530,1006.46Z"/><path class="cls-6" d="M1535.13,1009.4s-3.63-30.86-12.65-26.17c.15.3.31.61.46,1,1.83,4.54,0,1.92,2,7.15s6.47,8.41,6.75,14a82,82,0,0,0,.75,8.58C1535.83,1011.83,1535.13,1009.4,1535.13,1009.4Z"/><path class="cls-6" d="M1558.38,967.93a10.08,10.08,0,0,0-1-.52,8.65,8.65,0,0,1-.22,1.4c-1.13,4.54-2.68,5.64-4.22,7.43s-2.11,1.69-4.22,6.48-1.67,9.61-3,11.27a45,45,0,0,1-4.37,4.38l-6.17,5.66a34.21,34.21,0,0,0-3,8.44c-.1.54-.19,1-.28,1.54l.21.15C1536.62,1017.19,1573.76,977.11,1558.38,967.93Z"/><path class="cls-5" d="M1336.74,1012.51s-3.75-32-13.12-25.91,6.37,32.88,10.12,30.68S1336.74,1012.51,1336.74,1012.51Z"/><path class="cls-5" d="M1331.62,1009.57s13-47.7,28.38-38.52-21.76,49.25-26.26,46.23A6,6,0,0,1,1331.62,1009.57Z"/><path class="cls-6" d="M1336.74,1012.51s-3.62-30.86-12.64-26.16a10.3,10.3,0,0,1,.45,1c1.83,4.54,0,1.92,2,7.15s6.47,8.41,6.75,14a84.76,84.76,0,0,0,.75,8.58C1337.44,1014.94,1336.74,1012.51,1336.74,1012.51Z"/><path class="cls-6" d="M1360,971.05a8.62,8.62,0,0,0-1-.53,7.41,7.41,0,0,1-.22,1.4c-1.12,4.54-2.67,5.64-4.22,7.43s-2.11,1.69-4.22,6.48-1.66,9.62-2.94,11.27a46.17,46.17,0,0,1-4.37,4.38l-6.18,5.66a34.18,34.18,0,0,0-3,8.45q-.15.79-.27,1.53l.2.16C1338.24,1020.3,1375.37,980.22,1360,971.05Z"/><path class="cls-5" d="M1643.13,1009.37s3.75-32,13.13-25.9-6.38,32.87-10.13,30.67S1643.13,1009.37,1643.13,1009.37Z"/><path class="cls-5" d="M1648.25,1006.43s-13-47.69-28.37-38.52,21.76,49.25,26.25,46.23S1648.25,1006.43,1648.25,1006.43Z"/><path class="cls-6" d="M1643.13,1009.37s3.62-30.86,12.64-26.16c-.15.29-.3.61-.45,1-1.83,4.54,0,1.93-2,7.16s-6.47,8.4-6.75,14a82,82,0,0,1-.75,8.57C1642.43,1011.8,1643.13,1009.37,1643.13,1009.37Z"/><path class="cls-6" d="M1619.88,967.91a7.84,7.84,0,0,1,1-.53,7.41,7.41,0,0,0,.22,1.4c1.13,4.54,2.67,5.64,4.22,7.43s2.11,1.69,4.22,6.49,1.67,9.61,2.94,11.26a46.17,46.17,0,0,0,4.37,4.38l6.18,5.66a34.37,34.37,0,0,1,3,8.45c.1.53.19,1,.27,1.53l-.2.16C1641.64,1017.16,1604.5,977.08,1619.88,967.91Z"/><path class="cls-5" d="M1709.93,992.23s-3.75-32-13.13-25.9,6.38,32.88,10.13,30.67S1709.93,992.23,1709.93,992.23Z"/><path class="cls-5" d="M1704.81,989.3s13-47.7,28.37-38.53S1711.43,1000,1706.93,997A6,6,0,0,1,1704.81,989.3Z"/><path class="cls-6" d="M1709.93,992.23s-3.62-30.85-12.64-26.16a10.56,10.56,0,0,1,.45,1c1.83,4.54,0,1.92,2,7.15s6.47,8.41,6.75,14a82.2,82.2,0,0,0,.75,8.58C1710.63,994.67,1709.93,992.23,1709.93,992.23Z"/><path class="cls-6" d="M1733.18,950.77a9.17,9.17,0,0,0-1-.52,7.67,7.67,0,0,1-.22,1.4c-1.13,4.54-2.67,5.64-4.22,7.42s-2.11,1.69-4.22,6.49-1.67,9.61-2.94,11.26a45.44,45.44,0,0,1-4.37,4.39l-6.18,5.66a34.21,34.21,0,0,0-3,8.44c-.1.54-.19,1.05-.27,1.54l.2.15C1711.43,1000,1748.56,960,1733.18,950.77Z"/><path class="cls-12" d="M1156.13,721.05c16.09-4.95,34.09,46.39,49.6,57.5,20.91,15,72.63,9.22,74.67,16.8,5.09,18.89-61.86,32.17-95.7,8.73C1156,784.22,1137,727,1156.13,721.05Z"/><path class="cls-13" d="M1276.43,805.11c-3.68-1.42-7.9-2.14-11.56-.48-8.8,4-17.79,4.48-28.61.88s-20.73-2.85-37.26-5.66-12.91-7.31-20.34-19.17c-5.33-8.51-20-21.88-27.83-28.75,5.15,18.82,18.05,41.18,33.87,52.15C1212.25,823.16,1261.72,817.91,1276.43,805.11Z"/><path class="cls-8" d="M1194.14,764.86c-12.49-18.9-25.79-47.57-38-43.81-14,4.33-10.79,39,5,63.54C1161.13,784.59,1188.57,777.28,1194.14,764.86Z"/><path class="cls-14" d="M1161.55,750.58c1.35-12-4.18-5.57-6.87-11.1-2.1-4.31-.46-13.94.37-18-12.77,5.77-9.28,39.22,6.06,63.12a106.41,106.41,0,0,0,15.42-5.66c-2.75-1.86-6.47-2.26-8.09-2.74C1165.37,775.28,1160.2,762.54,1161.55,750.58Z"/><path class="cls-15" d="M1160.7,795.18s22.58,64.19,21.82,98.94c-.72,32.64-16.2,110-37,115.56s-14.14-40.77-14.14-40.77l9.68-77s-31.53-83.77-19.15-92S1160.7,795.18,1160.7,795.18Z"/><path class="cls-15" d="M1099.35,796.25s-6.43,11.65-7.78,19.36c-1.72,9.78,7.66,65.22,4.45,86.69-1.9,12.69-10.79,27.32-9.1,50.51,2.56,35.07,9.48,46.38,22,46.38,16.27,0,26-90.65,26-106.29s-2.88-93.7-2.88-93.7Z"/><path class="cls-8" d="M1098.58,797.7c-.71-.45-3.12-15.49-8.31-26.94-4.61-10.16-16.36-33.11,6.41-48.36,17.22-11.52,50.44-9.13,61.52-1.52,19.9,13.67.62,69.38,2.5,74.3C1160.7,795.18,1128.71,801.77,1098.58,797.7Z"/><path class="cls-15" d="M1161.86,736.92c-1.7-6.15-3.5-12.12-5-16.85-4.6-2.62-11.93-4.51-20.17-5.26,9.25,10.23,10.52,26.08,10.52,26.08L1119.58,743l-11.72-25.7a41.86,41.86,0,0,0-11.18,5.08c-.59.4-1.15.8-1.7,1.21,15.83,18.73,11.44,63.31,12.51,75.49,27.55,3.2,53.21-3.92,53.21-3.92-.42-1.1.21-4.73,1.23-9.86.41-6.09,1.08-13.67,2-21.63A70.52,70.52,0,0,0,1161.86,736.92Z"/><path class="cls-5" d="M1124.5,688.9s-2.1-6.77-8.61-5.43c-9.22,1.9-9.19,12.35-6.54,15.36,3.69,4.2,6.6,1.84,9.18-.83S1124.5,688.9,1124.5,688.9Z"/><path class="cls-14" d="M1112.84,695.17s4.35-10.23,8.45-12.56c5.6-3.18,9.18,1.45,8.75,4.21s-5.19,9.07-6.87,9.64S1112.84,695.17,1112.84,695.17Z"/><path class="cls-12" d="M1114,701.09l-.37,17.25c.69,2.2,14.72,4.56,17.37.69.77-1.13-.19-3.14-1.91-5.12l-9.8-10.62Z"/><path class="cls-8" d="M1121.23,705.43c-2.61.33-6.19.75-6.19.75a11.11,11.11,0,0,0,12.59,6.18Z"/><path class="cls-8" d="M1125.53,692.07s1.48-2.22-1.75-4.85-12.73,8.57-12.62,11.95c.18,5,2.69,7.55,2.69,7.55S1126.28,697.83,1125.53,692.07Z"/><path class="cls-12" d="M1115.52,695l-.73,9.55a5.9,5.9,0,0,0,5.83,5.83,16.84,16.84,0,0,0,7.16-1.43c2.51-.93,3.22-3.68,2.39-7a31.69,31.69,0,0,0-4.64-9.85C1122.53,687.76,1116.46,688.77,1115.52,695Z"/><path class="cls-8" d="M1114.79,704.51l.73-9.55a8.91,8.91,0,0,1,.56-2c.32,1.81,1.26,5.63,1.92,6.16,1.68,1.35,1.2-.14,4.21-1a19.19,19.19,0,0,1,6.63-.06,25.74,25.74,0,0,1,1.33,3.86c.83,3.31.12,6.06-2.39,7a16.84,16.84,0,0,1-7.16,1.43A5.9,5.9,0,0,1,1114.79,704.51Z"/><path class="cls-10" d="M1122.56,700.1a16.45,16.45,0,0,0,5.19-1.09s.57,1.9-.46,2.86S1123.85,702.22,1122.56,700.1Z"/><path class="cls-14" d="M1127.76,705.42c-3,.13-4.15,5-10.31,2.13-1.15-.53-2.12-2.23-2.65-3.24v.2a5.9,5.9,0,0,0,5.83,5.83,16.84,16.84,0,0,0,7.16-1.43,4.1,4.1,0,0,0,2.64-3.45A15.17,15.17,0,0,1,1127.76,705.42Z"/><path class="cls-12" d="M1116.66,698.47a9,9,0,0,1-.59-1.67c-.28-1.1-1-2.66-2.41-1.46-2.12,1.75-.81,7.08,2.07,6.86C1117.87,702,1117.34,699.82,1116.66,698.47Z"/><path class="cls-12" d="M1091,727c-7.9-1-61.35,32.52-62.41,70.41-1,34.24,66.26,57.57,72.61,47.63s-39.88-38.78-37.69-53.07c2.11-13.68,31.73-28,35.32-40.07C1103.33,736.86,1097.93,727.92,1091,727Z"/><path class="cls-12" d="M1095.92,839.46s3.55-6.36,6.86-6.88,10.87,1.52,9.81,2.33-7.87.15-7.87.15,7.22,2.64,8.55,4.42-1.59,4.23-3.48,4.65-10.6,4.1-13.84,3.06S1095.92,839.46,1095.92,839.46Z"/><path class="cls-8" d="M1048.69,756.08c16.39-17.79,37.58-29.67,42.32-29.05,6.92.89,12.32,9.83,7.83,24.9-2.45,8.2-13.67,22.32-23.35,31.74C1068.65,781.44,1054.94,770.87,1048.69,756.08Z"/><path class="cls-16" d="M1135,1016.71l.07,0c-.31-3.38-1.72-8.63-2.39-15.23-.38-3.74-6.08-14.91-1.23-17.7,0,0,35.15-7.94,35.17-3.3,0,9.35-13.08,33.56-13,34.49,1.9.29,18.4,9,18.63,10.88.38,3.06-31.92,2.88-37.28-.09C1132.11,1024.25,1132.35,1020.45,1135,1016.71Z"/><path class="cls-17" d="M1135,1016.71l.07,0c-.31-3.38-1.72-8.63-2.39-15.23-.38-3.74-6.08-14.91-1.23-17.7,0,0,4-.9,9.32-1.92.46,8.37,1.13,21.35,1.12,26.42,0,3.83,1,12,2,19.25-4.15-.38-7.52-1-8.95-1.77C1132.11,1024.25,1132.35,1020.45,1135,1016.71Z"/><path class="cls-16" d="M1094.31,1016.71l.07,0c-.31-3.38-1.72-8.63-2.39-15.23-.38-3.74-6.08-14.91-1.23-17.7,0,0,35.15-7.94,35.17-3.3,0,9.35-13.08,33.56-13,34.49,1.9.29,18.4,9,18.63,10.88.38,3.06-31.92,2.88-37.28-.09C1091.47,1024.25,1091.71,1020.45,1094.31,1016.71Z"/><path class="cls-17" d="M1094.31,1016.71l.07,0c-.31-3.38-1.72-8.63-2.39-15.23-.38-3.74-6.08-14.91-1.23-17.7,0,0,4-.9,9.32-1.92.46,8.37,1.13,21.35,1.12,26.42,0,3.83,1,12,2,19.25-4.15-.38-7.52-1-9-1.77C1091.47,1024.25,1091.71,1020.45,1094.31,1016.71Z"/><path class="cls-18" d="M1124.93,766l27.75-.83s5.09,15.53-8.27,18S1122.44,777.43,1124.93,766Z"/><path class="cls-12" d="M1279.81,790.89s11.31,1.33,12.34,2.83,3.77,3.54,1.2,5.72-8.4,6.21-11.48,5.87-10.45-2.51-9.34-5.87S1274.85,791.73,1279.81,790.89Z"/><path class="cls-8" d="M1047.94,976.43c-25.3,0-49-2.85-66.37-9.34-41.23-15.42-61.1-9.93-61.3-9.87a3.41,3.41,0,0,1-4.22-2.2,3.29,3.29,0,0,1,2.22-4.13c.87-.27,21.94-6.37,65.72,10,43.38,16.22,127.92,8.79,174.53-8.7,27.56-10.34,69.42-76.48,94.43-116,12.2-19.27,21-33.19,25.48-37.06,14.5-12.57,30-9.75,30.69-9.63a3.31,3.31,0,0,1,2.66,3.89,3.39,3.39,0,0,1-4,2.62c-.54-.1-13-2.23-24.9,8.08-3.72,3.23-13.21,18.22-24.21,35.59-27.11,42.83-68.07,107.56-97.77,118.7C1131.72,969.35,1087.85,976.43,1047.94,976.43Z"/><path class="cls-12" d="M1272.61,795.18s5.31-8.16,11.14-8,5.32,4.2,8.4,5,2.57,2.3,1,3-6.34-4-7.89-2.15-5.7,8.22-9.62,7A4.16,4.16,0,0,1,1272.61,795.18Z"/><path class="cls-12" d="M1280,806c-1-1.39,2.74-4.53,5.49-4.19s4.62-7,9.94-4.7S1282.26,809.14,1280,806Z"/><path class="cls-8" d="M1300.28,789.52V796a1.5,1.5,0,0,0,1.65,1.48L1330.6,795a1.39,1.39,0,0,0,1.29-1.37v-2.37a1.4,1.4,0,0,0-1.32-1.38L1301.9,788A1.5,1.5,0,0,0,1300.28,789.52Z"/><path class="cls-8" d="M905.31,1000.85a8.38,8.38,0,0,1-8.47-8.28V954.88a8.38,8.38,0,0,1,8.47-8.28h9.31a8.28,8.28,0,1,1,0,16.56h-.84v29.41A8.38,8.38,0,0,1,905.31,1000.85Z"/><path class="cls-19" d="M1331.89,790.56s33.18-4.42,57.32,14.77c37,29.4,88.25,145,85,168.79s-16.17,20.28-25.77,16.4S1433,958.77,1433,958.77s-4.45,31.75-22.58,31.75c-6.73,0-18.65-31.75-18.65-31.75s-5.79,20.34-15.09,9.42,7.2-81.89-4.08-120.81-40.66-54.45-40.66-54.45Z"/><path class="cls-13" d="M409.08,738.37l-16.83,25.55S335,802.25,346,813.08s80.19-50.91,80.25-57.18c0-4.32-6.79-12.95-11-17.92A3.83,3.83,0,0,0,409.08,738.37Z"/><path class="cls-5" d="M367.09,856.4l-5.22-16a10.25,10.25,0,0,0-9.73-7.52A80.47,80.47,0,0,0,337,834.4a10.59,10.59,0,0,0-8.36,9.1l.34,14.73a2.45,2.45,0,0,1-4,1.88c-9.35-7.81-26.57-21.61-32.7-23-8.21-1.82.37,5.15,2.69,7.35,1.83,1.73,17.79,25.6,29.59,34.2a20.86,20.86,0,0,1,7.48,9.39c.87,2.34,2.88,4.42,7.83,4.42l27.85-3.89C376.63,887.73,368.16,860.48,367.09,856.4Z"/><path class="cls-6" d="M353.93,837.15c.15,1.34-3.92,2.86-9.08,3.38s-9.46-.15-9.6-1.5,3.92-2.86,9.08-3.38S353.79,835.8,353.93,837.15Z"/><path class="cls-5" d="M357.19,839.13h-.06a1.65,1.65,0,0,1-1.77-1.51c0-.17,0-.38,0-.64-.15-2.66-.6-10.78-5.08-14.52a9.6,9.6,0,0,0-7.5-2,8.11,8.11,0,0,0-6,3.14c-4,5.14-2.28,14.61-2.26,14.71a1.63,1.63,0,0,1-1.34,1.88,1.67,1.67,0,0,1-1.93-1.31c-.08-.44-1.94-11,2.88-17.24a11.47,11.47,0,0,1,8.29-4.41,13,13,0,0,1,10,2.71c5.57,4.65,6.06,13.49,6.24,16.82,0,.23,0,.43,0,.59A1.63,1.63,0,0,1,357.19,839.13Z"/><path class="cls-16" d="M429,692.55l1.49-.94a3.58,3.58,0,0,1,2.69-.47,17.63,17.63,0,0,1,8,4.34,3.38,3.38,0,0,1,1.09,2.49,18.54,18.54,0,0,0,.39,4.51c.37.88-8.82-.58-13.93-4.23A3.42,3.42,0,0,1,429,692.55Z"/><path class="cls-16" d="M404.6,700.31s-.68-3.24,3.4-6.28,11.88-4,24.74,1.55,24.59,15.19,23.22,21.3c-.68,3-1,5.48-5.38,6.08C447.78,723.35,404.6,700.31,404.6,700.31Z"/><path class="cls-20" d="M454.71,717.17c-2.32-8.86-22.18-21.84-41.39-22.66-11.54-.5-8.2,8.11-8.2,8.11s1.82,7.79,18.14,15.31C442.18,726.65,456.67,724.62,454.71,717.17Z"/><path class="cls-8" d="M434.37,718s13.23,6.65,16.29,15.65-15.79,10.6-22.31,9.73S428.3,721.7,434.37,718Z"/><path class="cls-15" d="M473.71,860.38c1.59-15.34,5-35-2.11-49.48-5.55-12.6-17-21.76-23.4-33.88A28.58,28.58,0,0,1,445,759.43c.66-4.51,3.92-10.25,4.3-14.82.89-10.66-6.53-19.84-19-18.61-9.42.93-23.57,8.38-24.41,18.48-.92,11,3.33,21.59,2,32.72-.84,6.75-4.54,12.47-7.11,18.66a163.31,163.31,0,0,0-7.31,23.88,409.26,409.26,0,0,0-8.36,48.54q-.87,7.26-1.57,14.53c-2.71,27.58,1.22,127.79,17.1,126.63,18.58-1.35,14.29-59.64,12.4-90.83-.65-10.77,4.84-19.93,6.83-30.25,1.57.09,5.82-49.09,11-49.06s5.18,70.85,5.18,70.85c-.6,10.42,14.76,99.29,23.17,99.29,26,0,12.26-77.85,7.38-90.52C464.44,908.11,472.91,868.09,473.71,860.38Z"/><path class="cls-8" d="M430.19,839.59c-4,1.71-24.18,11.15-24.06,26.93.14,17.52-6.42,23.65-7.61,44.66S394.31,971.9,400,992a101.64,101.64,0,0,1,2.89,16.93c16-5.74,12-60.48,10.18-90.36-.65-10.77,4.84-19.93,6.83-30.25C421.39,888.45,425.33,843.57,430.19,839.59Z"/><path class="cls-8" d="M425.34,702.73s-2.06-4.47-5.84-2.53-.31,8.68-1.94,10.55,1.75,4.27,4.13,4.33,8.47,7.61,10.7,7.22,6.93-4.45,5.06-11.58C435.9,704.81,431.14,702.73,425.34,702.73Z"/><path class="cls-16" d="M414,1016.4l-.06,0c.27-3,1.52-7.61,2.11-13.43.34-3.3,5.36-25.18,1.09-27.64,0,0-31-7-31-2.91,0,8.25,11.54,41.63,11.48,42.45-1.68.26-16.24,8-16.44,9.6-.34,2.7,28.16,2.54,32.89-.08C416.5,1023.05,416.3,1019.7,414,1016.4Z"/><path class="cls-17" d="M414,1016.4l-.06,0c.27-3,1.52-7.61,2.11-13.43.34-3.3,5.36-25.18,1.09-27.64,0,0-3.54-.8-8.23-1.7-.41,7.39-1,30.87-1,35.34,0,3.37-.88,10.56-1.79,17,3.66-.34,6.64-.86,7.9-1.56C416.5,1023.05,416.3,1019.7,414,1016.4Z"/><path class="cls-11" d="M428.36,741.56c1.48-1.39,6.24-10.55,8.55-15.19a17.84,17.84,0,0,0-6.54-.37,30.79,30.79,0,0,0-7.32,1.74c-2.69,3-7.65,9-7.54,11.5C415.66,742.72,426.35,743.45,428.36,741.56Z"/><path class="cls-12" d="M431.87,714.81l1.57,12c.25,2-4.14,7.65-7.64,5.5-1-.63-.12-3.5.53-5.66l1.19-10.63Z"/><path class="cls-8" d="M426.64,723.89c4.08-1.53,4.92-6.79,4.92-6.79l-4.21.48Z"/><path class="cls-12" d="M430,708.49l1.89,4.34a6.91,6.91,0,0,1-3.43,9.1,6.14,6.14,0,0,1-8.52-3.73c-1.4-3.59.47-7.44,1-9.36C422.15,704.48,427.43,703.65,430,708.49Z"/><path class="cls-12" d="M431.65,713.27a5.45,5.45,0,0,0,.36-1.19c.16-.77.58-1.88,1.63-1.09,1.54,1.16.46,5.23-1.55,5.16C430.59,716.09,431.22,714.23,431.65,713.27Z"/><path class="cls-10" d="M424.9,716.21a12.17,12.17,0,0,1-4.2-.35,2.48,2.48,0,0,0,.76,1.75C422.35,718.26,424,718.13,424.9,716.21Z"/><path class="cls-13" d="M427.65,720.56a6.17,6.17,0,0,1-7.81-2.56,1.18,1.18,0,0,0,.07.2,6.14,6.14,0,0,0,8.52,3.73,6.69,6.69,0,0,0,3.9-5A8.85,8.85,0,0,1,427.65,720.56Z"/><path class="cls-8" d="M466.61,918.92c-2.17-10.81,6.3-50.83,7.1-58.54,1.59-15.34,5-35-2.11-49.48-5.55-12.6-17-21.76-23.4-33.88A28.58,28.58,0,0,1,445,759.43c.66-4.51,3.92-10.25,4.3-14.82a18.06,18.06,0,0,0-3.11-12.07c-2.48,9.26-8.55,34-5.92,45.89,3.27,14.83,9.84,40.84,17,50.31s-2.39,18.83-4.48,33.27-3.65,10.93,3.25,23.19-12.2,16.35-3.85,38.24,17,22.26,12.54,39.59c-2.53,9.8-10.15,22.26-12.68,32.68,2.58,8.31,5.08,13.73,7.15,13.73C485.27,1009.44,471.49,931.59,466.61,918.92Z"/><path class="cls-8" d="M408.1,775.16c-.05.68-.11,1.36-.19,2-.83,6.66-4.43,12.3-7,18.4,8-4,22.07-12.71,22.81-25C424.23,762.38,416.39,767.55,408.1,775.16Z"/><path class="cls-21" d="M448.2,777A28.58,28.58,0,0,1,445,759.43c.66-4.51,3.92-10.25,4.3-14.82.54-6.42-2-12.29-6.74-15.69-2.15,3.59-7.55,13.27-8.22,21-.84,9.73-4.58,23.35,4.55,26.47a48.53,48.53,0,0,0,10.07,2C448.72,778,448.45,777.49,448.2,777Z"/><path class="cls-12" d="M442,733.61c-15.9-.49-46.25,36.59-46.25,36.59s-57.49,31.72-49.13,44.27,83.36-40.78,97.67-64C449,742.8,448,733.8,442,733.61Z"/><path class="cls-16" d="M471,1017.46l-.06,0c.27-3,1.52-7.61,2.11-13.44.34-3.3,5.36-25.17,1.09-27.63,0,0-31-7-31-2.92,0,8.26,11.54,41.63,11.48,42.45-1.68.26-16.24,8-16.44,9.61-.34,2.69,28.16,2.54,32.89-.09C473.54,1024.12,473.34,1020.76,471,1017.46Z"/><path class="cls-17" d="M471,1017.46l-.06,0c.27-3,1.52-7.61,2.11-13.44.34-3.3,5.36-25.17,1.09-27.63,0,0-3.54-.8-8.23-1.7-.4,7.39-1,30.86-1,35.34,0,3.37-.88,10.56-1.79,17,3.66-.34,6.64-.87,7.9-1.57C473.54,1024.12,473.34,1020.76,471,1017.46Z"/><path class="cls-13" d="M424.9,761.64c-.72,3.89-17.83,14.59-17.83,14.59l-31,21s-26.53,8.75-28.88,15a7.4,7.4,0,0,0-.44,2.39c8.91,11.91,83.3-41,97.55-64.17,3.14-5.11,3.72-10.8,2-14.08a22.3,22.3,0,0,1-5.11,8.73C436.51,749.57,425.62,757.74,424.9,761.64Z"/><path class="cls-12" d="M352.53,814.58s-.14,6.49-4.87,9.76c-4.19,2.9-9.74.54-10.29-.09-1.76-2.08,5.43-4.12,6-6.62s.11-6.9,3.39-6.78S353.37,811.82,352.53,814.58Z"/><path class="cls-12" d="M345.62,810.75a35.22,35.22,0,0,0-6.46,3.72c-1.9,1.5-3.82,3.74-2.73,5,.37.43,3-.63,4.08-1.6s3.77.65,5.26-1S348,809.61,345.62,810.75Z"/><polygon class="cls-8" points="293.65 837.57 286.93 829.94 284.54 843.37 292.85 842.54 293.65 837.57"/><path class="cls-15" d="M287.87,836.85c-.57,3.77-2.18,6.67-3.59,6.47s-2.1-3.43-1.53-7.21,2.17-6.68,3.59-6.48S288.43,833.07,287.87,836.85Z"/><path class="cls-6" d="M367.09,856.4l-5.22-16a10.25,10.25,0,0,0-9.73-7.52c-1.28,0-2.68,0-4.13.12,2.89.22,6.27.78,7.19,2.18,1.69,2.59,2.89,3.91-.69,5.8s-5.38.29-6.27,3.07,5.07,1.16,7.16,5-11.1,4.23-5.25,9.78,8.23,2.66,7.49,12.2c-.49,6.31-.59,13.91.34,19l9.75-1.36C376.63,887.73,368.16,860.48,367.09,856.4Z"/><path class="cls-6" d="M325.11,873.38c-1.19-4.23-3.35-3.21-9.54-6.78s-4.78-6.35-6-10.15-2.84-3-6.42-3.94-3.87-5.4-5.81-8.1a3.23,3.23,0,0,0-3.93-1.33c.61.56,1.16,1,1.54,1.41,1.83,1.73,17.79,25.6,29.59,34.2a22.76,22.76,0,0,1,5.88,6.19c1.09-.41,1.76-1,1.68-1.94C331.75,879,326.31,877.61,325.11,873.38Z"/><path class="cls-22" d="M280.53,834.73s-31.33,2.35-29.92,13.67,24-12,24.28-8.81-6.39,4.53-5.88,7.7S279,844.12,280.53,834.73Z"/><path class="cls-22" d="M261.06,857.37S246,864,247.51,872.83,261.06,857.37,261.06,857.37Z"/><path class="cls-22" d="M264.58,867.67s-13.65,16.75-3.3,21.42S264.58,867.67,264.58,867.67Z"/><path class="cls-12" d="M1792.42,808.21s-38.86,43.92-55,72.39c-12.93,22.82-27.65,71.07-16.09,80.35s29.06-16.32,45.8-69.23c5.77-18.24,75.7-61.26,65.61-86.81C1828.58,794.35,1792.42,808.21,1792.42,808.21Z"/><path class="cls-13" d="M1830.38,802.31a13.6,13.6,0,0,0-6.24-1.35c-5.17,8.74-16.07,26.12-25.13,33.49-12.36,10-31.17,21.74-35,34.06s-20.92,26.2-23.91,41.8c-2.79,14.58-9.14,45.88-10.13,51.68,10.76-4.69,24.18-29.29,37.15-70.27,4.45-14.08,47.15-42.94,61.74-67.12C1830.42,815.93,1831.21,807.83,1830.38,802.31Z"/><path class="cls-8" d="M1720.6,917c-7.41,25.84-11.7,52.84-12.88,53.41-1.72.83-23.49-1.27-24.88.44-2.33,2.84,30.54,22.39,37.86,22.67,3.83.15,5.15-8.32,6.68-13.47.34-1.13,14.51-23.4,26.4-46.39-2.27-6.85-10.79-17.76-16.2-20.73C1731.59,909.63,1723.46,911.67,1720.6,917Z"/><path class="cls-8" d="M1780.68,874.6l-23-17.36s1.75,24.52,9.56,34.23C1768.74,887.06,1773.88,881.25,1780.68,874.6Z"/><path class="cls-23" d="M1832.75,804.91c-5.36-10-40.33,3.3-40.33,3.3s-27.23,23.39-39.05,48.33c7.06,1.8,19.22,32.39,36.42,34.64C1802.9,864.91,1836.43,811.78,1832.75,804.91Z"/><path class="cls-21" d="M1823.35,808.62s-7.11,25.07-17.83,32.71-15.87,11.92-22.76,22.75c-5.21,8.19-10.5,6.21-12.82,12.44,5.63,7.13,12.24,13.66,19.85,14.66,9.34-18.72,29-51.08,38.28-70.62Z"/><path class="cls-12" d="M1853.39,907s20.73-99.42-3.1-110-41.89,11.31-41.89,11.31,10,85.1,15.41,113.15c4,20.39,20.06,79.49,19,80.93s21.44,3.91,20.3-.92c-.31-1.31,1.52-38.11-1.28-65.66C1860.53,922.41,1853.39,907,1853.39,907Z"/><path class="cls-13" d="M1861.88,935.8c-1.35-13.39-8.49-28.8-8.49-28.8s16-76.91,3.68-102.64c-6,16.34-22.42,62.5-20.82,77.52,2,18.38-8.51,12.08,0,34.89s11.56,32.64,12.44,50.59c.55,11.41,1.35,26.21,4,36.89,5.48.24,11.1-.31,10.51-2.79C1862.85,1000.15,1864.68,963.35,1861.88,935.8Z"/><path class="cls-8" d="M1828.07,883s10.46,9.83,28.26,7.86c.77-4.65,1.6-10.06,2.37-15.89Z"/><path class="cls-23" d="M1861.08,878.83c4.46-30.26,5.77-72.32-9-79-23.83-10.65-43.64,11.56-43.64,11.56l7,71.46C1828.48,888.66,1846.94,884.57,1861.08,878.83Z"/><path class="cls-21" d="M1852,799.88a32.08,32.08,0,0,0-17.24-2.64,154,154,0,0,0,3.54,17.78c3.24,10.48,1.84,49.17,0,54.14-1.57,4.25-16.66,4.3-22.25,14,13.05,5.32,31.1,1.28,45-4.36C1865.54,848.57,1866.85,806.51,1852,799.88Z"/><path class="cls-12" d="M1799.31,821.63c-3.28-20.09-21.38-12.69-23.86-6.61-6.57,16.12,5.83,50,12.56,71.11,2.68,8.43,5.59,14,8.45,13.11,4.91-1.53,7.7-7.79,9.16-16.18C1809.24,862.14,1800.42,828.38,1799.31,821.63Z"/><path class="cls-8" d="M1779.45,695.32s-1.44-3.92-8.35,1.11c-2.74,2-4.55,10-7.22,10.11,0,0,2.27,6.42,12.83,5.55,8.08-.67,11.87.66,15.09-1.26s1-11.15-1.8-14.4C1788.1,694.21,1782,691.14,1779.45,695.32Z"/><path class="cls-14" d="M1790,696.43a10.56,10.56,0,0,0-4.41-2.77,13.38,13.38,0,0,1-.36,5c-1,3.56-8.36,10.46-15.58,12.76a17.63,17.63,0,0,0,7.06.68c8.08-.67,11.87.66,15.09-1.26S1792.78,699.68,1790,696.43Z"/><path class="cls-15" d="M1857.62,803.63c6.28-27.56-5.65-88.08-35.25-91.35-19-2.1-61.46,23.63-49.63,50.08,3.1,6.92,13.71,10.63,18,18.35,2.64,4.71-2.07,18.71-1.5,24.64,1.07,11,17.51,14.24,28.63,12.55C1846.37,813.56,1855.1,814.68,1857.62,803.63Z"/><path class="cls-12" d="M1787.7,706.88l11.93,11.52c1.06,2-7.12,13.07-11.69,12.13-1.34-.27-2.07-2.33-2.26-4.87l-.56-14Z"/><path class="cls-8" d="M1785.23,714.46c2.07-1.52,4.86-3.63,4.86-3.63a10.5,10.5,0,0,1-.15,7.86,10.33,10.33,0,0,1-4.34,4.92Z"/><path class="cls-12" d="M1781.89,703.29l7.22,6.21a5.63,5.63,0,0,1,0,8,16.06,16.06,0,0,1-6,3.8c-2.4,1-4.83-.41-6.57-3.29a30.72,30.72,0,0,1-3.64-10C1771.93,703,1776.89,699.58,1781.89,703.29Z"/><path class="cls-12" d="M1784.11,707.16a8.42,8.42,0,0,0-.76-1.57c-.58-1-1.2-2.5.66-2.64,2.71-.2,5.49,5,3.31,6.82C1785.7,711.09,1784.58,708.56,1784.11,707.16Z"/><path class="cls-10" d="M1780.15,711.84a15.87,15.87,0,0,1-4.41,2.72s.94,1.71,2.33,1.7S1780.73,714.19,1780.15,711.84Z"/><path class="cls-13" d="M1780.65,718.83c2.22-1.94,6.38.69,8.72-5.42.44-1.14-.08-3-.42-4l.16.14a5.63,5.63,0,0,1,0,8,16.06,16.06,0,0,1-6,3.8,4.16,4.16,0,0,1-4.26-.64C1779.3,720.46,1780,719.43,1780.65,718.83Z"/><path class="cls-8" d="M1838.34,815c12.64-1.86,17.51-3.62,19.28-11.39,5.05-22.18-1.69-65.72-20-83.57-3.85,2.14-7.84,4.67-7.84,4.67s-.37,28,6.43,42.15,3.19,31.8,2.19,46.68C1838.4,814.06,1838.37,814.54,1838.34,815Z"/><path class="cls-15" d="M1718.25,992.65l8,6.51,165.33-195a5,5,0,0,0-.66-7.16h0a5.28,5.28,0,0,0-7.36.65Z"/><path class="cls-12" d="M1791.43,894.91s-2,11.27-1.11,14-1.51,7.24-.06,7.79,5.12-5.16,5.46-8.94,3.8-6.25,3.59-10.13S1791.82,892.51,1791.43,894.91Z"/><path class="cls-12" d="M1801.38,915.67a5.88,5.88,0,0,1-3.65.75c-1.32-.17-2.64-.82-2-2.86,2.07-6.26,7.35-6.61,7.84-9.3s.37-5.2,3-5S1809.54,911.07,1801.38,915.67Z"/><path class="cls-14" d="M1740.78,915.25c-1.09,3.52-2.43,7.62-3.64,10.66-2.62,6.55-5.53,4.27-5.24,14.81S1722,967.5,1722,967.5s-8.82,13.89-12.3,21.94c4.8,2.35,8.94,4,11,4.06,3.83.15,5.15-8.32,6.68-13.47.34-1.13,14.51-23.4,26.4-46.39C1751.92,928,1745.88,919.71,1740.78,915.25Z"/><path class="cls-12" d="M1821.26,721.51a7.21,7.21,0,0,1,7.13-9.14c17.25.19,55.3,2.92,78.44,22,13.83,11.37-1.86,74.32-26.71,66.85-9.41-2.82,4.12-53.53,4.12-53.53s-44.27-1.81-56.06-13.14C1824.74,731.2,1822.58,726,1821.26,721.51Z"/><path class="cls-13" d="M1906.83,734.32c-17.27-14.2-42.86-19.33-61.89-21.09.66,1.45,3.14,3.65,11.53,5.5,13.83,3.06,30.27,2.47,33.67,9.72s7.82,14.9,10,20.2.4,9-1.6,14.7c-1.79,5.08-10.86,24.51-21.66,24.16-.42,7.22.28,12.78,3.22,13.66C1905,808.64,1920.66,745.69,1906.83,734.32Z"/><path class="cls-8" d="M1827.31,954.56c6.44,26.08,16.19,51.69,15.44,52.75-1.09,1.55-21.13,10.12-21.49,12.28-.61,3.59,37.83,4.94,44.36,1.68,3.42-1.7.33-9.72-.9-14.94-.27-1.15,1-27.36-.14-53.1-5.4-4.89-18.29-10.34-24.49-10.34C1833.22,942.89,1827.15,948.56,1827.31,954.56Z"/><path class="cls-12" d="M1876.5,796.36c-3.28,3.35-8.19,9.4-7.16,14.74a1.33,1.33,0,0,0,2.31.59l2.94-3.46s4.16,2.13,1.69,12.27a2.37,2.37,0,0,0,2.54,2.9,7.3,7.3,0,0,0,5.18-3.06c3.72-4.88,8.08-18.85,4.74-23.35a7.92,7.92,0,0,0-2.9-2.4A8.18,8.18,0,0,0,1876.5,796.36Z"/><path class="cls-24" d="M1750.87,1000.69c-7.26-3.56-20.17-10.06-25-13.64a26.92,26.92,0,0,1-2.17-1.84h0c-4.59,2.89-26.65-2.73-26.66-2.73-15,14.21-34.39,38.75-9.47,54.14,29.94,18.48,56.49-15.33,65.32-28.51A5.09,5.09,0,0,0,1750.87,1000.69Z"/><path class="cls-15" d="M1720.62,994.17s-27.09,25.93-26.8,34.48S1717.41,1011,1720.62,994.17Z"/><path class="cls-9" d="M1668.7,1044.43h73.08a4.05,4.05,0,0,0,2.19-7.52c-8.27-5-18.71-10.45-23.14-9-7.86,2.56-11.65,5.13-15.44,4.56s-9.32-7.17-18.93-7.41S1667,1037.59,1668.7,1044.43Z"/><path class="cls-12" d="M1773.69,823.41s-9.6-67.49-2.11-76.8,27,52.56,26.59,70.47S1773.69,823.41,1773.69,823.41Z"/><path class="cls-14" d="M1864.58,953.23c-4.08-3.69-12.43-7.7-18.95-9.44-1.09,3.21-1.17,8.11,3.06,14.77,8.3,13.08,6.11,11.34,4.37,28-1.13,10.79-.07,26.59.82,36.41,5.41-.23,9.88-.79,11.74-1.72,3.42-1.7.33-9.72-.9-14.94C1864.45,1005.18,1865.69,979,1864.58,953.23Z"/><path class="cls-13" d="M1784.84,826.85c6.37.93,13.14-.32,13.33-9.77.32-15.52-14.25-64.06-23-70.67-.41,5.59-.64,17.48,3.66,25.92,5.8,11.4,10.93,15.6,10.55,29.46C1789.1,811.17,1785,819,1784.84,826.85Z"/><path class="cls-13" d="M1789.25,808.67c-2.37,6.44-4.27,13.11-4.41,18.18-.37,14,9.85,26.83,10.75,40.08s-1.76,23,3.71,30.72c3.19-2.69,5.17-8,6.32-14.59,3.62-20.92-5.2-54.68-6.31-61.43C1797.9,813,1793.73,809.43,1789.25,808.67Z"/><path class="cls-6" d="M745,1014.43a7.27,7.27,0,0,0-6.52-6.66,16.91,16.91,0,0,0-9,1.11c-6.6,2.87-17.8,2.15-13,7.72s21.53,6.1,26.36,2.33A5.23,5.23,0,0,0,745,1014.43Z"/><path class="cls-6" d="M738.75,989.93s-8.44-1.44-8.62,3.59,4,8.44,11.38,7,13.58-5.21,12.29-7.72S738.75,989.93,738.75,989.93Z"/><path class="cls-6" d="M770,987.66s-8.81-6.16,1.66-7.3c5.36-.58,11.95,1,17.09,2.63a5.4,5.4,0,0,1,1.75,9.4c-3.64,2.89-8.3,5.9-12.79,6.76C768.39,1000.94,770,987.66,770,987.66Z"/><path class="cls-6" d="M754,1014.47a13,13,0,0,0,10.6,4.63c7.21-.14,11.45-2.47,9.88-3.91S759.28,1015.55,754,1014.47Z"/><path class="cls-13" d="M589.55,745.07l14.83-20S625,748.21,612.67,801c-.92,4-10.71,9.17-19.25-4.63C575.17,780.14,589.55,745.07,589.55,745.07Z"/><path class="cls-8" d="M604.7,733.44s4,15.21-.87,26.4c-4,9.18-14.76,10.8-14.76,10.8Z"/><path class="cls-25" d="M529.12,895.31c.13-6.94-9.34-76.62-2.78-92.68,9.16-22.44,22.4-36.9,25-71.17,1.16-13.79,18.82-18.7,22.26-19.08,9.62-1,22.12,1.6,27.69,7.56,12.41,13.26-.1,31.75-2.15,37.94s-7.79,13.89-.29,34.63c3.13,8.66,10,87.48,9,98.83-3.7,44.79-22.18,102.87-32.22,102.87-15.84,0-5.61-47.81-3.5-68.27.65-6.33,3.52-22.46,3.68-30.63.1-5-3.72-62.67-6.27-62.75.07,8.24-10.53,59.77-11.23,68.33-3.7,44.79-5.48,91.2-16,92.18-16.26,1.51-19-46.67-16.89-67.13C526.09,919.61,529,903.48,529.12,895.31Z"/><path class="cls-12" d="M569.62,713.33l1.15-.34Z"/><path class="cls-12" d="M570.92,713l1-.25Z"/><path class="cls-12" d="M572,712.68c.63-.15,1.16-.24,1.53-.29C573.16,712.44,572.64,712.53,572,712.68Z"/><path class="cls-12" d="M541.67,770.65l-.18.41h0Z"/><path class="cls-15" d="M541.67,770.65c.27-.63.55-1.26.82-1.9Z"/><path class="cls-15" d="M570.77,713l.15,0Z"/><polygon class="cls-15" points="569.62 713.33 569.62 713.33 569.62 713.33 569.62 713.33"/><path class="cls-15" d="M596.92,716.61l.12.06Z"/><path class="cls-15" d="M571.89,712.7l.11,0Z"/><path class="cls-15" d="M604.73,838.94c-2-21.51-4.34-42.23-5.86-46.43-4.53-12.53-4.23-20.27-2.83-25.82a54.62,54.62,0,0,1-.17-13.26c.66-5.27,1.37-10.54,2.07-15.81.88-6.65.78-13.19.78-19.89-.53-.37-1.09-.72-1.68-1.06l-.12-.06c-.58-.33-1.19-.64-1.82-.93a43,43,0,0,1,.7,14c-.44,2.94-2,2.86-4.82,2.93a36.23,36.23,0,0,1-7.51-.19c-4.39-.82-4.06-5.49-4.91-9-.9-3.68-2-8.37-5-11h0c-.37.05-.9.14-1.53.29l-.11,0-1,.25-.15,0-1.15.34h0c4.43,3.33,4.23,9.9,5.07,15,4.19,25.47-32,40-32,40l-.17.41c-.27.64-.55,1.27-.82,1.9l-.18.4h0c-4.82,10.88-10.51,20.2-15.15,31.57-2.79,6.82-2.68,23.31-1.65,40.56,1.4,23.37,4.5,48.13,4.43,52.12-.17,8.17-3,24.3-3.69,30.63-2.11,20.46.63,68.64,16.89,67.13,10.56-1,12.34-47.39,16-92.18.5-6,5.93-33.55,9-52.08,1.3-7.69,2.2-13.84,2.18-16.25.88,0,1.91,6.94,2.88,16.19,1.84,17.49,3.46,43.31,3.39,46.56-.16,8.17-3,24.3-3.68,30.63-2.11,20.46-12.34,68.27,3.5,68.27,10,0,28.52-58.08,32.22-102.87C608.38,885.5,606.81,861.77,604.73,838.94Z"/><path class="cls-8" d="M542.32,993.07c10.56-1,12.34-47.39,16-92.18.5-6,5.93-33.55,9-52.08,1.3-7.69,2.2-13.84,2.18-16.25.73,0,1.57,4.82,2.39,11.74.64-6.57.79-13.73-1.21-16.12-4-4.77-20.18-1.79-19.87,14.33s-10.37,60.57-11.29,82.36-3.35,25.36-.91,35.51c2,8.27-1,22.68.74,32.42A7.43,7.43,0,0,0,542.32,993.07Z"/><path class="cls-8" d="M601.67,809.48c-1.44,15.57-6.39,71.28-5.16,92,1.44,24.18-12.45,17.82-14.61,42.95-1.26,14.72-8.64,30.55-11.91,42.25a5.93,5.93,0,0,0,5.6,7.54h.09c10,0,28.52-58.08,32.22-102.87C608.61,882.77,604.88,835.74,601.67,809.48Z"/><path class="cls-8" d="M565.44,736.6c-1.26-5-9-.25-15.17,4.55a112.82,112.82,0,0,1-3.85,16.91C551.7,754.59,567.23,743.73,565.44,736.6Z"/><path class="cls-8" d="M594,682.22s.51-4.83-6.1-6.2-10.11.77-10.23,3.9-.32,12.25,8.77,11.59C593.82,691,594,682.22,594,682.22Z"/><path class="cls-14" d="M587.86,676a18.71,18.71,0,0,0-3.41-.42c4.24,1.86,3.86,5.51,3.86,5.51s-.15,8.45-7.23,9.23a8.14,8.14,0,0,0,5.32,1.17c7.42-.54,7.56-9.29,7.56-9.29S594.47,677.39,587.86,676Z"/><path class="cls-8" d="M593,685.17s6.14,1.89,6.33,7-1.78,16.79-9.73,15.93-8.34-4.29-9.18-7.29S577.11,680.85,593,685.17Z"/><path class="cls-12" d="M583.76,703.11l-3.18,13.16c-.51,2.16,3.68,8.94,7.81,7,1.21-.58.54-3.86.09-6.32L588.42,705Z"/><path class="cls-8" d="M588.46,712.06a7.75,7.75,0,0,1-4.52-6.63l4.49,1.26Z"/><path class="cls-14" d="M589.59,708.09c7.95.86,9.92-10.83,9.73-15.93s-6.33-7-6.33-7a18.3,18.3,0,0,0-4.21-.68c2.14,1.49,5.46,4,6.53,6.2S592,702.13,589,708C589.17,708,589.37,708.07,589.59,708.09Z"/><path class="cls-12" d="M587.85,694.28l-2.93,4.4a7.65,7.65,0,0,0,1.92,10.63c3.25,2.17,7.57,1.68,10.1-2.45,2.24-3.67,1-8.25.76-10.45C597.22,691.39,591.61,689.47,587.85,694.28Z"/><path class="cls-10" d="M590.2,704.27a12.85,12.85,0,0,1,5.11.1S593.51,706,590.2,704.27Z"/><path class="cls-13" d="M588,708a10.6,10.6,0,0,0,5.72.86,10.85,10.85,0,0,0,3.35-2.16c0,.07-.07.14-.11.2-2.53,4.13-6.85,4.62-10.1,2.45a7.41,7.41,0,0,1-3.26-6.25A9.71,9.71,0,0,0,588,708Z"/><path class="cls-12" d="M585.69,698.72a6.26,6.26,0,0,1,0-1.37c.12-.87.09-2.19-1.32-1.73-2,.68-2.4,5.35-.25,6C585.77,702.07,585.78,699.88,585.69,698.72Z"/><path class="cls-12" d="M570.23,841.58s-2.08,6.37-3.11,7.8-13.48-.88-13.15-2.94,5.36-7.45,5.4-10.13S576.16,832.44,570.23,841.58Z"/><path class="cls-23" d="M697,992.9a3.92,3.92,0,0,1-5.14-1.45L489.06,771a3.75,3.75,0,0,1,1.38-5.2,4,4,0,0,1,5.32,1.36L698.5,987.61a3.75,3.75,0,0,1-1.38,5.2Z"/><path class="cls-12" d="M560.32,719.69c-19,2.12-49.68,20.23-60.44,40.51s15.61,57.47,32.51,65.75-9.37-54.05-7.16-60.87c1.89-5.84,31-11.76,42.36-27.71C574.39,727.79,570.19,718.59,560.32,719.69Z"/><path class="cls-12" d="M536.57,816.79s2.77-2.27,7.32.85c3,2,7,9.45,7,9.45s-4.82-1.73-5.47-.38,3.22,6.88,2.21,8c-3.11,3.33-12.81-4-14.87-10.66S536.57,816.79,536.57,816.79Z"/><path class="cls-13" d="M567.59,737.37c3.9-5.49,4.17-10.86,1.84-14.23-1.22,2.45-3.42,9.24-12,9.72-5.53.31-13.56,14.08-19.71,16.7-6.63,2.82-11.37.09-13.74,2.07-4.55,3.82-9.48,11.45-6.56,24.34s7.92,39,20.6,46c.63-13.51-14.53-51.64-12.83-56.89C527.12,759.24,556.26,753.32,567.59,737.37Z"/><path class="cls-12" d="M614.06,799.14c-2.74,11.8-42.62,46-49.62,41-8.61-6.14,16.43-40.88,28.88-52.08C609.91,773.12,616.76,787.46,614.06,799.14Z"/><path class="cls-13" d="M614.06,799.14c1.49-6.43.78-16.84-3.54-19.55.11,3.5-1.07,11.89-4.11,16.3-5.12,7.44-20.48,11-29.26,26.59-6.63,11.74-11,13.95-11.71,18.07C574.59,842.41,611.43,810.47,614.06,799.14Z"/><path class="cls-12" d="M561.89,834.73s-3.77.25-5.16,2-.45,4.45-1,5.81,2.19,1.9,2.52-.44,5.08-1,5.47-2.6S562.82,834.61,561.89,834.73Z"/><path class="cls-8" d="M590.2,991.32c-3-1.35-5.15-1.91-7.2-4.08a1.88,1.88,0,0,1-.36-.65,2.27,2.27,0,0,0-3-1.31c-2.81,1.17-8.1,1.9-9.28,3.77-2,3.12-2.43,7.17-.11,8.32,4.44,2.2,30.52,1.15,30.09-1.3C600.11,994.59,594.73,993.35,590.2,991.32Z"/><path class="cls-8" d="M554.71,992.36c-3-1.35-5.16-1.9-7.21-4.07a1.94,1.94,0,0,1-.36-.66,2.25,2.25,0,0,0-3-1.3c-2.8,1.16-8.1,1.89-9.27,3.77-2,3.11-2.43,7.16-.11,8.31,4.44,2.21,30.52,1.15,30.09-1.3C564.61,995.64,559.23,994.4,554.71,992.36Z"/><path class="cls-8" d="M682.52,989.78h55a2.45,2.45,0,0,1,2.08,1.12c2,3.23,7.32,12.69,3.83,19.76,0,0-5.49-14.32-8.7-14.62,0,0,2.44,10.75-2.13,14.62,0,0-2.29-12.53-8.24-14.17,0,0,1.68,9.7-.3,14.17,0,0-5.8-14.92-9.92-14.92,0,0,2.44,10.45.76,14.92,0,0-8.23-14.51-13.42-15.69,0,0,3.82,9.58,0,15.69,0,0-5.49-15.11-10.83-15.69,0,0,2.21,12.86-1,15.69l-9.28-17.36A2.41,2.41,0,0,1,682.52,989.78Z"/><path class="cls-18" d="M570.08,758.06s16.57.79,22,1.07c0,0-2.35,10.12-11.53,10.27S570.08,758.06,570.08,758.06Z"/><path class="cls-3" d="M1491.58,462.25H1719c2.43,0,4.21-4.62,3.58-9.32-2.11-15.62-8.92-46.54-30.39-58.18-34.28-18.59-44.53,21.74-60.12,24.8-12.5,2.45-19.16-16.39-44.76-6.89s-20,25.1-27.31,32.48c-10,10.22-40.66-20.61-56.89-11.48C1489.24,441.42,1489,462.25,1491.58,462.25Z"/><path class="cls-4" d="M1722.53,452.93a139.07,139.07,0,0,0-3.17-16.23c-9.33-5.61-21.64-8.4-27.92-10.64-12.14-4.32-19.22-.93-43.24,10.88s-33.88-5.58-56.89-3.61-15.93,17.72-30.09,19.69-37.68-2-55.51-3.94c-8.38-.93-12.81,1.94-15.15,5.23-.58,4.55,0,7.94,1,7.94H1719C1721.38,462.25,1723.16,457.63,1722.53,452.93Z"/><path class="cls-3" d="M1071.15,339.41c-6-.05-10.27-9.4-7.76-17.73,4.31-14.3,16.72-16.67,27.33-15.79a28.49,28.49,0,0,0,25.43-11.53c3.63-5,8-8.81,12.49-7.06a57.57,57.57,0,0,1,5.84,2.69,21.37,21.37,0,0,0,22.47-1.26c9-6.48,23.07-13.56,39.48-11.3a27.79,27.79,0,0,0,21.54-6.17c12.12-10.07,34-22.74,56.46-8.08,22.17,14.49,30.47,43.84,33.55,62.16,1.37,8.11-2.7,16-8.25,15.93Z"/><path class="cls-4" d="M1308.09,330.88c-2.9-4-6-8.42-8-13.24-7-17.18-28.49-18.57-42.55-22s-19.34,3.78-36.58,7.22-31.29.35-68.22.35-15.12,13.76-35.42,19.6-32.45-6.19-47-.34c-4.38,1.77-6.55,4.51-7.45,7.47,1,5.26,4.17,9.45,8.2,9.48l228.58,1.86C1304,341.3,1307.36,336.69,1308.09,330.88Z"/><path class="cls-3" d="M318.62,416.21H545.35c2.43,0,4.2-3.47,3.57-7-2.1-11.74-8.89-35-30.3-43.74-34.18-14-39.62,14.1-55,6-18.65-9.79,5.09-68.41-59.46-56-26.05,5-8.24,51.86-26.37,60.33-8.42,3.93-18.82-1.83-35,5-13.78,5.84-24.55,14.76-27.61,28C314.29,412.45,316.09,416.21,318.62,416.21Z"/><path class="cls-4" d="M548.92,409.2a78.38,78.38,0,0,0-6.5-20.26c-8.79-2.92-19.39-4.46-31.16-5-29.24-1.43-31.15,16.8-57.21,4.05S433.7,352.81,414,354.67s-13.35,29.86-21,38.56-29.24,3.11-57.22,7c-9.4,1.3-15.85,4.1-20.28,7.25-.13.47-.27.93-.38,1.41-.84,3.6,1,7.36,3.49,7.36H545.35C547.78,416.21,549.55,412.74,548.92,409.2Z"/></g></g></svg>