<svg xmlns="http://www.w3.org/2000/svg" viewBox="0 0 1920 1080"><defs><style>.cls-1{isolation:isolate;}.cls-2{fill:#fff;}.cls-3{fill:#fff5f5;}.cls-4{fill:#ffe6e6;}.cls-5{fill:#ffd6d6;}.cls-6{fill:#4cb4d4;}.cls-7{fill:#2e88bf;}.cls-8{fill:#f4a6a6;}.cls-9{fill:#311e69;}.cls-10{fill:#914941;}.cls-11{fill:#ff8f8f;}.cls-12{fill:#ff6161;}.cls-13{fill:#ad263d;}.cls-14{fill:#1e1240;}.cls-15{fill:#614cd4;}.cls-16{fill:#ffd140;}.cls-17{fill:#ffb03b;}.cls-18{fill:#7165e5;}.cls-19,.cls-22{fill:#9fcfff;}.cls-19{mix-blend-mode:screen;}.cls-20{fill:#ff933b;}.cls-21{fill:#d95f76;}.cls-23{fill:#ff9791;}.cls-24{fill:#b1a9ff;}.cls-25{fill:#a399ff;}</style></defs><g class="cls-1"><g id="Réteg_1" data-name="Réteg 1"><rect class="cls-2" width="1920" height="1080"/><path class="cls-3" d="M272.63,839.37C196.46,838.71,139,754.17,153.41,663c16.44-104.24,60.5-227,172.92-284.29,215.28-109.71,341.76,45,466.11-45.27S1165.52,32.72,1380.8,131.64s268.28,459.8,231.55,578.89-233,153.05-340.45,144.31C1187.94,848,548.59,841.78,272.63,839.37Z"/><path class="cls-4" d="M258,881.43c-58.83,1.25-100-70.59-78.63-137.36a342.87,342.87,0,0,1,57.76-108.61c92.24-116.54,322.84-7.81,448.72-92s310.3-265.22,516.75-274,415.67,258.4,398.61,455.9S962.11,866,844.26,868.8C756.69,870.85,423.47,877.93,258,881.43Z"/><path class="cls-5" d="M242.6,901.06H1452.42c74.62,0,132.7-79.38,123.76-169.63s-36-189.34-108.5-222c-144-64.78-538.41-47.35-716.06,96.91C593.49,734.79,309.79,580.83,197,801.13,174.71,844.65,200.49,901.06,242.6,901.06Z"/><path class="cls-6" d="M1319.45,720.33c22.34-20.67,69.63-36.49,84.83-65.6s-5.07-22.92-7-50.84,46.2-6.07,84-7.28,45.28-36.93,60.77-58.68,29.42-21.71,62.29-27c17.69-2.82,35.16-9.16,47.54-14.41a38.23,38.23,0,0,0-2.05-3.77c-29.59-47.75-159.22,7.77-177.28,40.22s-65.33-3.65-112,28.77-10.82,72.79-13,94.68-45.08,4-93.46,29.17S1246.16,804,1246.16,804c2.57,7,21.91,12.4,44.42,14.69C1284.51,781.27,1301.3,737.11,1319.45,720.33Z"/><path class="cls-7" d="M1604.34,511c-32.87,5.26-46.81,5.21-62.29,27s-23,57.47-60.77,58.68-85.89-20.64-84,7.28,22.18,21.73,7,50.84-62.49,44.93-84.83,65.6c-18.15,16.78-34.94,60.94-28.87,98.32,34,3.47,75.34-.08,77-15.56,2.76-25.71,55.83-36.93,92.66-49s-1.16-91.63,2.66-112.79,91.2-13.86,93.8-50.82c2.54-36,116.33-49.22,95.18-93.91C1639.5,501.8,1622,508.14,1604.34,511Z"/><path class="cls-8" d="M874.45,797.88S780.09,649.76,805.4,611.55s50.27-13.62,59-40.76-40.76-78.79-22-126.53,72.3-51.94,60.34-91.1S917.12,227.85,962.94,218s-5.55,115.53,27.57,143.34,42.36,80.76-6.86,136.34,22.73,125.93-1.64,152.66S912,688.05,961.73,728,931.3,811.6,874.45,797.88Z"/><path class="cls-6" d="M889.23,610.27c-8.39-28.92-6.24-54.67,32.67-122.73S939,395.06,940.15,345.93s16.08-49.21,17.3-84.43c.48-14.07,3.51-29.88,7-43.79-.49.08-1,.15-1.48.26-45.82,9.88-72.19,96-60.22,135.19s-41.58,43.36-60.34,91.1,30.72,99.39,22,126.53-33.66,2.55-59,40.76,69.05,186.33,69.05,186.33c15.8,3.81,33.4,3.19,49.51-.55C866.69,715.38,896.7,636,889.23,610.27Z"/><path class="cls-7" d="M964.42,217.71c-3.46,13.91-6.49,29.72-7,43.79-1.22,35.22-16.12,35.3-17.3,84.43s20.65,73.55-18.25,141.61-41.06,93.81-32.67,122.73C896.7,636,866.69,715.38,924,797.33c41.87-9.72,73.7-40.49,37.77-69.34C912,688.05,957.64,677.05,982,650.31s-47.59-97.08,1.64-152.66,40-108.54,6.86-136.34C957.76,333.81,1007.6,210.89,964.42,217.71Z"/><path class="cls-8" d="M1274,771.45s-69.93-109.77-51.17-138.08,37.26-10.09,43.71-30.21-30.21-58.38-16.3-93.76,53.58-38.5,44.71-67.52,10.68-92.86,44.63-100.18-4.11,85.61,20.43,106.22,31.39,59.85-5.09,101,16.85,93.32-1.21,113.13-51.9,28-15,57.57S1316.11,781.61,1274,771.45Z"/><path class="cls-6" d="M1284.94,632.42c-6.22-21.43-4.63-40.51,24.2-90.95s12.66-68.53,13.53-104.94,11.92-36.47,12.82-62.57c.36-10.43,2.6-22.14,5.17-32.45-.36.05-.72.11-1.1.19-34,7.32-53.49,71.16-44.63,100.18s-30.81,32.14-44.71,67.52,22.76,73.65,16.3,93.76-25,1.89-43.71,30.21S1274,771.45,1274,771.45c11.71,2.83,24.75,2.36,36.7-.41C1268.23,710.31,1290.47,651.48,1284.94,632.42Z"/><path class="cls-7" d="M1340.66,341.51c-2.57,10.31-4.81,22-5.17,32.45-.9,26.1-11.94,26.16-12.82,62.57S1338,491,1309.14,541.47s-30.42,69.52-24.2,90.95c5.53,19.06-16.71,77.89,25.74,138.62,31-7.2,54.61-30,28-51.38-36.87-29.6-3-37.75,15-57.57s-35.27-71.94,1.21-113.13,29.64-80.43,5.09-101C1335.72,427.54,1372.66,336.46,1340.66,341.51Z"/><path class="cls-6" d="M1040.43,659.42c29.78-56.48,88.15-71.68,70.28-102.55s-7.15-51.45,9.53-84.84c9.61-19.23,24.35-36.88,35.13-48.39-5.91-.84-15.58.63-30.58,5.07-78.83,23.39-71.26,81.39-79.51,117.87s-21.53,30.87-77.51,72S983.25,744,983.25,744c-4.66,28.36,38.52,28.1,89.44,29.82C1049.07,741.77,1022.23,693.93,1040.43,659.42Z"/><path class="cls-7" d="M1142.87,507.29c-5.78-34.84,37.63-80.11,12.5-83.65-10.78,11.51-25.52,29.16-35.13,48.39-16.68,33.39-27.41,54-9.53,84.84s-40.5,46.07-70.28,102.55c-18.2,34.51,8.64,82.35,32.26,114.35l3.48.12c52.41,1.87,52.9-16,34.54-50.24s85.41-64.23,85.41-106S1150,550.32,1142.87,507.29Z"/><polygon class="cls-8" points="756.9 791.09 727.19 791.09 722.45 698.84 727.52 695.07 730.85 697.89 732.97 691.01 741.4 684.73 749.38 690.68 750.24 693.16 751.28 692.1 760.34 698.84 756.9 791.09"/><polygon class="cls-8" points="818.9 791.09 789.19 791.09 784.45 698.84 789.52 695.07 794.97 691.01 803.4 684.73 811.38 690.68 813.28 692.1 822.35 698.84 818.9 791.09"/><polygon class="cls-8" points="880.9 791.09 851.19 791.09 846.46 698.84 851.53 695.07 854.85 697.89 856.97 691.01 865.4 684.73 873.39 690.68 874.24 693.16 875.29 692.1 884.35 698.84 880.9 791.09"/><polygon class="cls-8" points="942.91 791.09 913.2 791.09 908.46 698.84 913.53 695.07 927.4 684.73 936.25 693.16 946.35 698.84 942.91 791.09"/><polygon class="cls-8" points="1004.91 791.09 975.2 791.09 970.46 698.84 975.53 695.07 989.41 684.73 997.39 690.68 999.29 692.1 1008.35 698.84 1004.91 791.09"/><polygon class="cls-8" points="1066.91 791.09 1037.2 791.09 1032.47 698.84 1037.54 695.07 1040.86 697.89 1042.98 691.01 1051.41 684.73 1059.39 690.68 1060.25 693.16 1061.3 692.1 1070.36 698.84 1066.91 791.09"/><polygon class="cls-8" points="1128.91 791.09 1099.2 791.09 1094.47 698.84 1113.41 684.73 1123.3 692.1 1132.36 698.84 1128.91 791.09"/><polygon class="cls-8" points="1190.92 791.09 1161.21 791.09 1156.47 698.84 1161.54 695.07 1175.42 684.73 1183.4 690.68 1194.36 698.84 1190.92 791.09"/><rect class="cls-8" x="746.26" y="717.2" width="423.56" height="17.06"/><rect class="cls-8" x="746.26" y="756.96" width="423.56" height="17.06"/><polygon class="cls-8" points="1252.92 791.09 1223.21 791.09 1218.47 698.84 1223.55 695.07 1228.99 691.01 1237.42 684.73 1245.4 690.68 1247.31 692.1 1256.37 698.84 1252.92 791.09"/><polygon class="cls-8" points="1314.92 791.09 1285.21 791.09 1280.48 698.84 1285.55 695.07 1288.87 697.89 1290.99 691.01 1299.42 684.73 1307.41 690.68 1308.26 693.16 1309.31 692.1 1318.37 698.84 1314.92 791.09"/><polygon class="cls-8" points="1376.93 795.56 1347.22 791.09 1342.48 698.84 1347.55 695.07 1361.43 684.73 1370.27 693.16 1380.37 698.84 1376.93 795.56"/><polygon class="cls-8" points="1438.93 800.27 1409.22 796.22 1404.48 698.84 1409.56 695.07 1423.43 684.73 1431.41 690.68 1433.31 692.1 1442.38 698.84 1438.93 800.27"/><polygon class="cls-8" points="1500.93 819.87 1471.22 819.87 1466.49 698.84 1471.56 695.07 1474.88 697.89 1477 691.01 1485.43 684.73 1493.42 690.68 1494.27 693.16 1495.32 692.1 1504.38 698.84 1500.93 819.87"/><polygon class="cls-8" points="1562.94 819.87 1533.23 819.87 1528.49 698.84 1547.43 684.73 1557.32 692.1 1566.38 698.84 1562.94 819.87"/><polygon class="cls-8" points="1624.94 819.87 1595.23 819.87 1590.49 698.84 1595.56 695.07 1609.44 684.73 1617.42 690.68 1628.38 698.84 1624.94 819.87"/><rect class="cls-8" x="1180.29" y="717.2" width="423.56" height="17.06"/><rect class="cls-8" x="1180.29" y="756.96" width="423.56" height="17.06"/><path class="cls-6" d="M606.83,206.68s-48.74,2.6-70.39,30c-37.69,47.77-20.8,90.08-7.59,109.19,0,0-81.35,1.7-105,71-38,111.11,109.36,122.84,290.3,109.19s123.44-188.35,88.71-214.28c0,0,25.45-181.53-61.38-195.18C613.26,96.45,606.83,206.68,606.83,206.68Z"/><path class="cls-7" d="M802.82,311.78s25.45-181.53-61.38-195.18q-3.27-.51-6.43-.91c14.45,6.75,27.51,16.37,24.69,28.55-5.91,25.59-52.36-3.07-34.89,45s45.44,36.85,32,71.66S672.17,279.36,691,314.17s76.91,40.94,69.32,80.86-24.28-4.09-89.18,24.57S624,475.9,589.51,481s-69.07-4.1-128.71-31.73c-18.88-8.75-31.14-17.6-39.1-25.61C392,528.44,536.94,539.42,714.11,526.06,895.05,512.41,837.55,337.71,802.82,311.78Z"/><path class="cls-7" d="M587.41,219.65c17.44,10.92,32.52,6.82,41.37,16.38s-1.6,28.66,3.28,56.64-16.74,45.72-27.91,47.77-41.15,21.15-2.09,23.88,48.14-21.15,58.6-36.85,31.39-76.43,16-100.31-69.87-20.48-69.87-20.48a144,144,0,0,0-32.75,6.42A70.83,70.83,0,0,1,587.41,219.65Z"/><path class="cls-9" d="M712.46,470.78c-6.28,20.48-46,78.82-63.83,78.82s-8.83-148,7.89-172.57,29.55-62.32,2.59-27c-28.88,37.82-36.06,120.1-32.72,180.89a3.6,3.6,0,0,1-6.06,2.76c-18.34-16.85-47.61-47.06-42.47-64,7.41-24.36-5.17-20.08-13.58-.75s9.37,18.66,12.57,31-12.1,4.5-1.4,18.1c8,10.14,29,29.57,39.17,38.8a16.33,16.33,0,0,1,5.43,12.92c-3.66,76.09-24.77,215.54-10.14,232.82,16.75,19.79,28.25-10.31,26.16-34.88s-7.33-73-2.09-88.32-2.1-66.25,4.18-85.7S732.34,523,733.38,471.81,718.73,450.31,712.46,470.78Z"/><path class="cls-6" d="M99.44,931.93c-38.08-4.18-53.81-50.74-25-75.49.68-.59,1.39-1.18,2.11-1.76C117.16,822,287.33,831.06,455,829.25s2.48-41.69,116.77-63.49,1079.41,29.07,1170.85,76.3-15.14,61.67-294.53,94.37C1179.28,967.89,438,969.09,99.44,931.93Z"/><path class="cls-7" d="M1742.58,842.06c-9.95-5.14-30.51-10-59.41-14.67a62.13,62.13,0,0,0-46.48,11.18C1601.8,864.1,1502.41,877.2,1462.41,885c-59.27,11.6-475.83,23.19-575.27,15.62S727.5,913.19,607.28,924.79s-128.7,6.62-220.16-24.85-199.79,0-263.23,0a202.37,202.37,0,0,1-64.26-10.4,44.18,44.18,0,0,0,39.81,42.39c338.58,37.16,1079.84,36,1348.61,4.5C1727.44,903.73,1834,889.3,1742.58,842.06Z"/><path class="cls-10" d="M1050.67,854.11s.25-48.59,192.63-59.64,151,32.14,219.49,32.14c77.46,0,173.36-13.26,229.86,0s30.68,43-44.66,48.48-217.33.94-304.16,1.17C1265.4,876.45,991.48,881.72,1050.67,854.11Z"/><path class="cls-6" d="M79,853a32.66,32.66,0,0,1-15.07-12c-10.31-15.15-32.33-52-12-63.8C77.74,762.08,96.3,804.6,96.3,804.6s-.91-14.61,11.32-11.51,14.72,7.07,14.72,7.07-6.12-81.93,28.74-86.8,36.22,43.85,36.22,43.85,4.53-13.73,17.66-10.63,18.11,23.92,18.11,23.92,14.49-17.2,30.79-9.93S272,798,272,798s16.3-10.37,32.6,3.1c6.38,5.27,10.41,39.86-12.68,46.5C270.41,853.74,131.78,873.72,79,853Z"/><path class="cls-7" d="M291.89,847.56c23.09-6.64,19.06-41.23,12.68-46.5C288.27,787.59,272,798,272,798s-1.81-30.12-18.11-37.39a20.52,20.52,0,0,0-13.78-1.07c2.47,3.24,5.06,6.66,7,9.23,5,6.64-1.81,4.06,0,18.86s7.69,25.43,14,25.43,18.57-.89,17.21,4.43-16.75,11.51-33.05,9.74-11.78-24.36-27.62-19.93-19,15.23-26.26,16.47-27.62-23.56-38-14.7-48.45,26.13-58.86,21.26-14-15.5-23.55-10.63c-5.42,2.78-14.77-.48-18.24,2.53A183.72,183.72,0,0,0,64,840.94,32.66,32.66,0,0,0,79,853C131.78,873.72,270.41,853.74,291.89,847.56Z"/><path class="cls-7" d="M154.25,721.44c5.43,7.31-4.75,5.65,2.72,11.63s19.18,5,19.6,9.63-11.45,15.95-6.36,22.26,6.28,11,6.36,18.6,9.49-12.84,10.73-26.35c0,0-1.36-48.72-36.22-43.85a21.47,21.47,0,0,0-9.85,4C146,717.1,151.48,717.71,154.25,721.44Z"/><path class="cls-7" d="M203.49,764.46c4.92,2.83,11.37,6.15,11.71,12.13s-8,10.13-3,12.62,10-9,10.92-18.71c0,0-5-20.82-18.11-23.92a13.78,13.78,0,0,0-9,.63c2.52.36,5.45,1.38,5.45,4.13C201.45,756.16,198.57,761.64,203.49,764.46Z"/><path class="cls-2" d="M103.35,830.75s-10.19-2.74-9.79-14.7,18.47-13.76,28.17-8.25S125.16,833.3,103.35,830.75Z"/><path class="cls-11" d="M114,822.62c0,2.38-3,4.31-6.71,4.31s-6.71-1.93-6.71-4.31,3-4.31,6.71-4.31S114,820.24,114,822.62Z"/><path class="cls-2" d="M230.76,827.59s-10.19.84-13.91-10.15,12.08-18.53,22.77-16.7S251.44,822.78,230.76,827.59Z"/><path class="cls-11" d="M237.65,816.73c.81,2.16-1.26,4.9-4.62,6.11s-6.76.44-7.57-1.73,1.26-4.89,4.62-6.1S236.84,814.57,237.65,816.73Z"/><path class="cls-2" d="M135.73,775s-15.32,1.26-20.9-15.25S133,731.92,149,734.67,166.8,767.78,135.73,775Z"/><ellipse class="cls-11" cx="136.92" cy="761.99" rx="9.73" ry="6.28" transform="translate(-243 87.43) rotate(-19.2)"/><path class="cls-2" d="M66.2,792.71s-5.72-1.4-5.24-6.28,10.74-5.12,16.12-2.6S78.5,794.35,66.2,792.71Z"/><path class="cls-11" d="M72.39,789.68c0,1-1.79,1.68-3.89,1.58s-3.76-1-3.71-2,1.79-1.68,3.89-1.58S72.44,788.7,72.39,789.68Z"/><path class="cls-2" d="M158.31,806.31s.85-9.3,15.79-13.37,21.73,10,17.33,19.86S160.64,825,158.31,806.31Z"/><path class="cls-11" d="M171.09,812A5.75,5.75,0,0,1,164,808.1a5.57,5.57,0,0,1,3.67-7,5.72,5.72,0,0,1,7,3.87A5.57,5.57,0,0,1,171.09,812Z"/><path class="cls-6" d="M1156.78,855.62S1140.58,844,1144.43,827s-21-42.54-8.72-45.2,22.43,23.6,25.49,42.21S1164.25,856.28,1156.78,855.62Z"/><path class="cls-7" d="M1161.2,824c-3.06-18.61-13.25-44.87-25.49-42.21a4.61,4.61,0,0,0-2.3,1.13,13.52,13.52,0,0,0,5,4.52c6.46,3.65,14.1,15.79,14.1,21.77s-.33,18.62,1.53,28.92c1,5.5,0,11-.14,15a29.35,29.35,0,0,0,2.86,2.45C1164.25,856.28,1164.25,842.66,1161.2,824Z"/><path class="cls-6" d="M1158.48,841.37s3.74-35.23,18-24.93-12.25,39.55-18,39.22S1158.48,841.37,1158.48,841.37Z"/><path class="cls-7" d="M1176.49,816.44a8.85,8.85,0,0,0-4.64-1.87c.48,1.07,1,2.42,1.58,4,1.53,4.49-.68,5.82-3.06,11.64-2.21,5.41-13.29,10.84-14.38,22.7.22,1.54.93,2.64,2.49,2.72C1164.24,856,1190.76,826.75,1176.49,816.44Z"/><path class="cls-6" d="M1299.12,808.75s16.19-11.64,12.34-28.59,21-42.55,8.72-45.21-22.42,23.61-25.48,42.22S1291.64,809.41,1299.12,808.75Z"/><path class="cls-7" d="M1294.7,777.17c3.06-18.61,13.25-44.87,25.48-42.22a4.78,4.78,0,0,1,2.31,1.14,13.48,13.48,0,0,1-5,4.52c-6.45,3.65-14.1,15.78-14.1,21.77s.34,18.61-1.53,28.92c-1,5.5.05,11,.14,15a32.15,32.15,0,0,1-2.85,2.45C1291.64,809.41,1291.64,795.78,1294.7,777.17Z"/><path class="cls-6" d="M1297.42,794.5s-3.74-35.23-18-24.93,12.25,39.55,18,39.22S1297.42,794.5,1297.42,794.5Z"/><path class="cls-7" d="M1279.41,769.57a8.85,8.85,0,0,1,4.63-1.87c-.48,1.07-1,2.42-1.57,4-1.53,4.49.68,5.82,3,11.63,2.22,5.42,13.29,10.85,14.38,22.71-.21,1.54-.92,2.63-2.48,2.72C1291.66,809.12,1265.14,779.87,1279.41,769.57Z"/><path class="cls-6" d="M1415.94,863.57s16.19-11.63,12.34-28.58,21-42.55,8.72-45.21-22.42,23.6-25.48,42.21S1408.46,864.24,1415.94,863.57Z"/><path class="cls-7" d="M1411.52,832c3.06-18.61,13.25-44.87,25.48-42.21a4.61,4.61,0,0,1,2.3,1.14,13.43,13.43,0,0,1-5,4.51c-6.45,3.66-14.1,15.79-14.1,21.77s.33,18.62-1.53,28.92c-1,5.51,0,11,.14,15a30.14,30.14,0,0,1-2.85,2.45C1408.46,864.24,1408.46,850.61,1411.52,832Z"/><path class="cls-6" d="M1414.24,849.32s-3.74-35.23-18-24.92,12.25,39.55,18,39.22S1414.24,849.32,1414.24,849.32Z"/><path class="cls-7" d="M1396.23,824.4a8.87,8.87,0,0,1,4.63-1.88c-.48,1.08-1,2.43-1.57,4-1.53,4.48.68,5.81,3,11.63,2.22,5.42,13.29,10.84,14.38,22.7-.21,1.54-.92,2.64-2.48,2.73C1408.48,864,1382,834.7,1396.23,824.4Z"/><path class="cls-6" d="M1490.36,840.5s16.2-11.64,12.35-28.59,21-42.55,8.72-45.21-22.43,23.6-25.49,42.22S1482.88,841.16,1490.36,840.5Z"/><path class="cls-7" d="M1485.94,808.92c3.06-18.62,13.25-44.87,25.49-42.22a4.74,4.74,0,0,1,2.3,1.14,13.52,13.52,0,0,1-5,4.52c-6.46,3.65-14.1,15.78-14.1,21.77s.33,18.61-1.53,28.92c-1,5.5,0,11,.13,15a32.15,32.15,0,0,1-2.85,2.45C1482.88,841.16,1482.88,827.53,1485.94,808.92Z"/><path class="cls-6" d="M1488.66,826.25s-3.74-35.23-18-24.93,12.25,39.55,18,39.22S1488.66,826.25,1488.66,826.25Z"/><path class="cls-7" d="M1470.65,801.32a8.85,8.85,0,0,1,4.63-1.87c-.47,1.07-1,2.42-1.57,4-1.53,4.49.68,5.82,3.06,11.63,2.21,5.42,13.29,10.85,14.37,22.71-.21,1.54-.92,2.63-2.48,2.72C1482.9,840.87,1456.38,811.62,1470.65,801.32Z"/><path class="cls-6" d="M1215.72,814.41s-3.75-32-13.13-25.9,6.38,32.88,10.13,30.67S1215.72,814.41,1215.72,814.41Z"/><path class="cls-6" d="M1210.59,811.48s13-47.7,28.38-38.53-21.76,49.26-26.25,46.23A6,6,0,0,1,1210.59,811.48Z"/><path class="cls-7" d="M1215.72,814.41s-3.63-30.85-12.65-26.16a9.06,9.06,0,0,1,.46,1c1.83,4.55,0,1.93,2,7.16s6.47,8.41,6.75,14A82.2,82.2,0,0,0,1213,819C1216.42,816.85,1215.72,814.41,1215.72,814.41Z"/><path class="cls-7" d="M1239,773a10.08,10.08,0,0,0-1-.52,8.38,8.38,0,0,1-.22,1.39c-1.13,4.55-2.68,5.65-4.22,7.43s-2.11,1.69-4.22,6.49-1.67,9.61-3,11.26a45.47,45.47,0,0,1-4.37,4.39l-6.17,5.66a34.21,34.21,0,0,0-3,8.44l-.28,1.54.21.15C1217.21,822.21,1254.35,782.13,1239,773Z"/><path class="cls-6" d="M1351.43,837.32s-5.31-45.28-18.58-36.66,9,46.53,14.33,43.41S1351.43,837.32,1351.43,837.32Z"/><path class="cls-6" d="M1344.18,833.16s18.4-67.51,40.16-54.53-30.79,69.72-37.16,65.44S1344.18,833.16,1344.18,833.16Z"/><path class="cls-7" d="M1351.43,837.32s-5.13-43.68-17.9-37c.22.41.43.86.65,1.39,2.58,6.43,0,2.73,2.78,10.13s9.16,11.9,9.56,19.87a118.51,118.51,0,0,0,1.06,12.14C1352.42,840.76,1351.43,837.32,1351.43,837.32Z"/><path class="cls-7" d="M1384.34,778.63a12.64,12.64,0,0,0-1.47-.74,11.19,11.19,0,0,1-.32,2c-1.59,6.42-3.78,8-6,10.51s-3,2.4-6,9.18-2.36,13.61-4.17,16a64.78,64.78,0,0,1-6.18,6.2l-8.74,8a48.4,48.4,0,0,0-4.24,12c-.14.75-.27,1.48-.38,2.17l.28.22C1353.55,848.35,1406.11,791.62,1384.34,778.63Z"/><path class="cls-6" d="M1457.13,859.4s-3.75-32-13.13-25.91,6.38,32.88,10.13,30.68S1457.13,859.4,1457.13,859.4Z"/><path class="cls-6" d="M1452,856.46s13-47.7,28.38-38.53-21.76,49.26-26.25,46.24A6,6,0,0,1,1452,856.46Z"/><path class="cls-7" d="M1457.13,859.4s-3.63-30.86-12.65-26.17c.15.3.31.61.46,1,1.83,4.54,0,1.92,2,7.15s6.47,8.41,6.75,14a82,82,0,0,0,.75,8.58C1457.83,861.83,1457.13,859.4,1457.13,859.4Z"/><path class="cls-7" d="M1480.38,817.93a10.08,10.08,0,0,0-1-.52,8.65,8.65,0,0,1-.22,1.4c-1.13,4.54-2.68,5.64-4.22,7.43s-2.11,1.69-4.22,6.48-1.67,9.61-3,11.27a45,45,0,0,1-4.37,4.38l-6.17,5.66a34.21,34.21,0,0,0-3,8.44c-.1.54-.19,1-.28,1.54l.21.15C1458.62,867.19,1495.76,827.11,1480.38,817.93Z"/><path class="cls-6" d="M1258.74,862.51s-3.75-32-13.12-25.91,6.37,32.88,10.12,30.68S1258.74,862.51,1258.74,862.51Z"/><path class="cls-6" d="M1253.62,859.57s13-47.7,28.38-38.52-21.76,49.25-26.26,46.23A6,6,0,0,1,1253.62,859.57Z"/><path class="cls-7" d="M1258.74,862.51s-3.62-30.86-12.64-26.16a10.3,10.3,0,0,1,.45,1c1.83,4.54,0,1.92,2,7.15s6.47,8.41,6.75,14a84.76,84.76,0,0,0,.75,8.58C1259.44,864.94,1258.74,862.51,1258.74,862.51Z"/><path class="cls-7" d="M1282,821.05a8.62,8.62,0,0,0-1-.53,7.41,7.41,0,0,1-.22,1.4c-1.12,4.54-2.67,5.64-4.22,7.43s-2.11,1.69-4.22,6.48-1.66,9.62-2.94,11.27a46.17,46.17,0,0,1-4.37,4.38l-6.18,5.66a34.18,34.18,0,0,0-3,8.45q-.15.79-.27,1.53l.2.16C1260.24,870.3,1297.37,830.22,1282,821.05Z"/><path class="cls-6" d="M1565.13,859.37s3.75-32,13.13-25.9-6.38,32.87-10.13,30.67S1565.13,859.37,1565.13,859.37Z"/><path class="cls-6" d="M1570.25,856.43s-13-47.69-28.37-38.52,21.76,49.25,26.25,46.23S1570.25,856.43,1570.25,856.43Z"/><path class="cls-7" d="M1565.13,859.37s3.62-30.86,12.64-26.16c-.15.29-.3.61-.45,1-1.83,4.54,0,1.93-2,7.16s-6.47,8.4-6.75,14a82,82,0,0,1-.75,8.57C1564.43,861.8,1565.13,859.37,1565.13,859.37Z"/><path class="cls-7" d="M1541.88,817.91a7.84,7.84,0,0,1,1-.53,7.41,7.41,0,0,0,.22,1.4c1.13,4.54,2.67,5.64,4.22,7.43s2.11,1.69,4.22,6.49,1.67,9.61,2.94,11.26a46.17,46.17,0,0,0,4.37,4.38l6.18,5.66a34.37,34.37,0,0,1,3,8.45c.1.53.19,1,.27,1.53l-.2.16C1563.64,867.16,1526.5,827.08,1541.88,817.91Z"/><path class="cls-6" d="M1631.93,842.23s-3.75-32-13.13-25.9,6.38,32.88,10.13,30.67S1631.93,842.23,1631.93,842.23Z"/><path class="cls-6" d="M1626.81,839.3s13-47.7,28.37-38.53S1633.43,850,1628.93,847A6,6,0,0,1,1626.81,839.3Z"/><path class="cls-7" d="M1631.93,842.23s-3.62-30.85-12.64-26.16a10.56,10.56,0,0,1,.45,1c1.83,4.54,0,1.92,2,7.15s6.47,8.41,6.75,14a82.2,82.2,0,0,0,.75,8.58C1632.63,844.67,1631.93,842.23,1631.93,842.23Z"/><path class="cls-7" d="M1655.18,800.77a9.17,9.17,0,0,0-1-.52,7.67,7.67,0,0,1-.22,1.4c-1.13,4.54-2.67,5.64-4.22,7.42s-2.11,1.69-4.22,6.49-1.67,9.61-2.94,11.26a45.44,45.44,0,0,1-4.37,4.39l-6.18,5.66a34.21,34.21,0,0,0-3,8.44c-.1.54-.19,1.05-.27,1.54l.2.15C1633.43,850,1670.56,810,1655.18,800.77Z"/><path class="cls-12" d="M1078.13,571.05c16.09-4.95,34.09,46.39,49.6,57.5,20.91,15,72.63,9.22,74.67,16.8,5.09,18.89-61.86,32.17-95.7,8.73C1078,634.22,1059,577,1078.13,571.05Z"/><path class="cls-13" d="M1198.43,655.11c-3.68-1.42-7.9-2.14-11.56-.48-8.8,4-17.79,4.48-28.61.88s-20.73-2.85-37.26-5.66-12.91-7.31-20.34-19.17c-5.33-8.51-20-21.88-27.83-28.75,5.15,18.82,18.05,41.18,33.87,52.15C1134.25,673.16,1183.72,667.91,1198.43,655.11Z"/><path class="cls-9" d="M1116.14,614.86c-12.49-18.9-25.79-47.57-38-43.81-14,4.33-10.79,39,5,63.54C1083.13,634.59,1110.57,627.28,1116.14,614.86Z"/><path class="cls-14" d="M1083.55,600.58c1.35-12-4.18-5.57-6.87-11.1-2.1-4.31-.46-13.94.37-18-12.77,5.77-9.28,39.22,6.06,63.12a106.41,106.41,0,0,0,15.42-5.66c-2.75-1.86-6.47-2.26-8.09-2.74C1087.37,625.28,1082.2,612.54,1083.55,600.58Z"/><path class="cls-15" d="M1082.7,645.18s22.58,64.19,21.82,98.94c-.72,32.64-16.2,110-37,115.56s-14.14-40.77-14.14-40.77l9.68-77s-31.53-83.77-19.15-92S1082.7,645.18,1082.7,645.18Z"/><path class="cls-15" d="M1021.35,646.25s-6.43,11.65-7.78,19.36c-1.72,9.78,7.66,65.22,4.45,86.69-1.9,12.69-10.79,27.32-9.1,50.51,2.56,35.07,9.48,46.38,22,46.38,16.27,0,26-90.65,26-106.29s-2.88-93.7-2.88-93.7Z"/><path class="cls-9" d="M1020.58,647.7c-.71-.45-3.12-15.49-8.31-26.94-4.61-10.16-16.36-33.11,6.41-48.36,17.22-11.52,50.44-9.13,61.52-1.52,19.9,13.67.62,69.38,2.5,74.3C1082.7,645.18,1050.71,651.77,1020.58,647.7Z"/><path class="cls-15" d="M1083.86,586.92c-1.7-6.15-3.5-12.12-5-16.85-4.6-2.62-11.93-4.51-20.17-5.26,9.25,10.23,10.52,26.08,10.52,26.08L1041.58,593l-11.72-25.7a41.86,41.86,0,0,0-11.18,5.08c-.59.4-1.15.8-1.7,1.21,15.83,18.73,11.44,63.31,12.51,75.49,27.55,3.2,53.21-3.92,53.21-3.92-.42-1.1.21-4.73,1.23-9.86.41-6.09,1.08-13.67,2-21.63A70.52,70.52,0,0,0,1083.86,586.92Z"/><path class="cls-6" d="M1046.5,538.9s-2.1-6.77-8.61-5.43c-9.22,1.9-9.19,12.35-6.54,15.36,3.69,4.2,6.6,1.84,9.18-.83S1046.5,538.9,1046.5,538.9Z"/><path class="cls-14" d="M1034.84,545.17s4.35-10.23,8.45-12.56c5.6-3.18,9.18,1.45,8.75,4.21s-5.19,9.07-6.87,9.64S1034.84,545.17,1034.84,545.17Z"/><path class="cls-12" d="M1036,551.09l-.37,17.25c.69,2.2,14.72,4.56,17.37.69.77-1.13-.19-3.14-1.91-5.12l-9.8-10.62Z"/><path class="cls-9" d="M1043.23,555.43c-2.61.33-6.19.75-6.19.75a11.11,11.11,0,0,0,12.59,6.18Z"/><path class="cls-9" d="M1047.53,542.07s1.48-2.22-1.75-4.85-12.73,8.57-12.62,11.95c.18,5,2.69,7.55,2.69,7.55S1048.28,547.83,1047.53,542.07Z"/><path class="cls-12" d="M1037.52,545l-.73,9.55a5.9,5.9,0,0,0,5.83,5.83,16.84,16.84,0,0,0,7.16-1.43c2.51-.93,3.22-3.68,2.39-7a31.69,31.69,0,0,0-4.64-9.85C1044.53,537.76,1038.46,538.77,1037.52,545Z"/><path class="cls-9" d="M1036.79,554.51l.73-9.55a8.91,8.91,0,0,1,.56-2c.32,1.81,1.26,5.63,1.92,6.16,1.68,1.35,1.2-.14,4.21-1a19.19,19.19,0,0,1,6.63-.06,25.74,25.74,0,0,1,1.33,3.86c.83,3.31.12,6.06-2.39,7a16.84,16.84,0,0,1-7.16,1.43A5.9,5.9,0,0,1,1036.79,554.51Z"/><path class="cls-2" d="M1044.56,550.1a16.45,16.45,0,0,0,5.19-1.09s.57,1.9-.46,2.86S1045.85,552.22,1044.56,550.1Z"/><path class="cls-14" d="M1049.76,555.42c-3,.13-4.15,5-10.31,2.13-1.15-.53-2.12-2.23-2.65-3.24v.2a5.9,5.9,0,0,0,5.83,5.83,16.84,16.84,0,0,0,7.16-1.43,4.1,4.1,0,0,0,2.64-3.45A15.17,15.17,0,0,1,1049.76,555.42Z"/><path class="cls-12" d="M1038.66,548.47a9,9,0,0,1-.59-1.67c-.28-1.1-1-2.66-2.41-1.46-2.12,1.75-.81,7.08,2.07,6.86C1039.87,552,1039.34,549.82,1038.66,548.47Z"/><path class="cls-12" d="M1013,577c-7.9-1-61.35,32.52-62.41,70.41-1,34.24,66.26,57.57,72.61,47.63S983.33,656.29,985.52,642c2.11-13.68,31.73-28,35.32-40.07C1025.33,586.86,1019.93,577.92,1013,577Z"/><path class="cls-12" d="M1017.92,689.46s3.55-6.36,6.86-6.88,10.87,1.52,9.81,2.33-7.87.15-7.87.15,7.22,2.64,8.55,4.42-1.59,4.23-3.48,4.65-10.6,4.1-13.84,3.06S1017.92,689.46,1017.92,689.46Z"/><path class="cls-9" d="M970.69,606.08c16.39-17.79,37.58-29.67,42.32-29.05,6.92.89,12.32,9.83,7.83,24.9-2.45,8.2-13.67,22.32-23.35,31.74C990.65,631.44,976.94,620.87,970.69,606.08Z"/><path class="cls-16" d="M1057,866.71l.07,0c-.31-3.38-1.72-8.63-2.39-15.23-.38-3.74-6.08-14.91-1.23-17.7,0,0,35.15-7.94,35.17-3.3,0,9.35-13.08,33.56-13,34.49,1.9.29,18.4,9.05,18.63,10.88.38,3.06-31.92,2.88-37.28-.09C1054.11,874.25,1054.35,870.45,1057,866.71Z"/><path class="cls-17" d="M1057,866.71l.07,0c-.31-3.38-1.72-8.63-2.39-15.23-.38-3.74-6.08-14.91-1.23-17.7,0,0,4-.9,9.32-1.92.46,8.37,1.13,21.35,1.12,26.42,0,3.83,1,12,2,19.25-4.15-.38-7.52-1-8.95-1.77C1054.11,874.25,1054.35,870.45,1057,866.71Z"/><path class="cls-16" d="M1016.31,866.71l.07,0c-.31-3.38-1.72-8.63-2.39-15.23-.38-3.74-6.08-14.91-1.23-17.7,0,0,35.15-7.94,35.17-3.3,0,9.35-13.08,33.56-13,34.49,1.9.29,18.4,9.05,18.63,10.88.38,3.06-31.92,2.88-37.28-.09C1013.47,874.25,1013.71,870.45,1016.31,866.71Z"/><path class="cls-17" d="M1016.31,866.71l.07,0c-.31-3.38-1.72-8.63-2.39-15.23-.38-3.74-6.08-14.91-1.23-17.7,0,0,4-.9,9.32-1.92.46,8.37,1.13,21.35,1.12,26.42,0,3.83,1,12,2,19.25-4.15-.38-7.52-1-9-1.77C1013.47,874.25,1013.71,870.45,1016.31,866.71Z"/><path class="cls-18" d="M1046.93,616l27.75-.83s5.09,15.53-8.27,18S1044.44,627.43,1046.93,616Z"/><path class="cls-12" d="M1201.81,640.89s11.31,1.33,12.34,2.83,3.77,3.54,1.2,5.72-8.4,6.21-11.48,5.87-10.45-2.51-9.34-5.87S1196.85,641.73,1201.81,640.89Z"/><path class="cls-9" d="M969.94,826.43c-25.3,0-49-2.85-66.37-9.34-41.23-15.42-61.1-9.93-61.3-9.87a3.41,3.41,0,0,1-4.22-2.2,3.29,3.29,0,0,1,2.22-4.13c.87-.27,21.94-6.37,65.72,10,43.38,16.22,127.92,8.79,174.53-8.7,27.56-10.34,69.42-76.48,94.43-116,12.2-19.27,21-33.19,25.48-37.06,14.5-12.57,30-9.75,30.69-9.63a3.31,3.31,0,0,1,2.66,3.89,3.39,3.39,0,0,1-4,2.62c-.54-.1-13-2.23-24.9,8.08-3.72,3.23-13.21,18.22-24.21,35.59-27.11,42.83-68.07,107.56-97.77,118.7C1053.72,819.35,1009.85,826.43,969.94,826.43Z"/><path class="cls-12" d="M1194.61,645.18s5.31-8.16,11.14-8,5.32,4.2,8.4,5,2.57,2.3,1,3-6.34-4-7.89-2.15-5.7,8.22-9.62,7A4.16,4.16,0,0,1,1194.61,645.18Z"/><path class="cls-12" d="M1202,656c-1-1.39,2.74-4.53,5.49-4.19s4.62-7,9.94-4.7S1204.26,659.14,1202,656Z"/><path class="cls-9" d="M1222.28,639.52V646a1.5,1.5,0,0,0,1.65,1.48L1252.6,645a1.39,1.39,0,0,0,1.29-1.37v-2.37a1.4,1.4,0,0,0-1.32-1.38L1223.9,638A1.5,1.5,0,0,0,1222.28,639.52Z"/><path class="cls-9" d="M827.31,850.85a8.38,8.38,0,0,1-8.47-8.28V804.88a8.38,8.38,0,0,1,8.47-8.28h9.31a8.28,8.28,0,1,1,0,16.56h-.84v29.41A8.38,8.38,0,0,1,827.31,850.85Z"/><path class="cls-19" d="M1253.89,640.56s33.18-4.42,57.32,14.77c37,29.4,88.25,145,85,168.79s-16.17,20.28-25.77,16.4S1355,808.77,1355,808.77s-4.45,31.75-22.58,31.75c-6.73,0-18.65-31.75-18.65-31.75s-5.79,20.34-15.09,9.42,7.2-81.89-4.08-120.81-40.66-54.45-40.66-54.45Z"/><path class="cls-13" d="M331.08,588.37l-16.83,25.55S257,652.25,268,663.08s80.19-50.91,80.25-57.18c0-4.32-6.79-12.95-11-17.92A3.83,3.83,0,0,0,331.08,588.37Z"/><path class="cls-6" d="M289.09,706.4l-5.22-16a10.25,10.25,0,0,0-9.73-7.52A80.47,80.47,0,0,0,259,684.4a10.59,10.59,0,0,0-8.36,9.1l.34,14.73a2.45,2.45,0,0,1-4,1.88c-9.35-7.81-26.57-21.61-32.7-23-8.21-1.82.37,5.15,2.69,7.35,1.83,1.73,17.79,25.6,29.59,34.2a20.86,20.86,0,0,1,7.48,9.39c.87,2.34,2.88,4.42,7.83,4.42l27.85-3.89C298.63,737.73,290.16,710.48,289.09,706.4Z"/><path class="cls-7" d="M275.93,687.15c.15,1.34-3.92,2.86-9.08,3.38s-9.46-.15-9.6-1.5,3.92-2.86,9.08-3.38S275.79,685.8,275.93,687.15Z"/><path class="cls-6" d="M279.19,689.13h-.06a1.65,1.65,0,0,1-1.77-1.51c0-.17,0-.38,0-.64-.15-2.66-.6-10.78-5.08-14.52a9.6,9.6,0,0,0-7.5-2,8.11,8.11,0,0,0-6,3.14c-4,5.14-2.28,14.61-2.26,14.71a1.63,1.63,0,0,1-1.34,1.88,1.67,1.67,0,0,1-1.93-1.31c-.08-.44-1.94-11,2.88-17.24a11.47,11.47,0,0,1,8.29-4.41,13,13,0,0,1,10,2.71c5.57,4.65,6.06,13.49,6.24,16.82,0,.23,0,.43,0,.59A1.63,1.63,0,0,1,279.19,689.13Z"/><path class="cls-16" d="M351,542.55l1.49-.94a3.58,3.58,0,0,1,2.69-.47,17.63,17.63,0,0,1,8,4.34,3.38,3.38,0,0,1,1.09,2.49,18.54,18.54,0,0,0,.39,4.51c.37.88-8.82-.58-13.93-4.23A3.42,3.42,0,0,1,351,542.55Z"/><path class="cls-16" d="M326.6,550.31s-.68-3.24,3.4-6.28,11.88-4,24.74,1.55,24.59,15.19,23.22,21.3c-.68,3-1,5.48-5.38,6.08C369.78,573.35,326.6,550.31,326.6,550.31Z"/><path class="cls-20" d="M376.71,567.17c-2.32-8.86-22.18-21.84-41.39-22.66-11.54-.5-8.2,8.11-8.2,8.11s1.82,7.79,18.14,15.31C364.18,576.65,378.67,574.62,376.71,567.17Z"/><path class="cls-9" d="M356.37,568s13.23,6.65,16.29,15.65-15.79,10.6-22.31,9.73S350.3,571.7,356.37,568Z"/><path class="cls-15" d="M395.71,710.38c1.59-15.34,5-35-2.11-49.48-5.55-12.6-17-21.76-23.4-33.88A28.58,28.58,0,0,1,367,609.43c.66-4.51,3.92-10.25,4.3-14.82.89-10.66-6.53-19.84-19-18.61-9.42.93-23.57,8.38-24.41,18.48-.92,11,3.33,21.59,2,32.72-.84,6.75-4.54,12.47-7.11,18.66a163.31,163.31,0,0,0-7.31,23.88,409.26,409.26,0,0,0-8.36,48.54q-.87,7.26-1.57,14.53c-2.71,27.58,1.22,127.79,17.1,126.63,18.58-1.35,14.29-59.64,12.4-90.83-.65-10.77,4.84-19.93,6.83-30.25,1.57.09,5.82-49.09,11-49.06s5.18,70.85,5.18,70.85c-.6,10.42,14.76,99.29,23.17,99.29,26,0,12.26-77.85,7.38-90.52C386.44,758.11,394.91,718.09,395.71,710.38Z"/><path class="cls-9" d="M352.19,689.59c-4,1.71-24.18,11.15-24.06,26.93.14,17.52-6.42,23.65-7.61,44.66S316.31,821.9,322,842A101.64,101.64,0,0,1,324.88,859c16-5.74,12-60.48,10.18-90.36-.65-10.77,4.84-19.93,6.83-30.25C343.39,738.45,347.33,693.57,352.19,689.59Z"/><path class="cls-9" d="M347.34,552.73s-2.06-4.47-5.84-2.53-.31,8.68-1.94,10.55,1.75,4.27,4.13,4.33,8.47,7.61,10.7,7.22,6.93-4.45,5.06-11.58C357.9,554.81,353.14,552.73,347.34,552.73Z"/><path class="cls-16" d="M336,866.4l-.06,0c.27-3,1.52-7.61,2.11-13.43.34-3.3,5.36-25.18,1.09-27.64,0,0-31-7-31-2.91,0,8.25,11.54,41.63,11.48,42.45-1.68.26-16.24,8-16.44,9.6-.34,2.7,28.16,2.54,32.89-.08C338.5,873.05,338.3,869.7,336,866.4Z"/><path class="cls-17" d="M336,866.4l-.06,0c.27-3,1.52-7.61,2.11-13.43.34-3.3,5.36-25.18,1.09-27.64,0,0-3.54-.8-8.23-1.7-.41,7.39-1,30.87-1,35.34,0,3.37-.88,10.56-1.79,17,3.66-.34,6.64-.86,7.9-1.56C338.5,873.05,338.3,869.7,336,866.4Z"/><path class="cls-11" d="M350.36,591.56c1.48-1.39,6.24-10.55,8.55-15.19a17.84,17.84,0,0,0-6.54-.37,30.79,30.79,0,0,0-7.32,1.74c-2.69,3-7.65,9-7.54,11.5C337.66,592.72,348.35,593.45,350.36,591.56Z"/><path class="cls-12" d="M353.87,564.81l1.57,12c.25,2-4.14,7.65-7.64,5.5-1-.63-.12-3.5.53-5.66l1.19-10.63Z"/><path class="cls-9" d="M348.64,573.89c4.08-1.53,4.92-6.79,4.92-6.79l-4.21.48Z"/><path class="cls-12" d="M352,558.49l1.89,4.34a6.91,6.91,0,0,1-3.43,9.1,6.14,6.14,0,0,1-8.52-3.73c-1.4-3.59.47-7.44,1-9.36C344.15,554.48,349.43,553.65,352,558.49Z"/><path class="cls-12" d="M353.65,563.27a5.45,5.45,0,0,0,.36-1.19c.16-.77.58-1.88,1.63-1.09,1.54,1.16.46,5.23-1.55,5.16C352.59,566.09,353.22,564.23,353.65,563.27Z"/><path class="cls-2" d="M346.9,566.21a12.17,12.17,0,0,1-4.2-.35,2.48,2.48,0,0,0,.76,1.75C344.35,568.26,346,568.13,346.9,566.21Z"/><path class="cls-13" d="M349.65,570.56a6.17,6.17,0,0,1-7.81-2.56,1.18,1.18,0,0,0,.07.2,6.14,6.14,0,0,0,8.52,3.73,6.69,6.69,0,0,0,3.9-5A8.85,8.85,0,0,1,349.65,570.56Z"/><path class="cls-9" d="M388.61,768.92c-2.17-10.81,6.3-50.83,7.1-58.54,1.59-15.34,5-35-2.11-49.48-5.55-12.6-17-21.76-23.4-33.88A28.58,28.58,0,0,1,367,609.43c.66-4.51,3.92-10.25,4.3-14.82a18.06,18.06,0,0,0-3.11-12.07c-2.48,9.26-8.55,34-5.92,45.89,3.27,14.83,9.84,40.84,17,50.31s-2.39,18.83-4.48,33.27-3.65,10.93,3.25,23.19-12.2,16.35-3.85,38.24,17,22.26,12.54,39.59c-2.53,9.8-10.15,22.26-12.68,32.68,2.58,8.31,5.08,13.73,7.15,13.73C407.27,859.44,393.49,781.59,388.61,768.92Z"/><path class="cls-9" d="M330.1,625.16c-.05.68-.11,1.36-.19,2-.83,6.66-4.43,12.3-7,18.4,8-4,22.07-12.71,22.81-25C346.23,612.38,338.39,617.55,330.1,625.16Z"/><path class="cls-21" d="M370.2,627A28.58,28.58,0,0,1,367,609.43c.66-4.51,3.92-10.25,4.3-14.82.54-6.42-2-12.29-6.74-15.69-2.15,3.59-7.55,13.27-8.22,21-.84,9.73-4.58,23.35,4.55,26.47a48.53,48.53,0,0,0,10.07,2C370.72,628,370.45,627.49,370.2,627Z"/><path class="cls-12" d="M364,583.61c-15.9-.49-46.25,36.59-46.25,36.59s-57.49,31.72-49.13,44.27,83.36-40.78,97.67-64C371,592.8,370,583.8,364,583.61Z"/><path class="cls-16" d="M393,867.46l-.06,0c.27-3,1.52-7.61,2.11-13.44.34-3.3,5.36-25.17,1.09-27.63,0,0-31-7-31-2.92,0,8.26,11.54,41.63,11.48,42.45-1.68.26-16.24,8-16.44,9.61-.34,2.69,28.16,2.54,32.89-.09C395.54,874.12,395.34,870.76,393,867.46Z"/><path class="cls-17" d="M393,867.46l-.06,0c.27-3,1.52-7.61,2.11-13.44.34-3.3,5.36-25.17,1.09-27.63,0,0-3.54-.8-8.23-1.7-.4,7.39-1,30.86-1,35.34,0,3.37-.88,10.56-1.79,17,3.66-.34,6.64-.87,7.9-1.57C395.54,874.12,395.34,870.76,393,867.46Z"/><path class="cls-13" d="M346.9,611.64c-.72,3.89-17.83,14.59-17.83,14.59l-31,21s-26.53,8.75-28.88,15a7.4,7.4,0,0,0-.44,2.39c8.91,11.91,83.3-41,97.55-64.17,3.14-5.11,3.72-10.8,2-14.08a22.3,22.3,0,0,1-5.11,8.73C358.51,599.57,347.62,607.74,346.9,611.64Z"/><path class="cls-12" d="M274.53,664.58s-.14,6.49-4.87,9.76c-4.19,2.9-9.74.54-10.29-.09-1.76-2.08,5.43-4.12,6-6.62s.11-6.9,3.39-6.78S275.37,661.82,274.53,664.58Z"/><path class="cls-12" d="M267.62,660.75a35.22,35.22,0,0,0-6.46,3.72c-1.9,1.5-3.82,3.74-2.73,5,.37.43,3-.63,4.08-1.6s3.77.65,5.26-1S270,659.61,267.62,660.75Z"/><polygon class="cls-9" points="215.65 687.57 208.93 679.94 206.53 693.37 214.85 692.54 215.65 687.57"/><path class="cls-15" d="M209.87,686.85c-.57,3.77-2.18,6.67-3.59,6.47s-2.1-3.43-1.53-7.21,2.17-6.68,3.59-6.48S210.43,683.07,209.87,686.85Z"/><path class="cls-7" d="M289.09,706.4l-5.22-16a10.25,10.25,0,0,0-9.73-7.52c-1.28,0-2.68,0-4.13.12,2.89.22,6.27.78,7.19,2.18,1.69,2.59,2.89,3.91-.69,5.8s-5.38.29-6.27,3.07,5.07,1.16,7.16,5-11.1,4.23-5.25,9.78,8.23,2.66,7.49,12.2c-.49,6.31-.59,13.91.34,19l9.75-1.36C298.63,737.73,290.16,710.48,289.09,706.4Z"/><path class="cls-7" d="M247.11,723.38c-1.19-4.23-3.35-3.21-9.54-6.78s-4.78-6.35-6-10.15-2.84-3-6.42-3.94-3.87-5.4-5.81-8.1a3.23,3.23,0,0,0-3.93-1.33c.61.56,1.16,1,1.54,1.41,1.83,1.73,17.79,25.6,29.59,34.2a22.76,22.76,0,0,1,5.88,6.19c1.09-.41,1.76-1,1.68-1.94C253.75,729,248.31,727.61,247.11,723.38Z"/><path class="cls-22" d="M202.53,684.73s-31.33,2.35-29.92,13.67,24-12,24.28-8.81-6.39,4.53-5.88,7.7S201,694.12,202.53,684.73Z"/><path class="cls-22" d="M183.06,707.37S168,714,169.51,722.83,183.06,707.37,183.06,707.37Z"/><path class="cls-22" d="M186.58,717.67s-13.65,16.75-3.3,21.42S186.58,717.67,186.58,717.67Z"/><path class="cls-12" d="M1714.42,658.21s-38.86,43.92-55,72.39c-12.93,22.82-27.65,71.07-16.09,80.35s29.06-16.32,45.8-69.23c5.77-18.24,75.7-61.26,65.61-86.81C1750.58,644.35,1714.42,658.21,1714.42,658.21Z"/><path class="cls-13" d="M1752.38,652.31a13.6,13.6,0,0,0-6.24-1.35c-5.17,8.74-16.07,26.12-25.13,33.49-12.36,10-31.17,21.74-35,34.06s-20.92,26.2-23.91,41.8c-2.79,14.58-9.14,45.88-10.13,51.68,10.76-4.69,24.18-29.29,37.15-70.27,4.45-14.08,47.15-42.94,61.74-67.12C1752.42,665.93,1753.21,657.83,1752.38,652.31Z"/><path class="cls-9" d="M1642.6,767c-7.41,25.84-11.7,52.84-12.88,53.41-1.72.83-23.49-1.27-24.88.44-2.33,2.84,30.54,22.39,37.86,22.67,3.83.15,5.15-8.32,6.68-13.47.34-1.13,14.51-23.4,26.4-46.39-2.27-6.85-10.79-17.76-16.2-20.73C1653.59,759.63,1645.46,761.67,1642.6,767Z"/><path class="cls-9" d="M1702.68,724.6l-23-17.36s1.75,24.52,9.56,34.23C1690.74,737.06,1695.88,731.25,1702.68,724.6Z"/><path class="cls-23" d="M1754.75,654.91c-5.36-10-40.33,3.3-40.33,3.3s-27.23,23.39-39.05,48.33c7.06,1.8,19.22,32.39,36.42,34.64C1724.9,714.91,1758.43,661.78,1754.75,654.91Z"/><path class="cls-21" d="M1745.35,658.62s-7.11,25.07-17.83,32.71-15.87,11.92-22.76,22.75c-5.21,8.19-10.5,6.21-12.82,12.44,5.63,7.13,12.24,13.66,19.85,14.66,9.34-18.72,29-51.08,38.28-70.62Z"/><path class="cls-12" d="M1775.39,757s20.73-99.42-3.1-110-41.89,11.31-41.89,11.31,10,85.1,15.41,113.15c4,20.39,20.06,79.49,19,80.93s21.44,3.91,20.3-.92c-.31-1.31,1.52-38.11-1.28-65.66C1782.53,772.41,1775.39,757,1775.39,757Z"/><path class="cls-13" d="M1783.88,785.8c-1.35-13.39-8.49-28.8-8.49-28.8s16-76.91,3.68-102.64c-6,16.34-22.42,62.5-20.82,77.52,2,18.38-8.51,12.08,0,34.89s11.56,32.64,12.44,50.59c.55,11.41,1.35,26.21,4,36.89,5.48.24,11.1-.31,10.51-2.79C1784.85,850.15,1786.68,813.35,1783.88,785.8Z"/><path class="cls-9" d="M1750.07,733s10.46,9.83,28.26,7.86c.77-4.65,1.6-10.06,2.37-15.89Z"/><path class="cls-23" d="M1783.08,728.83c4.46-30.26,5.77-72.32-9-79-23.83-10.65-43.64,11.56-43.64,11.56l7,71.46C1750.48,738.66,1768.94,734.57,1783.08,728.83Z"/><path class="cls-21" d="M1774,649.88a32.08,32.08,0,0,0-17.24-2.64,154,154,0,0,0,3.54,17.78c3.24,10.48,1.84,49.17,0,54.14-1.57,4.25-16.66,4.3-22.25,14,13.05,5.32,31.1,1.28,45-4.36C1787.54,698.57,1788.85,656.51,1774,649.88Z"/><path class="cls-12" d="M1721.31,671.63c-3.28-20.09-21.38-12.69-23.86-6.61-6.57,16.12,5.83,50,12.56,71.11,2.68,8.43,5.59,14,8.45,13.11,4.91-1.53,7.7-7.79,9.16-16.18C1731.24,712.14,1722.42,678.38,1721.31,671.63Z"/><path class="cls-9" d="M1701.45,545.32s-1.44-3.92-8.35,1.11c-2.74,2-4.55,10-7.22,10.11,0,0,2.27,6.42,12.83,5.55,8.08-.67,11.87.66,15.09-1.26s1-11.15-1.8-14.4C1710.1,544.21,1704,541.14,1701.45,545.32Z"/><path class="cls-14" d="M1712,546.43a10.56,10.56,0,0,0-4.41-2.77,13.38,13.38,0,0,1-.36,5c-1,3.56-8.36,10.46-15.58,12.76a17.63,17.63,0,0,0,7.06.68c8.08-.67,11.87.66,15.09-1.26S1714.78,549.68,1712,546.43Z"/><path class="cls-15" d="M1779.62,653.63c6.28-27.56-5.65-88.08-35.25-91.35-19-2.1-61.46,23.63-49.63,50.08,3.1,6.92,13.71,10.63,18,18.35,2.64,4.71-2.07,18.71-1.5,24.64,1.07,11,17.51,14.24,28.63,12.55C1768.37,663.56,1777.1,664.68,1779.62,653.63Z"/><path class="cls-12" d="M1709.7,556.88l11.93,11.52c1.06,2-7.12,13.07-11.69,12.13-1.34-.27-2.07-2.33-2.26-4.87l-.56-14Z"/><path class="cls-9" d="M1707.23,564.46c2.07-1.52,4.86-3.63,4.86-3.63a10.5,10.5,0,0,1-.15,7.86,10.33,10.33,0,0,1-4.34,4.92Z"/><path class="cls-12" d="M1703.89,553.29l7.22,6.21a5.63,5.63,0,0,1,0,8,16.06,16.06,0,0,1-6,3.8c-2.4,1-4.83-.41-6.57-3.29a30.72,30.72,0,0,1-3.64-10C1693.93,553,1698.89,549.58,1703.89,553.29Z"/><path class="cls-12" d="M1706.11,557.16a8.42,8.42,0,0,0-.76-1.57c-.58-1-1.2-2.5.66-2.64,2.71-.2,5.49,5,3.31,6.82C1707.7,561.09,1706.58,558.56,1706.11,557.16Z"/><path class="cls-2" d="M1702.15,561.84a15.87,15.87,0,0,1-4.41,2.72s.94,1.71,2.33,1.7S1702.73,564.19,1702.15,561.84Z"/><path class="cls-13" d="M1702.65,568.83c2.22-1.94,6.38.69,8.72-5.42.44-1.14-.08-3-.42-4l.16.14a5.63,5.63,0,0,1,0,8,16.06,16.06,0,0,1-6,3.8,4.16,4.16,0,0,1-4.26-.64C1701.3,570.46,1702,569.43,1702.65,568.83Z"/><path class="cls-9" d="M1760.34,665c12.64-1.86,17.51-3.62,19.28-11.39,5.05-22.18-1.69-65.72-20-83.57-3.85,2.14-7.84,4.67-7.84,4.67s-.37,28,6.43,42.15,3.19,31.8,2.19,46.68C1760.4,664.06,1760.37,664.54,1760.34,665Z"/><path class="cls-15" d="M1640.25,842.65l8,6.51,165.33-195a5,5,0,0,0-.66-7.16h0a5.28,5.28,0,0,0-7.36.65Z"/><path class="cls-12" d="M1713.43,744.91s-2,11.27-1.11,14-1.51,7.24-.06,7.79,5.12-5.16,5.46-8.94,3.8-6.25,3.59-10.13S1713.82,742.51,1713.43,744.91Z"/><path class="cls-12" d="M1723.38,765.67a5.88,5.88,0,0,1-3.65.75c-1.32-.17-2.64-.82-2-2.86,2.07-6.26,7.35-6.61,7.84-9.3s.37-5.2,3-5S1731.54,761.07,1723.38,765.67Z"/><path class="cls-14" d="M1662.78,765.25c-1.09,3.52-2.43,7.62-3.64,10.66-2.62,6.55-5.53,4.27-5.24,14.81S1644,817.5,1644,817.5s-8.82,13.89-12.3,21.94c4.8,2.35,8.94,4,11,4.06,3.83.15,5.15-8.32,6.68-13.47.34-1.13,14.51-23.4,26.4-46.39C1673.92,778,1667.88,769.71,1662.78,765.25Z"/><path class="cls-12" d="M1743.26,571.51a7.21,7.21,0,0,1,7.13-9.14c17.25.19,55.3,2.92,78.44,22,13.83,11.37-1.86,74.32-26.71,66.85-9.41-2.82,4.12-53.53,4.12-53.53s-44.27-1.81-56.06-13.14C1746.74,581.2,1744.58,576,1743.26,571.51Z"/><path class="cls-13" d="M1828.83,584.32c-17.27-14.2-42.86-19.33-61.89-21.09.66,1.45,3.14,3.65,11.53,5.5,13.83,3.06,30.27,2.47,33.67,9.72s7.82,14.9,10,20.2.4,9-1.6,14.7c-1.79,5.08-10.86,24.51-21.66,24.16-.42,7.22.28,12.78,3.22,13.66C1827,658.64,1842.66,595.69,1828.83,584.32Z"/><path class="cls-9" d="M1749.31,804.56c6.44,26.08,16.19,51.69,15.44,52.75-1.09,1.55-21.13,10.12-21.49,12.28-.61,3.59,37.83,4.94,44.36,1.68,3.42-1.7.33-9.72-.9-14.94-.27-1.15,1-27.36-.14-53.1-5.4-4.89-18.29-10.34-24.49-10.34C1755.22,792.89,1749.15,798.56,1749.31,804.56Z"/><path class="cls-12" d="M1798.5,646.36c-3.28,3.35-8.19,9.4-7.16,14.74a1.33,1.33,0,0,0,2.31.59l2.94-3.46s4.16,2.13,1.69,12.27a2.37,2.37,0,0,0,2.54,2.9,7.3,7.3,0,0,0,5.18-3.06c3.72-4.88,8.08-18.85,4.74-23.35a7.92,7.92,0,0,0-2.9-2.4A8.18,8.18,0,0,0,1798.5,646.36Z"/><path class="cls-24" d="M1672.87,850.69c-7.26-3.56-20.17-10.06-25-13.64a26.92,26.92,0,0,1-2.17-1.84h0c-4.59,2.89-26.65-2.73-26.66-2.73-15,14.21-34.39,38.75-9.47,54.14,29.94,18.48,56.49-15.33,65.32-28.51A5.09,5.09,0,0,0,1672.87,850.69Z"/><path class="cls-15" d="M1642.62,844.17s-27.09,25.93-26.8,34.48S1639.41,861,1642.62,844.17Z"/><path class="cls-10" d="M1590.7,894.43h73.08a4.05,4.05,0,0,0,2.19-7.52c-8.27-5-18.71-10.45-23.14-9-7.86,2.56-11.65,5.13-15.44,4.56s-9.32-7.17-18.93-7.41S1589,887.59,1590.7,894.43Z"/><path class="cls-12" d="M1695.69,673.41s-9.6-67.49-2.11-76.8,27,52.56,26.59,70.47S1695.69,673.41,1695.69,673.41Z"/><path class="cls-14" d="M1786.58,803.23c-4.08-3.69-12.43-7.7-18.95-9.44-1.09,3.21-1.17,8.11,3.06,14.77,8.3,13.08,6.11,11.34,4.37,28-1.13,10.79-.07,26.59.82,36.41,5.41-.23,9.88-.79,11.74-1.72,3.42-1.7.33-9.72-.9-14.94C1786.45,855.18,1787.69,829,1786.58,803.23Z"/><path class="cls-13" d="M1706.84,676.85c6.37.93,13.14-.32,13.33-9.77.32-15.52-14.25-64.06-23-70.67-.41,5.59-.64,17.48,3.66,25.92,5.8,11.4,10.93,15.6,10.55,29.46C1711.1,661.17,1707,669,1706.84,676.85Z"/><path class="cls-13" d="M1711.25,658.67c-2.37,6.44-4.27,13.11-4.41,18.18-.37,14,9.85,26.83,10.75,40.08s-1.76,23,3.71,30.72c3.19-2.69,5.17-8,6.32-14.59,3.62-20.92-5.2-54.68-6.31-61.43C1719.9,663,1715.73,659.43,1711.25,658.67Z"/><path class="cls-7" d="M667,864.43a7.27,7.27,0,0,0-6.52-6.66,16.91,16.91,0,0,0-9,1.11c-6.6,2.87-17.8,2.15-13,7.72s21.53,6.1,26.36,2.33A5.23,5.23,0,0,0,667,864.43Z"/><path class="cls-7" d="M660.75,839.93s-8.44-1.44-8.62,3.59,4,8.44,11.38,7,13.58-5.21,12.29-7.72S660.75,839.93,660.75,839.93Z"/><path class="cls-7" d="M692,837.66s-8.81-6.16,1.66-7.3c5.36-.58,11.95,1,17.09,2.63a5.4,5.4,0,0,1,1.75,9.4c-3.64,2.89-8.3,5.9-12.79,6.76C690.39,850.94,692,837.66,692,837.66Z"/><path class="cls-7" d="M676,864.47a13,13,0,0,0,10.6,4.63c7.21-.14,11.45-2.47,9.88-3.91S681.28,865.55,676,864.47Z"/><path class="cls-13" d="M511.55,595.07l14.83-20S547,598.21,534.67,651c-.92,4-10.71,9.17-19.25-4.63C497.17,630.14,511.55,595.07,511.55,595.07Z"/><path class="cls-9" d="M526.7,583.44s4,15.21-.87,26.4c-4,9.18-14.76,10.8-14.76,10.8Z"/><path class="cls-25" d="M451.12,745.31c.13-6.94-9.34-76.62-2.78-92.68,9.16-22.44,22.4-36.9,25-71.17,1.16-13.79,18.82-18.7,22.26-19.08,9.62-1,22.12,1.6,27.69,7.56,12.41,13.26-.1,31.75-2.15,37.94s-7.79,13.89-.29,34.63c3.13,8.66,10,87.48,9,98.83-3.7,44.79-22.18,102.87-32.22,102.87-15.84,0-5.61-47.81-3.5-68.27.65-6.33,3.52-22.46,3.68-30.63.1-5-3.72-62.67-6.27-62.75.07,8.24-10.53,59.77-11.23,68.33-3.7,44.79-5.48,91.2-16,92.18-16.26,1.51-19-46.67-16.89-67.13C448.09,769.61,451,753.48,451.12,745.31Z"/><path class="cls-12" d="M491.62,563.33l1.15-.34Z"/><path class="cls-12" d="M492.92,563l1-.25Z"/><path class="cls-12" d="M494,562.68c.63-.15,1.16-.24,1.53-.29C495.16,562.44,494.64,562.53,494,562.68Z"/><path class="cls-12" d="M463.67,620.65l-.18.41h0Z"/><path class="cls-15" d="M463.67,620.65c.27-.63.55-1.26.82-1.9Z"/><path class="cls-15" d="M492.77,563l.15,0Z"/><polygon class="cls-15" points="491.62 563.33 491.62 563.33 491.62 563.33 491.62 563.33"/><path class="cls-15" d="M518.92,566.61l.12.06Z"/><path class="cls-15" d="M493.89,562.7l.11,0Z"/><path class="cls-15" d="M526.73,688.94c-2-21.51-4.34-42.23-5.86-46.43-4.53-12.53-4.23-20.27-2.83-25.82a54.62,54.62,0,0,1-.17-13.26c.66-5.27,1.37-10.54,2.07-15.81.88-6.65.78-13.19.78-19.89-.53-.37-1.09-.72-1.68-1.06l-.12-.06c-.58-.33-1.19-.64-1.82-.93a43,43,0,0,1,.7,14c-.44,2.94-2,2.86-4.82,2.93a36.23,36.23,0,0,1-7.51-.19c-4.39-.82-4.06-5.49-4.91-9-.9-3.68-2-8.37-5-11h0c-.37.05-.9.14-1.53.29l-.11,0-1,.25-.15,0-1.15.34h0c4.43,3.33,4.23,9.9,5.07,15,4.19,25.47-32,40-32,40l-.17.41c-.27.64-.55,1.27-.82,1.9l-.18.4h0c-4.82,10.88-10.51,20.2-15.15,31.57-2.79,6.82-2.68,23.31-1.65,40.56,1.4,23.37,4.5,48.13,4.43,52.12-.17,8.17-3,24.3-3.69,30.63-2.11,20.46.63,68.64,16.89,67.13,10.56-1,12.34-47.39,16-92.18.5-6,5.93-33.55,9.05-52.08,1.3-7.69,2.2-13.84,2.18-16.25.88,0,1.91,6.94,2.88,16.19,1.84,17.49,3.46,43.31,3.39,46.56-.16,8.17-3,24.3-3.68,30.63-2.11,20.46-12.34,68.27,3.5,68.27,10,0,28.52-58.08,32.22-102.87C530.38,735.5,528.81,711.77,526.73,688.94Z"/><path class="cls-9" d="M464.32,843.07c10.56-1,12.34-47.39,16-92.18.5-6,5.93-33.55,9.05-52.08,1.3-7.69,2.2-13.84,2.18-16.25.73,0,1.57,4.82,2.39,11.74.64-6.57.79-13.73-1.21-16.12-4-4.77-20.18-1.79-19.87,14.33s-10.37,60.57-11.29,82.36-3.35,25.36-.91,35.51c2,8.27-1,22.68.74,32.42A7.43,7.43,0,0,0,464.32,843.07Z"/><path class="cls-9" d="M523.67,659.48c-1.44,15.57-6.39,71.28-5.16,92,1.44,24.18-12.45,17.82-14.61,42.95-1.26,14.72-8.64,30.55-11.91,42.25a5.93,5.93,0,0,0,5.6,7.54h.09c10,0,28.52-58.08,32.22-102.87C530.61,732.77,526.88,685.74,523.67,659.48Z"/><path class="cls-9" d="M487.44,586.6c-1.26-5-9-.25-15.17,4.55a112.82,112.82,0,0,1-3.85,16.91C473.7,604.59,489.23,593.73,487.44,586.6Z"/><path class="cls-9" d="M516,532.22s.51-4.83-6.1-6.2-10.11.77-10.23,3.9-.32,12.25,8.77,11.59C515.82,541,516,532.22,516,532.22Z"/><path class="cls-14" d="M509.86,526a18.71,18.71,0,0,0-3.41-.42c4.24,1.86,3.86,5.51,3.86,5.51s-.15,8.45-7.23,9.23a8.14,8.14,0,0,0,5.32,1.17c7.42-.54,7.56-9.29,7.56-9.29S516.47,527.39,509.86,526Z"/><path class="cls-9" d="M515,535.17s6.14,1.89,6.33,7-1.78,16.79-9.73,15.93-8.34-4.29-9.18-7.29S499.11,530.85,515,535.17Z"/><path class="cls-12" d="M505.76,553.11l-3.18,13.16c-.51,2.16,3.68,8.94,7.81,7,1.21-.58.54-3.86.09-6.32L510.42,555Z"/><path class="cls-9" d="M510.46,562.06a7.75,7.75,0,0,1-4.52-6.63l4.49,1.26Z"/><path class="cls-14" d="M511.59,558.09c7.95.86,9.92-10.83,9.73-15.93s-6.33-7-6.33-7a18.3,18.3,0,0,0-4.21-.68c2.14,1.49,5.46,4,6.53,6.2S514,552.13,511,558C511.17,558,511.37,558.07,511.59,558.09Z"/><path class="cls-12" d="M509.85,544.28l-2.93,4.4a7.65,7.65,0,0,0,1.92,10.63c3.25,2.17,7.57,1.68,10.1-2.45,2.24-3.67,1-8.25.76-10.45C519.22,541.39,513.61,539.47,509.85,544.28Z"/><path class="cls-2" d="M512.2,554.27a12.85,12.85,0,0,1,5.11.1S515.51,556,512.2,554.27Z"/><path class="cls-13" d="M510,558a10.6,10.6,0,0,0,5.72.86,10.85,10.85,0,0,0,3.35-2.16c0,.07-.07.14-.11.2-2.53,4.13-6.85,4.62-10.1,2.45a7.41,7.41,0,0,1-3.26-6.25A9.71,9.71,0,0,0,510,558Z"/><path class="cls-12" d="M507.69,548.72a6.26,6.26,0,0,1,.05-1.37c.12-.87.09-2.19-1.32-1.73-2,.68-2.4,5.35-.25,6C507.77,552.07,507.78,549.88,507.69,548.72Z"/><path class="cls-12" d="M492.23,691.58s-2.08,6.37-3.11,7.8-13.48-.88-13.15-2.94,5.36-7.45,5.4-10.13S498.16,682.44,492.23,691.58Z"/><path class="cls-23" d="M619,842.9a3.92,3.92,0,0,1-5.14-1.45L411.06,621a3.75,3.75,0,0,1,1.38-5.2,4,4,0,0,1,5.32,1.36L620.5,837.61a3.75,3.75,0,0,1-1.38,5.2Z"/><path class="cls-12" d="M482.32,569.69c-19,2.12-49.68,20.23-60.44,40.51s15.61,57.47,32.51,65.75-9.37-54.05-7.16-60.87c1.89-5.84,31-11.76,42.36-27.71C496.39,577.79,492.19,568.59,482.32,569.69Z"/><path class="cls-12" d="M458.57,666.79s2.77-2.27,7.32.85c2.95,2,7,9.45,7,9.45s-4.82-1.73-5.47-.38,3.22,6.88,2.21,8c-3.11,3.33-12.81-4-14.87-10.66S458.57,666.79,458.57,666.79Z"/><path class="cls-13" d="M489.59,587.37c3.9-5.49,4.17-10.86,1.84-14.23-1.22,2.45-3.42,9.24-12,9.72-5.53.31-13.56,14.08-19.71,16.7-6.63,2.82-11.37.09-13.74,2.07-4.55,3.82-9.48,11.45-6.56,24.34s7.92,39,20.6,46c.63-13.51-14.53-51.64-12.83-56.89C449.12,609.24,478.26,603.32,489.59,587.37Z"/><path class="cls-12" d="M536.06,649.14c-2.74,11.8-42.62,46-49.62,41-8.61-6.14,16.43-40.88,28.88-52.08C531.91,623.12,538.76,637.46,536.06,649.14Z"/><path class="cls-13" d="M536.06,649.14c1.49-6.43.78-16.84-3.54-19.55.11,3.5-1.07,11.89-4.11,16.3-5.12,7.44-20.48,11-29.26,26.59-6.63,11.74-11,13.95-11.71,18.07C496.59,692.41,533.43,660.47,536.06,649.14Z"/><path class="cls-12" d="M483.89,684.73s-3.77.25-5.16,2-.45,4.45-1,5.81,2.19,1.9,2.52-.44,5.08-1,5.47-2.6S484.82,684.61,483.89,684.73Z"/><path class="cls-9" d="M512.2,841.32c-3-1.35-5.15-1.91-7.2-4.08a1.88,1.88,0,0,1-.36-.65,2.27,2.27,0,0,0-3-1.31c-2.81,1.17-8.1,1.9-9.28,3.77-2,3.12-2.43,7.17-.11,8.32,4.44,2.2,30.52,1.15,30.09-1.3C522.11,844.59,516.73,843.35,512.2,841.32Z"/><path class="cls-9" d="M476.71,842.36c-3-1.35-5.16-1.9-7.21-4.07a1.94,1.94,0,0,1-.36-.66,2.25,2.25,0,0,0-3-1.3c-2.8,1.16-8.1,1.89-9.27,3.77-2,3.11-2.43,7.16-.11,8.31,4.44,2.21,30.52,1.15,30.09-1.3C486.61,845.64,481.23,844.4,476.71,842.36Z"/><path class="cls-9" d="M604.52,839.78h55a2.45,2.45,0,0,1,2.08,1.12c2,3.23,7.32,12.69,3.83,19.76,0,0-5.49-14.32-8.7-14.62,0,0,2.44,10.75-2.13,14.62,0,0-2.29-12.53-8.24-14.17,0,0,1.68,9.7-.3,14.17,0,0-5.8-14.92-9.92-14.92,0,0,2.44,10.45.76,14.92,0,0-8.23-14.51-13.42-15.69,0,0,3.82,9.58,0,15.69,0,0-5.49-15.11-10.83-15.69,0,0,2.21,12.86-1,15.69l-9.28-17.36A2.41,2.41,0,0,1,604.52,839.78Z"/><path class="cls-18" d="M492.08,608.06s16.57.79,22,1.07c0,0-2.35,10.12-11.53,10.27S492.08,608.06,492.08,608.06Z"/><path class="cls-4" d="M1413.58,312.25H1641c2.43,0,4.21-4.62,3.58-9.32-2.11-15.62-8.92-46.54-30.39-58.18-34.28-18.59-44.53,21.74-60.12,24.8-12.5,2.45-19.16-16.39-44.76-6.89s-20,25.1-27.31,32.48c-10,10.22-40.66-20.61-56.89-11.48C1411.24,291.42,1411,312.25,1413.58,312.25Z"/><path class="cls-5" d="M1644.53,302.93a139.07,139.07,0,0,0-3.17-16.23c-9.33-5.61-21.64-8.4-27.92-10.64-12.14-4.32-19.22-.93-43.24,10.88s-33.88-5.58-56.89-3.61-15.93,17.72-30.09,19.69-37.68-2-55.51-3.94c-8.38-.93-12.81,1.94-15.15,5.23-.58,4.55,0,7.94,1,7.94H1641C1643.38,312.25,1645.16,307.63,1644.53,302.93Z"/><path class="cls-4" d="M993.15,189.41c-6,0-10.27-9.4-7.76-17.73,4.31-14.3,16.72-16.67,27.33-15.79a28.49,28.49,0,0,0,25.43-11.53c3.63-5,8-8.81,12.49-7.06a57.57,57.57,0,0,1,5.84,2.69,21.37,21.37,0,0,0,22.47-1.26c9-6.48,23.07-13.56,39.48-11.3a27.79,27.79,0,0,0,21.54-6.17c12.12-10.07,34-22.74,56.46-8.08,22.17,14.49,30.47,43.84,33.55,62.16,1.37,8.11-2.7,16-8.25,15.93Z"/><path class="cls-5" d="M1230.09,180.88c-2.9-4-6-8.42-8-13.24-7-17.18-28.49-18.57-42.55-22s-19.34,3.78-36.58,7.22-31.29.35-68.22.35-15.12,13.76-35.42,19.6-32.45-6.19-47-.34c-4.38,1.77-6.55,4.51-7.45,7.47.95,5.26,4.17,9.45,8.2,9.48l228.58,1.86C1226,191.3,1229.36,186.69,1230.09,180.88Z"/><path class="cls-4" d="M240.62,266.21H467.35c2.43,0,4.2-3.47,3.57-7-2.1-11.74-8.89-35-30.3-43.74-34.18-14-39.62,14.1-55,6-18.65-9.79,5.09-68.41-59.46-56-26.05,5-8.24,51.86-26.37,60.33-8.42,3.93-18.82-1.83-35,5-13.78,5.84-24.55,14.76-27.61,28C236.29,262.45,238.09,266.21,240.62,266.21Z"/><path class="cls-5" d="M470.92,259.2a78.38,78.38,0,0,0-6.5-20.26c-8.79-2.92-19.39-4.46-31.16-5-29.24-1.43-31.15,16.8-57.21,4S355.7,202.81,336,204.67s-13.35,29.86-21,38.56-29.24,3.11-57.22,7c-9.4,1.3-15.85,4.1-20.28,7.25-.13.47-.27.93-.38,1.41-.84,3.6,1,7.36,3.49,7.36H467.35C469.78,266.21,471.55,262.74,470.92,259.2Z"/></g></g></svg>