<svg xmlns="http://www.w3.org/2000/svg" viewBox="0 0 1053 540"><defs><style>.cls-1{isolation:isolate;}.cls-2{fill:#fff5f5;}.cls-3{fill:#ffe6e6;}.cls-4{fill:#ffd6d6;}.cls-5{fill:#4cb4d4;}.cls-6{fill:#2e88bf;}.cls-7{fill:#f4a6a6;}.cls-8{fill:#311e69;}.cls-9{fill:#914941;}.cls-10{fill:#fff;}.cls-11{fill:#ff8f8f;}.cls-12{fill:#ff6161;}.cls-13{fill:#ad263d;}.cls-14{fill:#1e1240;}.cls-15{fill:#614cd4;}.cls-16{fill:#ffd140;}.cls-17{fill:#ffb03b;}.cls-18{fill:#7165e5;}.cls-19,.cls-22{fill:#9fcfff;}.cls-19{mix-blend-mode:screen;}.cls-20{fill:#ff933b;}.cls-21{fill:#d95f76;}.cls-23{fill:#ff9791;}.cls-24{fill:#b1a9ff;}.cls-25{fill:#a399ff;}</style></defs><g class="cls-1"><g id="Réteg_1" data-name="Réteg 1"><path class="cls-2" d="M134.69,467.34c-44.8-.4-78.57-51.26-70.12-106.08,9.67-62.72,35.59-136.58,101.7-171,126.62-66,201,27.05,274.15-27.24S659.84-18,786.46,41.55,944.24,318.18,922.64,389.82s-137,92.08-200.23,86.83C673,472.54,297,468.79,134.69,467.34Z"/><path class="cls-3" d="M126.08,492.64c-34.6.75-58.83-42.47-46.24-82.64a208,208,0,0,1,34-65.34c54.26-70.11,189.88-4.7,263.92-55.32s182.5-159.56,303.93-164.87S926.12,279.92,916.08,398.74,540.21,483.38,470.89,485C419.39,486.28,223.4,490.54,126.08,492.64Z"/><path class="cls-4" d="M117,504.45H828.58c43.89,0,78-47.75,72.79-102.05s-21.16-113.91-63.82-133.53c-84.72-39-316.66-28.49-421.14,58.3-93,77.25-259.87-15.38-326.2,117.16C77.1,470.51,92.26,504.45,117,504.45Z"/><path class="cls-5" d="M750.37,395.72c13.14-12.43,41-22,49.89-39.47s-3-13.79-4.1-30.58,27.17-3.65,49.39-4.38,26.64-22.22,35.74-35.31,17.31-13.05,36.64-16.22c10.4-1.7,20.68-5.51,28-8.67a22.84,22.84,0,0,0-1.2-2.27C927.28,230.09,851,263.5,840.42,283s-38.42-2.2-65.9,17.31-6.37,43.79-7.68,57-26.51,2.43-55,17.55-4.6,71.19-4.6,71.19c1.51,4.23,12.88,7.46,26.12,8.84C729.82,432.38,739.7,405.81,750.37,395.72Z"/><path class="cls-6" d="M917.93,269.76c-19.33,3.17-27.53,3.14-36.64,16.22s-13.51,34.58-35.74,35.31-50.51-12.42-49.39,4.38,13,13.07,4.1,30.58-36.75,27-49.89,39.47c-10.67,10.09-20.55,36.66-17,59.15,20,2.09,44.32-.05,45.29-9.36C780.3,430,811.52,423.3,833.18,416s-.68-55.13,1.56-67.86,53.64-8.33,55.17-30.57c1.49-21.64,68.42-29.61,56-56.5C938.61,264.25,928.33,268.06,917.93,269.76Z"/><path class="cls-7" d="M488.65,442.38s-55.5-89.11-40.61-112.1,29.57-8.2,34.69-24.52-24-47.4-12.94-76.13,42.52-31.25,35.48-54.81,8.48-75.38,35.42-81.33-3.26,69.51,16.22,86.24,24.92,48.59-4,82,13.37,75.76-1,91.85S510.72,376.3,540,400.33,522.08,450.63,488.65,442.38Z"/><path class="cls-5" d="M497.34,329.51c-4.93-17.4-3.67-32.89,19.21-73.84s10.05-55.64,10.74-85.2,9.46-29.6,10.17-50.79c.29-8.47,2.07-18,4.1-26.34l-.87.15c-26.94,6-42.45,57.77-35.42,81.33s-24.45,26.09-35.48,54.81,18.06,59.8,12.94,76.13-19.8,1.53-34.69,24.52,40.61,112.1,40.61,112.1c9.29,2.29,19.64,1.92,29.12-.34C484.09,392.74,501.74,345,497.34,329.51Z"/><path class="cls-6" d="M541.56,93.34c-2,8.36-3.81,17.87-4.1,26.34-.71,21.19-9.47,21.24-10.17,50.79s12.15,44.26-10.74,85.2-24.14,56.44-19.21,73.84c4.4,15.48-13.25,63.23,20.43,112.53,24.63-5.84,43.35-24.36,22.21-41.71-29.26-24-2.4-30.65,11.93-46.73s-28-58.41,1-91.85,23.52-65.29,4-82C537.65,163.18,567,89.23,541.56,93.34Z"/><path class="cls-7" d="M723.63,426.48s-41.12-66-30.09-83.08,21.91-6.07,25.71-18.17-17.77-35.12-9.6-56.41,31.52-23.16,26.3-40.62,6.28-55.86,26.25-60.27-2.42,51.51,12,63.9,18.46,36-3,60.79,9.91,56.15-.72,68.06-30.52,16.83-8.83,34.64S748.41,432.59,723.63,426.48Z"/><path class="cls-5" d="M730.08,342.83c-3.66-12.89-2.72-24.37,14.23-54.71s7.45-41.24,8-63.14,7-21.94,7.54-37.64a100.77,100.77,0,0,1,3-19.53l-.65.12c-20,4.41-31.46,42.81-26.25,60.27s-18.12,19.34-26.3,40.62,13.39,44.31,9.6,56.41-14.68,1.14-25.71,18.17,30.09,83.08,30.09,83.08a46.72,46.72,0,0,0,21.58-.25C720.25,389.69,733.33,354.3,730.08,342.83Z"/><path class="cls-6" d="M762.85,167.81a100.77,100.77,0,0,0-3,19.53c-.53,15.7-7,15.73-7.54,37.64s9,32.79-8,63.14-17.89,41.82-14.23,54.71c3.25,11.47-9.83,46.86,15.13,83.4,18.25-4.33,32.12-18.05,16.47-30.91-21.69-17.81-1.79-22.72,8.83-34.64s-20.74-43.28.72-68.06,17.42-48.39,3-60.79S781.67,164.78,762.85,167.81Z"/><path class="cls-5" d="M586.27,359.08c17.52-34,51.84-43.13,41.33-61.7s-4.2-30.95,5.61-51c5.65-11.57,14.32-22.19,20.66-29.12-3.47-.5-9.16.38-18,3.06-46.37,14.07-41.91,49-46.77,70.91s-12.66,18.57-45.59,43.33,9.11,75.41,9.11,75.41c-2.74,17.06,22.66,16.9,52.6,17.94C591.35,408.62,575.57,379.84,586.27,359.08Z"/><path class="cls-6" d="M646.52,267.55c-3.4-21,22.13-48.19,7.35-50.33-6.34,6.93-15,17.55-20.66,29.12-9.81,20.09-16.12,32.47-5.61,51s-23.81,27.72-41.33,61.7c-10.7,20.76,5.08,49.54,19,68.79l2,.07c30.82,1.13,31.11-9.61,20.31-30.22s50.24-38.64,50.24-63.76S650.73,293.44,646.52,267.55Z"/><polygon class="cls-7" points="419.51 438.29 402.04 438.29 399.25 382.79 402.23 380.52 404.19 382.22 405.44 378.08 410.39 374.31 415.09 377.88 415.59 379.37 416.21 378.73 421.54 382.79 419.51 438.29"/><polygon class="cls-7" points="455.98 438.29 438.5 438.29 435.72 382.79 438.7 380.52 441.9 378.08 446.86 374.31 451.56 377.88 452.68 378.73 458 382.79 455.98 438.29"/><polygon class="cls-7" points="492.44 438.29 474.97 438.29 472.19 382.79 475.17 380.52 477.12 382.22 478.37 378.08 483.33 374.31 488.02 377.88 488.53 379.37 489.14 378.73 494.47 382.79 492.44 438.29"/><polygon class="cls-7" points="528.91 438.29 511.44 438.29 508.65 382.79 511.63 380.52 519.79 374.31 524.99 379.37 530.94 382.79 528.91 438.29"/><polygon class="cls-7" points="565.38 438.29 547.9 438.29 545.12 382.79 548.1 380.52 556.26 374.31 560.96 377.88 562.08 378.73 567.4 382.79 565.38 438.29"/><polygon class="cls-7" points="601.85 438.29 584.37 438.29 581.59 382.79 584.57 380.52 586.52 382.22 587.77 378.08 592.73 374.31 597.42 377.88 597.93 379.37 598.54 378.73 603.87 382.79 601.85 438.29"/><polygon class="cls-7" points="638.31 438.29 620.84 438.29 618.05 382.79 629.2 374.31 635.01 378.73 640.34 382.79 638.31 438.29"/><polygon class="cls-7" points="674.78 438.29 657.3 438.29 654.52 382.79 657.5 380.52 665.66 374.31 670.36 377.88 676.8 382.79 674.78 438.29"/><rect class="cls-7" x="413.26" y="393.84" width="249.11" height="10.26"/><rect class="cls-7" x="413.26" y="417.76" width="249.11" height="10.26"/><polygon class="cls-7" points="711.25 438.29 693.77 438.29 690.99 382.79 693.97 380.52 697.17 378.08 702.13 374.31 706.82 377.88 707.94 378.73 713.27 382.79 711.25 438.29"/><polygon class="cls-7" points="747.71 438.29 730.24 438.29 727.45 382.79 730.43 380.52 732.39 382.22 733.64 378.08 738.6 374.31 743.29 377.88 743.79 379.37 744.41 378.73 749.74 382.79 747.71 438.29"/><polygon class="cls-7" points="784.18 440.98 766.71 438.29 763.92 382.79 766.9 380.52 775.06 374.31 780.26 379.37 786.21 382.79 784.18 440.98"/><polygon class="cls-7" points="820.65 443.81 803.17 441.38 800.39 382.79 803.37 380.52 811.53 374.31 816.23 377.88 817.34 378.73 822.67 382.79 820.65 443.81"/><polygon class="cls-7" points="857.11 455.61 839.64 455.61 836.85 382.79 839.84 380.52 841.79 382.22 843.04 378.08 848 374.31 852.69 377.88 853.2 379.37 853.81 378.73 859.14 382.79 857.11 455.61"/><polygon class="cls-7" points="893.58 455.61 876.11 455.61 873.32 382.79 884.46 374.31 890.28 378.73 895.61 382.79 893.58 455.61"/><polygon class="cls-7" points="930.05 455.61 912.57 455.61 909.79 382.79 912.77 380.52 920.93 374.31 925.63 377.88 932.07 382.79 930.05 455.61"/><rect class="cls-7" x="668.53" y="393.84" width="249.11" height="10.26"/><rect class="cls-7" x="668.53" y="417.76" width="249.11" height="10.26"/><path class="cls-5" d="M331.25,86.7s-28.67,1.56-41.4,18.07c-22.17,28.74-12.24,54.19-4.46,65.69,0,0-47.85,1-61.78,42.69-22.35,66.85,64.32,73.91,170.74,65.69S467,165.53,446.52,149.93c0,0,15-109.21-36.1-117.42C335,20.38,331.25,86.7,331.25,86.7Z"/><path class="cls-6" d="M446.52,149.93s15-109.21-36.1-117.42c-1.28-.21-2.54-.39-3.78-.55,8.5,4.06,16.18,9.85,14.52,17.17-3.48,15.4-30.8-1.84-20.52,27.1s26.72,22.17,18.81,43.11-49.77,11.09-38.69,32S426,176,421.53,200s-14.28-2.47-52.45,14.78-27.71,33.87-48,36.95-40.62-2.47-75.7-19.09c-11.1-5.27-18.31-10.59-23-15.41-17.47,63,67.78,69.63,172,61.59C500.77,270.63,467,165.53,446.52,149.93Z"/><path class="cls-6" d="M319.83,94.5c10.26,6.57,19.12,4.11,24.33,9.86s-.94,17.24,1.93,34.07-9.85,27.51-16.41,28.74-24.21,12.73-1.23,14.37,28.31-12.73,34.46-22.17,18.46-46,9.44-60.35-41.1-12.32-41.1-12.32A82.88,82.88,0,0,0,312,90.56,41.94,41.94,0,0,1,319.83,94.5Z"/><path class="cls-8" d="M393.37,245.59C389.68,257.91,366.29,293,355.83,293s-5.19-89,4.64-103.82,17.38-37.5,1.53-16.27c-17,22.75-21.21,72.25-19.25,108.83a2.11,2.11,0,0,1-3.56,1.65c-10.79-10.13-28-28.31-25-38.49,4.36-14.66-3-12.08-8-.45s5.51,11.22,7.39,18.63-7.12,2.71-.83,10.89c4.7,6.11,17,17.79,23,23.34a10,10,0,0,1,3.2,7.78c-2.16,45.78-14.57,129.67-6,140.07,9.85,11.9,16.62-6.21,15.39-21s-4.31-43.89-1.23-53.13-1.23-39.86,2.46-51.56,55.39-42.49,56-73.29S397.07,233.27,393.37,245.59Z"/><path class="cls-5" d="M32.83,523c-22.4-2.51-31.65-30.52-14.72-45.41.4-.36.81-.71,1.24-1.06,23.9-19.67,124-14.21,222.58-15.3s1.45-25.08,68.68-38.2S945.46,440.54,999.24,469s-8.91,37.1-173.23,56.77C667.93,544.66,232,545.38,32.83,523Z"/><path class="cls-6" d="M999.24,469c-5.86-3.09-18-6-34.94-8.83A35.94,35.94,0,0,0,937,466.86c-20.52,15.35-79,23.24-102.51,27.95-34.85,7-279.85,13.95-338.34,9.4s-93.89,7.54-164.59,14.52-75.7,4-129.49-15-117.51,0-154.82,0a116.54,116.54,0,0,1-37.79-6.26A26.33,26.33,0,0,0,32.83,523C232,545.38,667.93,544.66,826,525.73,990.33,506.06,1053,497.38,999.24,469Z"/><path class="cls-9" d="M592.29,476.21s.15-29.24,113.3-35.88,88.79,19.33,129.09,19.33c45.56,0,102-8,135.19,0s18,25.85-26.27,29.17-127.82.57-178.89.7C718.58,489.65,557.48,492.82,592.29,476.21Z"/><path class="cls-5" d="M20.82,475.51A19.3,19.3,0,0,1,12,468.28c-6.07-9.11-19-31.25-7.07-38.38C20.06,420.84,31,446.42,31,446.42s-.53-8.79,6.66-6.93,8.66,4.26,8.66,4.26-3.6-49.29,16.9-52.22,21.31,26.38,21.31,26.38,2.66-8.26,10.38-6.4,10.65,14.39,10.65,14.39,8.52-10.34,18.11-6,10.65,22.49,10.65,22.49a16.36,16.36,0,0,1,19.18,1.87c3.75,3.17,6.12,24-7.46,28C133.39,476,51.85,488,20.82,475.51Z"/><path class="cls-6" d="M146,472.27c13.58-4,11.21-24.81,7.46-28a16.36,16.36,0,0,0-19.18-1.87s-1.06-18.12-10.65-22.49a11.72,11.72,0,0,0-8.1-.64c1.45,1.94,3,4,4.11,5.55,2.93,4-1.07,2.44,0,11.35s4.52,15.29,8.25,15.29,10.92-.53,10.12,2.67-9.85,6.93-19.44,5.86-6.92-14.66-16.24-12-11.19,9.16-15.45,9.91-16.24-14.17-22.37-8.84S36,464.81,29.92,461.88s-8.26-9.33-13.85-6.4c-3.19,1.67-8.69-.29-10.73,1.52A109.65,109.65,0,0,0,12,468.28a19.3,19.3,0,0,0,8.86,7.23C51.85,488,133.39,476,146,472.27Z"/><path class="cls-6" d="M65.07,396.39c3.19,4.4-2.8,3.4,1.6,7s11.27,3,11.53,5.79-6.74,9.59-3.75,13.39,3.69,6.6,3.75,11.19,5.57-7.72,6.31-15.85c0,0-.8-29.31-21.31-26.38A12.43,12.43,0,0,0,57.41,394C60.19,393.78,63.44,394.15,65.07,396.39Z"/><path class="cls-6" d="M94,422.27c2.89,1.7,6.69,3.7,6.89,7.3s-4.7,6.09-1.8,7.59,5.86-5.43,6.42-11.26c0,0-2.93-12.52-10.65-14.39a8,8,0,0,0-5.27.38c1.48.22,3.21.83,3.21,2.49C92.83,417.28,91.13,420.57,94,422.27Z"/><path class="cls-10" d="M35.13,462.15s-6-1.65-5.76-8.84,10.87-8.28,16.57-5S48,463.68,35.13,462.15Z"/><path class="cls-11" d="M41.39,457.26c0,1.43-1.77,2.59-4,2.59s-3.95-1.16-3.95-2.59,1.77-2.59,3.95-2.59S41.39,455.83,41.39,457.26Z"/><path class="cls-10" d="M110.07,460.25s-6,.5-8.19-6.11,7.11-11.14,13.39-10S122.23,457.36,110.07,460.25Z"/><path class="cls-11" d="M114.12,453.72c.48,1.3-.74,2.94-2.72,3.67s-4,.27-4.45-1,.74-2.94,2.72-3.67S113.64,452.42,114.12,453.72Z"/><path class="cls-10" d="M54.17,428.62s-9,.76-12.29-9.18S52.56,402.69,62,404.35,72.45,424.27,54.17,428.62Z"/><ellipse class="cls-11" cx="54.87" cy="420.78" rx="5.74" ry="3.77" transform="translate(-142.06 44.9) rotate(-20.22)"/><path class="cls-10" d="M13.28,439.27s-3.36-.85-3.08-3.78,6.32-3.08,9.48-1.57S20.51,440.26,13.28,439.27Z"/><path class="cls-11" d="M16.92,437.44c0,.59-1.05,1-2.29.95s-2.21-.58-2.18-1.17,1.05-1,2.29-1S17,436.86,16.92,437.44Z"/><path class="cls-10" d="M67.46,447.45s.49-5.59,9.28-8,12.78,6,10.2,11.94S68.82,458.68,67.46,447.45Z"/><path class="cls-11" d="M75,450.85a3.43,3.43,0,1,1,2.15-4.23A3.35,3.35,0,0,1,75,450.85Z"/><path class="cls-5" d="M654.7,477.11s-9.53-7-7.26-17.19-12.32-25.6-5.13-27.2,13.19,14.2,15,25.4S659.1,477.51,654.7,477.11Z"/><path class="cls-6" d="M657.3,458.12c-1.8-11.2-7.8-27-15-25.4a2.69,2.69,0,0,0-1.35.68,7.9,7.9,0,0,0,2.95,2.72c3.8,2.2,8.29,9.5,8.29,13.1s-.19,11.2.9,17.39c.59,3.32,0,6.6-.08,9a18.88,18.88,0,0,0,1.68,1.47C659.1,477.51,659.1,469.31,657.3,458.12Z"/><path class="cls-5" d="M655.7,468.54s2.2-21.2,10.59-15-7.2,23.8-10.59,23.6S655.7,468.54,655.7,468.54Z"/><path class="cls-6" d="M666.29,453.54a5.08,5.08,0,0,0-2.72-1.12c.28.64.6,1.45.92,2.42.9,2.7-.4,3.5-1.8,7-1.3,3.26-7.81,6.53-8.45,13.66.12.93.54,1.59,1.46,1.64C659.09,477.34,674.68,459.74,666.29,453.54Z"/><path class="cls-5" d="M738.41,448.91s9.53-7,7.27-17.19,12.32-25.6,5.13-27.2-13.19,14.2-15,25.4S734,449.31,738.41,448.91Z"/><path class="cls-6" d="M735.82,429.92c1.8-11.2,7.79-27,15-25.4a2.74,2.74,0,0,1,1.35.68,8,8,0,0,1-2.95,2.72c-3.8,2.2-8.3,9.5-8.3,13.1s.2,11.2-.9,17.4c-.58,3.31,0,6.59.08,9a15.71,15.71,0,0,1-1.68,1.47C734,449.31,734,441.12,735.82,429.92Z"/><path class="cls-5" d="M737.42,440.34s-2.2-21.19-10.6-15,7.21,23.8,10.6,23.6S737.42,440.34,737.42,440.34Z"/><path class="cls-6" d="M726.82,425.34a5.19,5.19,0,0,1,2.73-1.12c-.28.64-.6,1.46-.93,2.42-.9,2.7.4,3.5,1.8,7,1.3,3.26,7.82,6.53,8.46,13.66-.13.93-.55,1.59-1.46,1.64C734,449.14,718.43,431.54,726.82,425.34Z"/><path class="cls-5" d="M807.12,481.9s9.53-7,7.26-17.2,12.33-25.6,5.13-27.2-13.19,14.2-15,25.4S802.73,482.3,807.12,481.9Z"/><path class="cls-6" d="M804.52,462.9c1.8-11.2,7.8-27,15-25.4a2.74,2.74,0,0,1,1.36.69,8,8,0,0,1-3,2.71c-3.79,2.2-8.29,9.5-8.29,13.1s.2,11.2-.9,17.4c-.58,3.31,0,6.59.08,9a17.3,17.3,0,0,1-1.68,1.47C802.73,482.3,802.73,474.1,804.52,462.9Z"/><path class="cls-5" d="M806.12,473.33s-2.2-21.2-10.59-15,7.2,23.79,10.59,23.6S806.12,473.33,806.12,473.33Z"/><path class="cls-6" d="M795.53,458.33a5.18,5.18,0,0,1,2.73-1.13,25.94,25.94,0,0,0-.93,2.43c-.9,2.7.4,3.5,1.8,7,1.3,3.26,7.81,6.52,8.45,13.66-.12.92-.54,1.58-1.46,1.64C802.73,482.12,787.14,464.53,795.53,458.33Z"/><path class="cls-5" d="M850.89,468s9.53-7,7.27-17.2,12.32-25.6,5.12-27.2-13.19,14.2-15,25.4S846.5,468.42,850.89,468Z"/><path class="cls-6" d="M848.3,449c1.79-11.2,7.79-27,15-25.4a2.73,2.73,0,0,1,1.36.68,8,8,0,0,1-2.95,2.72c-3.8,2.2-8.3,9.5-8.3,13.1s.2,11.2-.9,17.4c-.58,3.31,0,6.59.08,9a16.74,16.74,0,0,1-1.68,1.48C846.5,468.42,846.5,460.22,848.3,449Z"/><path class="cls-5" d="M849.89,459.44s-2.19-21.19-10.59-15,7.21,23.79,10.59,23.59S849.89,459.44,849.89,459.44Z"/><path class="cls-6" d="M839.3,444.45a5.13,5.13,0,0,1,2.73-1.13c-.28.65-.61,1.46-.93,2.43-.9,2.7.4,3.5,1.8,7,1.3,3.25,7.82,6.52,8.46,13.65-.13.93-.55,1.59-1.47,1.64C846.51,468.24,830.91,450.65,839.3,444.45Z"/><path class="cls-5" d="M689.36,452.32s-2.2-19.24-7.72-15.58,3.75,19.78,6,18.45S689.36,452.32,689.36,452.32Z"/><path class="cls-5" d="M686.35,450.56S694,421.86,703,427.38,690.24,457,687.6,455.19A3.66,3.66,0,0,1,686.35,450.56Z"/><path class="cls-6" d="M689.36,452.32s-2.13-18.56-7.43-15.73a5.6,5.6,0,0,1,.27.59c1.07,2.73,0,1.15,1.15,4.3s3.81,5.06,4,8.45a51.33,51.33,0,0,0,.44,5.16C689.78,453.79,689.36,452.32,689.36,452.32Z"/><path class="cls-6" d="M703,427.38a6,6,0,0,0-.61-.32,6.2,6.2,0,0,1-.13.84,8.48,8.48,0,0,1-2.48,4.47,9.69,9.69,0,0,0-2.49,3.91c-1.24,2.88-1,5.78-1.73,6.77a26.49,26.49,0,0,1-2.57,2.64l-3.63,3.41a20.72,20.72,0,0,0-1.76,5.08c-.06.32-.11.63-.16.92l.12.09C690.24,457,712.09,432.9,703,427.38Z"/><path class="cls-5" d="M769.18,466.1s-3.12-27.24-10.92-22.05,5.3,28,8.43,26.12S769.18,466.1,769.18,466.1Z"/><path class="cls-5" d="M764.92,463.6s10.82-40.61,23.62-32.8-18.11,41.94-21.85,39.37A5.19,5.19,0,0,1,764.92,463.6Z"/><path class="cls-6" d="M769.18,466.1s-3-26.27-10.52-22.27c.12.24.25.51.38.83,1.52,3.87,0,1.64,1.63,6.1s5.39,7.16,5.63,11.95a70.72,70.72,0,0,0,.62,7.3C769.76,468.18,769.18,466.1,769.18,466.1Z"/><path class="cls-6" d="M788.54,430.8a7.21,7.21,0,0,0-.87-.45,6.5,6.5,0,0,1-.18,1.19c-.94,3.87-2.23,4.8-3.51,6.33s-1.76,1.44-3.52,5.52-1.38,8.19-2.45,9.59a37.55,37.55,0,0,1-3.64,3.73l-5.14,4.82a30,30,0,0,0-2.49,7.2c-.08.45-.16.89-.22,1.3l.17.14C770.43,472.74,801.34,438.61,788.54,430.8Z"/><path class="cls-5" d="M831.35,479.39s-2.21-19.25-7.72-15.59,3.75,19.78,6,18.46S831.35,479.39,831.35,479.39Z"/><path class="cls-5" d="M828.34,477.62S836,448.92,845,454.44s-12.8,29.63-15.45,27.82A3.67,3.67,0,0,1,828.34,477.62Z"/><path class="cls-6" d="M831.35,479.39s-2.13-18.57-7.44-15.74a5.6,5.6,0,0,1,.27.59c1.07,2.73,0,1.16,1.16,4.3s3.8,5.06,4,8.45a51.33,51.33,0,0,0,.44,5.16C831.76,480.85,831.35,479.39,831.35,479.39Z"/><path class="cls-6" d="M845,454.44c-.21-.12-.41-.22-.62-.32a4.2,4.2,0,0,1-.13.85,8.43,8.43,0,0,1-2.48,4.47,9.56,9.56,0,0,0-2.48,3.9c-1.24,2.88-1,5.78-1.73,6.77a26.49,26.49,0,0,1-2.57,2.64l-3.64,3.41a21.21,21.21,0,0,0-1.76,5.08c0,.32-.11.63-.16.92a.58.58,0,0,1,.12.1C832.23,484.07,854.07,460,845,454.44Z"/><path class="cls-5" d="M714.67,481.26S712.46,462,707,465.67s3.75,19.78,5.95,18.46S714.67,481.26,714.67,481.26Z"/><path class="cls-5" d="M711.66,479.49s7.64-28.69,16.69-23.18S715.55,486,712.9,484.13A3.67,3.67,0,0,1,711.66,479.49Z"/><path class="cls-6" d="M714.67,481.26s-2.13-18.57-7.44-15.74a5.6,5.6,0,0,1,.27.59c1.08,2.73,0,1.16,1.16,4.3s3.8,5.06,4,8.45a51.08,51.08,0,0,0,.44,5.16C715.08,482.72,714.67,481.26,714.67,481.26Z"/><path class="cls-6" d="M728.35,456.31a6,6,0,0,0-.62-.31,4.21,4.21,0,0,1-.13.84,8.43,8.43,0,0,1-2.48,4.47,9.56,9.56,0,0,0-2.48,3.9c-1.24,2.89-1,5.78-1.73,6.78a27.19,27.19,0,0,1-2.57,2.63L714.71,478a20.72,20.72,0,0,0-1.76,5.08c-.06.32-.12.63-.16.92l.11.1C715.55,486,737.39,461.83,728.35,456.31Z"/><path class="cls-5" d="M894.87,479.37s2.21-19.25,7.72-15.58-3.75,19.77-6,18.45S894.87,479.37,894.87,479.37Z"/><path class="cls-5" d="M897.88,477.6s-7.64-28.69-16.69-23.17,12.8,29.63,15.44,27.81A3.66,3.66,0,0,0,897.88,477.6Z"/><path class="cls-6" d="M894.87,479.37s2.13-18.56,7.44-15.74c-.09.18-.18.37-.27.59-1.08,2.73,0,1.16-1.16,4.31s-3.8,5.06-4,8.44a50.84,50.84,0,0,1-.44,5.16C894.46,480.83,894.87,479.37,894.87,479.37Z"/><path class="cls-6" d="M881.19,454.43a4.57,4.57,0,0,1,.62-.32,4.21,4.21,0,0,0,.13.84,8.43,8.43,0,0,0,2.48,4.47,9.72,9.72,0,0,1,2.48,3.9c1.24,2.89,1,5.79,1.73,6.78a27.72,27.72,0,0,0,2.57,2.64l3.63,3.4a20.72,20.72,0,0,1,1.76,5.08c.06.32.12.63.16.93l-.12.09C894,484.06,872.15,460,881.19,454.43Z"/><path class="cls-5" d="M934.16,469.06s-2.21-19.25-7.72-15.58,3.75,19.78,5.95,18.45S934.16,469.06,934.16,469.06Z"/><path class="cls-5" d="M931.15,467.3s7.64-28.7,16.69-23.18-12.8,29.63-15.45,27.81A3.65,3.65,0,0,1,931.15,467.3Z"/><path class="cls-6" d="M934.16,469.06s-2.13-18.56-7.44-15.74c.09.18.18.37.27.59,1.07,2.73,0,1.16,1.16,4.31s3.8,5.06,4,8.45a50.89,50.89,0,0,0,.44,5.15C934.57,470.52,934.16,469.06,934.16,469.06Z"/><path class="cls-6" d="M947.84,444.12a4.57,4.57,0,0,0-.62-.32,4.11,4.11,0,0,1-.13.84,8.39,8.39,0,0,1-2.48,4.47,9.72,9.72,0,0,0-2.48,3.9c-1.24,2.89-1,5.79-1.73,6.78a27.72,27.72,0,0,1-2.57,2.64l-3.64,3.4a21.12,21.12,0,0,0-1.75,5.08c-.06.33-.12.63-.17.93l.12.09C935,473.75,956.88,449.64,947.84,444.12Z"/><path class="cls-12" d="M608.45,305.91c9.46-3,20,27.91,29.17,34.6,12.29,9,42.71,5.54,43.91,10.1,3,11.37-36.38,19.36-56.28,5.25C608.39,343.91,597.18,309.46,608.45,305.91Z"/><path class="cls-13" d="M679.2,356.48c-2.17-.85-4.65-1.28-6.8-.28-5.18,2.41-10.46,2.69-16.83.52s-12.19-1.71-21.91-3.4-7.6-4.4-12-11.53c-3.14-5.13-11.76-13.17-16.38-17.3,3,11.32,10.62,24.78,19.93,31.37C641.45,367.34,670.55,364.18,679.2,356.48Z"/><path class="cls-8" d="M630.8,332.27c-7.35-11.37-15.17-28.62-22.35-26.36-8.27,2.6-6.35,23.45,2.92,38.23C611.38,344.14,627.52,339.74,630.8,332.27Z"/><path class="cls-14" d="M611.63,323.68c.8-7.2-2.46-3.35-4-6.68-1.23-2.59-.27-8.39.22-10.83-7.51,3.46-5.46,23.59,3.56,38a61.56,61.56,0,0,0,9.07-3.41c-1.62-1.11-3.81-1.35-4.76-1.64C613.88,338.54,610.84,330.88,611.63,323.68Z"/><path class="cls-15" d="M611.13,350.51S624.41,389.13,624,410c-.42,19.64-9.52,66.16-21.77,69.52S593.88,455,593.88,455l5.69-46.32S581,358.3,588.31,353.37,611.13,350.51,611.13,350.51Z"/><path class="cls-15" d="M575.05,351.15s-3.78,7-4.58,11.65c-1,5.88,4.51,39.24,2.62,52.16-1.12,7.63-6.35,16.43-5.35,30.38,1.5,21.1,5.57,27.91,12.94,27.91,9.57,0,15.27-54.54,15.27-63.95s-1.69-56.37-1.69-56.37Z"/><path class="cls-8" d="M574.6,352c-.42-.27-1.84-9.32-4.89-16.2-2.71-6.12-9.62-19.92,3.77-29.09,10.13-6.94,29.66-5.5,36.18-.92,11.7,8.22.36,41.74,1.47,44.7C611.13,350.51,592.31,354.48,574.6,352Z"/><path class="cls-15" d="M611.81,315.46c-1-3.7-2-7.29-2.92-10.14-2.7-1.58-7-2.71-11.87-3.16,5.45,6.15,6.19,15.69,6.19,15.69l-16.27,1.28-6.89-15.46a24,24,0,0,0-6.57,3.06c-.35.24-.68.48-1,.72,9.31,11.27,6.73,38.09,7.36,45.42a89.93,89.93,0,0,0,31.29-2.36c-.25-.66.13-2.85.72-5.93.24-3.66.64-8.22,1.18-13A43.28,43.28,0,0,0,611.81,315.46Z"/><path class="cls-5" d="M589.84,286.57s-1.23-4.07-5.06-3.27c-5.43,1.15-5.41,7.43-3.85,9.24,2.17,2.53,3.88,1.11,5.4-.49A32.23,32.23,0,0,0,589.84,286.57Z"/><path class="cls-14" d="M583,290.34s2.56-6.15,5-7.55c3.3-1.92,5.4.87,5.15,2.53s-3.05,5.45-4,5.8S583,290.34,583,290.34Z"/><path class="cls-12" d="M583.65,293.9l-.22,10.38c.41,1.33,8.66,2.75,10.21.42.46-.68-.11-1.89-1.12-3.08l-5.76-6.39Z"/><path class="cls-8" d="M587.92,296.51l-3.64.45a6.55,6.55,0,0,0,3.43,3.38,6.28,6.28,0,0,0,4,.34Z"/><path class="cls-8" d="M590.44,288.48s.87-1.34-1-2.92-7.48,5.15-7.41,7.19a7.06,7.06,0,0,0,1.58,4.54S590.89,291.94,590.44,288.48Z"/><path class="cls-12" d="M584.56,290.21l-.43,5.75a3.52,3.52,0,0,0,3.43,3.51,9.76,9.76,0,0,0,4.21-.86c1.47-.56,1.89-2.21,1.4-4.21a18.91,18.91,0,0,0-2.73-5.92C588.68,285.89,585.11,286.49,584.56,290.21Z"/><path class="cls-8" d="M584.13,296l.43-5.75a5.3,5.3,0,0,1,.33-1.22c.18,1.09.74,3.39,1.12,3.7,1,.82.71-.08,2.48-.58a11.36,11.36,0,0,1,3.9,0,14.69,14.69,0,0,1,.78,2.32c.49,2,.07,3.65-1.4,4.2a9.63,9.63,0,0,1-4.21.87A3.52,3.52,0,0,1,584.13,296Z"/><path class="cls-10" d="M588.7,293.31a9.41,9.41,0,0,0,3-.66s.34,1.15-.27,1.72S589.46,294.58,588.7,293.31Z"/><path class="cls-14" d="M591.76,296.51c-1.79.08-2.45,3-6.07,1.28a4.49,4.49,0,0,1-1.55-2V296a3.52,3.52,0,0,0,3.43,3.51,9.76,9.76,0,0,0,4.21-.86,2.46,2.46,0,0,0,1.55-2.08A7.51,7.51,0,0,1,591.76,296.51Z"/><path class="cls-12" d="M585.23,292.33a5,5,0,0,1-.35-1c-.16-.66-.56-1.6-1.41-.88-1.25,1.05-.48,4.26,1.21,4.13C585.94,294.47,585.63,293.14,585.23,292.33Z"/><path class="cls-12" d="M570.14,309.51c-4.64-.62-36.08,19.56-36.71,42.36-.56,20.6,39,34.63,42.71,28.65S552.68,357.2,554,348.6c1.23-8.23,18.66-16.88,20.77-24.11C577.39,315.42,574.22,310.05,570.14,309.51Z"/><path class="cls-12" d="M573,377.15s2.09-3.83,4-4.14,6.4.92,5.77,1.4-4.63.09-4.63.09,4.25,1.59,5,2.66-.93,2.55-2,2.8-6.23,2.47-8.14,1.84S573,377.15,573,377.15Z"/><path class="cls-8" d="M545.25,327c9.64-10.7,22.1-17.84,24.89-17.47,4.08.54,7.25,5.91,4.61,15-1.44,4.93-8,13.42-13.74,19.09C557,342.24,548.93,335.88,545.25,327Z"/><path class="cls-16" d="M596,483.78l0,0c-.18-2-1-5.19-1.41-9.16-.22-2.25-3.57-9-.72-10.64,0,0,20.67-4.78,20.68-2,0,5.63-7.69,20.19-7.64,20.75,1.11.18,10.82,5.44,10.95,6.55.23,1.84-18.77,1.73-21.92-.06C594.32,488.32,594.45,486,596,483.78Z"/><path class="cls-17" d="M596,483.78l0,0c-.18-2-1-5.19-1.41-9.16-.22-2.25-3.57-9-.72-10.64,0,0,2.35-.55,5.48-1.16.27,5,.66,12.85.66,15.9a115.42,115.42,0,0,0,1.19,11.58,16.38,16.38,0,0,1-5.26-1.07C594.32,488.32,594.45,486,596,483.78Z"/><path class="cls-16" d="M572.09,483.78l0,0c-.18-2-1-5.19-1.4-9.16-.23-2.25-3.58-9-.73-10.64,0,0,20.68-4.78,20.69-2,0,5.63-7.69,20.19-7.65,20.75,1.12.18,10.83,5.44,11,6.55.23,1.84-18.77,1.73-21.93-.06C570.42,488.32,570.55,486,572.09,483.78Z"/><path class="cls-17" d="M572.09,483.78l0,0c-.18-2-1-5.19-1.4-9.16-.23-2.25-3.58-9-.73-10.64,0,0,2.36-.55,5.49-1.16.27,5,.66,12.85.66,15.9a112.51,112.51,0,0,0,1.19,11.58,16.53,16.53,0,0,1-5.27-1.07C570.42,488.32,570.55,486,572.09,483.78Z"/><path class="cls-18" d="M590.09,333l16.32-.5s3,9.34-4.86,10.84S588.63,339.83,590.09,333Z"/><path class="cls-12" d="M681.19,347.93s6.65.8,7.25,1.7,2.22,2.13.71,3.44-4.94,3.74-6.76,3.53-6.14-1.51-5.49-3.53S678.27,348.43,681.19,347.93Z"/><path class="cls-8" d="M544.81,459.55c-14.88,0-28.82-1.71-39-5.62-24.25-9.28-35.94-6-36.06-5.93a2,2,0,0,1-1.17-3.81c.51-.16,12.9-3.83,38.65,6,25.51,9.76,75.23,5.29,102.65-5.23,16.21-6.22,40.83-46,55.54-69.79,7.17-11.59,12.36-20,15-22.3,8.53-7.56,17.67-5.86,18-5.79a2,2,0,0,1-.76,3.91c-.32-.06-7.65-1.34-14.65,4.87-2.18,1.94-7.77,11-14.23,21.41-15.95,25.77-40,64.71-57.51,71.41C594.09,455.3,568.28,459.55,544.81,459.55Z"/><path class="cls-12" d="M677,350.51s3.13-4.91,6.55-4.81,3.13,2.53,4.94,3,1.52,1.38.61,1.8-3.73-2.41-4.64-1.3-3.36,4.94-5.66,4.24A2.53,2.53,0,0,1,677,350.51Z"/><path class="cls-12" d="M681.29,357c-.6-.84,1.61-2.73,3.22-2.52s2.72-4.24,5.85-2.83S682.63,358.91,681.29,357Z"/><path class="cls-8" d="M693.22,347.11V351a.9.9,0,0,0,1,.9l16.86-1.46a.83.83,0,0,0,.75-.83v-1.42a.82.82,0,0,0-.77-.83l-16.86-1.13A.9.9,0,0,0,693.22,347.11Z"/><path class="cls-8" d="M460.92,474.24a5,5,0,0,1-5-5V446.59a5,5,0,0,1,5-5h5.48a5,5,0,1,1,0,10h-.5v17.69A5,5,0,0,1,460.92,474.24Z"/><path class="cls-19" d="M711.81,347.73s19.52-2.66,33.72,8.89c21.74,17.68,51.9,87.26,50,101.54S786,470.36,780.39,468s-9.14-19.1-9.14-19.1S768.63,468,758,468c-4,0-11-19.1-11-19.1s-3.4,12.23-8.87,5.67,4.23-49.27-2.4-72.69-23.92-32.75-23.92-32.75Z"/><path class="cls-13" d="M169.07,316.33l-9.9,15.37S125.52,354.76,132,361.28s47.16-30.63,47.19-34.4c0-2.6-4-7.79-6.5-10.78A2.22,2.22,0,0,0,169.07,316.33Z"/><path class="cls-5" d="M144.37,387.34l-3.07-9.62a6,6,0,0,0-5.72-4.53,46.38,46.38,0,0,0-8.88.92,6.3,6.3,0,0,0-4.92,5.47l.2,8.86a1.44,1.44,0,0,1-2.37,1.13c-5.5-4.7-15.63-13-19.23-13.82-4.83-1.09.22,3.1,1.58,4.42,1.08,1.05,10.46,15.41,17.4,20.58a12.53,12.53,0,0,1,4.4,5.65c.52,1.41,1.7,2.66,4.61,2.66l16.38-2.34C150,406.19,145,389.79,144.37,387.34Z"/><path class="cls-6" d="M136.63,375.76c.09.81-2.3,1.72-5.34,2s-5.56-.09-5.65-.9,2.31-1.72,5.35-2S136.55,375,136.63,375.76Z"/><path class="cls-5" d="M138.55,377h0a1,1,0,0,1-1-.91c0-.1,0-.23,0-.38-.09-1.61-.35-6.49-3-8.75a5.61,5.61,0,0,0-4.41-1.17,4.79,4.79,0,0,0-3.52,1.89c-2.33,3.09-1.34,8.8-1.33,8.85a1,1,0,1,1-1.92.35c0-.27-1.14-6.61,1.69-10.37a6.74,6.74,0,0,1,4.88-2.66,7.54,7.54,0,0,1,5.88,1.63c3.27,2.8,3.56,8.12,3.67,10.12,0,.14,0,.26,0,.36A1,1,0,0,1,138.55,377Z"/><path class="cls-16" d="M180.8,288.76l.87-.56a2.05,2.05,0,0,1,1.58-.28,10.23,10.23,0,0,1,4.73,2.61,2.06,2.06,0,0,1,.64,1.5,10.73,10.73,0,0,0,.23,2.71c.22.53-5.19-.35-8.19-2.54A2.09,2.09,0,0,1,180.8,288.76Z"/><path class="cls-16" d="M166.44,293.43s-.41-1.94,2-3.77,7-2.44,14.55.93,14.47,9.13,13.66,12.81c-.4,1.82-.58,3.3-3.16,3.66C191.83,307.29,166.44,293.43,166.44,293.43Z"/><path class="cls-20" d="M195.91,303.58c-1.37-5.34-13-13.14-24.35-13.64-6.79-.29-4.82,4.88-4.82,4.88s1.07,4.69,10.67,9.22C188.54,309.28,197.06,308.06,195.91,303.58Z"/><path class="cls-8" d="M183.94,304.05s7.78,4,9.58,9.42-9.29,6.37-13.12,5.85S180.37,306.3,183.94,304.05Z"/><path class="cls-15" d="M207.08,389.73c.93-9.22,2.94-21-1.24-29.76-3.27-7.59-10-13.09-13.76-20.39A17.51,17.51,0,0,1,190.21,329c.39-2.71,2.31-6.17,2.53-8.91.53-6.42-3.84-11.94-11.15-11.2-5.54.56-13.86,5-14.36,11.12-.54,6.61,2,13,1.15,19.68-.5,4.07-2.67,7.5-4.18,11.23a99.63,99.63,0,0,0-4.3,14.36A250.79,250.79,0,0,0,155,394.49c-.34,2.91-.64,5.82-.92,8.74-1.59,16.59.72,76.88,10.05,76.18,10.93-.81,8.41-35.88,7.3-54.64-.38-6.48,2.84-12,4-18.2.92.06,3.42-29.54,6.46-29.52s3.05,42.63,3.05,42.63c-.35,6.27,8.68,59.73,13.63,59.73,15.31,0,7.21-46.84,4.33-54.45C201.63,418.45,206.61,394.37,207.08,389.73Z"/><path class="cls-8" d="M181.48,377.23c-2.34,1-14.22,6.71-14.14,16.2.08,10.54-3.78,14.23-4.48,26.87s-2.48,36.53.86,48.64a62.61,62.61,0,0,1,1.7,10.19c9.41-3.45,7.05-36.39,6-54.36-.38-6.48,2.84-12,4-18.2C176.31,406.62,178.63,379.62,181.48,377.23Z"/><path class="cls-8" d="M178.63,294.89s-1.21-2.69-3.43-1.52-.19,5.22-1.15,6.34,1,2.57,2.44,2.61,5,4.58,6.29,4.34,4.08-2.68,3-7C184.84,296.14,182.05,294.89,178.63,294.89Z"/><path class="cls-16" d="M172,483.6l0,0c.16-1.79.89-4.57,1.24-8.08.2-2,3.15-15.14.64-16.62,0,0-18.24-4.22-18.26-1.76,0,5,6.79,25,6.75,25.54-1,.16-9.55,4.81-9.67,5.78-.19,1.62,16.57,1.53,19.35-.05C173.43,487.6,173.31,485.58,172,483.6Z"/><path class="cls-17" d="M172,483.6l0,0c.16-1.79.89-4.57,1.24-8.08.2-2,3.15-15.14.64-16.62,0,0-2.08-.49-4.84-1-.24,4.45-.59,18.57-.58,21.26a101.55,101.55,0,0,1-1,10.22,14.5,14.5,0,0,0,4.64-.94C173.43,487.6,173.31,485.58,172,483.6Z"/><path class="cls-11" d="M180.41,318.25c.87-.84,3.67-6.35,5-9.14a10.28,10.28,0,0,0-3.85-.22,17.93,17.93,0,0,0-4.31,1c-1.58,1.82-4.49,5.39-4.43,6.92C172.94,319,179.23,319.39,180.41,318.25Z"/><path class="cls-12" d="M182.47,302.16l.93,7.24c.14,1.19-2.44,4.6-4.5,3.31-.6-.38-.07-2.11.31-3.41l.7-6.39Z"/><path class="cls-8" d="M179.4,307.62c2.4-.92,2.89-4.09,2.89-4.09l-2.48.29Z"/><path class="cls-12" d="M181.36,298.35l1.1,2.62a4.19,4.19,0,0,1-2,5.47,3.59,3.59,0,0,1-5-2.24c-.82-2.16.27-4.48.59-5.63C176.76,295.94,179.86,295.44,181.36,298.35Z"/><path class="cls-12" d="M182.34,301.23a3.61,3.61,0,0,0,.21-.71c.1-.47.34-1.14,1-.66.91.69.27,3.14-.91,3.1C181.72,302.93,182.09,301.81,182.34,301.23Z"/><path class="cls-10" d="M178.37,303a7,7,0,0,1-2.47-.21,1.54,1.54,0,0,0,.45,1C176.87,304.23,177.87,304.16,178.37,303Z"/><path class="cls-13" d="M180,305.62a5.47,5.47,0,0,1-3.06-.08,5.68,5.68,0,0,1-1.53-1.46.56.56,0,0,0,0,.12,3.59,3.59,0,0,0,5,2.24,4,4,0,0,0,2.29-3A5.2,5.2,0,0,1,180,305.62Z"/><path class="cls-8" d="M202.9,425c-1.27-6.51,3.71-30.59,4.18-35.23.93-9.22,2.94-21-1.24-29.76-3.27-7.59-10-13.09-13.76-20.39A17.51,17.51,0,0,1,190.21,329c.39-2.71,2.31-6.17,2.53-8.91a11.06,11.06,0,0,0-1.83-7.26c-1.46,5.57-5,20.43-3.48,27.6,1.92,8.92,5.78,24.57,10,30.27s-1.41,11.33-2.64,20-2.14,6.58,1.91,14-7.17,9.83-2.26,23,10,13.4,7.37,23.82c-1.48,5.9-6,13.4-7.45,19.66,1.51,5,3,8.26,4.21,8.26C213.88,479.41,205.78,432.57,202.9,425Z"/><path class="cls-8" d="M168.49,338.47c0,.4-.06.81-.11,1.22-.49,4-2.6,7.4-4.11,11.07,4.72-2.41,13-7.64,13.41-15C178,330.77,173.37,333.88,168.49,338.47Z"/><path class="cls-21" d="M192.08,339.58A17.51,17.51,0,0,1,190.21,329c.39-2.71,2.31-6.17,2.53-8.91a10.38,10.38,0,0,0-4-9.44c-1.27,2.16-4.44,8-4.84,12.65-.49,5.86-2.69,14.05,2.68,15.93a27.68,27.68,0,0,0,5.92,1.2C192.38,340.15,192.23,339.87,192.08,339.58Z"/><path class="cls-12" d="M188.42,313.47c-9.35-.3-27.2,22-27.2,22s-33.81,19.08-28.9,26.63,49-24.53,57.44-38.51C192.53,319,191.93,313.58,188.42,313.47Z"/><path class="cls-16" d="M205.51,484.24l0,0c.15-1.79.89-4.57,1.24-8.08.19-2,3.15-15.14.64-16.62,0,0-18.25-4.22-18.26-1.76,0,5,6.79,25.05,6.75,25.54-1,.16-9.55,4.81-9.67,5.78-.2,1.62,16.57,1.53,19.35-.05C207,488.24,206.86,486.22,205.51,484.24Z"/><path class="cls-17" d="M205.51,484.24l0,0c.15-1.79.89-4.57,1.24-8.08.19-2,3.15-15.14.64-16.62,0,0-2.09-.48-4.84-1-.24,4.45-.59,18.57-.58,21.26A102.12,102.12,0,0,1,200.88,490a14.58,14.58,0,0,0,4.65-.94C207,488.24,206.86,486.22,205.51,484.24Z"/><path class="cls-13" d="M178.37,330.33c-.42,2.34-10.48,8.78-10.48,8.78l-18.26,12.64s-15.6,5.27-17,9a4.44,4.44,0,0,0-.26,1.44c5.24,7.16,49-24.69,57.37-38.61,1.85-3.07,2.19-6.5,1.17-8.47a13.44,13.44,0,0,1-3,5.25C185.2,323.07,178.79,328,178.37,330.33Z"/><path class="cls-12" d="M135.81,362.18s-.09,3.9-2.86,5.87a5.78,5.78,0,0,1-6.06-.05c-1-1.25,3.19-2.48,3.54-4s.07-4.16,2-4.08S136.3,360.52,135.81,362.18Z"/><path class="cls-12" d="M131.75,359.88a20.19,20.19,0,0,0-3.8,2.23c-1.12.9-2.25,2.26-1.61,3,.22.25,1.79-.38,2.4-1s2.22.39,3.09-.59S133.16,359.19,131.75,359.88Z"/><polygon class="cls-8" points="101.18 376.01 97.23 371.42 95.82 379.5 100.71 379 101.18 376.01"/><path class="cls-15" d="M97.78,375.58c-.34,2.27-1.28,4-2.11,3.89s-1.24-2.06-.9-4.34,1.28-4,2.11-3.89S98.11,373.3,97.78,375.58Z"/><path class="cls-6" d="M144.37,387.34l-3.07-9.62a6,6,0,0,0-5.72-4.53c-.75,0-1.58,0-2.43.08,1.7.13,3.69.46,4.23,1.31,1,1.55,1.7,2.34-.41,3.49s-3.16.17-3.69,1.84,3,.7,4.22,3-6.53,2.55-3.09,5.89,4.84,1.6,4.4,7.34a51,51,0,0,0,.21,11.42l5.73-.82C150,406.19,145,389.79,144.37,387.34Z"/><path class="cls-6" d="M119.68,397.56c-.7-2.55-2-1.93-5.61-4.09s-2.81-3.81-3.51-6.1-1.67-1.8-3.77-2.37-2.29-3.25-3.43-4.87a1.86,1.86,0,0,0-2.31-.8l.91.84c1.08,1.05,10.46,15.41,17.4,20.58a13.54,13.54,0,0,1,3.47,3.73c.63-.25,1-.62,1-1.17C123.59,400.94,120.39,400.1,119.68,397.56Z"/><path class="cls-22" d="M93.46,374.3S75,375.72,75.87,382.53s14.11-7.2,14.27-5.3-3.75,2.72-3.45,4.63S92.55,380,93.46,374.3Z"/><path class="cls-22" d="M82,387.92s-8.88,4-8,9.31S82,387.92,82,387.92Z"/><path class="cls-22" d="M84.08,394.12s-8,10.08-1.94,12.89S84.08,394.12,84.08,394.12Z"/><path class="cls-12" d="M982.68,358.35s-22.86,26.42-32.35,43.55c-7.6,13.73-16.26,42.75-9.46,48.34s17.09-9.82,26.93-41.65c3.4-11,44.53-36.86,38.59-52.22C1003.94,350,982.68,358.35,982.68,358.35Z"/><path class="cls-13" d="M1005,354.8a8,8,0,0,0-3.67-.82c-3,5.27-9.45,15.72-14.78,20.15-7.27,6.05-18.33,13.09-20.57,20.49s-12.31,15.77-14.06,25.15c-1.64,8.78-5.38,27.61-6,31.1,6.33-2.83,14.23-17.63,21.85-42.28,2.62-8.47,27.74-25.84,36.32-40.38C1005,363,1005.49,358.12,1005,354.8Z"/><path class="cls-8" d="M940.43,423.79c-4.35,15.54-6.88,31.79-7.57,32.13-1,.5-13.81-.77-14.64.26-1.36,1.71,18,13.48,22.27,13.64,2.26.09,3-5,3.93-8.1.2-.68,8.53-14.08,15.53-27.91-1.34-4.12-6.35-10.69-9.53-12.47C946.9,419.37,942.11,420.59,940.43,423.79Z"/><path class="cls-8" d="M975.77,398.29l-13.53-10.44s1,14.75,5.62,20.59C968.75,405.79,971.77,402.29,975.77,398.29Z"/><path class="cls-23" d="M1006.39,356.37c-3.15-6-23.71,2-23.71,2s-16,14.07-23,29.07c4.15,1.09,11.3,19.49,21.42,20.84C988.84,392.46,1008.56,360.5,1006.39,356.37Z"/><path class="cls-21" d="M1000.87,358.59s-4.19,15.09-10.49,19.69S981.05,385.45,977,392c-3.07,4.93-6.18,3.74-7.55,7.48,3.31,4.3,7.2,8.23,11.68,8.82,5.49-11.26,17.08-30.73,22.51-42.48Z"/><path class="cls-12" d="M1018.53,417.78s12.19-59.81-1.82-66.18-24.64,6.8-24.64,6.8,5.87,51.2,9.07,68.07c2.32,12.27,11.79,47.83,11.2,48.69s12.61,2.36,11.94-.55c-.18-.79.89-22.93-.75-39.5C1022.73,427.05,1018.53,417.78,1018.53,417.78Z"/><path class="cls-13" d="M1023.53,435.11c-.8-8.06-5-17.33-5-17.33s9.43-46.27,2.17-61.75c-3.55,9.83-13.19,37.6-12.25,46.64,1.15,11.06-5,7.27,0,21s6.8,19.64,7.32,30.44c.32,6.86.79,15.77,2.33,22.19,3.22.14,6.53-.19,6.18-1.68C1024.1,473.82,1025.17,451.68,1023.53,435.11Z"/><path class="cls-8" d="M1003.64,403.32s6.16,5.91,16.62,4.72c.46-2.8.94-6.05,1.4-9.56Z"/><path class="cls-23" d="M1023.06,400.84c2.62-18.21,3.39-43.52-5.32-47.5-14-6.41-25.67,7-25.67,7l4.11,43C1003.88,406.75,1014.74,404.29,1023.06,400.84Z"/><path class="cls-21" d="M1017.74,353.34a18.48,18.48,0,0,0-10.14-1.59,95,95,0,0,0,2.08,10.7c1.91,6.3,1.08,29.58,0,32.57-.92,2.55-9.8,2.58-13.08,8.44,7.67,3.2,18.29.77,26.46-2.62C1025.68,382.63,1026.45,357.32,1017.74,353.34Z"/><path class="cls-12" d="M986.73,366.42c-1.93-12.08-12.58-7.63-14-4-3.86,9.7,3.43,30.08,7.39,42.77,1.58,5.08,3.29,8.43,5,7.9,2.89-.93,4.53-4.7,5.39-9.74C992.57,390.79,987.38,370.48,986.73,366.42Z"/><path class="cls-8" d="M975,290.43s-.84-2.36-4.91.67c-1.61,1.2-2.67,6-4.24,6.08,0,0,1.33,3.87,7.54,3.34,4.75-.4,7,.4,8.88-.76s.58-6.7-1.06-8.66C980.14,289.76,976.52,287.91,975,290.43Z"/><path class="cls-14" d="M981.25,291.1a6.22,6.22,0,0,0-2.59-1.67,8.31,8.31,0,0,1-.21,3c-.6,2.13-4.92,6.29-9.17,7.67a10.05,10.05,0,0,0,4.15.41c4.75-.4,7,.4,8.88-.76S982.89,293.06,981.25,291.1Z"/><path class="cls-15" d="M1021,355.59c3.69-16.58-3.32-53-20.73-54.95-11.2-1.27-36.15,14.21-29.19,30.13,1.82,4.16,8.06,6.39,10.6,11,1.55,2.84-1.22,11.26-.88,14.83.62,6.6,10.29,8.56,16.84,7.55C1014.41,361.57,1019.54,362.24,1021,355.59Z"/><path class="cls-12" d="M979.9,297.38l7,6.94c.62,1.2-4.19,7.86-6.88,7.3-.79-.17-1.22-1.41-1.33-2.93l-.33-8.44Z"/><path class="cls-8" d="M978.45,302l2.86-2.19a6.48,6.48,0,0,1-.09,4.73,6.16,6.16,0,0,1-2.56,3Z"/><path class="cls-12" d="M976.48,295.23l4.25,3.73a3.45,3.45,0,0,1,0,4.81,9.52,9.52,0,0,1-3.54,2.29c-1.42.62-2.85-.25-3.87-2a18.92,18.92,0,0,1-2.14-6C970.63,295,973.54,293,976.48,295.23Z"/><path class="cls-12" d="M977.78,297.56a4.56,4.56,0,0,0-.44-.95c-.34-.57-.71-1.5.39-1.59,1.59-.12,3.23,3,1.94,4.11C978.72,299.92,978.06,298.39,977.78,297.56Z"/><path class="cls-10" d="M975.46,300.37a9.57,9.57,0,0,1-2.6,1.64s.56,1,1.37,1S975.8,301.79,975.46,300.37Z"/><path class="cls-13" d="M975.75,304.58c1.31-1.17,3.75.41,5.13-3.27a4.4,4.4,0,0,0-.25-2.43l.1.08a3.45,3.45,0,0,1,0,4.81,9.52,9.52,0,0,1-3.54,2.29,2.39,2.39,0,0,1-2.51-.39C975,305.56,975.35,304.94,975.75,304.58Z"/><path class="cls-8" d="M1009.68,362.45c7.44-1.13,10.3-2.18,11.34-6.86,3-13.34-1-39.54-11.74-50.27-2.26,1.28-4.61,2.8-4.61,2.8s-.22,16.87,3.78,25.36,1.88,19.13,1.29,28.09Z"/><path class="cls-15" d="M939.05,469.31l4.72,3.92L1041,355.89a3.07,3.07,0,0,0-.39-4.3h0a3.06,3.06,0,0,0-4.33.39Z"/><path class="cls-12" d="M982.09,410.51s-1.17,6.78-.65,8.44-.89,4.36,0,4.69,3-3.11,3.22-5.38,2.23-3.76,2.1-6.09S982.32,409.06,982.09,410.51Z"/><path class="cls-12" d="M988,423a3.45,3.45,0,0,1-2.15.45c-.78-.1-1.55-.49-1.16-1.72,1.22-3.77,4.33-4,4.61-5.59s.23-3.13,1.76-3S992.74,420.23,988,423Z"/><path class="cls-14" d="M952.3,422.75c-.64,2.12-1.42,4.58-2.14,6.41-1.54,3.94-3.25,2.57-3.08,8.91s-5.83,16.11-5.83,16.11a132.39,132.39,0,0,0-7.23,13.2c2.82,1.42,5.25,2.4,6.47,2.44,2.26.09,3-5,3.93-8.1.2-.68,8.53-14.08,15.53-27.91C958.86,430.44,955.3,425.43,952.3,422.75Z"/><path class="cls-12" d="M999.64,306.19a4.31,4.31,0,0,1,4.19-5.5c10.14.12,32.53,1.76,46.14,13.21,8.13,6.83-1.1,44.71-15.71,40.22-5.54-1.71,2.42-32.21,2.42-32.21s-26-1.09-33-7.91C1001.68,312,1000.41,308.9,999.64,306.19Z"/><path class="cls-13" d="M1050,313.9c-10.16-8.55-25.21-11.63-36.41-12.69.39.87,1.85,2.19,6.79,3.31,8.13,1.83,17.8,1.48,19.8,5.84s4.6,9,5.89,12.15.24,5.43-.94,8.85c-1,3.05-6.39,14.74-12.74,14.54-.25,4.34.17,7.68,1.9,8.22C1048.87,358.61,1058.1,320.73,1050,313.9Z"/><path class="cls-8" d="M1003.19,446.4c3.8,15.69,9.52,31.1,9.09,31.73-.64.93-12.43,6.09-12.64,7.39-.36,2.16,22.25,3,26.09,1,2-1,.19-5.85-.53-9-.16-.69.56-16.46-.09-31.94-3.17-3-10.75-6.22-14.4-6.22C1006.67,439.38,1003.1,442.78,1003.19,446.4Z"/><path class="cls-12" d="M1032.13,351.22c-1.93,2-4.82,5.65-4.22,8.87a.78.78,0,0,0,1.36.35l1.73-2.08s2.45,1.28,1,7.38a1.42,1.42,0,0,0,1.5,1.75,4.3,4.3,0,0,0,3-1.84c2.18-2.94,4.75-11.34,2.78-14a4.61,4.61,0,0,0-1.7-1.45A4.74,4.74,0,0,0,1032.13,351.22Z"/><path class="cls-24" d="M958.24,474.15c-4.27-2.14-11.87-6-14.68-8.21a16.16,16.16,0,0,1-1.28-1.1h0c-2.7,1.74-15.68-1.65-15.69-1.65-8.84,8.55-20.22,23.32-5.56,32.57,17.61,11.12,33.22-9.22,38.41-17.15A3.1,3.1,0,0,0,958.24,474.15Z"/><path class="cls-15" d="M940.44,470.23s-15.93,15.6-15.75,20.74S938.56,480.34,940.44,470.23Z"/><path class="cls-9" d="M909.91,500.46h43a2.44,2.44,0,0,0,1.29-4.52c-4.87-3-11-6.29-13.61-5.42-4.63,1.55-6.85,3.09-9.08,2.75S926,489,920.36,488.81,908.88,496.35,909.91,500.46Z"/><path class="cls-12" d="M971.66,367.5s-5.65-40.61-1.24-46.21,15.85,31.62,15.64,42.4S971.66,367.5,971.66,367.5Z"/><path class="cls-14" d="M1025.11,445.6c-2.4-2.23-7.31-4.64-11.14-5.69-.64,1.94-.69,4.89,1.8,8.89,4.88,7.87,3.6,6.82,2.57,16.86-.67,6.49,0,16,.48,21.9,3.19-.14,5.81-.47,6.91-1,2-1,.19-5.85-.53-9C1025,476.85,1025.76,461.08,1025.11,445.6Z"/><path class="cls-13" d="M978.22,369.57c3.74.55,7.72-.2,7.84-5.88.18-9.34-8.39-38.55-13.55-42.52-.24,3.36-.37,10.51,2.16,15.6,3.41,6.85,6.43,9.38,6.2,17.71C980.72,360.13,978.32,364.86,978.22,369.57Z"/><path class="cls-13" d="M980.81,358.63c-1.39,3.87-2.51,7.88-2.59,10.94-.22,8.42,5.79,16.13,6.32,24.1s-1,13.84,2.18,18.49c1.88-1.62,3-4.8,3.72-8.78,2.13-12.59-3.06-32.9-3.71-37C985.9,361.21,983.44,359.08,980.81,358.63Z"/><path class="cls-6" d="M366.61,482.41a4.32,4.32,0,0,0-3.84-4,9.7,9.7,0,0,0-5.26.66c-3.89,1.73-10.47,1.3-7.67,4.65s12.66,3.67,15.51,1.4A3.18,3.18,0,0,0,366.61,482.41Z"/><path class="cls-6" d="M363,467.67s-5-.86-5.07,2.16,2.38,5.08,6.69,4.22,8-3.14,7.24-4.65S363,467.67,363,467.67Z"/><path class="cls-6" d="M381.37,466.31s-5.18-3.7,1-4.39c3.16-.35,7,.58,10.05,1.58a3.27,3.27,0,0,1,1,5.65c-2.14,1.74-4.88,3.55-7.52,4.07C380.4,474.3,381.37,466.31,381.37,466.31Z"/><path class="cls-6" d="M371.91,482.44a7.59,7.59,0,0,0,6.24,2.78c4.24-.08,6.73-1.48,5.81-2.35S375,483.09,371.91,482.44Z"/><path class="cls-13" d="M275.21,320.36l8.72-12s12.15,13.9,4.88,45.69c-.54,2.38-6.3,5.51-11.32-2.79C266.75,341.46,275.21,320.36,275.21,320.36Z"/><path class="cls-8" d="M284.12,313.36s2.36,9.16-.51,15.89c-2.36,5.52-8.68,6.5-8.68,6.5Z"/><path class="cls-25" d="M239.67,410.75c.08-4.18-5.49-46.1-1.64-55.76,5.39-13.5,13.18-22.2,14.72-42.81.68-8.3,11.07-11.26,13.09-11.48,5.66-.64,13,1,16.29,4.54,7.3,8-.06,19.11-1.26,22.83s-4.59,8.35-.18,20.83c1.84,5.21,5.87,52.63,5.31,59.46-2.17,26.95-13,61.89-18.95,61.89-9.31,0-3.3-28.77-2.06-41.07.39-3.81,2.08-13.52,2.17-18.43.06-3-2.19-37.7-3.69-37.75,0,5-6.19,36-6.6,41.11-2.18,26.94-3.23,54.87-9.44,55.46-9.56.9-11.17-28.09-9.93-40.39C237.88,425.37,239.57,415.66,239.67,410.75Z"/><path class="cls-12" d="M263.49,301.27l.67-.21Z"/><path class="cls-12" d="M264.25,301l.58-.15Z"/><path class="cls-12" d="M264.89,300.88c.37-.09.68-.15.9-.18C265.57,300.73,265.26,300.79,264.89,300.88Z"/><path class="cls-12" d="M247.05,335.75c0,.08-.07.17-.11.25h0Z"/><path class="cls-15" d="M247.05,335.75l.48-1.14Z"/><path class="cls-15" d="M264.16,301.06l.09,0Z"/><polygon class="cls-15" points="263.49 301.27 263.49 301.27 263.49 301.27 263.49 301.27"/><path class="cls-15" d="M279.54,303.24l.07,0Z"/><path class="cls-15" d="M264.83,300.89h0Z"/><path class="cls-15" d="M284.14,376.84c-1.15-12.95-2.55-25.41-3.45-27.94-2.66-7.54-2.49-12.19-1.66-15.53a33.38,33.38,0,0,1-.1-8c.39-3.17.8-6.34,1.21-9.51a92,92,0,0,0,.47-12c-.32-.22-.65-.43-1-.63l-.07,0c-.34-.2-.69-.38-1.06-.56a26.62,26.62,0,0,1,.41,8.4c-.26,1.76-1.21,1.71-2.84,1.76a21.07,21.07,0,0,1-4.42-.12c-2.58-.49-2.38-3.3-2.88-5.39s-1.2-5-3-6.63h0c-.22,0-.53.09-.9.18h-.06l-.58.15-.09,0-.67.21h0c2.6,2,2.49,6,3,9,2.46,15.32-18.84,24.05-18.84,24.05l-.1.25-.48,1.14-.1.24h0c-2.83,6.54-6.18,12.15-8.91,19-1.63,4.1-1.57,14-1,24.4.82,14.06,2.64,29,2.6,31.36-.1,4.91-1.79,14.62-2.17,18.43-1.24,12.3.37,41.29,9.93,40.39,6.21-.59,7.26-28.52,9.44-55.46.29-3.64,3.49-20.19,5.32-31.34a86.49,86.49,0,0,0,1.28-9.77c.52,0,1.13,4.18,1.7,9.74,1.08,10.52,2,26.06,2,28-.09,4.91-1.78,14.62-2.17,18.43-1.24,12.3-7.25,41.07,2.06,41.07,5.91,0,16.78-34.94,18.95-61.89C286.29,404.85,285.36,390.57,284.14,376.84Z"/><path class="cls-8" d="M247.43,469.57c6.21-.59,7.26-28.52,9.44-55.46.29-3.64,3.49-20.19,5.32-31.34a86.49,86.49,0,0,0,1.28-9.77c.43,0,.92,2.89,1.41,7.06.37-3.95.46-8.26-.72-9.7-2.35-2.87-11.87-1.07-11.68,8.62s-6.1,36.45-6.64,49.55-2,15.26-.54,21.37c1.17,5-.6,13.64.44,19.5A4.51,4.51,0,0,0,247.43,469.57Z"/><path class="cls-8" d="M282.34,359.11c-.85,9.37-3.76,42.89-3,55.35.84,14.54-7.33,10.72-8.6,25.84-.74,8.85-5.08,18.37-7,25.42a3.55,3.55,0,0,0,3.29,4.53h.05c5.91,0,16.78-34.94,18.95-61.89C286.42,403.21,284.23,374.91,282.34,359.11Z"/><path class="cls-8" d="M261,315.27c-.74-3-5.29-.16-8.92,2.73a70,70,0,0,1-2.27,10.18C253,326.09,262.08,319.56,261,315.27Z"/><path class="cls-8" d="M277.81,282.55s.29-2.9-3.59-3.73-6,.46-6,2.35-.19,7.37,5.16,7C277.72,287.81,277.81,282.55,277.81,282.55Z"/><path class="cls-14" d="M274.22,278.82a10.38,10.38,0,0,0-2-.25,3.44,3.44,0,0,1,2.27,3.31s-.09,5.09-4.25,5.56a4.75,4.75,0,0,0,3.13.7c4.36-.33,4.45-5.59,4.45-5.59S278.1,279.65,274.22,278.82Z"/><path class="cls-8" d="M277.23,284.33s3.62,1.13,3.73,4.2-1,10.1-5.73,9.58-4.9-2.58-5.39-4.38S267.89,281.72,277.23,284.33Z"/><path class="cls-12" d="M271.8,295.12,269.94,303c-.31,1.31,2.16,5.38,4.59,4.19.71-.35.32-2.32.05-3.81l0-7.16Z"/><path class="cls-8" d="M274.57,300.5a4.67,4.67,0,0,1-2.66-4l2.64.75Z"/><path class="cls-14" d="M275.23,298.11c4.68.52,5.84-6.51,5.73-9.58s-3.73-4.2-3.73-4.2a10.72,10.72,0,0,0-2.47-.42c1.26.9,3.21,2.44,3.84,3.73s-1.93,6.89-3.73,10.42Z"/><path class="cls-12" d="M274.21,289.81l-1.72,2.64a4.67,4.67,0,0,0,1.13,6.4,4,4,0,0,0,5.93-1.47c1.33-2.21.58-5,.46-6.29C279.72,288.07,276.42,286.91,274.21,289.81Z"/><path class="cls-10" d="M275.59,295.82a7.41,7.41,0,0,1,3,.05S277.54,296.85,275.59,295.82Z"/><path class="cls-13" d="M274.29,298a6.1,6.1,0,0,0,3.36.51,6.22,6.22,0,0,0,2-1.3.83.83,0,0,1-.07.13,4,4,0,0,1-5.93,1.47,4.46,4.46,0,0,1-1.92-3.76A5.81,5.81,0,0,0,274.29,298Z"/><path class="cls-12" d="M272.94,292.48a4.61,4.61,0,0,1,0-.83c.07-.52,0-1.32-.78-1-1.2.41-1.41,3.22-.14,3.6C273,294.5,273,293.18,272.94,292.48Z"/><path class="cls-12" d="M263.85,378.43a32.33,32.33,0,0,1-1.83,4.69c-.61.86-7.93-.53-7.74-1.77s3.16-4.48,3.18-6.1S267.34,372.92,263.85,378.43Z"/><path class="cls-23" d="M338.38,469.46a2.29,2.29,0,0,1-3-.87L216.11,335.93a2.28,2.28,0,0,1,.81-3.13,2.31,2.31,0,0,1,3.13.82L339.29,466.28a2.28,2.28,0,0,1-.81,3.13Z"/><path class="cls-12" d="M258,305.09c-11.2,1.28-29.22,12.17-35.55,24.37S231.65,364,241.59,369s-5.51-32.52-4.21-36.62c1.11-3.52,18.25-7.07,24.91-16.67C266.3,310,263.82,304.43,258,305.09Z"/><path class="cls-12" d="M244.05,363.51s1.63-1.36,4.3.51c1.74,1.22,4.13,5.69,4.13,5.69s-2.83-1-3.22-.23,1.89,4.14,1.3,4.79c-1.83,2-7.53-2.4-8.74-6.42S244.05,363.51,244.05,363.51Z"/><path class="cls-13" d="M262.29,315.73c2.3-3.3,2.46-6.53,1.09-8.56-.72,1.47-2,5.56-7,5.85-3.25.18-8,8.47-11.59,10-3.9,1.7-6.69.06-8.08,1.25-2.68,2.3-5.58,6.89-3.86,14.64s4.66,23.45,12.12,27.68c.37-8.13-8.55-31.07-7.55-34.23C238.49,328.88,255.63,325.33,262.29,315.73Z"/><path class="cls-12" d="M289.62,352.89c-1.6,7.1-25.06,27.67-29.18,24.67-5.06-3.7,9.67-24.59,17-31.34C287.19,337.24,291.22,345.86,289.62,352.89Z"/><path class="cls-13" d="M289.62,352.89c.88-3.86.47-10.13-2.08-11.76.07,2.11-.63,7.15-2.41,9.81-3,4.47-12.05,6.63-17.21,16-3.9,7.06-6.47,8.4-6.89,10.87C266.41,378.93,288.08,359.71,289.62,352.89Z"/><path class="cls-12" d="M258.94,374.3s-2.22.16-3,1.21-.27,2.67-.57,3.49,1.29,1.15,1.48-.26,3-.57,3.21-1.57S259.49,374.23,258.94,374.3Z"/><path class="cls-8" d="M275.59,468.51c-1.77-.81-3-1.15-4.23-2.45a1.07,1.07,0,0,1-.22-.4,1.31,1.31,0,0,0-1.75-.78c-1.65.7-4.76,1.14-5.45,2.27-1.16,1.87-1.43,4.31-.07,5,2.61,1.32,17.95.69,17.7-.78C281.42,470.48,278.26,469.73,275.59,468.51Z"/><path class="cls-8" d="M254.72,469.14c-1.78-.82-3-1.15-4.24-2.45a1.24,1.24,0,0,1-.21-.4,1.32,1.32,0,0,0-1.75-.78c-1.65.7-4.77,1.14-5.46,2.26-1.15,1.88-1.43,4.32-.06,5,2.61,1.32,17.95.69,17.7-.79C260.55,471.11,257.38,470.36,254.72,469.14Z"/><path class="cls-8" d="M329.89,467.58h32.35a1.44,1.44,0,0,1,1.22.68c1.21,1.94,4.31,7.63,2.25,11.89,0,0-3.23-8.62-5.11-8.8,0,0,1.44,6.47-1.26,8.8,0,0-1.34-7.54-4.84-8.53,0,0,1,5.84-.18,8.53,0,0-3.41-9-5.83-9,0,0,1.43,6.29.45,9,0,0-4.85-8.74-7.9-9.44,0,0,2.25,5.76,0,9.44,0,0-3.23-9.09-6.37-9.44,0,0,1.31,7.73-.6,9.44l-5.46-10.45A1.45,1.45,0,0,1,329.89,467.58Z"/><path class="cls-18" d="M263.76,328.18l12.94.64s-1.39,6.09-6.79,6.18S263.76,328.18,263.76,328.18Z"/><path class="cls-3" d="M805.73,150.21H939.46c1.44,0,2.48-2.77,2.11-5.6-1.24-9.4-5.25-28-17.88-35-20.15-11.18-26.18,13.08-35.36,14.92C881,126,877.06,114.66,862,120.38s-11.79,15.1-16.06,19.54C840,146.07,822,127.52,812.49,133,804.36,137.68,804.24,150.21,805.73,150.21Z"/><path class="cls-4" d="M941.57,144.61a86.32,86.32,0,0,0-1.87-9.77c-5.48-3.37-12.72-5.06-16.42-6.4-7.13-2.6-11.3-.56-25.43,6.55s-19.93-3.36-33.46-2.18-9.37,10.66-17.7,11.85-22.16-1.19-32.64-2.37c-4.93-.56-7.54,1.16-8.91,3.14-.35,2.74,0,4.78.59,4.78H939.46C940.9,150.21,941.94,147.44,941.57,144.61Z"/><path class="cls-3" d="M558.46,76.31c-3.55,0-6-5.66-4.56-10.67,2.54-8.6,9.83-10,16.07-9.49a16.63,16.63,0,0,0,15-6.95c2.13-3,4.74-5.29,7.35-4.24a34.11,34.11,0,0,1,3.43,1.62,12.31,12.31,0,0,0,13.21-.76c5.31-3.9,13.57-8.16,23.22-6.8a16.07,16.07,0,0,0,12.67-3.71c7.13-6.06,20-13.68,33.21-4.86s17.92,26.37,19.74,37.4c.8,4.87-1.6,9.6-4.86,9.58Z"/><path class="cls-4" d="M697.82,71.18a40.43,40.43,0,0,1-4.69-8C689,52.87,676.38,52,668.11,50s-11.38,2.28-21.51,4.35-18.41.2-40.13.2-8.89,8.28-20.83,11.8-19.08-3.73-27.62-.21a7,7,0,0,0-4.38,4.5c.56,3.16,2.45,5.68,4.82,5.7L692.9,77.43C695.4,77.45,697.39,74.67,697.82,71.18Z"/><path class="cls-3" d="M115.87,122.51H249.21c1.43,0,2.48-2.09,2.1-4.21-1.23-7.07-5.22-21-17.82-26.32-20.1-8.4-23.3,8.49-32.37,3.61-11-5.89,3-41.15-35-33.67-15.32,3-4.85,31.2-15.51,36.29-4.95,2.37-11.07-1.1-20.59,3-8.1,3.51-14.44,8.88-16.24,16.85C113.32,120.25,114.38,122.51,115.87,122.51Z"/><path class="cls-4" d="M251.31,118.3a47.45,47.45,0,0,0-3.82-12.19,68.62,68.62,0,0,0-18.32-3c-17.21-.87-18.32,10.1-33.66,2.43s-12-21.14-23.55-20-7.86,18-12.34,23.2-17.2,1.87-33.66,4.19c-5.53.78-9.32,2.46-11.92,4.36-.08.28-.17.56-.23.85-.49,2.16.57,4.42,2.06,4.42H249.21C250.64,122.51,251.69,120.42,251.31,118.3Z"/></g></g></svg>