<svg xmlns="http://www.w3.org/2000/svg" xmlns:xlink="http://www.w3.org/1999/xlink" viewBox="0 0 570 562"><defs><style>.cls-1{fill:url(#linear-gradient);}.cls-2{fill:url(#linear-gradient-2);}.cls-3{fill:url(#linear-gradient-3);}.cls-4{fill:url(#linear-gradient-4);}.cls-5{isolation:isolate;}.cls-6{fill:#f4f7fa;}.cls-7{clip-path:url(#clip-path);}.cls-17,.cls-36,.cls-8{opacity:0.5;}.cls-11,.cls-36,.cls-38,.cls-8{mix-blend-mode:soft-light;}.cls-36,.cls-9{fill:#fff;}.cls-10{clip-path:url(#clip-path-2);}.cls-12{fill:#fcfdfe;}.cls-13,.cls-17{fill:#d8dee8;}.cls-14{fill:url(#linear-gradient-7);}.cls-15{fill:url(#linear-gradient-8);}.cls-16{fill:url(#linear-gradient-9);}.cls-17,.cls-30{mix-blend-mode:multiply;}.cls-18{fill:url(#linear-gradient-10);}.cls-19{fill:url(#linear-gradient-11);}.cls-20{fill:url(#linear-gradient-12);}.cls-21{fill:url(#linear-gradient-13);}.cls-22{fill:url(#linear-gradient-14);}.cls-23{fill:url(#linear-gradient-15);}.cls-24{fill:url(#linear-gradient-16);}.cls-25{fill:url(#linear-gradient-17);}.cls-26{fill:url(#linear-gradient-18);}.cls-27{fill:url(#linear-gradient-19);}.cls-28{fill:url(#linear-gradient-20);}.cls-29{fill:url(#linear-gradient-21);}.cls-30{opacity:0.3;fill:url(#linear-gradient-22);}.cls-31{fill:url(#linear-gradient-23);}.cls-32{fill:url(#linear-gradient-24);}.cls-33{fill:url(#linear-gradient-25);}.cls-34{fill:url(#linear-gradient-26);}.cls-35{fill:url(#linear-gradient-27);}.cls-37{clip-path:url(#clip-path-3);}.cls-38{opacity:0.77;}.cls-39{clip-path:url(#clip-path-4);}</style><linearGradient id="linear-gradient" x1="233.71" y1="195.13" x2="490.98" y2="195.13" gradientUnits="userSpaceOnUse"><stop offset="0" stop-color="#e38ddd"/><stop offset="1" stop-color="#9571f6"/></linearGradient><linearGradient id="linear-gradient-2" x1="490.65" y1="124.71" x2="304.46" y2="537.09" gradientUnits="userSpaceOnUse"><stop offset="0" stop-color="#ffc444"/><stop offset="1" stop-color="#f36f56"/></linearGradient><linearGradient id="linear-gradient-3" x1="278.64" y1="404.44" x2="283.04" y2="559.94" xlink:href="#linear-gradient-2"/><linearGradient id="linear-gradient-4" x1="319.9" y1="447.75" x2="322.69" y2="546.1" gradientUnits="userSpaceOnUse"><stop offset="0" stop-color="#ff9085"/><stop offset="1" stop-color="#fb6fbb"/></linearGradient><clipPath id="clip-path"><path class="cls-1" d="M260.78,367.9c-26.88-6.27-46.42-126.77,5.22-172.76,21.55-19.19,44.6-15.71,62.71-42.87,16.15-24.24,4.94-37.72,18-66.16,18.36-40,68.61-74.47,101.7-61C465,31.82,480,51.72,479.59,73.66c-.32,17.58-18.6,30.2-14.81,34.89,3.12,3.85,14.25-4.87,20.62-.77,9.4,6,7.39,39.27-9.52,62.7-29,40.1-83.22,25.94-94.83,57.56-7.4,20.14,12.11,32.8,2.41,53-8.54,17.73-27.54,16-57.26,32.37C279.65,339,275.19,371.26,260.78,367.9Z"/></clipPath><clipPath id="clip-path-2"><path class="cls-2" d="M285.93,397.32c1.11-64.62,13.55-112.11,24.2-142.52,8.37-23.88,22.45-56.71,40.85-57.13,8.81-.2,12.16,7.19,21.45,6.58C390,203.1,395.66,175.59,410.49,158c25.38-30.14,88.66-44.59,125.14-15.27,43.93,35.3,30.7,119.36-1.52,139-19.1,11.62-46.38,1.55-50.36,12.21s22.84,23,20.86,41.24c-2.05,18.84-33.41,29.34-35.3,29.95-37.9,12.23-59.71-14-98.5-13.15C349.77,352.42,320.59,361,285.93,397.32Z"/></clipPath><linearGradient id="linear-gradient-7" x1="1.86" y1="461.78" x2="570" y2="461.78" gradientUnits="userSpaceOnUse"><stop offset="0" stop-color="#444b8c"/><stop offset="1" stop-color="#26264f"/></linearGradient><linearGradient id="linear-gradient-8" x1="293.05" y1="538.77" x2="294.58" y2="367.45" gradientUnits="userSpaceOnUse"><stop offset="0" stop-color="#2c759e"/><stop offset="1" stop-color="#051042"/></linearGradient><linearGradient id="linear-gradient-9" x1="330.1" y1="296.64" x2="236.08" y2="720.63" xlink:href="#linear-gradient-8"/><linearGradient id="linear-gradient-10" x1="329.43" y1="291.94" x2="237.21" y2="707.81" gradientUnits="userSpaceOnUse"><stop offset="0" stop-color="#aa80f9"/><stop offset="1" stop-color="#6165d7"/></linearGradient><linearGradient id="linear-gradient-11" x1="64.68" y1="512.37" x2="90.06" y2="512.37" gradientUnits="userSpaceOnUse"><stop offset="0" stop-color="#40447e"/><stop offset="1" stop-color="#3c3b6b"/></linearGradient><linearGradient id="linear-gradient-12" x1="72.12" y1="482.72" x2="85.89" y2="563.23" xlink:href="#linear-gradient-2"/><linearGradient id="linear-gradient-13" x1="257.7" y1="421.59" x2="184.81" y2="403.71" xlink:href="#linear-gradient-11"/><linearGradient id="linear-gradient-14" x1="184.42" y1="530.18" x2="209.56" y2="530.18" xlink:href="#linear-gradient-11"/><linearGradient id="linear-gradient-15" x1="177.86" y1="464.63" x2="191.62" y2="545.14" xlink:href="#linear-gradient-2"/><linearGradient id="linear-gradient-16" x1="131.49" y1="381.34" x2="20.77" y2="365.52" xlink:href="#linear-gradient-11"/><linearGradient id="linear-gradient-17" x1="139.13" y1="250.21" x2="51.75" y2="94.04" xlink:href="#linear-gradient-4"/><linearGradient id="linear-gradient-18" x1="121.18" y1="111.11" x2="175.13" y2="111.11" xlink:href="#linear-gradient-2"/><linearGradient id="linear-gradient-19" x1="-2247.46" y1="-100.86" x2="-2268.72" y2="-154.85" gradientTransform="matrix(-0.87, -0.48, -0.48, 0.87, -1876.35, -881.35)" gradientUnits="userSpaceOnUse"><stop offset="0" stop-color="#311944"/><stop offset="1" stop-color="#6b3976"/></linearGradient><linearGradient id="linear-gradient-20" x1="543.51" y1="-58.7" x2="542.53" y2="20.07" gradientTransform="translate(-342.2 -86.43) rotate(25.47)" xlink:href="#linear-gradient-2"/><linearGradient id="linear-gradient-21" x1="-2253.96" y1="-98.27" x2="-2275.24" y2="-152.32" xlink:href="#linear-gradient-19"/><linearGradient id="linear-gradient-22" x1="46.9" y1="206.82" x2="146.51" y2="206.82" xlink:href="#linear-gradient-4"/><linearGradient id="linear-gradient-23" x1="206.1" y1="212.71" x2="118.72" y2="56.53" xlink:href="#linear-gradient-4"/><linearGradient id="linear-gradient-24" x1="112.14" y1="265.33" x2="24.76" y2="109.14" xlink:href="#linear-gradient-4"/><linearGradient id="linear-gradient-25" x1="65.94" y1="252.78" x2="279.81" y2="252.78" gradientTransform="matrix(1, 0, 0, 1, 0, 0)" xlink:href="#linear-gradient-19"/><linearGradient id="linear-gradient-26" x1="128.99" y1="229.03" x2="122.79" y2="370.78" xlink:href="#linear-gradient-2"/><linearGradient id="linear-gradient-27" x1="192.02" y1="231.79" x2="185.83" y2="373.54" xlink:href="#linear-gradient-2"/><clipPath id="clip-path-3"><path class="cls-3" d="M255.17,513.57c18.19,6.59,42.36-12.15,46.14-29.85,2.66-12.51-6-19.26-1.05-31.43,4.67-11.56,14.37-10.2,20.24-21.6,6.2-12,5.19-32.54-7.57-41.19-14.29-9.68-37.21-.36-44.15,12.68-6.7,12.59,4.48,23-3.06,36.44-6.62,11.77-17.94,8.6-25.14,19.23C230.18,473.23,235.77,506.54,255.17,513.57Z"/></clipPath><clipPath id="clip-path-4"><path class="cls-4" d="M288.65,514.07c10.89,8.65,31.64,1.42,38.26-9.78,4.68-7.91.34-14.49,6.47-21.66,5.83-6.8,12.13-3.65,18.73-10.07,7-6.78,11-21,4.26-29.81-7.52-9.87-25.27-8.76-33-1.46-7.44,7-2.21,16.7-10.42,24.12-7.2,6.51-14.18,1.75-21.52,7.35C280.85,480.85,277,504.83,288.65,514.07Z"/></clipPath></defs><g class="cls-5"><g id="Réteg_1" data-name="Réteg 1"><path class="cls-6" d="M137.3,32.66c-19.22,26.93,2.52,71.16-25.79,91.27-27.57,19.58-60.83-13.34-86.79,3.49C-13.79,152.39-8,268.53,47.13,341.24c16.59,21.86,30.55,30.45,36.51,55.05,12.81,52.81-34.48,83.64-25.82,109.79,19.51,58.86,328.47,111.34,454.49-63.63,58.86-81.72,68.79-200.5,17.92-291.34C438.32-13,180.44-27.78,137.3,32.66Z"/><path class="cls-1" d="M260.78,367.9c-26.88-6.27-46.42-126.77,5.22-172.76,21.55-19.19,44.6-15.71,62.71-42.87,16.15-24.24,4.94-37.72,18-66.16,18.36-40,68.61-74.47,101.7-61C465,31.82,480,51.72,479.59,73.66c-.32,17.58-18.6,30.2-14.81,34.89,3.12,3.85,14.25-4.87,20.62-.77,9.4,6,7.39,39.27-9.52,62.7-29,40.1-83.22,25.94-94.83,57.56-7.4,20.14,12.11,32.8,2.41,53-8.54,17.73-27.54,16-57.26,32.37C279.65,339,275.19,371.26,260.78,367.9Z"/><g class="cls-7"><g class="cls-8"><path class="cls-9" d="M260.69,393.11a1.39,1.39,0,0,1-1-2.35,58.3,58.3,0,0,0,.72-6.69c1.46-17.73,5.32-64.82,35-132.87C332.74,165.61,396.49,79,484.9-6.25a1.38,1.38,0,0,1,2,0,1.38,1.38,0,0,1,0,2c-95,91.59-210.89,233.34-223.63,388.56-.57,7-.68,8.29-2.05,8.75A1.68,1.68,0,0,1,260.69,393.11Z"/><path class="cls-9" d="M347.11,164a1.38,1.38,0,0,1-.07-2.75c62.57-3.28,102.18-13.79,124.39-22,24.05-8.92,33.43-17.18,33.52-17.26a1.38,1.38,0,0,1,1.85,2c-.39.35-9.72,8.6-34.14,17.7-22.41,8.34-62.37,19-125.48,22.29Z"/><path class="cls-9" d="M386.35,106.15a1.36,1.36,0,0,1-.81-.27c-13.8-10.18-18.86-32.46-15-66.23a291.93,291.93,0,0,1,9.76-47.39A1.39,1.39,0,0,1,382-8.65a1.38,1.38,0,0,1,.9,1.73c-.27.87-26.81,87.65,4.28,110.58a1.38,1.38,0,0,1-.82,2.49Z"/><path class="cls-9" d="M290.31,268.42a1.38,1.38,0,0,1-1.08-.51c-17.05-21.07-19.83-50-19.16-70.55a190.12,190.12,0,0,1,5.57-39.84,1.38,1.38,0,0,1,2.66.74,186.41,186.41,0,0,0-5.47,39.26c-.65,20.06,2,48.26,18.55,68.66a1.37,1.37,0,0,1-1.07,2.24Z"/></g></g><path class="cls-2" d="M285.93,397.32c1.11-64.62,13.55-112.11,24.2-142.52,8.37-23.88,22.45-56.71,40.85-57.13,8.81-.2,12.16,7.19,21.45,6.58C390,203.1,395.66,175.59,410.49,158c25.38-30.14,88.66-44.59,125.14-15.27,43.93,35.3,30.7,119.36-1.52,139-19.1,11.62-46.38,1.55-50.36,12.21s22.84,23,20.86,41.24c-2.05,18.84-33.41,29.34-35.3,29.95-37.9,12.23-59.71-14-98.5-13.15C349.77,352.42,320.59,361,285.93,397.32Z"/><g class="cls-10"><g class="cls-11"><path class="cls-12" d="M267.87,445.75l.95.25c38.44-146.64,159.66-254.57,324.24-288.7l-.2-1c-78,16.17-148.93,50.31-205.11,98.71C328.69,305.93,287.24,371.87,267.87,445.75Z"/><path class="cls-12" d="M270.4,221.16c20.37,36.11,33.6,100.67,29.49,143.92l1,.09c4.13-43.41-9.15-108.23-29.6-144.49Z"/><path class="cls-12" d="M275.74,417.05l.85.51c11.55-19.4,32.45-32.21,62.13-38.07,21.76-4.3,47.64-4.84,76.93-1.59l.11-1c-29.39-3.26-55.37-2.72-77.23,1.6C308.57,384.44,287.44,397.4,275.74,417.05Z"/><path class="cls-12" d="M396,248.49l.81.54c23.65-35.44,22.94-80.25,18.17-111.6l-1,.15C418.75,168.76,419.47,213.31,396,248.49Z"/><path class="cls-12" d="M477.85,195.51l.26,1c46.24-12.77,93,6,116.72,18.31l.45-.87C571.41,201.51,524.41,182.65,477.85,195.51Z"/></g></g><path class="cls-13" d="M263.5,433.81c-1.51,3.58-.45,7.21,2.27,8.36l.64.27c2.72,1.15,6.06-.61,7.57-4.2l103.4-244.86c1.51-3.59.53-7.42-2.19-8.57l-.64-.27c-2.72-1.15-6.15.82-7.66,4.4Z"/><path class="cls-13" d="M403.88,114c-.44,1.06-.12,2.2,1.39,2.84h0c1.5.64,2.55.09,3-1q4.11-9.51,8.2-19c.46-1.05.11-2.21-1.46-2.88h0c-1.58-.67-2.65-.11-3.09.94Z"/><path class="cls-9" d="M516.07,232.52A47.1,47.1,0,0,1,513.63,243a9.68,9.68,0,0,1-8.16,6c-12.17,1.53-21.23,2.26-27,2.54a7.43,7.43,0,0,1-5.13-1.89,6.88,6.88,0,0,1-2.46-4.73q-.28-6.51-.76-13.07A453.85,453.85,0,0,1,516.07,232.52Z"/><path class="cls-13" d="M470.29,229A86,86,0,0,1,465,242.85c-1.67,3.19-5.43,4.76-9.54,4.08-14.78-2.8-53.41-9-84.57-26.07-4.18-2.34-7.56-6.11-7-10.28,1-7.87,2.93-10.43,2.94-10.43A470.82,470.82,0,0,1,470.29,229Z"/><path class="cls-13" d="M405,111.21a212.26,212.26,0,0,1,51.07,29.93c26.41,20.6,54.27,53.63,60,91.38-.23-.32-35.74,7-45.94-.7C476.07,219.73,457.33,156.42,405,111.21Z"/><path class="cls-9" d="M405,111.21q-19.14,44.45-38.15,88.94c0,.14,16.05,6.08,36.61,13.58,20.67,7.31,45.82,16.18,66.68,18.09C483.43,198.7,449.76,149.59,405,111.21Z"/><path class="cls-13" d="M242.18,116.69a45.82,45.82,0,0,0-5.79,9,9.65,9.65,0,0,0,1.39,10c7.39,9.81,13.17,16.81,17,21.15a7.37,7.37,0,0,0,4.93,2.36,6.88,6.88,0,0,0,5.1-1.53q4.88-4.33,9.91-8.56A457.33,457.33,0,0,0,242.18,116.69Z"/><path class="cls-9" d="M276.63,147.06a85.85,85.85,0,0,0-6.28,13.45c-1.13,3.42.37,7.21,3.72,9.69,12.3,8.65,43.64,32.1,77.62,42.52,4.59,1.37,9.65,1.17,12.26-2.11,4.95-6.21,5.44-9.38,5.43-9.38A471.15,471.15,0,0,0,276.63,147.06Z"/><path class="cls-9" d="M406.52,111.86a212,212,0,0,0-57-15.79c-33.18-4.61-76.26-1.58-107.31,20.62.39-.07,19.88,30.54,32.53,32.48C279.22,136.48,337.64,105.8,406.52,111.86Z"/><path class="cls-13" d="M406.52,111.86q-18.51,44.7-37.14,89.37c-.09.1-15.55-7.29-35.24-16.81-19.65-9.74-43.54-21.61-59.43-35.25C289.16,116.54,347.82,106.47,406.52,111.86Z"/><path class="cls-14" d="M568.45,521a.36.36,0,0,1,0-.09c3-7.46.57-19.29.57-19.29l-2.86,1.52a74.87,74.87,0,0,0-8.26-12.64c-40.08-51-81.62-48.5-15.35-75.85,7.66-3.17,12.34-6.35,14.29-9.49h0s3.26-3.89.36-12.09a4.47,4.47,0,0,0-3.27,2.12c-24-19.77-154.68-35.6-322.23-32.77C100,364.69,40.09,379.79,13.2,391.59A18.24,18.24,0,0,0,4.34,400a13,13,0,0,0-1.58-1.89c-1.62,4.16-.56,13.63-.56,13.63l.21-.18a18.51,18.51,0,0,0,12.17,14.94c36,12.32,88.76-12.13,18.54,70.3-4.77,5.6-8,10.74-9.83,15.47a56.66,56.66,0,0,1-.65-7.6c-2.77,7.87-1.13,18.64-1.13,18.64l0,0c6.89,68.06,374.82,25.2,436.72,20.72,49.43-3.58,100.1-3.3,109.69-21.87h0Q568.21,521.61,568.45,521Z"/><path class="cls-15" d="M431.26,523.07c-54.76,4.25-409.92,48.95-339-40.45,56-70.56,13.94-49.63-14.78-60.17A15.06,15.06,0,0,1,69,414.13,17.11,17.11,0,0,1,67.65,408c-.25-6.63,3.25-12.74,8.77-15.33,21.43-10.1,69.19-23,174.23-24.94,165.36-3,285.66,18.48,255.42,40.53a42.16,42.16,0,0,1-7.56,4.18c-52.84,23.4-19.73,21.27,12.23,64.9S486,518.8,431.26,523.07Z"/><path class="cls-16" d="M431.26,523.07c-54.76,4.25-409.92,48.95-339-40.45,56-70.56,13.94-49.63-14.78-60.17A15.06,15.06,0,0,1,69,414.13a15.18,15.18,0,0,1,7.39-7.84c21.43-10.09,69.19-23,174.23-24.93,130.43-2.37,232.83,10.5,255.42,26.85a42.16,42.16,0,0,1-7.56,4.18c-52.84,23.4-19.73,21.27,12.23,64.9S486,518.8,431.26,523.07Z"/><path class="cls-13" d="M557.94,481.83c-40.08-49.44-81.62-47-15.35-73.56S452.23,354,231.74,357.63C100,359.79,40.09,374.44,13.2,385.87a18.09,18.09,0,0,0,1.38,33.81c36,11.95,88.76-11.76,18.54,68.18-89,101.29,356.45,50.64,425.13,45.82S598,531.27,557.94,481.83Z"/><path class="cls-17" d="M431.26,513.37c-54.76,4.13-409.92,47.48-339-39.22,56-68.42,13.94-48.13-14.78-58.35A14.82,14.82,0,0,1,69,407.73a16.16,16.16,0,0,1-1.38-6,15.58,15.58,0,0,1,8.77-14.87c21.43-9.79,69.19-22.33,174.23-24.18C416,359.78,536.31,380.61,506.07,402a41.94,41.94,0,0,1-7.56,4.05c-52.84,22.7-19.73,20.63,12.23,62.95S486,509.24,431.26,513.37Z"/><path class="cls-18" d="M431.26,513.37c-54.76,4.13-409.92,47.48-339-39.22,56-68.42,13.94-48.13-14.78-58.35A14.82,14.82,0,0,1,69,407.73a14.92,14.92,0,0,1,7.39-7.6c21.43-9.79,69.19-22.33,174.23-24.17,130.43-2.31,232.83,10.17,255.42,26a41.94,41.94,0,0,1-7.56,4.05c-52.84,22.7-19.73,20.63,12.23,62.95S486,509.24,431.26,513.37Z"/><path class="cls-9" d="M115,505.94c-7.07-1.6-11.73-4.55-13.83-8.76-4.92-9.82,5.45-23.89,15.48-37.51,9.64-13.08,19.61-26.61,15-35.32-3.59-6.69-15.13-9.58-18.92-10.53a61,61,0,0,0-16-1.36c-4.4.06-7.3.1-7.88-1.68-.45-1.43.87-3.26,4-5.59,12.52-9.2,47.12-10.65,66.63-10.7v1c-15.61,0-53.29,1.14-66,10.5-3.71,2.73-3.8,4-3.66,4.43.33,1.05,3.22,1,6.87,1a61.13,61.13,0,0,1,16.25,1.39c3.91,1,15.78,3.95,19.59,11.05,5,9.28-4.75,22.47-15,36.43-9.84,13.36-20,27.17-15.39,36.42,2,3.92,6.38,6.68,13.13,8.21Z"/><path class="cls-19" d="M66.35,502.27l-1.25,3.2a6,6,0,0,0,1.48,6.62c4.36,4.12,12.85,11.07,20,10.72,10.2-.51-5.35-10-7.93-13.65C71.86,499.54,66.35,502.27,66.35,502.27Z"/><path class="cls-20" d="M75.76,483.73a60,60,0,0,0-7.85,18.9l4.41,4.57,9.48-12.46Z"/><path class="cls-21" d="M142.94,273.15c9.06,12.92,30.28,47,28.15,92.89-4,86.25-86.77,130.25-90.81,132.31l-9.11-12.76c-.35-11.87.89-29.43,10.34-46.71,11.06-20.22,24.56-24,31.92-37,8.06-14.31,9.17-40.52-25-92.76Z"/><path class="cls-22" d="M184.42,521.79l3.3,15.09A4.35,4.35,0,0,0,191.9,540l13.29,0a4.36,4.36,0,0,0,3.23-7.29l-11.15-12.3Z"/><path class="cls-23" d="M177.71,507.68l10,15.81a3.07,3.07,0,0,0,2.58,1.42H192a3.06,3.06,0,0,0,2.93-4l-4.47-14.64Z"/><path class="cls-24" d="M70.22,268.51a118,118,0,0,0-.91,29.82c4.38,45,32.19,53.74,53.17,106,13.75,34.23,8.22,46.43,27,75.23a162.6,162.6,0,0,0,29.39,33.61l15.07-2c-4.15-14.24-10.07-34.79-16.95-59.63-20.84-75.14-24.77-96.59-26.57-107.26a584.4,584.4,0,0,1-7.52-71.14q3.78-7.41,1.54-11.52Q137.4,248.64,70.22,268.51Z"/><path class="cls-25" d="M77.31,111c-13.23,8.66-18.33,23.46-25,82.72-11.36,101.52-2,108.42,1.83,110.1,10.14,4.41,16.59-12.42,45.38-17.89,28.49-5.41,49.3,5.93,55-3.21,3.16-5.07-2.72-9.36-4.28-19.89-4.44-30,35.84-45.86,47.82-94.8,2.08-8.49,1.79-11.8,1.67-12.92-2.84-26.32-44.23-43.86-74.28-48.27C107.43,104.2,91.34,101.84,77.31,111Z"/><path class="cls-26" d="M166.47,93.53s-19.05,15.25-45.29,13.28c0,0,21.79,23.62,53.95,21.78,0,0-16-7-5-24.12Z"/><path class="cls-27" d="M185,100.36a11.82,11.82,0,0,0,6.4-12c-.67-4.2-4-6.64-6.07-8.1-5.86-4.22-15.22-6-21.19-1.79-3.54,2.51-4,11.58-4.14,13.17-.18,1.79.67,2.92,1.11,4.6.61,2.32,1.54,6,3,12.1a29.4,29.4,0,0,1,3.8-3.45,26.09,26.09,0,0,1,5.76-3.34C179.15,99.43,181.17,102.05,185,100.36Z"/><path class="cls-28" d="M160.7,102s.34,9.06,8.84,13.11c7.61,3.63,17.88-12.25,15.14-18.36-.91-2-3.78-4.28-6.72-5-1.74-.42-2.6-.08-5.43-.82-2.61-.68-3.11-1.29-4.12-1.1-1.27.24-2.89,1.67-4.14,7.29-.61-2.2-2-3.69-3.49-3.79a2.82,2.82,0,0,0-1.51.4C157.19,95.09,157.56,98.46,160.7,102Z"/><path class="cls-29" d="M168.62,88.71c.21.46-1.61,1.18-2.73,3-2.19,3.55-.95,10,2.59,12.42,2.09,1.46,3.45.47,7.33,2.13a19.25,19.25,0,0,1,5.17,3.29c-1.08,4.63-4.38,8-8.06,8.35-4,.38-7-2.87-8.21-4.23-.84-.91-3.52-3.81-3.55-7.78,0-4.13,2.77-5,1.91-8.31-.44-1.65-1.54-2.87-1.7-5.68a11.22,11.22,0,0,1,0-1.81C164.42,89.14,168.32,88,168.62,88.71Z"/><path class="cls-30" d="M129.58,266c-10.11-22,4.18-34.9-4.12-59.17-11-32.16-43.76-31.95-51.57-58.49-2.68-9.1-2.54-21.73,6.73-39.24-1.11.58-2.22,1.22-3.31,1.93-13.23,8.66-18.33,23.46-25,82.72-11.36,101.52-2,108.42,1.83,110.1,10.14,4.41,16.59-12.42,45.38-17.89,20.61-3.91,37.18.93,46.95.46A54.2,54.2,0,0,1,129.58,266Z"/><path class="cls-31" d="M199,270.8c.06,4.3.77,9.48,4,11.23,8,4.28,29.28-13.11,37.15-29.33,22.35-46.08-40.91-129-59.23-122.81-9.86,3.34-13.49,34.81-4,58.34,9.84,24.32,30.08,31.08,31.62,52.75C209.56,253.67,203.55,264.36,199,270.8Z"/><path class="cls-32" d="M102.31,106.57c-4.49-5.92-24.23,0-37.59,7.34C21.72,137.55-7.8,205,15.22,232.27c14,16.65,45,15.27,63.62,9.8,22.7-6.68,35.77-22.07,40.43-28.15q-2.05-4.12-4.13-8.26c-38.31,6.15-45.67-4.21-47.21-6.88-5.46-9.51,3.06-25.84,19.25-56.88C98.75,119.72,105.66,111,102.31,106.57Z"/><path class="cls-33" d="M276.38,425.78a3.45,3.45,0,0,1-2.94-1.65L66.45,85a3.44,3.44,0,1,1,5.86-3.59l207,339.11a3.44,3.44,0,0,1-1.14,4.73A3.36,3.36,0,0,1,276.38,425.78Z"/><path class="cls-34" d="M116.46,207.33s6.87-4.42,10.29-11.19,6.57-12.73,10.3-11.74,7.44,11.4,6.69,14c0,0-5.83-2.24-6.69,2.24s-7.32,5.5-7.32,5.5l-10.46,7.8Z"/><path class="cls-35" d="M203.55,273.35a2.65,2.65,0,0,0-2.47-1.58c-2.5.06-7.09-.12-9.58-2.06-3.53-2.75-10.44-1.1-14,0s1,4.28,5.6,6.3,7.65,5.76,11.71,6c2.83.15,6.54-2.82,8.52-4.63a2.64,2.64,0,0,0,.64-3Z"/><path class="cls-36" d="M209,438a4.9,4.9,0,0,0-1.89,4.69c2.58,16.21,15.89,95.11,48.53,100.63,64.65,10.93,102.59-40.13,125.42-80.71l-38.26-47.43L216.19,432.49Z"/><path class="cls-36" d="M245.26,491.33l-8-4.59s-17.16-25.89-30.14-45.8a5,5,0,0,0,0,1.72c2.58,16.21,15.89,95.11,48.53,100.63,60,10.14,97-33.07,120.22-71.78Z"/><path class="cls-13" d="M248,494.09a17.58,17.58,0,0,1-14.21-7.22l-27.53-37.58a12.21,12.21,0,0,1,8-19.28l120.17-18.55a17.69,17.69,0,0,1,16.43,6.36l30.28,37.55a12.09,12.09,0,0,1-7.56,19.55l-122.84,19A17.88,17.88,0,0,1,248,494.09Zm89.09-77.32a12.67,12.67,0,0,0-1.84.14L215,435.46A6.69,6.69,0,0,0,210.67,446l27.53,37.58a12.09,12.09,0,0,0,11.64,4.82l122.84-19a6.57,6.57,0,0,0,4.11-10.63l-30.28-37.55A12.18,12.18,0,0,0,337.05,416.77Z"/><path class="cls-3" d="M255.17,513.57c18.19,6.59,42.36-12.15,46.14-29.85,2.66-12.51-6-19.26-1.05-31.43,4.67-11.56,14.37-10.2,20.24-21.6,6.2-12,5.19-32.54-7.57-41.19-14.29-9.68-37.21-.36-44.15,12.68-6.7,12.59,4.48,23-3.06,36.44-6.62,11.77-17.94,8.6-25.14,19.23C230.18,473.23,235.77,506.54,255.17,513.57Z"/><g class="cls-37"><g class="cls-38"><path class="cls-9" d="M255.7,521.68a.3.3,0,0,0,.26-.24c8.54-50.26,25.12-86.58,37.52-108.2,13.42-23.42,25-35.09,25.08-35.21a.28.28,0,0,0,0-.41.3.3,0,0,0-.41,0c-.11.12-11.71,11.85-25.18,35.33a297.43,297.43,0,0,0-20.79,44.83,357.92,357.92,0,0,0-16.8,63.57.3.3,0,0,0,.24.33Z"/><path class="cls-9" d="M287.21,424.52a.24.24,0,0,0,.16-.07.3.3,0,0,0,0-.41c-7.75-8.7-7.64-22.21-6.18-32a97.47,97.47,0,0,1,5.1-19.46.29.29,0,0,0-.53-.21,96.64,96.64,0,0,0-5.14,19.58c-1.48,9.93-1.59,23.63,6.32,32.5A.27.27,0,0,0,287.21,424.52Z"/><path class="cls-9" d="M272,488.89c11.89-1.18,21.7-7.41,28.33-13.05a79.35,79.35,0,0,0,14.23-15.91.28.28,0,0,0-.09-.4.28.28,0,0,0-.4.09,79,79,0,0,1-14.13,15.79c-8.17,6.95-21.24,14.82-37.05,12.77a.3.3,0,0,0-.33.25.29.29,0,0,0,.25.33A40,40,0,0,0,272,488.89Z"/><path class="cls-9" d="M258.14,508.7a.38.38,0,0,0,.17-.08.29.29,0,0,0,0-.41c-25.13-26.88-10.92-68.95-10.63-69.61a.29.29,0,0,0-.05-.38.3.3,0,0,0-.41,0c-.22.26-3.87,11-4.31,25.23-.4,12.85,1.87,31.11,15,45.12A.31.31,0,0,0,258.14,508.7Z"/></g></g><path class="cls-4" d="M288.65,514.07c10.89,8.65,31.64,1.42,38.26-9.78,4.68-7.91.34-14.49,6.47-21.66,5.83-6.8,12.13-3.65,18.73-10.07,7-6.78,11-21,4.26-29.81-7.52-9.87-25.27-8.76-33-1.46-7.44,7-2.21,16.7-10.42,24.12-7.2,6.51-14.18,1.75-21.52,7.35C280.85,480.85,277,504.83,288.65,514.07Z"/><g class="cls-39"><g class="cls-38"><path class="cls-9" d="M287.16,519.71a.21.21,0,0,0,.23-.1c17.31-32.29,36.91-53.24,50.3-65.14,14.51-12.88,25-18.19,25.15-18.24a.21.21,0,0,0,.09-.28.2.2,0,0,0-.28-.09c-.1.05-10.69,5.38-25.23,18.3A212.71,212.71,0,0,0,313,480a256,256,0,0,0-26,39.46.2.2,0,0,0,.09.28Z"/><path class="cls-9" d="M330.84,460.73a.19.19,0,0,0,.13,0,.2.2,0,0,0,.11-.27c-3.29-7.7-.12-16.88,3.11-23.23a69.58,69.58,0,0,1,7.93-12.09.21.21,0,0,0,0-.29.21.21,0,0,0-.3,0,70.13,70.13,0,0,0-8,12.16c-3.28,6.43-6.49,15.74-3.13,23.59A.22.22,0,0,0,330.84,460.73Z"/><path class="cls-9" d="M305.72,501.09c8.38,1.92,16.49-.08,22.3-2.41a56.38,56.38,0,0,0,13.33-7.58.21.21,0,0,0-.26-.32,56.79,56.79,0,0,1-13.24,7.52c-7.16,2.87-17.86,5.24-28.17.22a.21.21,0,1,0-.18.38A29.08,29.08,0,0,0,305.72,501.09Z"/><path class="cls-9" d="M291.79,511.42a.2.2,0,0,0,.13,0,.22.22,0,0,0,.11-.28c-11-24.07,8.32-49.48,8.67-49.86a.21.21,0,0,0,.05-.27.21.21,0,0,0-.29-.07,61.6,61.6,0,0,0-8.7,16.2c-3.21,8.66-5.84,21.63-.11,34.18A.18.18,0,0,0,291.79,511.42Z"/></g></g><path class="cls-36" d="M245.26,491.33l-8-4.59s-17.16-25.89-30.14-45.8a5,5,0,0,0,0,1.72c2.58,16.21,15.89,95.11,48.53,100.63,60,10.14,97-33.07,120.22-71.78Z"/><path class="cls-13" d="M378.24,463.16a6.65,6.65,0,0,1-.43,2.18,6.51,6.51,0,0,1-5.13,4.13l-122.84,19a12.09,12.09,0,0,1-11.64-4.82L210.67,446A6.69,6.69,0,0,1,215,435.46l14.45-2.23c-.71-1.75-1.42-3.5-2.11-5.26l-13.18,2a12.21,12.21,0,0,0-8,19.28l27.53,37.58A17.58,17.58,0,0,0,248,494.09a17.88,17.88,0,0,0,2.72-.2l122.84-19a11.94,11.94,0,0,0,9.43-7.58,12.14,12.14,0,0,0,.64-2.3C381.79,464.47,380,463.86,378.24,463.16Z"/></g></g></svg>