<svg xmlns="http://www.w3.org/2000/svg" viewBox="0 0 1128 550"><defs><style>.cls-1{isolation:isolate;}.cls-2{fill:#fff5f5;}.cls-3{fill:#ffe6e6;}.cls-4{fill:#ffd6d6;}.cls-5{fill:#4cb4d4;}.cls-6{fill:#2e88bf;}.cls-7{fill:#f4a6a6;}.cls-8{fill:#311e69;}.cls-9{fill:#914941;}.cls-10{fill:#fff;}.cls-11{fill:#ff8f8f;}.cls-12{fill:#ff6161;}.cls-13{fill:#ad263d;}.cls-14{fill:#1e1240;}.cls-15{fill:#614cd4;}.cls-16{fill:#ffd140;}.cls-17{fill:#ffb03b;}.cls-18{fill:#7165e5;}.cls-19,.cls-22{fill:#9fcfff;}.cls-19{mix-blend-mode:screen;}.cls-20{fill:#ff933b;}.cls-21{fill:#d95f76;}.cls-23{fill:#ff9791;}.cls-24{fill:#b1a9ff;}.cls-25{fill:#a399ff;}</style></defs><g class="cls-1"><g id="Réteg_1" data-name="Réteg 1"><path class="cls-2" d="M144.28,472.37c-48-.43-84.16-54.87-75.11-113.54,10.36-67.13,38.12-146.18,108.94-183.07,135.64-70.64,215.33,29,293.67-29.15S706.84-47,842.48,16.65s169,296.07,145.88,372.76S841.58,488,773.86,482.33C721,477.94,318.15,473.92,144.28,472.37Z"/><path class="cls-3" d="M135.06,499.45C98,500.26,72,454,85.52,411a222.39,222.39,0,0,1,36.39-69.93C180,266,325.31,336,404.62,281.85S600.12,111.07,730.2,105.39,992.08,271.78,981.33,399s-402.65,90.59-476.9,92.37C449.26,492.64,239.32,497.2,135.06,499.45Z"/><path class="cls-4" d="M125.36,512.09H887.6c47,0,83.6-51.11,78-109.23S942.9,280.94,897.21,259.94c-90.76-41.71-339.22-30.49-451.15,62.4C346.44,405,167.69,305.89,96.63,447.74,82.59,475.77,98.84,512.09,125.36,512.09Z"/><path class="cls-5" d="M803.82,395.72c14.08-13.31,43.87-23.5,53.44-42.24s-3.19-14.77-4.39-32.74,29.1-3.91,52.91-4.69,28.53-23.78,38.29-37.79,18.53-14,39.24-17.36c11.14-1.82,22.15-5.9,30-9.28a26.26,26.26,0,0,0-1.29-2.43c-18.64-30.75-100.31,5-111.69,25.9s-41.16-2.35-70.59,18.53-6.83,46.87-8.23,61-28.4,2.6-58.88,18.79-4.94,76.2-4.94,76.2c1.62,4.53,13.81,8,28,9.46C781.81,435,792.39,406.52,803.82,395.72Z"/><path class="cls-6" d="M983.31,260.9c-20.71,3.39-29.49,3.36-39.24,17.36s-14.49,37-38.29,37.79-54.12-13.29-52.91,4.69,14,14,4.39,32.74-39.36,28.93-53.44,42.24c-11.43,10.8-22,39.24-18.19,63.31,21.44,2.23,47.47,0,48.51-10,1.74-16.56,35.18-23.78,58.38-31.56s-.73-59,1.68-72.64,57.46-8.92,59.1-32.72c1.59-23.16,73.29-31.69,60-60.47C1005.46,255,994.45,259.08,983.31,260.9Z"/><path class="cls-7" d="M523.45,445.65S464,350.28,480,325.67s31.67-8.77,37.16-26.24S491.43,248.69,503.25,218s45.55-33.45,38-58.66,9.08-80.69,37.94-87-3.49,74.39,17.38,92.29,26.69,52-4.33,87.8,14.33,81.09-1,98.3-44.13,24.3-12.78,50S559.27,454.49,523.45,445.65Z"/><path class="cls-5" d="M532.77,324.85c-5.29-18.63-3.94-35.2,20.58-79s10.76-59.55,11.5-91.19,10.13-31.69,10.89-54.36c.31-9.07,2.22-19.24,4.4-28.2-.31.05-.61.1-.94.17-28.86,6.36-45.47,61.83-37.94,87.05s-26.19,27.92-38,58.66,19.35,64,13.86,81.48S495.9,301.07,480,325.67s43.5,120,43.5,120c10,2.46,21,2.06,31.2-.35C518.56,392.53,537.47,341.41,532.77,324.85Z"/><path class="cls-6" d="M580.14,72.07c-2.18,9-4.09,19.13-4.4,28.2-.76,22.67-10.15,22.73-10.89,54.36s13,47.37-11.5,91.19-25.87,60.4-20.58,79c4.7,16.56-14.21,67.68,21.88,120.45,26.38-6.26,46.43-26.08,23.79-44.65-31.35-25.72-2.57-32.8,12.78-50s-30-62.51,1-98.3,25.19-69.89,4.33-87.8C575.94,146.83,607.34,67.68,580.14,72.07Z"/><path class="cls-7" d="M775.17,428.63s-44-70.68-32.23-88.91,23.47-6.5,27.53-19.45-19-37.6-10.27-60.38S794,235.1,788.37,216.42s6.73-59.79,28.12-64.51-2.59,55.13,12.87,68.4,19.78,38.54-3.2,65.06,10.61,60.09-.77,72.85-32.7,18-9.46,37.06S801.72,435.18,775.17,428.63Z"/><path class="cls-5" d="M782.08,339.11c-3.92-13.8-2.92-26.09,15.25-58.56s8-44.14,8.52-67.58,7.51-23.48,8.07-40.29a107.79,107.79,0,0,1,3.26-20.89l-.69.12c-21.39,4.72-33.7,45.82-28.12,64.51S769,237.11,760.2,259.89s14.34,47.43,10.27,60.38-15.71,1.22-27.53,19.45,32.23,88.91,32.23,88.91a50.06,50.06,0,0,0,23.12-.26C771.55,389.26,785.56,351.39,782.08,339.11Z"/><path class="cls-6" d="M817.18,151.79a107.79,107.79,0,0,0-3.26,20.89c-.56,16.81-7.52,16.84-8.07,40.29s9.64,35.1-8.52,67.58-19.17,44.76-15.25,58.56c3.48,12.28-10.53,50.15,16.21,89.26,19.55-4.64,34.41-19.32,17.64-33.09-23.24-19.06-1.91-24.31,9.46-37.06s-22.22-46.33.77-72.85,18.67-51.79,3.2-65.06C814.07,207.19,837.34,148.53,817.18,151.79Z"/><path class="cls-5" d="M628,356.49c18.76-36.36,55.53-46.15,44.27-66s-4.5-33.13,6-54.63c6.05-12.38,15.34-23.75,22.13-31.16-3.72-.54-9.81.41-19.26,3.27-49.67,15.06-44.9,52.4-50.1,75.9s-13.56,19.87-48.83,46.38S592,410.93,592,410.93c-2.93,18.26,24.27,18.09,56.35,19.2C633.47,409.52,616.56,378.72,628,356.49Z"/><path class="cls-6" d="M692.57,258.54c-3.65-22.44,23.71-51.59,7.87-53.87-6.79,7.41-16.08,18.78-22.13,31.16-10.51,21.5-17.27,34.75-6,54.63s-25.51,29.67-44.27,66c-11.47,22.23,5.44,53,20.32,73.64l2.19.07c33,1.21,33.33-10.29,21.76-32.35s53.82-41.36,53.82-68.24S697.07,286.24,692.57,258.54Z"/><polygon class="cls-7" points="449.39 441.28 430.67 441.28 427.69 381.88 430.88 379.45 432.98 381.27 434.31 376.84 439.63 372.8 444.65 376.62 445.19 378.22 445.85 377.54 451.56 381.88 449.39 441.28"/><polygon class="cls-7" points="488.45 441.28 469.74 441.28 466.75 381.88 469.95 379.45 473.38 376.84 478.69 372.8 483.72 376.62 484.92 377.54 490.63 381.88 488.45 441.28"/><polygon class="cls-7" points="527.52 441.28 508.8 441.28 505.82 381.88 509.01 379.45 511.11 381.27 512.44 376.84 517.75 372.8 522.78 376.62 523.32 378.22 523.98 377.54 529.69 381.88 527.52 441.28"/><polygon class="cls-7" points="566.58 441.28 547.87 441.28 544.88 381.88 548.08 379.45 556.82 372.8 562.39 378.22 568.75 381.88 566.58 441.28"/><polygon class="cls-7" points="605.65 441.28 586.93 441.28 583.95 381.88 587.14 379.45 595.88 372.8 600.91 376.62 602.11 377.54 607.82 381.88 605.65 441.28"/><polygon class="cls-7" points="644.71 441.28 625.99 441.28 623.01 381.88 626.2 379.45 628.3 381.27 629.63 376.84 634.95 372.8 639.98 376.62 640.51 378.22 641.17 377.54 646.88 381.88 644.71 441.28"/><polygon class="cls-7" points="683.78 441.28 665.06 441.28 662.07 381.88 674.01 372.8 680.24 377.54 685.95 381.88 683.78 441.28"/><polygon class="cls-7" points="722.84 441.28 704.12 441.28 701.14 381.88 704.33 379.45 713.07 372.8 718.1 376.62 725.01 381.88 722.84 441.28"/><rect class="cls-7" x="442.69" y="393.7" width="266.86" height="10.98"/><rect class="cls-7" x="442.69" y="419.31" width="266.86" height="10.98"/><polygon class="cls-7" points="761.9 441.28 743.19 441.28 740.2 381.88 743.4 379.45 746.83 376.84 752.14 372.8 757.17 376.62 758.37 377.54 764.07 381.88 761.9 441.28"/><polygon class="cls-7" points="800.97 441.28 782.25 441.28 779.27 381.88 782.46 379.45 784.56 381.27 785.89 376.84 791.2 372.8 796.23 376.62 796.77 378.22 797.43 377.54 803.14 381.88 800.97 441.28"/><polygon class="cls-7" points="840.03 444.16 821.31 441.28 818.33 381.88 821.52 379.45 830.27 372.8 835.84 378.22 842.2 381.88 840.03 444.16"/><polygon class="cls-7" points="879.1 447.19 860.38 444.58 857.39 381.88 860.59 379.45 869.33 372.8 874.36 376.62 875.56 377.54 881.27 381.88 879.1 447.19"/><polygon class="cls-7" points="918.16 459.82 899.44 459.82 896.46 381.88 899.65 379.45 901.75 381.27 903.09 376.84 908.39 372.8 913.42 376.62 913.96 378.22 914.62 377.54 920.33 381.88 918.16 459.82"/><polygon class="cls-7" points="957.23 459.82 938.51 459.82 935.52 381.88 947.46 372.8 953.69 377.54 959.39 381.88 957.23 459.82"/><polygon class="cls-7" points="996.29 459.82 977.57 459.82 974.59 381.88 977.78 379.45 986.52 372.8 991.55 376.62 998.46 381.88 996.29 459.82"/><rect class="cls-7" x="716.14" y="393.7" width="266.86" height="10.98"/><rect class="cls-7" x="716.14" y="419.31" width="266.86" height="10.98"/><path class="cls-5" d="M354.84,65s-30.7,1.67-44.34,19.33c-23.75,30.76-13.11,58-4.79,70.31,0,0-51.25,1.1-66.18,45.7-23.94,71.55,68.9,79.1,182.9,70.31s77.77-121.28,55.89-138c0,0,16-116.89-38.67-125.68C358.9-6,354.84,65,354.84,65Z"/><path class="cls-6" d="M478.32,132.64S494.36,15.75,439.65,7c-1.37-.22-2.72-.41-4-.58,9.11,4.34,17.33,10.54,15.56,18.38-3.73,16.48-33-2-22,29S457.8,77.49,449.32,99.9,396,111.77,407.88,134.18s48.46,26.37,43.67,52.07-15.3-2.63-56.18,15.82-29.69,36.25-51.44,39.55-43.51-2.64-81.09-20.43c-11.9-5.64-19.62-11.33-24.63-16.49-18.72,67.46,72.6,74.53,184.22,65.92C536.43,261.83,500.2,149.34,478.32,132.64Z"/><path class="cls-6" d="M342.61,73.32c11,7,20.49,4.39,26.07,10.54s-1,18.46,2.06,36.48-10.55,29.44-17.58,30.76-25.93,13.62-1.32,15.38,30.33-13.62,36.92-23.73,19.78-49.22,10.11-64.6-44-13.18-44-13.18a89.17,89.17,0,0,0-20.63,4.13A44.86,44.86,0,0,1,342.61,73.32Z"/><path class="cls-8" d="M421.39,235c-3.95,13.18-29,50.75-40.21,50.75s-5.57-95.3,5-111.12,18.62-40.13,1.63-17.41c-18.2,24.35-22.72,77.33-20.62,116.48a2.26,2.26,0,0,1-3.81,1.77c-11.55-10.85-30-30.3-26.76-41.2,4.67-15.68-3.26-12.93-8.55-.48s5.9,12,7.92,19.94-7.63,2.9-.89,11.66c5,6.53,18.25,19,24.68,25a10.62,10.62,0,0,1,3.42,8.32c-2.3,49-15.6,138.79-6.39,149.92,10.55,12.74,17.8-6.64,16.48-22.46s-4.61-47-1.31-56.87-1.32-42.66,2.63-55.18,59.34-45.49,60-78.44S425.35,221.85,421.39,235Z"/><path class="cls-5" d="M35.17,532c-24-2.69-33.9-32.67-15.77-48.61.43-.38.87-.76,1.33-1.13,25.6-21.06,132.82-15.21,238.43-16.38S260.72,439,332.73,425s680.07,18.72,737.68,49.13-9.54,39.71-185.57,60.77C715.51,555.13,248.49,555.9,35.17,532Z"/><path class="cls-6" d="M1070.41,474.1c-6.27-3.31-19.23-6.46-37.43-9.45a38.5,38.5,0,0,0-29.29,7.21c-22,16.43-84.6,24.87-109.8,29.91-37.34,7.47-299.79,14.93-362.44,10.06s-100.58,8.07-176.32,15.54-81.09,4.27-138.71-16-125.88,0-165.85,0a124.61,124.61,0,0,1-40.48-6.7A28.2,28.2,0,0,0,35.17,532c213.32,23.93,680.34,23.16,849.67,2.9C1060.87,513.81,1128,504.52,1070.41,474.1Z"/><path class="cls-9" d="M634.48,481.86s.15-31.29,121.36-38.4S851,464.15,894.13,464.15c48.8,0,109.22-8.53,144.82,0s19.33,27.67-28.14,31.22-136.92.61-191.63.75C769.77,496.25,597.18,499.64,634.48,481.86Z"/><path class="cls-5" d="M22.3,481.11a20.65,20.65,0,0,1-9.49-7.73c-6.5-9.76-20.37-33.45-7.58-41.08,16.26-9.7,28,17.68,28,17.68s-.57-9.41,7.13-7.41,9.28,4.55,9.28,4.55-3.86-52.75,18.11-55.89,22.82,28.23,22.82,28.23,2.85-8.84,11.12-6.84S113.06,428,113.06,428s9.13-11.07,19.4-6.39,11.41,24.07,11.41,24.07a17.52,17.52,0,0,1,20.54,2c4,3.39,6.56,25.67-8,29.95C142.89,481.63,55.54,494.49,22.3,481.11Z"/><path class="cls-6" d="M156.42,477.65c14.55-4.28,12-26.56,8-29.95a17.52,17.52,0,0,0-20.54-2s-1.14-19.39-11.41-24.07a12.62,12.62,0,0,0-8.68-.69c1.55,2.08,3.19,4.29,4.4,5.94,3.14,4.28-1.14,2.62,0,12.15S133,455.4,137,455.4s11.7-.57,10.84,2.85-10.55,7.42-20.82,6.28-7.42-15.69-17.4-12.84-12,9.81-16.55,10.61-17.4-15.17-24-9.47-30.52,16.83-37.08,13.69-8.84-10-14.84-6.84c-3.41,1.79-9.3-.31-11.49,1.63a118.6,118.6,0,0,0,7.09,12.07,20.65,20.65,0,0,0,9.49,7.73C55.54,494.49,142.89,481.63,156.42,477.65Z"/><path class="cls-6" d="M69.7,396.43c3.42,4.71-3,3.64,1.71,7.49s12.09,3.21,12.36,6.2-7.22,10.27-4,14.34,3.95,7.05,4,12,6-8.27,6.76-17c0,0-.86-31.37-22.82-28.23a13.33,13.33,0,0,0-6.21,2.6C64.48,393.64,68,394,69.7,396.43Z"/><path class="cls-6" d="M100.72,424.13c3.11,1.82,7.17,4,7.38,7.81s-5,6.53-1.92,8.13,6.27-5.81,6.88-12.05c0,0-3.14-13.4-11.41-15.4A8.53,8.53,0,0,0,96,413c1.59.24,3.44.89,3.44,2.67C99.44,418.79,97.62,422.32,100.72,424.13Z"/><path class="cls-10" d="M37.63,466.82s-6.42-1.77-6.17-9.47S43.1,448.49,49.21,452,51.38,468.46,37.63,466.82Z"/><path class="cls-11" d="M44.34,461.58c0,1.54-1.9,2.78-4.23,2.78s-4.23-1.24-4.23-2.78,1.89-2.77,4.23-2.77S44.34,460.05,44.34,461.58Z"/><path class="cls-10" d="M117.91,464.78s-6.43.54-8.77-6.53,7.61-11.93,14.34-10.75S130.93,461.68,117.91,464.78Z"/><path class="cls-11" d="M122.25,457.79c.51,1.39-.8,3.15-2.92,3.93s-4.25.29-4.76-1.11.79-3.15,2.91-3.93S121.73,456.4,122.25,457.79Z"/><path class="cls-10" d="M58,430.93s-9.65.81-13.17-9.82S56.3,403.18,66.41,405,77.61,426.27,58,430.93Z"/><ellipse class="cls-11" cx="58.78" cy="422.54" rx="6.15" ry="4.04" transform="translate(-142.17 46.22) rotate(-20.18)"/><path class="cls-10" d="M14.22,442.33s-3.6-.91-3.3-4.05,6.77-3.3,10.16-1.68S22,443.38,14.22,442.33Z"/><path class="cls-11" d="M18.13,440.37c0,.63-1.13,1.08-2.45,1s-2.37-.63-2.34-1.26,1.13-1.08,2.45-1S18.16,439.74,18.13,440.37Z"/><path class="cls-10" d="M72.26,451.08s.53-6,9.95-8.61,13.69,6.41,10.92,12.79S73.73,463.1,72.26,451.08Z"/><path class="cls-11" d="M80.31,454.72a3.67,3.67,0,1,1,2.31-4.53A3.6,3.6,0,0,1,80.31,454.72Z"/><path class="cls-5" d="M701.33,482.83s-10.2-7.49-7.78-18.41-13.2-27.39-5.49-29.1,14.13,15.19,16.05,27.18S706,483.26,701.33,482.83Z"/><path class="cls-6" d="M704.11,462.5c-1.92-12-8.34-28.9-16.05-27.18a2.84,2.84,0,0,0-1.45.73,8.54,8.54,0,0,0,3.16,2.9c4.07,2.36,8.89,10.17,8.89,14s-.21,12,1,18.63c.63,3.54,0,7-.09,9.66a19.14,19.14,0,0,0,1.8,1.57C706,483.26,706,474.48,704.11,462.5Z"/><path class="cls-5" d="M702.4,473.66s2.36-22.69,11.35-16.05S706,483.07,702.4,482.86,702.4,473.66,702.4,473.66Z"/><path class="cls-6" d="M713.75,457.61a5.5,5.5,0,0,0-2.92-1.21c.3.69.65,1.56,1,2.6,1,2.89-.43,3.74-1.93,7.49-1.39,3.49-8.37,7-9,14.62.13,1,.58,1.69,1.56,1.75C706,483.07,722.74,464.24,713.75,457.61Z"/><path class="cls-5" d="M791,452.65s10.2-7.49,7.78-18.41,13.2-27.39,5.49-29.11-14.13,15.2-16,27.19S786.3,453.08,791,452.65Z"/><path class="cls-6" d="M788.23,432.32c1.92-12,8.34-28.9,16-27.19a2.93,2.93,0,0,1,1.45.74,8.54,8.54,0,0,1-3.16,2.9c-4.07,2.36-8.89,10.17-8.89,14s.21,12-1,18.62c-.63,3.55,0,7.06.09,9.66a18.54,18.54,0,0,1-1.8,1.58C786.3,453.08,786.3,444.3,788.23,432.32Z"/><path class="cls-5" d="M789.94,443.48s-2.36-22.69-11.35-16.06,7.72,25.47,11.35,25.26S789.94,443.48,789.94,443.48Z"/><path class="cls-6" d="M778.59,427.42a5.56,5.56,0,0,1,2.92-1.2c-.3.69-.65,1.56-1,2.59-1,2.89.43,3.75,1.93,7.5,1.39,3.48,8.37,7,9,14.61-.13,1-.58,1.7-1.56,1.76C786.31,452.89,769.6,434.06,778.59,427.42Z"/><path class="cls-5" d="M864.61,488s10.2-7.49,7.78-18.4,13.2-27.4,5.49-29.11-14.13,15.19-16,27.18S859.9,488.38,864.61,488Z"/><path class="cls-6" d="M861.83,467.62c1.92-12,8.35-28.89,16-27.18a2.84,2.84,0,0,1,1.45.73,8.64,8.64,0,0,1-3.16,2.91c-4.07,2.35-8.88,10.16-8.88,14s.2,12-1,18.62c-.62,3.54,0,7,.09,9.66a19.14,19.14,0,0,1-1.8,1.57C859.9,488.38,859.9,479.61,861.83,467.62Z"/><path class="cls-5" d="M863.54,478.78s-2.36-22.69-11.35-16,7.72,25.46,11.35,25.25S863.54,478.78,863.54,478.78Z"/><path class="cls-6" d="M852.19,462.73a5.5,5.5,0,0,1,2.92-1.21c-.3.69-.64,1.56-1,2.6-1,2.89.43,3.74,1.93,7.49,1.39,3.49,8.37,7,9.05,14.62-.13,1-.58,1.7-1.56,1.75C859.91,488.19,843.2,469.36,852.19,462.73Z"/><path class="cls-5" d="M911.5,473.09s10.2-7.49,7.78-18.4,13.2-27.4,5.49-29.11-14.13,15.2-16,27.18S906.79,473.52,911.5,473.09Z"/><path class="cls-6" d="M908.72,452.76c1.92-12,8.34-28.89,16-27.18a2.84,2.84,0,0,1,1.45.73,8.55,8.55,0,0,1-3.16,2.91c-4.07,2.35-8.89,10.16-8.89,14s.21,12-1,18.62c-.62,3.54,0,7.06.09,9.66a19.14,19.14,0,0,1-1.8,1.57C906.79,473.52,906.79,464.75,908.72,452.76Z"/><path class="cls-5" d="M910.43,463.92s-2.36-22.69-11.35-16.05,7.72,25.47,11.35,25.25S910.43,463.92,910.43,463.92Z"/><path class="cls-6" d="M899.08,447.87a5.5,5.5,0,0,1,2.92-1.21c-.3.69-.65,1.56-1,2.6-1,2.89.43,3.74,1.93,7.49,1.39,3.49,8.37,7,9,14.62-.13,1-.58,1.7-1.56,1.75C906.8,473.34,890.09,454.5,899.08,447.87Z"/><path class="cls-5" d="M738.46,456.3s-2.36-20.6-8.27-16.68,4,21.17,6.38,19.75S738.46,456.3,738.46,456.3Z"/><path class="cls-5" d="M735.24,454.41s8.19-30.71,17.88-24.81-13.71,31.72-16.55,29.77A3.91,3.91,0,0,1,735.24,454.41Z"/><path class="cls-6" d="M738.46,456.3s-2.28-19.87-8-16.85c.09.19.19.4.28.64,1.16,2.92,0,1.24,1.25,4.6s4.07,5.42,4.25,9.05a52.94,52.94,0,0,0,.47,5.52C738.9,457.87,738.46,456.3,738.46,456.3Z"/><path class="cls-6" d="M753.12,429.6a6.89,6.89,0,0,0-.66-.34,5.86,5.86,0,0,1-.14.9,9,9,0,0,1-2.66,4.79,10.31,10.31,0,0,0-2.66,4.17c-1.33,3.09-1,6.19-1.85,7.26a29.94,29.94,0,0,1-2.76,2.82l-3.89,3.64a22.21,22.21,0,0,0-1.88,5.44c-.07.35-.12.68-.17,1l.12.1C739.41,461.32,762.8,435.51,753.12,429.6Z"/><path class="cls-5" d="M824,471.05s-3.35-29.16-11.71-23.61,5.69,30,9,28S824,471.05,824,471.05Z"/><path class="cls-5" d="M819.4,468.37S831,424.9,844.71,433.26s-19.41,44.89-23.42,42.14A5.55,5.55,0,0,1,819.4,468.37Z"/><path class="cls-6" d="M824,471.05s-3.23-28.13-11.28-23.84a9.54,9.54,0,0,1,.41.89c1.63,4.14,0,1.76,1.75,6.52s5.77,7.66,6,12.8a77.91,77.91,0,0,0,.67,7.81C824.59,473.27,824,471.05,824,471.05Z"/><path class="cls-6" d="M844.71,433.26a10.35,10.35,0,0,0-.93-.48,8.87,8.87,0,0,1-.2,1.27c-1,4.14-2.39,5.15-3.77,6.78s-1.88,1.54-3.76,5.91-1.48,8.76-2.62,10.26a41,41,0,0,1-3.9,4L824,466.16a32,32,0,0,0-2.67,7.69c-.09.49-.17,1-.24,1.4l.18.15C825.3,478.15,858.42,441.62,844.71,433.26Z"/><path class="cls-5" d="M890.56,485.26s-2.36-20.6-8.27-16.68,4,21.17,6.38,19.76S890.56,485.26,890.56,485.26Z"/><path class="cls-5" d="M887.33,483.37s8.19-30.71,17.88-24.8-13.71,31.71-16.54,29.77A3.93,3.93,0,0,1,887.33,483.37Z"/><path class="cls-6" d="M890.56,485.26s-2.28-19.87-8-16.84a5.34,5.34,0,0,1,.29.63c1.15,2.92,0,1.24,1.24,4.61s4.08,5.41,4.26,9a52.49,52.49,0,0,0,.47,5.52C891,486.83,890.56,485.26,890.56,485.26Z"/><path class="cls-6" d="M905.21,458.57a4.52,4.52,0,0,0-.65-.34,5,5,0,0,1-.15.9,9,9,0,0,1-2.65,4.78,10.29,10.29,0,0,0-2.66,4.18c-1.33,3.09-1.05,6.19-1.86,7.25a29,29,0,0,1-2.75,2.82l-3.89,3.65a22,22,0,0,0-1.88,5.44q-.11.51-.18,1l.13.1C891.5,490.28,914.9,464.47,905.21,458.57Z"/><path class="cls-5" d="M765.57,487.27s-2.36-20.6-8.27-16.68,4,21.17,6.38,19.75S765.57,487.27,765.57,487.27Z"/><path class="cls-5" d="M762.34,485.38s8.19-30.72,17.88-24.81-13.71,31.71-16.54,29.77A3.92,3.92,0,0,1,762.34,485.38Z"/><path class="cls-6" d="M765.57,487.27s-2.28-19.87-8-16.85a5.34,5.34,0,0,1,.29.63c1.15,2.93,0,1.24,1.24,4.61s4.08,5.42,4.26,9a52.49,52.49,0,0,0,.47,5.52C766,488.83,765.57,487.27,765.57,487.27Z"/><path class="cls-6" d="M780.22,460.57c-.22-.13-.44-.24-.65-.34a5,5,0,0,1-.15.9,9.06,9.06,0,0,1-2.65,4.79,10.23,10.23,0,0,0-2.66,4.17c-1.33,3.09-1.05,6.19-1.86,7.25a28.31,28.31,0,0,1-2.75,2.83l-3.89,3.64a22.21,22.21,0,0,0-1.88,5.44q-.11.51-.18,1l.13.1C766.51,492.28,789.91,466.48,780.22,460.57Z"/><path class="cls-5" d="M958.61,485.25s2.36-20.6,8.27-16.68-4,21.17-6.38,19.75S958.61,485.25,958.61,485.25Z"/><path class="cls-5" d="M961.83,483.36s-8.19-30.72-17.87-24.81,13.71,31.72,16.54,29.77A3.91,3.91,0,0,0,961.83,483.36Z"/><path class="cls-6" d="M958.61,485.25s2.28-19.87,8-16.85c-.09.19-.19.39-.28.63-1.15,2.93,0,1.24-1.24,4.61s-4.08,5.42-4.26,9a52.49,52.49,0,0,1-.47,5.52C958.17,486.81,958.61,485.25,958.61,485.25Z"/><path class="cls-6" d="M944,458.55c.22-.13.44-.24.65-.34a5.86,5.86,0,0,0,.14.9,9.08,9.08,0,0,0,2.66,4.79,10.23,10.23,0,0,1,2.66,4.17c1.33,3.09,1,6.19,1.85,7.25a29.2,29.2,0,0,0,2.76,2.83l3.89,3.64a22.21,22.21,0,0,1,1.88,5.44c.07.34.12.67.18,1l-.13.1C957.67,490.27,934.27,464.46,944,458.55Z"/><path class="cls-5" d="M1000.69,474.21s-2.36-20.6-8.27-16.68,4,21.17,6.38,19.75S1000.69,474.21,1000.69,474.21Z"/><path class="cls-5" d="M997.47,472.32s8.19-30.71,17.88-24.8-13.71,31.71-16.55,29.76A3.91,3.91,0,0,1,997.47,472.32Z"/><path class="cls-6" d="M1000.69,474.21s-2.28-19.87-8-16.84c.09.19.19.39.28.63,1.16,2.92,0,1.24,1.25,4.61s4.07,5.41,4.25,9a52.49,52.49,0,0,0,.47,5.52C1001.13,475.78,1000.69,474.21,1000.69,474.21Z"/><path class="cls-6" d="M1015.35,447.52a4.14,4.14,0,0,0-.66-.34,5.86,5.86,0,0,1-.14.9,9,9,0,0,1-2.66,4.78,10.29,10.29,0,0,0-2.66,4.18c-1.33,3.09-1.05,6.19-1.85,7.25a29.94,29.94,0,0,1-2.76,2.82l-3.89,3.65a22,22,0,0,0-1.88,5.44c-.07.34-.12.67-.17,1l.12.1C1001.64,479.23,1025,453.42,1015.35,447.52Z"/><path class="cls-12" d="M651.78,299.59c10.14-3.19,21.47,29.88,31.25,37,13.17,9.64,45.76,5.94,47,10.81,3.21,12.17-39,20.72-60.29,5.63C651.72,340.27,639.71,303.39,651.78,299.59Z"/><path class="cls-13" d="M727.58,353.72c-2.33-.91-5-1.38-7.29-.31-5.55,2.59-11.21,2.89-18,.57s-13.07-1.84-23.48-3.65S670.66,345.63,666,338c-3.36-5.48-12.6-14.09-17.54-18.51,3.25,12.12,11.37,26.52,21.34,33.58C687.13,365.34,718.31,362,727.58,353.72Z"/><path class="cls-8" d="M675.73,327.8c-7.87-12.17-16.25-30.63-24-28.21-8.85,2.79-6.8,25.1,3.14,40.92C654.93,340.51,672.22,335.8,675.73,327.8Z"/><path class="cls-14" d="M655.2,318.61c.85-7.71-2.64-3.59-4.34-7.15-1.32-2.78-.28-9,.24-11.59-8.05,3.71-5.85,25.25,3.82,40.64a67.21,67.21,0,0,0,9.71-3.65c-1.73-1.19-4.08-1.45-5.1-1.76C657.6,334.51,654.34,326.31,655.2,318.61Z"/><path class="cls-15" d="M654.66,347.33S668.89,388.66,668.4,411c-.45,21-10.2,70.8-23.31,74.4s-8.91-26.25-8.91-26.25l6.1-49.58s-19.87-53.94-12.07-59.22S654.66,347.33,654.66,347.33Z"/><path class="cls-15" d="M616,348s-4,7.51-4.91,12.47c-1.08,6.3,4.83,42,2.81,55.82-1.2,8.17-6.8,17.59-5.74,32.53,1.62,22.58,6,29.86,13.87,29.86,10.25,0,16.36-58.37,16.36-68.44s-1.81-60.34-1.81-60.34Z"/><path class="cls-8" d="M615.52,349c-.44-.29-2-10-5.23-17.35-2.91-6.54-10.31-21.32,4-31.14,10.84-7.42,31.77-5.88,38.75-1,12.54,8.8.39,44.68,1.58,47.85C654.66,347.33,634.5,351.57,615.52,349Z"/><path class="cls-15" d="M655.39,309.81c-1.07-4-2.2-7.8-3.13-10.85-2.9-1.69-7.52-2.9-12.71-3.38,5.83,6.58,6.63,16.79,6.63,16.79l-17.43,1.37-7.38-16.55a26.18,26.18,0,0,0-7,3.27c-.38.26-.73.52-1.08.78,10,12.06,7.21,40.77,7.88,48.61,17.36,2.06,33.53-2.52,33.53-2.52-.27-.71.13-3.05.77-6.35.26-3.92.68-8.8,1.26-13.93A46.18,46.18,0,0,0,655.39,309.81Z"/><path class="cls-5" d="M631.85,278.89s-1.32-4.36-5.42-3.49c-5.81,1.22-5.79,7.94-4.13,9.88,2.33,2.71,4.16,1.19,5.79-.53A33.88,33.88,0,0,0,631.85,278.89Z"/><path class="cls-14" d="M624.51,282.93s2.73-6.59,5.32-8.09c3.53-2,5.78.93,5.51,2.71s-3.27,5.84-4.33,6.21S624.51,282.93,624.51,282.93Z"/><path class="cls-12" d="M625.22,286.74,625,297.85c.43,1.42,9.27,2.94,10.94.44.48-.73-.12-2-1.2-3.29l-6.18-6.84Z"/><path class="cls-8" d="M629.79,289.53c-1.65.22-3.9.49-3.9.49a7.06,7.06,0,0,0,3.68,3.61,6.74,6.74,0,0,0,4.25.37Z"/><path class="cls-8" d="M632.5,280.93s.93-1.43-1.11-3.12-8,5.52-7.94,7.69a7.6,7.6,0,0,0,1.69,4.87S633,284.64,632.5,280.93Z"/><path class="cls-12" d="M626.19,282.79l-.46,6.15a3.78,3.78,0,0,0,3.68,3.76,10.5,10.5,0,0,0,4.51-.93c1.58-.6,2-2.36,1.5-4.5a20.53,20.53,0,0,0-2.92-6.34C630.61,278.16,626.79,278.8,626.19,282.79Z"/><path class="cls-8" d="M625.73,288.94l.46-6.15a6,6,0,0,1,.36-1.31c.19,1.16.79,3.63,1.2,4,1.06.87.76-.1,2.66-.63a12.23,12.23,0,0,1,4.18,0,16.39,16.39,0,0,1,.83,2.48c.53,2.14.08,3.9-1.5,4.5a10.5,10.5,0,0,1-4.51.93A3.78,3.78,0,0,1,625.73,288.94Z"/><path class="cls-10" d="M630.63,286.1a10.21,10.21,0,0,0,3.27-.7s.36,1.23-.29,1.84S631.44,287.47,630.63,286.1Z"/><path class="cls-14" d="M633.9,289.53c-1.91.08-2.61,3.18-6.49,1.37a4.75,4.75,0,0,1-1.67-2.09v.13a3.78,3.78,0,0,0,3.68,3.76,10.5,10.5,0,0,0,4.51-.93,2.61,2.61,0,0,0,1.66-2.22A8,8,0,0,1,633.9,289.53Z"/><path class="cls-12" d="M626.91,285.06a6,6,0,0,1-.37-1.08c-.17-.71-.6-1.72-1.52-.94-1.33,1.12-.51,4.56,1.31,4.41C627.67,287.34,627.34,285.92,626.91,285.06Z"/><path class="cls-12" d="M610.75,303.44c-5-.66-38.65,20.94-39.32,45.34-.61,22.05,41.74,37.07,45.74,30.67s-25.12-25-23.74-34.17c1.33-8.81,20-18.06,22.25-25.8C618.51,309.77,615.11,304,610.75,303.44Z"/><path class="cls-12" d="M613.85,375.84s2.23-4.1,4.31-4.43,6.86,1,6.19,1.5-5,.09-5,.09,4.55,1.7,5.38,2.85-1,2.73-2.19,3-6.67,2.64-8.72,2S613.85,375.84,613.85,375.84Z"/><path class="cls-8" d="M584.09,322.15c10.33-11.46,23.67-19.1,26.66-18.71,4.36.58,7.76,6.33,4.93,16-1.54,5.28-8.61,14.37-14.71,20.43C596.66,338.48,588,331.67,584.09,322.15Z"/><path class="cls-16" d="M638.44,490l0,0c-.19-2.17-1.09-5.55-1.51-9.8-.24-2.41-3.83-9.6-.77-11.4,0,0,22.14-5.11,22.16-2.12,0,6-8.24,21.61-8.2,22.2,1.2.2,11.6,5.83,11.74,7,.25,2-20.11,1.86-23.49-.06C636.65,494.83,636.79,492.38,638.44,490Z"/><path class="cls-17" d="M638.44,490l0,0c-.19-2.17-1.09-5.55-1.51-9.8-.24-2.41-3.83-9.6-.77-11.4,0,0,2.52-.58,5.87-1.24.29,5.4.71,13.76.71,17a121.23,121.23,0,0,0,1.27,12.4,17.88,17.88,0,0,1-5.64-1.15C636.65,494.83,636.79,492.38,638.44,490Z"/><path class="cls-16" d="M612.83,490l0,0c-.19-2.17-1.08-5.55-1.5-9.8-.24-2.41-3.83-9.6-.78-11.4,0,0,22.15-5.11,22.16-2.12,0,6-8.24,21.61-8.19,22.2,1.2.2,11.6,5.83,11.74,7,.24,2-20.11,1.86-23.49-.06C611,494.83,611.19,492.38,612.83,490Z"/><path class="cls-17" d="M612.83,490l0,0c-.19-2.17-1.08-5.55-1.5-9.8-.24-2.41-3.83-9.6-.78-11.4,0,0,2.53-.58,5.87-1.24.3,5.4.72,13.76.71,17a121.78,121.78,0,0,0,1.28,12.4,17.81,17.81,0,0,1-5.64-1.15C611,494.83,611.19,492.38,612.83,490Z"/><path class="cls-18" d="M632.12,328.56,649.6,328s3.22,10-5.21,11.6S630.55,335.89,632.12,328.56Z"/><path class="cls-12" d="M729.7,344.56s7.13.86,7.78,1.83,2.37,2.28.75,3.68-5.29,4-7.23,3.78-6.58-1.62-5.88-3.78S726.58,345.1,729.7,344.56Z"/><path class="cls-8" d="M583.62,464c-15.94,0-30.88-1.83-41.82-6-26-9.93-38.5-6.39-38.62-6.35a2.14,2.14,0,0,1-1.26-4.08c.55-.17,13.82-4.1,41.4,6.45,27.33,10.44,80.6,5.66,110-5.6,17.37-6.66,43.74-49.25,59.5-74.7,7.69-12.41,13.24-21.37,16.05-23.86,9.14-8.1,18.93-6.28,19.34-6.2a2.13,2.13,0,0,1-.82,4.19c-.34-.07-8.19-1.44-15.69,5.2-2.34,2.08-8.32,11.74-15.25,22.92-17.08,27.58-42.89,69.26-61.6,76.43C636.4,459.48,608.76,464,583.62,464Z"/><path class="cls-12" d="M725.17,347.33s3.34-5.26,7-5.15,3.34,2.71,5.29,3.25,1.62,1.48.65,1.92-4-2.57-5-1.38-3.6,5.29-6.07,4.53A2.69,2.69,0,0,1,725.17,347.33Z"/><path class="cls-12" d="M729.81,354.28c-.63-.89,1.73-2.91,3.46-2.7s2.91-4.53,6.26-3S731.25,356.31,729.81,354.28Z"/><path class="cls-8" d="M742.6,343.68v4.15a1,1,0,0,0,1,1l18.06-1.56a.89.89,0,0,0,.81-.89v-1.52a.88.88,0,0,0-.82-.88l-18.07-1.21A1,1,0,0,0,742.6,343.68Z"/><path class="cls-8" d="M493.75,479.76a5.33,5.33,0,0,1-5.33-5.33V450.16a5.33,5.33,0,0,1,5.33-5.33h5.87a5.33,5.33,0,0,1,0,10.66h-.53v18.94A5.34,5.34,0,0,1,493.75,479.76Z"/><path class="cls-19" d="M762.51,344.35s20.91-2.85,36.12,9.51c23.29,18.93,55.6,93.4,53.58,108.69S842,475.61,836,473.11s-9.79-20.44-9.79-20.44-2.81,20.44-14.23,20.44c-4.24,0-11.75-20.44-11.75-20.44s-3.65,13.09-9.51,6.06,4.54-52.73-2.57-77.79-25.62-35.06-25.62-35.06Z"/><path class="cls-13" d="M181.11,310.75l-10.6,16.45s-36,24.68-29.17,31.65S191.87,326.07,191.9,322c0-2.78-4.27-8.33-7-11.53A2.38,2.38,0,0,0,181.11,310.75Z"/><path class="cls-5" d="M154.65,386.75l-3.29-10.3a6.47,6.47,0,0,0-6.13-4.85,50.64,50.64,0,0,0-9.51,1,6.78,6.78,0,0,0-5.27,5.86l.22,9.48a1.54,1.54,0,0,1-2.54,1.21c-5.89-5-16.74-13.91-20.6-14.79-5.18-1.17.23,3.32,1.69,4.73,1.15,1.12,11.21,16.49,18.64,22a13.45,13.45,0,0,1,4.72,6c.55,1.51,1.81,2.85,4.93,2.85l17.55-2.5C160.67,406.92,155.33,389.37,154.65,386.75Z"/><path class="cls-6" d="M146.37,374.35c.09.87-2.48,1.84-5.73,2.18s-6-.1-6-1,2.48-1.84,5.73-2.18S146.28,373.48,146.37,374.35Z"/><path class="cls-5" d="M148.42,375.63h0a1,1,0,0,1-1.11-1c0-.11,0-.25,0-.41-.09-1.72-.38-6.94-3.2-9.35a6,6,0,0,0-4.73-1.26,5.11,5.11,0,0,0-3.77,2c-2.49,3.31-1.43,9.42-1.42,9.48a1,1,0,0,1-.84,1.21,1.07,1.07,0,0,1-1.22-.84c-.05-.29-1.22-7.07,1.81-11.1a7.15,7.15,0,0,1,5.23-2.84,8,8,0,0,1,6.3,1.74c3.5,3,3.81,8.68,3.93,10.83,0,.15,0,.28,0,.38A1,1,0,0,1,148.42,375.63Z"/><path class="cls-16" d="M193.67,281.24l.94-.6a2.2,2.2,0,0,1,1.69-.31,11,11,0,0,1,5.06,2.8,2.16,2.16,0,0,1,.69,1.6,12,12,0,0,0,.25,2.9c.23.57-5.56-.37-8.78-2.72A2.23,2.23,0,0,1,193.67,281.24Z"/><path class="cls-16" d="M178.29,286.24s-.43-2.09,2.14-4.05,7.48-2.6,15.59,1,15.49,9.78,14.63,13.71c-.43,2-.62,3.53-3.39,3.92C205.49,301.07,178.29,286.24,178.29,286.24Z"/><path class="cls-20" d="M209.86,297.09c-1.47-5.7-14-14.06-26.08-14.59-7.27-.32-5.16,5.22-5.16,5.22s1.14,5,11.42,9.87C202,303.2,211.09,301.89,209.86,297.09Z"/><path class="cls-8" d="M197,297.6s8.34,4.28,10.27,10.08-9.95,6.82-14.06,6.27S193.22,300,197,297.6Z"/><path class="cls-15" d="M221.83,389.31c1-9.88,3.14-22.52-1.33-31.86-3.5-8.12-10.74-14-14.74-21.82a18.71,18.71,0,0,1-2-11.33c.41-2.9,2.47-6.59,2.71-9.53.56-6.87-4.11-12.78-11.95-12-5.93.6-14.85,5.4-15.38,11.9-.57,7.08,2.1,13.9,1.23,21.07-.53,4.35-2.86,8-4.48,12a107,107,0,0,0-4.6,15.38A268.34,268.34,0,0,0,166,394.4q-.54,4.67-1,9.35c-1.7,17.76.77,82.29,10.77,81.54,11.71-.87,9-38.4,7.82-58.48-.41-6.94,3-12.84,4.3-19.48,1,.06,3.67-31.62,6.92-31.59s3.27,45.62,3.27,45.62c-.38,6.71,9.3,63.93,14.6,63.93,16.4,0,7.72-50.13,4.64-58.28C216,420.05,221.33,394.28,221.83,389.31Z"/><path class="cls-8" d="M194.41,375.92c-2.52,1.1-15.24,7.18-15.16,17.35.09,11.27-4,15.22-4.8,28.75s-2.65,39.1.93,52.07A66.64,66.64,0,0,1,177.2,485c10.08-3.7,7.56-38.94,6.42-58.18-.41-6.94,3-12.84,4.3-19.48C188.86,407.38,191.35,378.49,194.41,375.92Z"/><path class="cls-8" d="M191.35,287.8s-1.29-2.88-3.67-1.63-.2,5.59-1.23,6.79,1.1,2.75,2.61,2.79,5.33,4.9,6.73,4.65,4.37-2.87,3.2-7.46C198,289.13,195,287.8,191.35,287.8Z"/><path class="cls-16" d="M184.21,489.77l0,0c.17-1.92,1-4.9,1.33-8.65.21-2.12,3.38-16.21.69-17.8,0,0-19.54-4.51-19.56-1.87,0,5.31,7.27,26.8,7.23,27.33-1.05.17-10.23,5.14-10.35,6.19-.22,1.73,17.74,1.63,20.72-.06C185.79,494.06,185.66,491.9,184.21,489.77Z"/><path class="cls-17" d="M184.21,489.77l0,0c.17-1.92,1-4.9,1.33-8.65.21-2.12,3.38-16.21.69-17.8,0,0-2.23-.51-5.19-1.09-.25,4.76-.62,19.88-.62,22.75A108,108,0,0,1,179.25,496a15.75,15.75,0,0,0,5-1C185.79,494.06,185.66,491.9,184.21,489.77Z"/><path class="cls-11" d="M193.26,312.8c.93-.9,3.93-6.8,5.38-9.78a11,11,0,0,0-4.12-.24,19.15,19.15,0,0,0-4.61,1.12c-1.69,1.94-4.82,5.76-4.75,7.4C185.26,313.55,192,314,193.26,312.8Z"/><path class="cls-12" d="M195.47,295.57l1,7.76c.16,1.27-2.61,4.92-4.82,3.54-.64-.41-.07-2.26.34-3.65l.75-6.84Z"/><path class="cls-8" d="M192.17,301.42c2.58-1,3.1-4.37,3.1-4.37l-2.65.31Z"/><path class="cls-12" d="M194.27,291.5l1.19,2.8a4.49,4.49,0,0,1-2.16,5.86,3.85,3.85,0,0,1-5.37-2.4c-.88-2.31.3-4.8.64-6C189.35,288.92,192.67,288.39,194.27,291.5Z"/><path class="cls-12" d="M195.33,294.58a3.93,3.93,0,0,0,.23-.76c.1-.5.36-1.22,1-.7,1,.74.28,3.36-1,3.31C194.66,296.4,195.06,295.2,195.33,294.58Z"/><path class="cls-10" d="M191.08,296.48a7.81,7.81,0,0,1-2.65-.23,1.62,1.62,0,0,0,.48,1.12C189.47,297.8,190.53,297.71,191.08,296.48Z"/><path class="cls-13" d="M192.81,299.28a6,6,0,0,1-3.28-.08,6.05,6.05,0,0,1-1.64-1.57.65.65,0,0,0,0,.13,3.85,3.85,0,0,0,5.37,2.4,4.3,4.3,0,0,0,2.46-3.24A5.57,5.57,0,0,1,192.81,299.28Z"/><path class="cls-8" d="M217.35,427c-1.36-7,4-32.73,4.48-37.7,1-9.88,3.14-22.52-1.33-31.86-3.5-8.12-10.74-14-14.74-21.82a18.71,18.71,0,0,1-2-11.33c.41-2.9,2.47-6.59,2.71-9.53a11.81,11.81,0,0,0-2-7.78c-1.57,6-5.38,21.88-3.73,29.55,2.06,9.55,6.2,26.3,10.71,32.39s-1.51,12.13-2.82,21.43-2.3,7,2,14.93-7.68,10.53-2.42,24.63,10.72,14.33,7.9,25.49c-1.6,6.31-6.4,14.33-8,21,1.63,5.35,3.2,8.84,4.51,8.84C229.11,485.29,220.43,435.16,217.35,427Z"/><path class="cls-8" d="M180.49,334.44c0,.43-.07.87-.12,1.31-.52,4.29-2.79,7.92-4.4,11.85,5.06-2.58,13.9-8.19,14.37-16.08C190.66,326.2,185.72,329.53,180.49,334.44Z"/><path class="cls-21" d="M205.76,335.63a18.71,18.71,0,0,1-2-11.33c.41-2.9,2.47-6.59,2.71-9.53a11.14,11.14,0,0,0-4.25-10.11c-1.35,2.31-4.75,8.54-5.18,13.55-.53,6.26-2.88,15,2.87,17a29.5,29.5,0,0,0,6.34,1.29C206.09,336.24,205.92,335.94,205.76,335.63Z"/><path class="cls-12" d="M201.84,307.68c-10-.31-29.14,23.56-29.14,23.56s-36.22,20.42-31,28.51,52.52-26.26,61.54-41.23C206.25,313.6,205.6,307.8,201.84,307.68Z"/><path class="cls-16" d="M220.15,490.46l0,0c.17-1.92,1-4.9,1.33-8.65.21-2.13,3.38-16.21.68-17.8,0,0-19.54-4.51-19.55-1.87,0,5.31,7.27,26.8,7.23,27.33-1.05.17-10.23,5.14-10.36,6.18-.21,1.74,17.75,1.64,20.73-.05C221.73,494.75,221.6,492.58,220.15,490.46Z"/><path class="cls-17" d="M220.15,490.46l0,0c.17-1.92,1-4.9,1.33-8.65.21-2.13,3.38-16.21.68-17.8,0,0-2.23-.51-5.18-1.09-.25,4.76-.62,19.87-.62,22.75a108.57,108.57,0,0,1-1.13,10.94,15.75,15.75,0,0,0,5-1C221.73,494.75,221.6,492.58,220.15,490.46Z"/><path class="cls-13" d="M191.08,325.73c-.46,2.5-11.24,9.39-11.24,9.39l-19.55,13.54s-16.71,5.64-18.19,9.65a4.74,4.74,0,0,0-.28,1.54c5.62,7.67,52.48-26.43,61.46-41.33,2-3.28,2.34-6.95,1.25-9.07a14.53,14.53,0,0,1-3.21,5.63C198.39,318,191.53,323.22,191.08,325.73Z"/><path class="cls-12" d="M145.48,359.82s-.09,4.18-3.06,6.28c-2.64,1.87-6.15.35-6.49-.06-1.11-1.33,3.42-2.64,3.79-4.26s.07-4.44,2.14-4.37S146,358,145.48,359.82Z"/><path class="cls-12" d="M141.13,357.35a21.87,21.87,0,0,0-4.07,2.4c-1.2,1-2.41,2.41-1.73,3.2.24.28,1.92-.41,2.58-1s2.38.42,3.31-.64S142.64,356.62,141.13,357.35Z"/><polygon class="cls-8" points="108.38 374.62 104.15 369.71 102.64 378.35 107.88 377.83 108.38 374.62"/><path class="cls-15" d="M104.74,374.16c-.36,2.43-1.37,4.29-2.26,4.16s-1.32-2.21-1-4.64,1.37-4.3,2.26-4.17S105.1,371.72,104.74,374.16Z"/><path class="cls-6" d="M154.65,386.75l-3.29-10.3a6.47,6.47,0,0,0-6.13-4.85c-.8,0-1.68,0-2.6.08,1.83.14,4,.5,4.53,1.41,1.07,1.66,1.82,2.51-.43,3.73s-3.39.19-3.95,2,3.19.75,4.51,3.2-7,2.72-3.31,6.29,5.19,1.72,4.72,7.86a54.51,54.51,0,0,0,.22,12.22l6.14-.87C160.67,406.92,155.33,389.37,154.65,386.75Z"/><path class="cls-6" d="M128.21,397.68c-.75-2.72-2.12-2.07-6-4.37s-3-4.09-3.76-6.53-1.78-1.93-4-2.54-2.44-3.47-3.66-5.21a2,2,0,0,0-2.48-.86l1,.9c1.15,1.12,11.21,16.49,18.64,22a14.38,14.38,0,0,1,3.71,4c.69-.27,1.11-.67,1.06-1.25C132.39,401.3,129,400.41,128.21,397.68Z"/><path class="cls-22" d="M100.12,372.79s-19.74,1.51-18.85,8.8,15.11-7.7,15.29-5.67-4,2.92-3.7,5S99.14,378.84,100.12,372.79Z"/><path class="cls-22" d="M87.85,387.37s-9.51,4.27-8.53,10S87.85,387.37,87.85,387.37Z"/><path class="cls-22" d="M90.07,394s-8.6,10.79-2.08,13.8S90.07,394,90.07,394Z"/><path class="cls-12" d="M1052.67,355.72S1028.18,384,1018,402.33c-8.15,14.7-17.42,45.76-10.14,51.74s18.31-10.51,28.86-44.58c3.63-11.74,47.69-39.45,41.34-55.9C1075.45,346.79,1052.67,355.72,1052.67,355.72Z"/><path class="cls-13" d="M1076.58,351.91a8.63,8.63,0,0,0-3.93-.86c-3.26,5.63-10.13,16.82-15.84,21.56-7.78,6.47-19.63,14-22,21.93s-13.18,16.87-15.06,26.92c-1.76,9.39-5.77,29.55-6.39,33.28,6.78-3,15.24-18.86,23.41-45.25,2.8-9.07,29.71-27.65,38.9-43.22C1076.61,360.69,1077.11,355.47,1076.58,351.91Z"/><path class="cls-8" d="M1007.41,425.76c-4.66,16.64-7.37,34-8.11,34.39-1.08.53-14.8-.82-15.68.28-1.46,1.83,19.25,14.42,23.86,14.6,2.41.09,3.24-5.36,4.21-8.67.21-.73,9.14-15.07,16.63-29.88-1.43-4.41-6.8-11.43-10.21-13.34C1014.34,421,1009.22,422.34,1007.41,425.76Z"/><path class="cls-8" d="M1045.27,398.47l-14.5-11.18s1.1,15.79,6,22C1037.75,406.49,1041,402.75,1045.27,398.47Z"/><path class="cls-23" d="M1078.08,353.59c-3.38-6.46-25.41,2.13-25.41,2.13s-17.16,15.06-24.6,31.12c4.44,1.16,12.1,20.85,22.94,22.3C1059.27,392.23,1080.39,358,1078.08,353.59Z"/><path class="cls-21" d="M1072.15,356s-4.48,16.14-11.23,21.07-10,7.67-14.34,14.64c-3.28,5.28-6.61,4-8.08,8,3.55,4.6,7.72,8.8,12.51,9.44,5.89-12.05,18.3-32.89,24.11-45.47Z"/><path class="cls-12" d="M1091.08,419.33s13.06-64-1.95-70.84-26.4,7.28-26.4,7.28,6.29,54.81,9.71,72.86c2.49,13.14,12.64,51.19,12,52.11s13.51,2.52,12.8-.58c-.2-.85,1-24.55-.81-42.28C1095.57,429.25,1091.08,419.33,1091.08,419.33Z"/><path class="cls-13" d="M1096.43,437.88c-.86-8.63-5.35-18.55-5.35-18.55s10.1-49.53,2.32-66.09c-3.81,10.52-14.13,40.24-13.12,49.92,1.23,11.83-5.36,7.77,0,22.46s7.29,21,7.84,32.58c.35,7.34.85,16.88,2.49,23.75,3.45.15,7-.2,6.63-1.79C1097,479.31,1098.19,455.61,1096.43,437.88Z"/><path class="cls-8" d="M1075.12,403.85s6.6,6.32,17.81,5.06c.49-3,1-6.48,1.49-10.24Z"/><path class="cls-23" d="M1095.93,401.19c2.8-19.48,3.63-46.57-5.7-50.84-15-6.86-27.5,7.44-27.5,7.44l4.41,46C1075.39,407.52,1087,404.89,1095.93,401.19Z"/><path class="cls-21" d="M1090.23,350.35a19.82,19.82,0,0,0-10.86-1.7,101.07,101.07,0,0,0,2.23,11.45c2,6.75,1.16,31.66,0,34.86-1,2.74-10.5,2.77-14,9,8.22,3.43,19.59.83,28.35-2.8C1098.73,381.71,1099.56,354.62,1090.23,350.35Z"/><path class="cls-12" d="M1057,364.36c-2.07-12.94-13.47-8.18-15-4.26-4.14,10.38,3.68,32.2,7.92,45.79,1.69,5.43,3.52,9,5.32,8.45,3.1-1,4.86-5,5.77-10.42C1063.26,390.44,1057.71,368.71,1057,364.36Z"/><path class="cls-8" d="M1044.49,283s-.9-2.52-5.26.72c-1.73,1.28-2.86,6.42-4.55,6.51,0,0,1.44,4.14,8.09,3.57,5.09-.43,7.48.43,9.5-.81s.62-7.18-1.13-9.27C1050,282.31,1046.07,280.33,1044.49,283Z"/><path class="cls-14" d="M1051.14,283.74a6.65,6.65,0,0,0-2.78-1.78,8.77,8.77,0,0,1-.22,3.21c-.64,2.29-5.27,6.74-9.82,8.21a10.73,10.73,0,0,0,4.45.44c5.09-.43,7.48.43,9.5-.81S1052.89,285.83,1051.14,283.74Z"/><path class="cls-15" d="M1093.74,352.77c4-17.75-3.55-56.72-22.21-58.82-12-1.36-38.72,15.21-31.26,32.24,2,4.46,8.64,6.85,11.35,11.82,1.66,3-1.31,12.05-.94,15.87.67,7.06,11,9.16,18,8.07C1086.66,359.16,1092.16,359.88,1093.74,352.77Z"/><path class="cls-12" d="M1049.69,290.47l7.52,7.41c.67,1.3-4.49,8.42-7.37,7.82-.84-.18-1.3-1.51-1.42-3.14l-.36-9Z"/><path class="cls-8" d="M1048.14,295.35c1.3-1,3.06-2.34,3.06-2.34a6.9,6.9,0,0,1-.1,5.06,6.56,6.56,0,0,1-2.73,3.17Z"/><path class="cls-12" d="M1046,288.16l4.55,4a3.69,3.69,0,0,1,0,5.15,10.2,10.2,0,0,1-3.79,2.45c-1.52.66-3-.27-4.14-2.12a20,20,0,0,1-2.3-6.45C1039.76,287.94,1042.88,285.77,1046,288.16Z"/><path class="cls-12" d="M1047.43,290.65a5.2,5.2,0,0,0-.48-1c-.36-.62-.76-1.61.42-1.7,1.71-.13,3.45,3.25,2.08,4.39C1048.43,293.18,1047.72,291.55,1047.43,290.65Z"/><path class="cls-10" d="M1044.93,293.66a9.92,9.92,0,0,1-2.77,1.75s.59,1.11,1.46,1.1S1045.3,295.18,1044.93,293.66Z"/><path class="cls-13" d="M1045.25,298.17c1.4-1.26,4,.43,5.49-3.5a4.71,4.71,0,0,0-.26-2.6l.1.08a3.69,3.69,0,0,1,0,5.15,10.2,10.2,0,0,1-3.79,2.45,2.58,2.58,0,0,1-2.69-.42C1044.4,299.21,1044.82,298.55,1045.25,298.17Z"/><path class="cls-8" d="M1081.6,360.1c8-1.2,11-2.33,12.14-7.33,3.19-14.29-1.06-42.32-12.57-53.81-2.43,1.37-4.94,3-4.94,3s-.24,18.05,4,27.14,2,20.48,1.38,30.06Z"/><path class="cls-15" d="M1005.94,474.48l5,4.19,104.16-125.58a3.29,3.29,0,0,0-.41-4.61h0a3.29,3.29,0,0,0-4.64.42Z"/><path class="cls-12" d="M1052,411.55s-1.26,7.25-.69,9-1,4.66,0,5,3.22-3.33,3.44-5.76,2.39-4,2.25-6.52S1052.29,410,1052,411.55Z"/><path class="cls-12" d="M1058.31,424.91a3.7,3.7,0,0,1-2.3.49c-.83-.11-1.66-.53-1.23-1.84,1.3-4,4.63-4.26,4.93-6s.24-3.35,1.88-3.25S1063.45,422,1058.31,424.91Z"/><path class="cls-14" d="M1020.13,424.64c-.69,2.27-1.53,4.91-2.29,6.86-1.66,4.22-3.49,2.76-3.31,9.54s-6.24,17.25-6.24,17.25-5.55,8.94-7.75,14.12c3,1.52,5.63,2.57,6.94,2.62,2.41.09,3.24-5.36,4.21-8.67.21-.73,9.14-15.07,16.63-29.88C1027.15,432.87,1023.34,427.52,1020.13,424.64Z"/><path class="cls-12" d="M1070.84,299.89a4.62,4.62,0,0,1,4.49-5.89c10.86.13,34.84,1.89,49.42,14.14,8.71,7.32-1.17,47.85-16.83,43.05-5.93-1.82,2.59-34.47,2.59-34.47s-27.88-1.17-35.31-8.47C1073,306.13,1071.67,302.79,1070.84,299.89Z"/><path class="cls-13" d="M1124.75,308.14c-10.88-9.15-27-12.45-39-13.58.42.93,2,2.35,7.27,3.54,8.71,2,19.07,1.59,21.21,6.26s4.93,9.59,6.32,13,.25,5.81-1,9.47c-1.13,3.27-6.85,15.78-13.65,15.56-.26,4.65.18,8.23,2,8.8C1123.58,356,1133.46,315.46,1124.75,308.14Z"/><path class="cls-8" d="M1074.65,450c4.06,16.8,10.19,33.29,9.72,34-.68,1-13.3,6.52-13.54,7.91-.38,2.31,23.84,3.18,28,1.08,2.15-1.1.2-6.26-.57-9.62-.17-.74.61-17.62-.09-34.19-3.41-3.15-11.52-6.66-15.43-6.66C1078.37,442.44,1074.55,446.09,1074.65,450Z"/><path class="cls-12" d="M1105.64,348.09c-2.07,2.15-5.16,6.05-4.51,9.49a.83.83,0,0,0,1.45.38l1.85-2.23s2.63,1.37,1.07,7.9a1.51,1.51,0,0,0,1.6,1.87,4.62,4.62,0,0,0,3.27-2c2.34-3.14,5.09-12.14,3-15a5,5,0,0,0-7.71-.4Z"/><path class="cls-24" d="M1026.49,479.66c-4.58-2.29-12.71-6.48-15.73-8.78-.38-.3-.85-.71-1.37-1.19h0c-2.89,1.86-16.79-1.76-16.8-1.76-9.48,9.15-21.67,25-6,34.86,18.86,11.9,35.59-9.87,41.15-18.36A3.31,3.31,0,0,0,1026.49,479.66Z"/><path class="cls-15" d="M1007.43,475.46s-17.07,16.7-16.88,22.2S1005.41,486.29,1007.43,475.46Z"/><path class="cls-9" d="M974.71,507.83h46a2.62,2.62,0,0,0,1.38-4.85c-5.21-3.23-11.79-6.73-14.58-5.8-4.95,1.66-7.34,3.31-9.72,2.94s-5.88-4.61-11.93-4.77S973.61,503.42,974.71,507.83Z"/><path class="cls-12" d="M1040.86,365.51s-6-43.46-1.32-49.46,17,33.85,16.75,45.38S1040.86,365.51,1040.86,365.51Z"/><path class="cls-14" d="M1098.13,449.1c-2.57-2.38-7.83-5-11.94-6.08-.69,2.07-.73,5.22,1.93,9.51,5.23,8.42,3.85,7.3,2.75,18-.71,6.95,0,17.13.52,23.45,3.41-.15,6.22-.51,7.4-1.11,2.15-1.1.2-6.26-.57-9.62C1098.05,482.55,1098.83,465.67,1098.13,449.1Z"/><path class="cls-13" d="M1047.89,367.72c4,.6,8.28-.21,8.4-6.29.2-10-9-41.25-14.51-45.51-.26,3.6-.4,11.26,2.31,16.7,3.66,7.33,6.89,10,6.65,19C1050.58,357.62,1048,362.69,1047.89,367.72Z"/><path class="cls-13" d="M1050.67,356c-1.5,4.14-2.69,8.43-2.78,11.7-.23,9,6.21,17.27,6.77,25.81s-1.11,14.8,2.34,19.78c2-1.74,3.26-5.14,4-9.39,2.28-13.48-3.27-35.21-4-39.56C1056.12,358.78,1053.49,356.5,1050.67,356Z"/><path class="cls-6" d="M392.72,488.5a4.63,4.63,0,0,0-4.11-4.28,10.46,10.46,0,0,0-5.64.71c-4.16,1.85-11.22,1.39-8.21,5s13.56,3.93,16.61,1.5A3.36,3.36,0,0,0,392.72,488.5Z"/><path class="cls-6" d="M388.82,472.73s-5.32-.93-5.44,2.31,2.55,5.43,7.17,4.51,8.56-3.35,7.75-5S388.82,472.73,388.82,472.73Z"/><path class="cls-6" d="M408.53,471.27s-5.55-4,1-4.7c3.38-.38,7.53.63,10.77,1.69a3.5,3.5,0,0,1,1.1,6.05c-2.29,1.87-5.23,3.8-8.05,4.35C407.49,479.82,408.53,471.27,408.53,471.27Z"/><path class="cls-6" d="M398.4,488.53a8.1,8.1,0,0,0,6.68,3c4.55-.09,7.22-1.59,6.23-2.51S401.75,489.23,398.4,488.53Z"/><path class="cls-13" d="M294.81,315.06l9.35-12.86s13,14.88,5.22,48.9c-.58,2.56-6.75,5.9-12.13-3C285.75,337.64,294.81,315.06,294.81,315.06Z"/><path class="cls-8" d="M304.36,307.57s2.52,9.8-.55,17c-2.52,5.91-9.3,7-9.3,7Z"/><path class="cls-25" d="M256.74,411.8c.08-4.47-5.89-49.33-1.75-59.68,5.77-14.45,14.11-23.76,15.76-45.82.73-8.88,11.86-12.05,14-12.29,6.06-.68,13.93,1,17.44,4.87,7.82,8.53-.06,20.44-1.35,24.43s-4.91,8.94-.18,22.3c2,5.57,6.28,56.33,5.69,63.64-2.34,28.84-14,66.24-20.31,66.24-10,0-3.53-30.79-2.2-44,.41-4.08,2.22-14.47,2.32-19.73.06-3.2-2.35-40.35-4-40.41,0,5.31-6.62,38.49-7.07,44-2.33,28.84-3.45,58.72-10.11,59.35-10.24,1-12-30.05-10.63-43.22C254.83,427.45,256.63,417.06,256.74,411.8Z"/><path class="cls-12" d="M282.26,294.62l.72-.22Z"/><path class="cls-12" d="M283.07,294.38l.62-.16Z"/><path class="cls-12" d="M283.76,294.2c.39-.09.73-.15,1-.18C284.49,294.05,284.16,294.11,283.76,294.2Z"/><path class="cls-12" d="M264.64,331.53a2,2,0,0,1-.11.26h0Z"/><path class="cls-15" d="M264.64,331.53c.18-.4.35-.81.52-1.22Z"/><path class="cls-15" d="M283,294.4l.09,0Z"/><polygon class="cls-15" points="282.26 294.62 282.26 294.62 282.26 294.62 282.26 294.62"/><path class="cls-15" d="M299.46,296.73l.07,0Z"/><path class="cls-15" d="M283.69,294.22l.07,0Z"/><path class="cls-15" d="M304.38,375.5c-1.23-13.85-2.74-27.19-3.69-29.89-2.86-8.07-2.67-13.06-1.79-16.63a36,36,0,0,1-.11-8.54q.63-5.08,1.31-10.18a99.41,99.41,0,0,0,.49-12.8,11.29,11.29,0,0,0-1.06-.68l-.07,0c-.37-.21-.75-.41-1.15-.59a28.21,28.21,0,0,1,.44,9c-.28,1.89-1.29,1.84-3,1.89a22.67,22.67,0,0,1-4.73-.13c-2.77-.53-2.56-3.53-3.09-5.77s-1.28-5.39-3.17-7.09h0c-.23,0-.57.09-1,.18l-.07,0-.62.16-.09,0-.72.22h0c2.79,2.14,2.66,6.38,3.19,9.68,2.64,16.4-20.18,25.75-20.18,25.75l-.11.26c-.17.41-.34.82-.52,1.22l-.1.26h0c-3,7-6.62,13-9.54,20.33-1.76,4.39-1.69,15-1,26.12.88,15.05,2.84,31,2.79,33.56-.11,5.26-1.91,15.65-2.32,19.73-1.33,13.17.39,44.2,10.63,43.22,6.66-.63,7.78-30.51,10.11-59.35.32-3.9,3.74-21.61,5.71-33.54a90.4,90.4,0,0,0,1.36-10.47c.56,0,1.21,4.48,1.83,10.43,1.15,11.26,2.17,27.89,2.13,30-.1,5.26-1.91,15.65-2.32,19.73-1.33,13.17-7.78,44,2.2,44,6.33,0,18-37.4,20.31-66.24C306.68,405.48,305.69,390.21,304.38,375.5Z"/><path class="cls-8" d="M265.05,474.75c6.66-.63,7.78-30.51,10.11-59.35.32-3.9,3.74-21.61,5.71-33.54a90.4,90.4,0,0,0,1.36-10.47c.47,0,1,3.11,1.51,7.57.41-4.23.5-8.85-.76-10.38-2.52-3.08-12.72-1.16-12.52,9.22s-6.53,39-7.11,53-2.11,16.33-.58,22.86c1.26,5.33-.64,14.61.47,20.88A4.74,4.74,0,0,0,265.05,474.75Z"/><path class="cls-8" d="M302.45,356.54c-.91,10-4,45.9-3.25,59.23.91,15.57-7.85,11.47-9.21,27.66-.79,9.47-5.44,19.67-7.5,27.2a3.81,3.81,0,0,0,3.53,4.86h.05c6.33,0,18-37.4,20.31-66.24C306.82,403.73,304.47,373.44,302.45,356.54Z"/><path class="cls-8" d="M279.62,309.61c-.79-3.25-5.67-.17-9.56,2.92a74.36,74.36,0,0,1-2.42,10.89C271,321.19,280.75,314.2,279.62,309.61Z"/><path class="cls-8" d="M297.59,274.59s.32-3.11-3.84-4-6.37.5-6.45,2.52-.2,7.89,5.53,7.46C297.5,280.22,297.59,274.59,297.59,274.59Z"/><path class="cls-14" d="M293.75,270.59a13,13,0,0,0-2.15-.27,3.68,3.68,0,0,1,2.43,3.55s-.09,5.44-4.55,5.95a5,5,0,0,0,3.35.75c4.67-.35,4.76-6,4.76-6S297.91,271.48,293.75,270.59Z"/><path class="cls-8" d="M297,276.49s3.87,1.22,4,4.5-1.12,10.81-6.13,10.26-5.26-2.77-5.78-4.7S287,273.7,297,276.49Z"/><path class="cls-12" d="M291.16,288l-2,8.47c-.32,1.4,2.32,5.76,4.92,4.48.76-.37.34-2.48.06-4.07l0-7.67Z"/><path class="cls-8" d="M294.12,293.81a5,5,0,0,1-2.84-4.27l2.83.81Z"/><path class="cls-14" d="M294.84,291.25c5,.55,6.25-7,6.13-10.26s-4-4.5-4-4.5a11.32,11.32,0,0,0-2.65-.44c1.35,1,3.44,2.61,4.11,4s-2.06,7.37-4,11.15Z"/><path class="cls-12" d="M293.74,282.36l-1.85,2.83a5,5,0,0,0,1.22,6.84,4.28,4.28,0,0,0,6.36-1.57c1.41-2.37.61-5.32.48-6.73C299.65,280.5,296.11,279.26,293.74,282.36Z"/><path class="cls-10" d="M295.22,288.79a7.93,7.93,0,0,1,3.22.06S297.31,289.89,295.22,288.79Z"/><path class="cls-13" d="M293.82,291.16a6.62,6.62,0,0,0,3.61.56,6.94,6.94,0,0,0,2.11-1.39.54.54,0,0,0-.07.13,4.28,4.28,0,0,1-6.36,1.57,4.8,4.8,0,0,1-2.06-4A6.17,6.17,0,0,0,293.82,291.16Z"/><path class="cls-12" d="M292.38,285.22a5.26,5.26,0,0,1,0-.89c.08-.56.06-1.41-.83-1.11-1.28.44-1.51,3.44-.16,3.85C292.43,287.37,292.44,286,292.38,285.22Z"/><path class="cls-12" d="M282.64,377.21a35.42,35.42,0,0,1-2,5c-.65.92-8.49-.57-8.28-1.9s3.37-4.79,3.4-6.52S286.38,371.32,282.64,377.21Z"/><path class="cls-23" d="M362.48,474.64a2.44,2.44,0,0,1-3.24-.93l-127.74-142a2.44,2.44,0,0,1,4.22-2.47l127.74,142a2.44,2.44,0,0,1-.87,3.34Z"/><path class="cls-12" d="M276.4,298.72c-12,1.36-31.31,13-38.08,26.08s9.83,37,20.48,42.34-5.9-34.8-4.51-39.19c1.19-3.77,19.55-7.58,26.68-17.85C285.26,303.93,282.61,298,276.4,298.72Z"/><path class="cls-12" d="M261.43,361.24s1.75-1.46,4.61.55c1.87,1.31,4.42,6.08,4.42,6.08s-3-1.11-3.44-.24,2,4.43,1.39,5.13c-2,2.14-8.07-2.57-9.37-6.87S261.43,361.24,261.43,361.24Z"/><path class="cls-13" d="M281,310.1c2.46-3.54,2.64-7,1.17-9.16-.77,1.58-2.16,5.95-7.54,6.26-3.48.2-8.54,9.07-12.42,10.75-4.17,1.82-7.16.06-8.65,1.33-2.87,2.46-6,7.38-4.13,15.67s5,25.11,13,29.63c.4-8.7-9.15-33.26-8.08-36.63C255.48,324.18,273.84,320.37,281,310.1Z"/><path class="cls-12" d="M310.25,349.88c-1.72,7.6-26.85,29.61-31.26,26.4-5.42-4,10.36-26.32,18.2-33.54C307.64,333.12,312,342.35,310.25,349.88Z"/><path class="cls-13" d="M310.25,349.88c.94-4.14.5-10.84-2.23-12.59.07,2.25-.67,7.65-2.58,10.49-3.23,4.79-12.91,7.1-18.44,17.12-4.18,7.56-6.93,9-7.38,11.64C285.39,377.74,308.6,357.17,310.25,349.88Z"/><path class="cls-12" d="M277.39,372.79s-2.38.17-3.25,1.29-.29,2.86-.62,3.74,1.39,1.23,1.59-.28,3.2-.61,3.45-1.68S278,372.72,277.39,372.79Z"/><path class="cls-8" d="M295.22,473.62c-1.9-.87-3.24-1.22-4.54-2.62a1.36,1.36,0,0,1-.22-.42,1.41,1.41,0,0,0-1.88-.84c-1.77.75-5.1,1.22-5.85,2.42-1.23,2-1.53,4.62-.06,5.36,2.8,1.42,19.23.74,19-.84C301.46,475.73,298.07,474.93,295.22,473.62Z"/><path class="cls-8" d="M272.86,474.3c-1.9-.87-3.25-1.23-4.54-2.63a1.25,1.25,0,0,1-.23-.42,1.4,1.4,0,0,0-1.87-.84c-1.77.75-5.11,1.22-5.85,2.43-1.23,2-1.53,4.61-.06,5.35,2.79,1.42,19.22.74,18.95-.84C279.1,476.41,275.71,475.6,272.86,474.3Z"/><path class="cls-8" d="M353.39,472.63H388a1.53,1.53,0,0,1,1.31.73c1.29,2.07,4.61,8.17,2.41,12.72,0,0-3.46-9.22-5.48-9.41,0,0,1.54,6.91-1.34,9.41,0,0-1.44-8.07-5.19-9.13,0,0,1.06,6.25-.19,9.13,0,0-3.65-9.61-6.25-9.61,0,0,1.54,6.73.48,9.61,0,0-5.19-9.35-8.46-10.1,0,0,2.41,6.16,0,10.1,0,0-3.45-9.73-6.82-10.1,0,0,1.4,8.28-.65,10.1L352,474.9A1.55,1.55,0,0,1,353.39,472.63Z"/><path class="cls-18" d="M282.55,323.42l13.85.69s-1.48,6.52-7.26,6.61S282.55,323.42,282.55,323.42Z"/><path class="cls-3" d="M863.12,133h143.25c1.54,0,2.66-3,2.26-6-1.33-10.06-5.62-30-19.15-37.47-21.59-12-28.05,14-37.87,16-7.88,1.58-12.08-10.56-28.2-4.44s-12.64,16.17-17.21,20.92c-6.32,6.58-25.62-13.27-35.84-7.39C861.65,119.54,861.52,133,863.12,133Z"/><path class="cls-4" d="M1008.63,127a92.24,92.24,0,0,0-2-10.46c-5.88-3.61-13.64-5.41-17.6-6.85-7.64-2.78-12.1-.6-27.24,7s-21.35-3.59-35.84-2.33-10,11.41-19,12.68-23.74-1.27-35-2.53c-5.28-.6-8.07,1.24-9.55,3.36-.37,2.93,0,5.12.64,5.12h143.25C1007.91,133,1009,130,1008.63,127Z"/><path class="cls-3" d="M598.24,53.85c-3.81,0-6.47-6.06-4.89-11.42,2.72-9.21,10.53-10.74,17.22-10.17a17.8,17.8,0,0,0,16-7.42c2.28-3.21,5.07-5.67,7.87-4.55A34.9,34.9,0,0,1,638.14,22a13.24,13.24,0,0,0,14.15-.81c5.69-4.18,14.54-8.74,24.88-7.28a17.22,17.22,0,0,0,13.57-4c7.63-6.48,21.44-14.64,35.57-5.2,14,9.33,19.2,28.23,21.14,40,.86,5.22-1.7,10.28-5.2,10.25Z"/><path class="cls-4" d="M747.52,48.36a43.27,43.27,0,0,1-5-8.53c-4.41-11.07-17.94-12-26.81-14.18s-12.18,2.44-23,4.66-19.72.22-43,.22-9.53,8.86-22.32,12.62-20.44-4-29.58-.22a7.5,7.5,0,0,0-4.7,4.81c.6,3.39,2.63,6.09,5.17,6.11l144,1.19C744.93,55.06,747.06,52.09,747.52,48.36Z"/><path class="cls-3" d="M124.12,103.3H267c1.53,0,2.64-2.24,2.24-4.51-1.32-7.57-5.6-22.53-19.09-28.17-21.53-9-25,9.08-34.67,3.87-11.75-6.31,3.2-44.06-37.47-36-16.41,3.24-5.19,33.4-16.61,38.85-5.3,2.53-11.86-1.18-22.06,3.24-8.68,3.76-15.47,9.51-17.39,18C121.39,100.88,122.52,103.3,124.12,103.3Z"/><path class="cls-4" d="M269.21,98.79a51,51,0,0,0-4.09-13.05,73.6,73.6,0,0,0-19.63-3.24c-18.43-.93-19.63,10.81-36.05,2.6s-12.82-22.63-25.23-21.43S175.79,82.9,171,88.5s-18.43,2-36.05,4.49c-5.93.83-10,2.63-12.78,4.66-.08.3-.17.6-.24.91-.53,2.32.6,4.74,2.2,4.74H267C268.5,103.3,269.61,101.06,269.21,98.79Z"/></g></g></svg>